<?xml version="1.0" encoding="UTF-8" standalone="no"?>
<svg
   version="1.1"
   id="Capa_1"
   x="16px"
   y="16px"
   width="16px"
   height="16px"
   viewBox="0 0 16 16"
   style="enable-background:new 0 0 16 16;"
   xml:space="preserve"
   sodipodi:docname="help.svg"
   inkscape:version="1.1.1 (3bf5ae0d25, 2021-09-20)"
   xmlns:inkscape="http://www.inkscape.org/namespaces/inkscape"
   xmlns:sodipodi="http://sodipodi.sourceforge.net/DTD/sodipodi-0.dtd"
   xmlns="http://www.w3.org/2000/svg"
   xmlns:svg="http://www.w3.org/2000/svg"><defs
   id="defs45" /><sodipodi:namedview
   id="namedview43"
   pagecolor="#ffffff"
   bordercolor="#666666"
   borderopacity="1.0"
   inkscape:pageshadow="2"
   inkscape:pageopacity="0.0"
   inkscape:pagecheckerboard="0"
   showgrid="false"
   inkscape:zoom="8.32"
   inkscape:cx="75.300481"
   inkscape:cy="36.71875"
   inkscape:window-width="1920"
   inkscape:window-height="1017"
   inkscape:window-x="1672"
   inkscape:window-y="-8"
   inkscape:window-maximized="1"
   inkscape:current-layer="Capa_1" />
<g
   id="g10"
   transform="scale(0.04)">
	<g
   id="g8">
		<path
   d="M 199.996,0 C 89.719,0 0,89.72 0,200 0,310.279 89.719,400 199.996,400 310.281,400 400,310.279 400,200 400,89.72 310.281,0 199.996,0 Z m 0,373.77 C 104.187,373.77 26.23,295.816 26.23,200 c 0,-95.817 77.957,-173.769 173.766,-173.769 95.816,0 173.772,77.953 173.772,173.769 0.001,95.816 -77.956,173.77 -173.772,173.77 z"
   id="path2" />
		<path
   d="m 199.996,91.382 c -35.176,0 -63.789,28.616 -63.789,63.793 0,7.243 5.871,13.115 13.113,13.115 7.246,0 13.117,-5.873 13.117,-13.115 0,-20.71 16.848,-37.562 37.559,-37.562 20.719,0 37.566,16.852 37.566,37.562 0,20.714 -16.849,37.566 -37.566,37.566 -7.242,0 -13.113,5.873 -13.113,13.114 v 45.684 c 0,7.243 5.871,13.115 13.113,13.115 7.242,0 13.117,-5.872 13.117,-13.115 v -33.938 c 28.905,-6.064 50.68,-31.746 50.68,-62.427 0,-35.176 -28.617,-63.792 -63.797,-63.792 z"
   id="path4" />
		<path
   d="m 200.004,273.738 c -9.086,0 -16.465,7.371 -16.465,16.462 0,9.091 7.379,16.465 16.465,16.465 9.094,0 16.457,-7.374 16.457,-16.465 0,-9.091 -7.363,-16.462 -16.457,-16.462 z"
   id="path6" />
	</g>
</g>
<g
   id="g12"
   transform="scale(0.25)">
</g>
<g
   id="g14"
   transform="scale(0.25)">
</g>
<g
   id="g16"
   transform="scale(0.25)">
</g>
<g
   id="g18"
   transform="scale(0.25)">
</g>
<g
   id="g20"
   transform="scale(0.25)">
</g>
<g
   id="g22"
   transform="scale(0.25)">
</g>
<g
   id="g24"
   transform="scale(0.25)">
</g>
<g
   id="g26"
   transform="scale(0.25)">
</g>
<g
   id="g28"
   transform="scale(0.25)">
</g>
<g
   id="g30"
   transform="scale(0.25)">
</g>
<g
   id="g32"
   transform="scale(0.25)">
</g>
<g
   id="g34"
   transform="scale(0.25)">
</g>
<g
   id="g36"
   transform="scale(0.25)">
</g>
<g
   id="g38"
   transform="scale(0.25)">
</g>
<g
   id="g40"
   transform="scale(0.25)">
</g>
<path
   style="fill:#f9f9f9;stroke-width:0.030048"
   d="M 7.1892363,14.888594 C 5.6321545,14.690426 4.2250507,14.006931 3.1283148,12.91602 1.9942832,11.788011 1.3206312,10.411001 1.1093499,8.7890625 1.0573023,8.3895093 1.0648916,7.5323957 1.1242493,7.1063703 1.4058823,5.085016 2.488412,3.3580433 4.1876552,2.219281 5.3033172,1.4716108 6.6175502,1.0762048 7.9927885,1.0744515 c 0.7222005,-9.2e-4 1.1914505,0.062351 1.876082,0.2529647 2.3706405,0.6600275 4.2494185,2.5908163 4.8536725,4.9880395 0.15452,0.6130178 0.195392,0.9638795 0.195392,1.6773328 0,1.1622298 -0.207187,2.0577995 -0.708944,3.0644345 -1.02781,2.062009 -2.88204,3.419583 -5.194568,3.803202 -0.4053082,0.06724 -1.3978645,0.08255 -1.8251867,0.02817 z m 1.1366995,-2.690411 c 0.209152,-0.106701 0.3388072,-0.330682 0.338408,-0.584601 -8e-4,-0.512344 -0.4928168,-0.82168 -0.9605285,-0.603902 -0.4225635,0.196757 -0.5025178,0.763225 -0.1544355,1.09416 0.196521,0.18684 0.5185587,0.225964 0.776556,0.09434 z M 8.2216373,10.549485 c 0.068024,-0.03089 0.1626757,-0.107259 0.2103365,-0.169707 l 0.086656,-0.113542 0.00892,-0.7729335 0.00892,-0.7729332 0.1413237,-0.035469 C 8.860391,8.63907 9.2699633,8.447079 9.4553293,8.32042 9.9510538,7.9816965 10.329549,7.438433 10.489578,6.8359375 10.571498,6.527515 10.579378,5.9455922 10.505778,5.6391552 10.31885,4.8608315 9.8103478,4.2281797 9.1019013,3.8925235 7.4688373,3.1187918 5.5557883,4.2355523 5.4484828,6.0252413 c -0.016102,0.2685505 -0.011185,0.3145427 0.0455,0.4256545 0.087023,0.1705787 0.2186668,0.2577045 0.4138363,0.2738897 0.2027835,0.016815 0.2841685,-0.00441 0.4042382,-0.1054447 0.127828,-0.10756 0.2069038,-0.2889848 0.2077165,-0.4765673 0.00208,-0.480535 0.3471543,-1.0120327 0.8148258,-1.2550365 0.8832447,-0.4589368 1.973343,0.107813 2.133666,1.1093078 0.136061,0.8499362 -0.5881868,1.695263 -1.4524443,1.695263 -0.1766512,0 -0.372051,0.1040287 -0.4682235,0.249277 l -0.080649,0.1218045 -0.00899,1.0151885 c -0.0059,0.6661925 0.00228,1.0569922 0.023752,1.1367892 0.083086,0.308558 0.4406608,0.470023 0.73993,0.334119 z"
   id="path914" /><path
   style="fill:#f9f9f9;stroke-width:0.030048"
   d="m 7.797476,14.900227 c -0.3801083,-0.01025 -0.7681193,-0.03446 -0.8622468,-0.0538 -0.094128,-0.01934 -0.2090615,-0.04073 -0.2554087,-0.04755 -0.102917,-0.01513 -0.7164585,-0.179176 -0.8204455,-0.219369 -0.041316,-0.01597 -0.08512,-0.03102 -0.097341,-0.03346 -0.1479232,-0.02944 -1.107299,-0.458332 -1.1819117,-0.528382 -0.017742,-0.01666 -0.084981,-0.05733 -0.1494203,-0.09038 -0.064439,-0.03305 -0.141423,-0.0816 -0.1710742,-0.107874 -0.029651,-0.02628 -0.090868,-0.06684 -0.1360368,-0.09014 -0.045169,-0.0233 -0.1157907,-0.07279 -0.156938,-0.109974 -0.041147,-0.03719 -0.083789,-0.06761 -0.09476,-0.06761 -0.01097,0 -0.070759,-0.04395 -0.1328637,-0.09766 C 3.6769255,13.400316 3.5573078,13.296996 3.4732128,13.224427 3.2219905,13.00764 2.9966112,12.788505 2.8799895,12.647641 2.8196028,12.574702 2.72349,12.464713 2.6664055,12.403223 2.6093212,12.341732 2.5114857,12.217183 2.4489938,12.126447 2.3865017,12.035712 2.3102137,11.934469 2.2794647,11.901464 c -0.030749,-0.03301 -0.055907,-0.06658 -0.055907,-0.07461 0,-0.008 -0.074017,-0.133672 -0.164481,-0.279201 C 1.5840541,10.783487 1.2234472,9.7087148 1.1133523,8.7289662 1.0805271,8.4368503 1.0717274,7.7726382 1.0963087,7.4424975 1.1183347,7.146683 1.1351227,7.028516 1.2011725,6.7044045 c 0.032425,-0.1591133 0.06411,-0.3163048 0.070411,-0.3493148 0.0063,-0.033009 0.01912,-0.0803 0.028488,-0.1050897 0.00937,-0.02479 0.045807,-0.143812 0.080977,-0.264494 0.03517,-0.1206818 0.1048574,-0.3235063 0.1548613,-0.4507213 0.050004,-0.1272145 0.09421,-0.2448207 0.098235,-0.2613472 0.014941,-0.061341 0.3231626,-0.651808 0.4392193,-0.8414223 0.06608,-0.107962 0.1201458,-0.2095782 0.1201458,-0.2258135 0,-0.016235 0.013522,-0.029519 0.030048,-0.029519 0.016526,0 0.030048,-0.014112 0.030048,-0.031359 0,-0.017247 0.033804,-0.067816 0.07512,-0.1123732 0.041316,-0.044557 0.07512,-0.096927 0.07512,-0.116377 0,-0.01945 0.010141,-0.03987 0.022536,-0.045379 C 2.4387769,3.8656845 2.4869539,3.8138525 2.5334428,3.75601 2.5799308,3.698167 2.6543003,3.6063902 2.6987073,3.5520613 2.864753,3.3489143 3.4795303,2.7598613 3.7259613,2.5677905 3.866436,2.458303 4.0118965,2.3428212 4.0492068,2.3111641 c 0.03731,-0.031657 0.081256,-0.057558 0.097656,-0.057558 0.0164,0 0.029819,-0.013522 0.029819,-0.030048 0,-0.016527 0.013282,-0.030048 0.029519,-0.030048 0.016235,0 0.114267,-0.051835 0.2178485,-0.1151895 0.1989488,-0.1216846 0.8401193,-0.4557239 0.8747373,-0.4557239 0.011207,0 0.077696,-0.026093 0.147754,-0.057985 C 5.8190361,1.3950426 6.7823166,1.159459 7.2716338,1.11826 c 0.463757,-0.039047 1.4619625,-0.019275 1.78657,0.035388 0.8974543,0.1511276 1.7921862,0.4763389 2.4922252,0.9058575 0.147058,0.090229 0.272698,0.1640531 0.279202,0.1640531 0.0065,0 0.03883,0.025158 0.07183,0.055907 0.033,0.030749 0.135119,0.1076368 0.226919,0.170862 0.0918,0.063225 0.209588,0.1548454 0.261751,0.2036007 0.05216,0.048755 0.153451,0.1366915 0.225085,0.1954145 0.193852,0.1589143 0.649122,0.6406908 0.799499,0.8460485 0.04862,0.066394 0.09932,0.1207153 0.112681,0.1207153 0.01335,0 0.02428,0.010678 0.02428,0.02373 0,0.019448 0.392719,0.6366654 0.472773,0.743036 0.02964,0.039381 0.308305,0.6107017 0.30771,0.6308642 -2.41e-4,0.00839 0.01879,0.052473 0.04231,0.097955 0.106412,0.2057788 0.386202,1.1037515 0.428113,1.3740078 0.0077,0.049579 0.02832,0.164513 0.04584,0.2554085 0.03688,0.1912797 0.07976,1.5417605 0.05137,1.6179732 -0.01049,0.02816 -0.02613,0.152274 -0.03476,0.2758083 -0.03766,0.5392377 -0.269506,1.3795234 -0.540192,1.9578684 -0.0749,0.160025 -0.128509,0.298622 -0.119138,0.307993 0.0094,0.0094 4.75e-4,0.01704 -0.01979,0.01704 -0.02026,0 -0.02847,0.01352 -0.01826,0.03005 0.01022,0.01653 0.0035,0.03005 -0.01502,0.03005 -0.01848,0 -0.02595,0.01237 -0.01661,0.02748 0.0093,0.01511 0.006,0.03202 -0.0074,0.03756 -0.01342,0.0055 -0.103652,0.143497 -0.200522,0.306564 -0.09687,0.163067 -0.234715,0.376071 -0.306321,0.473341 -0.07161,0.09727 -0.130195,0.183579 -0.130195,0.191796 0,0.0082 -0.02366,0.03946 -0.05258,0.06942 -0.02892,0.02996 -0.165222,0.184378 -0.302891,0.343143 -0.280498,0.323481 -0.694241,0.696455 -1.08273,0.97604 -0.142731,0.10272 -0.27365,0.198704 -0.290931,0.213298 -0.01728,0.0146 -0.04432,0.03196 -0.0601,0.0386 -0.09004,0.03788 -0.452811,0.2539 -0.471425,0.280727 -0.01362,0.01963 -0.02243,0.02031 -0.02299,0.0018 -6.25e-4,-0.02003 -0.0083,-0.02003 -0.023,0 -0.06766,0.09209 -1.4149971,0.587185 -1.7197919,0.631957 -0.041316,0.0061 -0.1494892,0.02632 -0.2403845,0.04501 -0.090896,0.01868 -0.2328727,0.04038 -0.315505,0.04821 -0.082632,0.0078 -0.2110877,0.02365 -0.2854567,0.03515 -0.074369,0.0115 -0.4462138,0.01253 -0.826322,0.0023 z M 8.2415313,12.229481 C 8.5163625,12.126653 8.6621427,11.908393 8.662938,11.598558 8.664208,11.103029 8.1478732,10.79123 7.6975902,11.015616 c -0.3865577,0.19263 -0.4900377,0.701503 -0.2079777,1.022751 0.1286177,0.146487 0.3261502,0.242902 0.509561,0.248714 0.044828,0.0014 0.1538887,-0.0245 0.2423578,-0.0576 z M 8.151362,10.575116 c 0.1258495,-0.03495 0.3221958,-0.19139 0.3221958,-0.256714 0,-0.02308 0.013523,-0.04196 0.030048,-0.04196 0.019247,0 0.03014,-0.2781157 0.030305,-0.7737377 l 2.75e-4,-0.773738 0.1875435,-0.05813 C 9.724123,8.3601325 10.4314,7.514118 10.544596,6.4903847 10.572326,6.2395957 10.555346,5.8369405 10.509116,5.6490385 10.322372,4.890005 9.8670078,4.299361 9.1924423,3.9412065 8.7678003,3.7157465 8.4051998,3.633771 7.9026488,3.6496143 7.137307,3.6737418 6.42367,4.046469 5.944238,4.672476 5.631168,5.08126 5.4387065,5.641009 5.4387065,6.1427487 c 0,0.3665568 0.203649,0.586527 0.5439337,0.5875263 0.2772241,8.25e-4 0.4866845,-0.1896845 0.5222423,-0.4749643 0.014965,-0.1200632 0.064001,-0.4026697 0.086949,-0.501104 0.00385,-0.016528 0.030277,-0.073994 0.058721,-0.1277042 0.028444,-0.053711 0.041227,-0.097863 0.028408,-0.098116 -0.01282,-2.405e-4 -0.00978,-0.010395 0.00674,-0.022535 0.041333,-0.030367 0.2253605,-0.2695405 0.2253605,-0.292893 0,-0.02149 0.055578,-0.075337 0.1236598,-0.119808 C 7.0600218,5.0766227 7.1473413,5.018672 7.2287645,4.9643682 7.608457,4.711138 8.219299,4.6735135 8.6162893,4.8789047 c 0.053711,0.027789 0.097656,0.043549 0.097656,0.035023 0,-0.021978 0.1045041,0.063679 0.3036485,0.2488833 0.3891811,0.361937 0.5482748,0.9443315 0.3930501,1.4388387 -0.032178,0.1025113 -0.051108,0.1937825 -0.042065,0.2028245 0.00904,0.00904 -1.203e-4,0.01644 -0.02039,0.01644 -0.020257,0 -0.028472,0.013523 -0.018258,0.030048 0.010215,0.016528 0.002,0.030048 -0.01826,0.030048 -0.020255,0 -0.029234,0.00759 -0.01995,0.016877 0.00928,0.00928 -0.01564,0.051967 -0.055387,0.094854 -0.039746,0.042886 -0.066921,0.083318 -0.060391,0.08985 0.035502,0.035501 -0.6274499,0.55773 -0.6651854,0.5239882 -0.00433,-0.00387 -0.058418,0.00753 -0.1201925,0.025326 -0.061775,0.017803 -0.1866868,0.03967 -0.2775823,0.048597 -0.2819383,0.027686 -0.3870103,0.068107 -0.5120995,0.1970032 -0.065087,0.067068 -0.11091,0.1339655 -0.101828,0.1486605 0.00908,0.014695 0.00208,0.026718 -0.015547,0.026718 -0.022267,0 -0.029694,0.3326817 -0.02431,1.0892427 0.00824,1.1580052 0.00748,1.1518012 0.1593862,1.3037052 0.1415343,0.141535 0.3267893,0.186488 0.5327803,0.129284 z"
   id="path990" /></svg>
