<?xml version="1.0" encoding="UTF-8" standalone="no"?>
<svg
   version="1.1"
   id="Capa_1"
   x="64px"
   y="64px"
   viewBox="0 0 64 64"
   style="enable-background:new 0 0 64 64;"
   xml:space="preserve"
   sodipodi:docname="search_image.svg"
   inkscape:version="1.1.1 (3bf5ae0d25, 2021-09-20)"
   xmlns:inkscape="http://www.inkscape.org/namespaces/inkscape"
   xmlns:sodipodi="http://sodipodi.sourceforge.net/DTD/sodipodi-0.dtd"
   xmlns="http://www.w3.org/2000/svg"
   xmlns:svg="http://www.w3.org/2000/svg"><defs
   id="defs61">
	
	

		
	
		
		
		
		
		
	
			
			
		</defs><sodipodi:namedview
   id="namedview59"
   pagecolor="#ffffff"
   bordercolor="#666666"
   borderopacity="1.0"
   inkscape:pageshadow="2"
   inkscape:pageopacity="0.0"
   inkscape:pagecheckerboard="0"
   showgrid="false"
   inkscape:zoom="14.101695"
   inkscape:cx="29.464543"
   inkscape:cy="23.86238"
   inkscape:window-width="1920"
   inkscape:window-height="1017"
   inkscape:window-x="1672"
   inkscape:window-y="-8"
   inkscape:window-maximized="1"
   inkscape:current-layer="Capa_1" />















<g
   id="g1414"
   transform="matrix(1.122807,0,0,1.1363636,0,3.5909092)"><g
     id="g1387"><g
       id="g1381"><g
         id="g6">
			<rect
   x="1"
   y="4"
   style="fill:#ecf0f1"
   width="55"
   height="42"
   id="rect2" />
			<path
   style="fill:#545e73"
   d="M 57,47 H 0 V 3 H 57 Z M 2,45 H 55 V 5 H 2 Z"
   id="path4" />
		</g></g></g><rect
     x="5"
     y="8"
     style="fill:#00d4ff;fill-opacity:1"
     width="47"
     height="34"
     id="rect8" /><path
     style="fill:#00d4ff;fill-opacity:1"
     d="M 53,43 H 4 V 7 H 53 Z M 6,41 H 51 V 9 H 6 Z"
     id="path10" /><circle
     style="fill:#f3d55a"
     cx="15"
     cy="16.569"
     r="4.5689998"
     id="circle14" /><polygon
     style="fill:#11a085"
     points="51,41 51,32.111 50,31 38,20 27.5,31.5 32.983,36.983 37,41 "
     id="polygon16" /><polygon
     style="fill:#26b999"
     points="22.017,26.017 6,40 6,41 37,41 32.983,36.983 "
     id="polygon18" /><g
     id="g28">
</g><g
     id="g30">
</g><g
     id="g32">
</g><g
     id="g34">
</g><g
     id="g36">
</g><g
     id="g38">
</g><g
     id="g40">
</g><g
     id="g42">
</g><g
     id="g44">
</g><g
     id="g46">
</g><g
     id="g48">
</g><g
     id="g50">
</g><g
     id="g52">
</g><g
     id="g54">
</g><g
     id="g56">
</g></g>
</svg>
