<?xml version="1.0" standalone="no"?>
<!DOCTYPE svg PUBLIC "-//W3C//DTD SVG 20010904//EN"
 "http://www.w3.org/TR/2001/REC-SVG-20010904/DTD/svg10.dtd">
<svg version="1.0" xmlns="http://www.w3.org/2000/svg"
 width="360.000000pt" height="360.000000pt" viewBox="0 0 360.000000 360.000000"
 preserveAspectRatio="xMidYMid meet">
<metadata>
Created by potrace 1.14, written by Peter Selinger 2001-2017
</metadata>
<g transform="translate(0.000000,360.000000) scale(0.100000,-0.100000)"
fill="#000000" stroke="none">
<path d="M250 3540 l0 -40 -40 0 c-39 0 -40 -1 -40 -35 0 -33 -2 -35 -35 -35
l-35 0 0 -1355 0 -1355 35 0 c34 0 35 -1 35 -40 l0 -40 40 0 40 0 0 -40 0 -40
118 0 c64 0 185 -1 267 -3 l150 -2 3 -38 3 -38 80 3 79 3 0 -37 0 -38 115 0
115 0 0 -80 0 -80 -115 0 -115 0 0 -40 0 -40 -80 0 -80 0 0 -35 0 -35 -75 0
-75 0 0 -40 0 -40 1160 0 1160 0 0 40 0 40 -75 0 -75 0 0 35 0 35 -80 0 -80 0
-1 33 c-1 17 -1 35 0 40 0 4 -51 7 -114 7 l-115 0 0 80 0 80 115 0 115 0 0 35
0 35 80 0 80 0 0 39 0 40 83 3 c45 2 102 1 127 -2 25 -3 79 -3 120 0 41 3 105
3 143 0 l67 -5 0 43 0 42 40 0 40 0 0 40 c0 37 2 40 28 41 15 1 30 1 35 0 4 0
7 609 7 1354 l0 1355 -35 0 c-33 0 -35 2 -35 35 0 34 -1 35 -40 35 l-40 0 0
40 0 40 -1550 0 -1550 0 0 -40z"/>
</g>
</svg>
