<?xml version="1.0" encoding="UTF-8" standalone="no"?>
<svg
   viewBox="0 0 5 3"
   version="1.1"
   id="svg8"
   sodipodi:docname="cv.svg"
   inkscape:version="1.1.1 (3bf5ae0d25, 2021-09-20)"
   xmlns:inkscape="http://www.inkscape.org/namespaces/inkscape"
   xmlns:sodipodi="http://sodipodi.sourceforge.net/DTD/sodipodi-0.dtd"
   xmlns="http://www.w3.org/2000/svg"
   xmlns:svg="http://www.w3.org/2000/svg">
  <defs
     id="defs12" />
  <sodipodi:namedview
     id="namedview10"
     pagecolor="#ffffff"
     bordercolor="#666666"
     borderopacity="1.0"
     inkscape:pageshadow="2"
     inkscape:pageopacity="0.0"
     inkscape:pagecheckerboard="0"
     showgrid="false"
     inkscape:zoom="149.62379"
     inkscape:cx="3.1378699"
     inkscape:cy="0.79866976"
     inkscape:window-width="1920"
     inkscape:window-height="1017"
     inkscape:window-x="1672"
     inkscape:window-y="-8"
     inkscape:window-maximized="1"
     inkscape:current-layer="svg8" />
  <path
     fill="#FFB81C"
     d="M 0,0 H 5 V 3 H 0 Z"
     id="path6"
     style="fill:#ffdf00;fill-opacity:1;stroke-width:1.73205" />
  <path
     class="fil1"
     d="M 3.224825,0.44556875 3.3662493,0.30307994 V 0.44556875 H 3.5076738 L 3.3662493,0.58805756 3.5076738,0.73054636 H 3.3662493 V 0.87301441 L 3.224825,0.7305256 3.0834252,0.87301441 V 0.7305256 H 2.9420008 L 3.0834252,0.58805756 2.9420008,0.44556875 H 3.0834006 V 0.30307994 Z m -0.091424,0.0503687 v -0.0712548 l 0.091424,0.0920995 0.091424,-0.0920797 v 0.0712335 h 0.070724 l -0.091424,0.0921209 0.0914,0.0920782 H 3.316247 v 0.0712548 L 3.224823,0.65929035 3.133399,0.75138985 V 0.68013505 H 3.062697 L 3.154124,0.58805685 3.062697,0.49593595 Z"
     id="path9"
     style="clip-rule:evenodd;fill:#a2260b;fill-rule:evenodd;stroke-width:2.50936e-08;image-rendering:optimizeQuality;shape-rendering:geometricPrecision;text-rendering:geometricPrecision" />
  <path
     class="fil1"
     d="M 1.7751496,0.44556875 1.9165741,0.30307994 V 0.44556875 H 2.0579983 L 1.9165741,0.58805756 2.0579983,0.73054636 1.9165741,0.73052147 1.9165984,0.87301028 1.7751741,0.73052147 1.6337496,0.87301028 V 0.73052147 H 1.4923251 L 1.6337496,0.58803267 1.4923251,0.44554386 H 1.6337496 V 0.30307582 Z m -0.091424,0.0503475 v -0.0712335 l 0.091424,0.0920995 0.091427,-0.0920995 v 0.0712335 h 0.070722 l -0.091427,0.0920995 0.0914,0.0921209 h -0.070699 v 0.0712335 l -0.0914,-0.0920797 -0.09145,0.0921209 V 0.6801566 h -0.07068 l 0.0914,-0.0921209 -0.091424,-0.0921209 z"
     id="path11"
     style="clip-rule:evenodd;fill:#a2260b;fill-rule:evenodd;stroke-width:2.50936e-08;image-rendering:optimizeQuality;shape-rendering:geometricPrecision;text-rendering:geometricPrecision" />
  <path
     class="fil1"
     d="M 2.5000003,0.14248881 2.6414,0 2.6414252,0.14248881 H 2.782825 L 2.6414252,0.28497765 2.7828496,0.42746645 2.6414252,0.42744156 V 0.56993037 L 2.5000007,0.42744156 2.3585763,0.56993037 V 0.42744156 H 2.2171765 L 2.3585763,0.28495276 2.2171519,0.14246392 2.3585763,0.14248881 V 0 Z m -0.091425,0.0503475 v -0.0712335 l 0.091425,0.0920995 0.0914,-0.0920995 v 0.0712335 h 0.070723 l -0.091424,0.0921209 0.091424,0.0920995 h -0.070723 v 0.0712335 l -0.0914,-0.0920797 -0.091425,0.0921209 v -0.0712547 h -0.070701 l 0.0914,-0.0921209 -0.091424,-0.0920995 z"
     id="path13"
     style="clip-rule:evenodd;fill:#a2260b;fill-rule:evenodd;stroke-width:2.50936e-08;image-rendering:optimizeQuality;shape-rendering:geometricPrecision;text-rendering:geometricPrecision" />
  <polygon
     class="fil1"
     points="200000000,97000000 200000000,94000000 106500000,94000000 106500000,64461000 114142000,56819000 119092000,61769000 116263000,64597000 114849000,63183000 116263000,61769000 114142000,59648000 110606000,63183000 116970000,69547000 121213000,65305000 121213000,59648000 114142000,52577000 103500000,63219000 103500000,97000000 "
     id="polygon15"
     transform="matrix(2.5e-8,0,0,2.5187414e-8,0,-0.14842675)"
     style="clip-rule:evenodd;fill:#a2260b;fill-rule:evenodd;image-rendering:optimizeQuality;shape-rendering:geometricPrecision;text-rendering:geometricPrecision" />
  <polygon
     class="fil1"
     points="0,97000000 0,94000000 93500000,94000000 93500000,64461000 85858000,56819000 80908000,61769000 83737000,64597000 85151000,63183000 83737000,61769000 85858000,59648000 89393000,63183000 83029000,69547000 78787000,65305000 78787000,59647000 85858000,52576000 96500000,63219000 96500000,97000000 "
     id="polygon17"
     transform="matrix(2.5e-8,0,0,2.5187414e-8,0,-0.14842675)"
     style="clip-rule:evenodd;fill:#a2260b;fill-rule:evenodd;image-rendering:optimizeQuality;shape-rendering:geometricPrecision;text-rendering:geometricPrecision" />
  <polygon
     class="fil1"
     points="72423000,49041000 77373000,53991000 80201000,51162000 78787000,49748000 77373000,51162000 75252000,49041000 78787000,45505000 84444000,51162000 79494000,56112000 73838000,56112000 66766000,49041000 75252000,40556000 80909000,40556000 96500000,56147000 96500000,60390000 78787000,42677000 "
     id="polygon19"
     transform="matrix(2.5e-8,0,0,2.5187414e-8,0,-0.14842675)"
     style="clip-rule:evenodd;fill:#a2260b;fill-rule:evenodd;image-rendering:optimizeQuality;shape-rendering:geometricPrecision;text-rendering:geometricPrecision" />
  <polygon
     class="fil1"
     points="127577000,49041000 122627000,53991000 119799000,51162000 121213000,49748000 122627000,51162000 124748000,49041000 121213000,45505000 115556000,51162000 120506000,56112000 126162000,56112000 133234000,49041000 124748000,40556000 119091000,40556000 103500000,56147000 103500000,60390000 121213000,42677000 "
     id="polygon21"
     transform="matrix(2.5e-8,0,0,2.5187414e-8,0,-0.14842675)"
     style="clip-rule:evenodd;fill:#a2260b;fill-rule:evenodd;image-rendering:optimizeQuality;shape-rendering:geometricPrecision;text-rendering:geometricPrecision" />
  <polygon
     class="fil1"
     points="109192000,30656000 104243000,35606000 107071000,38434000 108485000,37020000 107071000,35606000 109192000,33485000 112728000,37020000 107071000,42677000 102121000,37727000 102121000,32071000 109192000,25000000 117677000,33485000 117677000,39142000 101500000,55319000 101500000,100000000 200000000,100000000 200000000,125000000 0,125000000 0,100000000 98500000,100000000 98500000,55319000 82323000,39142000 82323000,33485000 90808000,25000000 97879000,32071000 97879000,37727000 92929000,42677000 87272000,37020000 90808000,33485000 92929000,35606000 91515000,37020000 92929000,38434000 95757000,35606000 90808000,30656000 84444000,37020000 100000000,52576000 115556000,37020000 "
     id="polygon23"
     transform="matrix(2.5e-8,0,0,2.5187414e-8,0,-0.14842675)"
     style="clip-rule:evenodd;fill:#a2260b;fill-rule:evenodd;image-rendering:optimizeQuality;shape-rendering:geometricPrecision;text-rendering:geometricPrecision" />
</svg>
