<?xml version="1.0" encoding="UTF-8" standalone="no"?>
<!-- Created with Inkscape (http://www.inkscape.org/) -->
<svg id="svg3063" xmlns:rdf="http://www.w3.org/1999/02/22-rdf-syntax-ns#" xmlns="http://www.w3.org/2000/svg" height="600" width="900" version="1.1" xmlns:cc="http://creativecommons.org/ns#" xmlns:dc="http://purl.org/dc/elements/1.1/">
 <metadata id="metadata3068">
  <rdf:RDF>
   <cc:Work rdf:about="">
    <dc:format>image/svg+xml</dc:format>
    <dc:type rdf:resource="http://purl.org/dc/dcmitype/StillImage"/>
    <dc:title/>
   </cc:Work>
  </rdf:RDF>
 </metadata>
 <g id="layer1">
  <rect id="rect3017" height="600" width="450" y="0" x="0" fill="#000"/>
  <rect id="rect2227" fill-rule="evenodd" height="600" width="450" y="0" x="450" fill="#039"/>
  <rect id="rect2229" fill-rule="evenodd" height="200" width="450" y="200" x="450" fill="#FFF"/>
  <rect id="rect3019" height="206.25" width="450" y="0" x="0" fill="#FFF"/>
  <rect id="rect3021" height="187.5" width="450" y="0" x="0" fill="#007168"/>
  <rect id="rect3023" height="206.5" width="450" y="393.5" x="0" fill="#FFF"/>
  <rect id="rect3025" height="187.5" width="450" y="412.5" x="0" fill="#fce100"/>
  <path id="path2225" fill="#000" d="m293.6,391c-11.242-3.1767-25.547-13.675-25.547-18.749,0-7.382,24.69-22.986,43.46-27.466,22.764-5.4334,33.85-5.408,52.024,0.11938,9.3583,2.8462,21.035,5.1845,25.949,5.1961,9.0049,0.0222,28.566-7.6942,28.566-11.267,0-3.8712-36.273-15.037-79.167-24.369-101.23-22.025-114.23-23.404-134.39-14.257-17.026,7.7253-30.444,9.2606-43.392,4.9652-8.83-2.93-11.1-5.04-11.1-10.33,0-11.743,15.465-15.257,67.821-15.411,46.68-0.13743,52.681-1.6033,44.907-10.97-3.6663-4.4176-1.3741-6.6488,15.633-15.217,14.056-7.0811,19.139-7.3824,22.524-1.3351,3.6953,6.6031,9.6396,2.133,6.0594-4.5567-3.2055-5.9895-2.6518-6.4741,14.034-12.284,16.116-5.6115,24.855-5.6061,24.855,0.0167,0,2.419,1.5625,3.8653,3.4722,3.214,1.9097-0.65128,3.1042-3.744,2.6545-6.8728-0.65584-4.5625,1.7793-6.5736,12.3-10.158,13.91-4.7395,25.989-5.8457,26.06-2.3864,0.1953,9.5702,13.846,10.304,13.846,0.74446,0-5.416,9.9548-8.3833,28.125-8.3833,8.912,0,10.764,0.95581,10.764,5.5555,0,3.7037,1.8518,5.5556,5.5555,5.5556s5.5556-1.8519,5.5556-5.5556c0-4.9163,1.8376-5.5506,15.972-5.513,17.96,0.0478,24.532,2.8531,22.02,9.3993-1.1159,2.908-0.2047,4.447,2.6331,4.447,2.3867,0,5.0006-2.5279,5.8086-5.6176,1.5452-5.909,2.1102-5.9122,31.344-0.18186,8.5641,1.6787,9.6158,2.7994,8.8289,9.4082-1.0812,9.0816,6.4874,10.577,9.2634,1.8308,1.9478-6.1367,3.4895-6.0056,25.91,2.204,11.08,4.0573,11.93,5.0524,10.486,12.275-1.8765,9.3823,4.7041,11.079,9.3441,2.4088,3.314-6.1922,5.7056-5.597,25.751,6.4091,14.566,8.724,14.338,8.3808,10.409,15.722-1.9895,3.7174-1.7911,5.8478,0.6944,7.4563,1.9139,1.2386,25.355,2.2519,52.091,2.2519,49.865,0,61.111,2.0809,61.111,11.308,0,2.3229-5.8404,6.6818-13.194,9.8476-15.462,6.6559-30.36,5.4459-42.902-3.4844-6.0925-4.3382-10.588-5.353-18.348-4.1415-5.6531,0.88259-23.403,3.0145-39.445,4.7375-48.757,5.237-139.66,30.107-150.93,41.291-1.2755,1.2663,3.3934,4.4839,10.375,7.1504,12.443,4.7519,13.095,4.7173,32.875-1.7454,24.606-8.0396,39.597-8.0732,63.33-0.14188,18.275,6.1073,38.795,20.139,38.795,26.528,0,5.318-14.212,17.261-24.72,20.773-11.976,4.0026-37.508,4.049-55.914,0.10162-14.919-3.1996-19.232-5.1142-37.422-16.612-13.177-8.3292-41.086-20.517-52.948-23.122-8.8708-1.9484-41.017,9.8637-83.803,30.793-17.043,8.3369-23.563,9.9746-43.056,10.815-12.88,0.55536-28.222-0.49338-34.925-2.3873zm67.499-10.318c14.722-7.127,19.046-11.984,16.844-18.922-1.8874-5.9464-21.287-15.774-27.008-13.682-2.1589,0.78963-0.55689,2.1997,3.8243,3.3663,8.5484,2.2762,12.562,10.921,7.7577,16.71-1.7697,2.1323-11.417,6.6056-21.439,9.9406-13.886,4.621-22.15,5.7076-34.731,4.5667-17.603-1.5962-19.401-0.0528-4.4064,3.7834,14.711,3.7637,45.72,0.74301,59.159-5.7629zm247.22,1.6495c8.4842-5.559,7.617-9.2437-1.0801-4.5892-15.99,8.5578-62.865,1.245-74.512-11.624-3.9699-4.3867-4.0491-5.5704-0.5965-8.9176,2.1896-2.1227,10.231-5.8127,17.87-8.1999l13.889-4.3404-16.667,1.636c-18.683,1.834-29.944,7.4576-28.628,14.296,1.3359,6.9372,21.232,19.472,38.35,24.161,18.792,5.1478,41.452,4.0797,51.374-2.4218zm-122.21-68.87c36.82-12.273,78.803-23.106,100.91-26.038,7.9043-1.0485,14.368-2.6829,14.363-3.6319-0.01-0.949-3.7508-4.2255-8.3253-7.281-5.12-3.4199-8.3204-7.9582-8.3253-11.806-0.01-7.0767-3.3604-8.085-8.0582-2.4245-2.6729,3.2206-5.5817,2.9389-18.396-1.7814-10.236-3.7708-15.221-7.1461-15.221-10.307,0-7.8723-3.7047-8.9846-8.5462-2.5661-4.4452,5.8932-5.1152,5.9638-20.94,2.2085-14.082-3.3418-16.317-4.7458-16.127-10.13,0.2594-7.3511-5.9417-8.4576-7.7841-1.3889-1.0692,4.1024-3.9377,4.7142-18.38,3.9199-14.667-0.80669-17.112-1.6998-17.112-6.25,0-3.8109-1.9595-5.3088-6.9445-5.3088s-6.9444,1.4979-6.9444,5.3088c0,4.5502-2.4453,5.4433-17.112,6.25-14.605,0.80329-17.303,0.20934-18.415-4.0544-1.8652-7.1559-10.461-4.5674-9.6649,2.9103,0.5107,4.7953-1.4676,6.6059-9.7222,8.8985-5.6999,1.583-14.426,2.8851-19.391,2.8936-7.3012,0.0139-9.0278-1.0912-9.0278-5.7715,0-3.4009-1.4317-5.3054-3.4722-4.6188-1.9097,0.64253-3.1186,4.1842-2.6863,7.8704,0.67264,5.736-1.3294,7.564-13.889,12.681-12.677,5.1652-15.272,5.4489-19.06,2.0833-7.8113-6.9398-15.057-3.6165-7.8434,3.5973,2.2134,2.2134,0.175,5.0019-7.4386,10.175-6.8175,4.6326-9.0995,7.5189-6.5211,8.248,2.1815,0.61691,28.341,7.0771,58.133,14.356s62.292,16.072,72.222,19.54c9.9306,3.4682,19.931,5.6804,22.222,4.9162,2.2917-0.76423,19.167-6.3893,37.5-12.5zm-193.05-38.88c7.8935-4.9389,8.7594-6.2908,4.6034-7.1874-3.4732-0.74924-4.6731-2.8089-3.7323-6.4065,1.7136-6.5529-3.5882-6.9128-14.989-1.0173-9.5552,4.9412-8.3742,9.564,2.4761,9.6922,6.8079,0.0805,7.0411,0.41767,2.6138,3.7785-5.0588,3.8401-6.3688,7.2518-2.7778,7.2339,1.1458-0.006,6.4583-2.7478,11.806-6.0935zm322.45-5.2387c3.1829-3.1829,5.3704-6.1386,4.8611-6.5682-2.8038-2.3654-13.479-7.0892-16.021-7.0892-1.6282,0-2.9604,2.5-2.9604,5.5556s-1.4889,5.5556-3.3087,5.5556c-3.4579,0,5.9219,8.0908,9.5587,8.245,1.1459,0.0486,4.6875-2.5158,7.8704-5.6987zm-273.11-18.65c0.61341-1.8403-1.0169-3.346-3.623-3.346-3.764,0-4.0694-0.8059-1.4855-3.9194,4.9545-5.9698-1.0759-8.1165-12.349-4.396-10.799,3.5641-12.566,8.0777-4.0345,10.309,4.0548,1.0604,5.1613,2.9607,3.9487,6.7813-1.5765,4.967-1.1028,5.0706,7.3716,1.6127,4.981-2.0324,9.5582-5.201,10.172-7.0414zm228.43,4.5116c0-1.7894,2.0293-5.4959,4.5096-8.2366,4.2066-4.6482,4.0318-5.2008-2.6006-8.2228-8.6562-3.944-16.333-1.5806-14.065,4.33,0.9016,2.3495,0.2555,4.2718-1.4357,4.2718-5.4484,0-3.2708,5.6559,3.175,8.2468,8.5934,3.4541,10.417,3.386,10.417-0.38918zm-186.11-13.45c3.4554-2.2683,3.5232-3.1503,0.3972-5.1662-2.4353-1.5706-3.0748-4.6197-1.8068-8.6148,1.834-5.7786,1.353-6.0551-7.3416-4.2208-11.48,2.4219-16.178,6.3214-11.27,9.3543,1.9519,1.2063,2.7436,4.2732,1.763,6.8288-1.4088,3.6712-0.1245,4.6302,6.1559,4.5965,4.3648-0.0222,9.8111-1.2734,12.103-2.7778zm142.91,0.27979c0.8636-1.3973-0.0001-3.1289-1.9193-3.8479-2.4242-0.90821-1.7948-2.6074,2.0616-5.5657,6.8159-5.2284,5.0698-7.243-8.135-9.3858-9.9229-1.6102-10.164-1.4471-8.3764,5.6744,1.1599,4.6213,0.7019,7.3323-1.2386,7.3323-4.9398,0-3.544,5.0267,1.7822,6.4185,8.4918,2.2192,14.207,1.9932,15.826-0.62571zm-94.478-8.2795c0.8452-1.3677-0.6435-3.332-3.3083-4.3651-4.5955-1.7815-4.5969-2.0612-0.028-5.4268,6.2879-4.6312,3.4373-7.1658-8.0587-7.1658-6.3786,0-9.2593,1.2963-9.2593,4.1667,0,2.2917,1.25,4.1667,2.7778,4.1667,3.9982,0,3.4284,7.6079-0.6944,9.2714-1.9098,0.77056,1.1415,1.4998,6.7805,1.6204,5.639,0.1205,10.944-0.89972,11.79-2.2674zm48.791-0.29109c0-1.5278-1.25-2.7778-2.7778-2.7778s-2.7778-1.875-2.7778-4.1667,1.875-4.1666,4.1667-4.1666c2.2916,0,4.1666-1.25,4.1666-2.7778s-5-2.7778-11.111-2.7778c-10.577,0-14.386,3.2039-8.288,6.9724,1.5527,0.95961,2.1039,2.9084,1.2249,4.3306-0.8789,1.4222-0.8255,3.8358,0.1186,5.3636,2.2353,3.6167,15.278,3.6167,15.278,0z"/>
  <path id="path3027" fill="#d21034" d="M0.000013506,0v600l393.75-300z"/>
  <path id="path3029" fill="#fce100" d="m204.37,412.48-73.154-53.56-73.055,53.575,28.332-86.124-73.528-52.924,90.664,0.33187,27.612-86.284,27.701,86.33,90.593-0.40245-73.544,53.023z"/>
 </g>
</svg>
