<?xml version="1.0" encoding="UTF-8" standalone="no"?>
<svg
   version="1.1"
   preserveAspectRatio="none"
   x="0px"
   y="0px"
   width="480"
   height="320"
   viewBox="0 0 480 320"
   id="svg33"
   sodipodi:docname="dos.svg"
   inkscape:version="1.1.1 (3bf5ae0d25, 2021-09-20)"
   xmlns:inkscape="http://www.inkscape.org/namespaces/inkscape"
   xmlns:sodipodi="http://sodipodi.sourceforge.net/DTD/sodipodi-0.dtd"
   xmlns="http://www.w3.org/2000/svg"
   xmlns:svg="http://www.w3.org/2000/svg">
  <sodipodi:namedview
     id="namedview35"
     pagecolor="#ffffff"
     bordercolor="#666666"
     borderopacity="1.0"
     inkscape:pageshadow="2"
     inkscape:pageopacity="0.0"
     inkscape:pagecheckerboard="0"
     showgrid="false"
     inkscape:snap-page="true"
     inkscape:zoom="1.3866667"
     inkscape:cx="374.63942"
     inkscape:cy="113.58173"
     inkscape:window-width="1920"
     inkscape:window-height="1017"
     inkscape:window-x="1672"
     inkscape:window-y="-8"
     inkscape:window-maximized="1"
     inkscape:current-layer="svg33" />
  <defs
     id="defs2" />
  <path
     fill="#000000"
     stroke="none"
     d="m 320,304 v 16 h 96 v -16 h -96 m -16,-32 h -16 v 16 h 16 v -16 m 16,32 v -16 h -16 v 16 h 16 m -32,-48 h -16 v 16 h 16 v -16 m 32,-64 v 16 h 16 v -16 h -16 m 48,16 v -16 h -16 v 16 h -16 v 16 h 64 v -16 h -32 m 32,-16 v 16 h 16 v -16 h -16 m 48,96 h 16 v -16 h -16 v 16 m 0,16 v -16 h -32 v 16 h 32 m -192,0 h -16 -16 -16 -16 v 16 h 112 v -16 h -16 -16 -16 m -96,16 V 304 H 16 v 16 h 144 m 48,-64 v -16 h -16 -16 v 16 32 h -16 v 16 h 32 v -16 -16 -16 h 16 M 96.000003,-16 H 112 V -48 H 96.000003 v 32 M 128,112 V 96 80 H 112 V 96 H 64.000003 V 224 H 160 v -16 h -16 v -16 h -16 v 16 H 80.000003 V 112 H 112 v 80 h 16 v -16 -16 -16 -16 -16 m 48,-16 v 16 16 16 16 16 h -16 v 16 16 h 16 v -16 h 16 V 80 h -16 v 16 m 0,-64 V 16 h -16 v 16 h 16 m -32,0 v 16 h 16 V 32 h -16 m 0,32 V 48 h -16 v 16 16 h 16 V 64 M 80.000003,-176 v 16 16 h 16 v -32 h -16 M 32,-176 h 32.000003 16 v -16 H 16 V 0 H 0 V 304 H 16 V 288 16 h 128 16 V -16 H 144 V 0 H 128 V -16 H 112 V 0 H 80.000003 v -48 h 16 v -32 h -16 v -16 h -16 V 0 H 48 32 v -176 m 80,64 v -32 H 96.000003 v 16 16 H 112 m 32,32 h 16 v -32 h -16 v 32 m 32,32 h -16 v 32 h 16 v -32 m -48,-32 v 16 16 h 16 v -32 h -16 m -16,-32 v 16 16 h 16 v -32 h -16 m 64,-32 h -16 v 32 h 16 v -32 m 16,0 v -32 h -16 v 32 h 16 m 288,304 h -16 v 64 48 h 16 V 160 m -32,-16 v 16 h 16 v -16 h -16 m 0,-96 h 16 V 32 h -16 v 16 m 16,0 v 16 32 h 16 V 48 h -16 m -48,80 v 16 h 32 V 128 H 416 M 400,96 h 16 V 80 h -16 v 16 m 16,0 v 16 h 48 V 96 H 416 M 272,128 V 112 48 H 256 V 64 80 96 H 240 V 80 64 h -16 -16 -16 v 16 h 32 v 112 16 h -16 v 32 h 16 v -16 h 16 16 v 16 16 h 16 v -48 -16 h -16 v 16 h -16 v -96 h 16 v 16 h 16 m 16,16 v -16 h -16 v 16 h 16 m 32,-64 h 16 16 16 v 16 16 16 16 16 16 16 h 32 v -16 h -16 v -16 -32 h 32 V 112 H 384 V 80 h 16 V 64 h -80 v 16 m 0,32 V 96 80 h -16 v 48 16 h -16 v 16 h 16 v 16 h -32 v 16 h 48 V 176 160 144 128 112 M 272,16 h 16 V 0 h -32 v -192 h -64 v 16 h 32 16 V 0 h -16 -16 v -96 h -16 v 16 h -16 v 32 h 16 V 0 h -16 v 16 h 16 16 16 16 16 16 m 16,16 h -16 v 16 h 16 V 32 m 0,0 h 16 V 16 h -16 v 16 m 16,-48 H 288 V 0 h 16 v -16 m 112,32 v 16 h 32 V 16 H 416 M 416,0 H 400 304 V 16 H 416 V 0 m 0,-16 V 0 h 16 v -16 h -16 m -16,-32 h -16 v 16 h 16 v -16 m 0,-32 h 16 v -16 h -32 v 16 h 16 m -32,32 h 16 v -16 h -16 v 16 m -48,0 v -16 h -48 v 48 h 16 v -32 h 32 m 16,0 h -16 v 32 h 64 v -16 h -48 v -16 m -16,-32 v 16 h 48 v -16 h -48 m -16,-16 h -16 v 16 h 32 v -16 h -16 m 32,-16 v 16 h 32 16 v -16 h -48 m 0,-32 h -16 v 32 h 16 v -32 m -48,-16 h -16 v 64 h 16 v -64 m 0,-16 v 16 h 32 v -16 h -32 m 96,0 h 16 v -16 h -80 v 16 h 64 m 0,32 v -16 h -48 v 16 h 48 m 48,80 v -16 h -16 v 16 h 16 m 16,0 h -16 v 48 h 16 v -48 m -16,-96 v -16 h -32 v 16 h 16 16 m 16,0 h -16 v 32 h -16 -16 v -16 h -16 v 32 h 64 z"
     id="path4" />
  <path
     fill="#000080"
     stroke="none"
     d="m 272,272 v 16 h 16 v -16 h -16 m 16,32 h 16 v -16 h -16 v 16 m 32,-112 h 16 v -16 h -16 v 16 m -128,96 v 16 h 16 v -16 h -16 m 32,-16 h -16 v 16 h 16 v -16 m 16,16 h 16 v -16 h -16 v 16 m 16,0 v 16 h 16 v -16 h -16 m -16,16 v -16 h -16 v 16 h 16 m 0,-208 h 16 V 80 h -16 v 16 m -80,48 h 16 v -16 h -16 v 16 m 16,16 h -16 v 16 h 16 V 160 M 160,96 v 16 h 16 V 96 h -16 m 160,48 v 16 h 16 v -16 h -16 m 0,-48 h 16 V 80 h -16 v 16 m 16,16 h -16 v 16 h 16 V 112 M 272,48 V 32 h -16 v 16 h 16 M 288,32 V 16 h -16 v 16 z"
     id="path6" />
  <path
     fill="#800080"
     stroke="none"
     d="m 272,288 v 16 h 16 v -16 h -16 m -80,-16 v 16 h 16 v -16 h -16 m 16,32 h 16 v -16 h -16 v 16 m 48,-32 v 16 h 16 v -16 h -16 m -16,16 v -16 h -16 v 16 h 16 m 0,0 v 16 h 16 V 288 H 240 M 176,80 h 16 V 64 h -16 v 16 m -16,64 v 16 h 16 v -16 h -16 m 0,-48 h 16 V 80 h -16 v 16 m 16,16 h -16 v 16 h 16 v -16 m 80,-48 h -16 v 16 h 16 V 64 m 64,80 h 16 v -16 h -16 v 16 m 16,16 h -16 v 16 h 16 V 160 M 320,96 v 16 h 16 V 96 Z"
     id="path8" />
  <path
     fill="#ff00ff"
     stroke="none"
     d="m 352,192 v -16 h -16 v 16 h 16 M 144,176 h -16 v 16 h 16 v -16 m 16,32 v -16 h -16 v 16 h 16 m 80,32 h 16 v -16 h -16 v 16 m 16,16 h -16 v 16 h 16 v -16 m -32,-16 v 16 h 16 v -16 h -16 m 0,16 h -16 v 16 h 16 v -16 m -64,-96 h -16 v 16 h 16 v -16 m -16,-32 v 16 h 16 v -16 h -16 m -16,32 h 16 v -16 h -16 v 16 m 16,-48 h -16 v 16 h 16 v -16 m 0,-32 h -16 v 16 h 16 V 80 m 16,32 V 96 h -16 v 16 h 16 m 0,-48 h -16 v 16 h 16 V 64 m 0,-16 v 16 h 16 V 48 h -16 m 96,-16 h -16 v 16 h 16 V 32 M 192,48 V 32 h -16 v 16 h 16 m 32,0 v 16 h 16 V 48 h -16 m -32,0 v 16 h 16 V 48 H 192 M 208,32 V 16 h -16 v 16 h 16 m 16,-16 v 16 h 16 V 16 h -16 m 0,16 h -16 v 16 h 16 V 32 m 144,128 h -16 v 16 h 16 v -16 m 0,-32 h -16 v 16 h 16 v -16 m -16,-16 h 16 V 96 h -16 v 16 m -16,0 v 16 h 16 v -16 h -16 m 0,32 v 16 h 16 v -16 h -16 m 0,-64 v 16 h 16 V 80 H 336 M 272,32 V 16 h -16 v 16 z"
     id="path10" />
  <path
     fill="#0000ff"
     stroke="none"
     d="m 352,208 v -16 h -16 v 16 h 16 m 16,-32 h -16 v 16 h 16 v -16 m -112,80 v 16 h 16 v -16 h -16 m -96,-64 v -16 h -16 v 16 h 16 m 80,64 h -16 v 16 h 16 v -16 m 0,-16 v 16 h 16 v -16 h -16 m -16,-16 v 16 h 16 v -16 h -16 m -16,32 h -16 v 16 h 16 v -16 m 0,0 h 16 v -16 h -16 v 16 M 144,128 h 16 v -16 h -16 v 16 m 0,16 v 16 h 16 v -16 h -16 m 0,16 h -16 v 16 h 16 v -16 m 0,-32 h -16 v 16 h 16 v -16 m -16,-16 h 16 V 96 h -16 v 16 M 160,96 V 80 h -16 v 16 h 16 m 16,-32 h -16 v 16 h 16 V 64 m 0,-32 h -16 v 16 h 16 V 32 m -32,16 v 16 h 16 V 48 h -16 m 96,0 v 16 h 16 V 48 H 240 M 256,32 V 16 h -16 v 16 h 16 m -32,0 v 16 h 16 V 32 H 224 M 208,48 V 32 h -16 v 16 h 16 m 0,0 v 16 h 16 V 48 H 208 M 192,64 V 48 h -16 v 16 h 16 m 0,-32 V 16 h -16 v 16 h 16 m 16,0 h 16 V 16 h -16 v 16 m 144,128 h -16 v 16 h 16 v -16 m 0,0 h 16 v -16 h -16 v 16 m 16,-48 h -16 v 16 h 16 v -16 m 0,-32 h -16 v 16 h 16 V 80 m -32,48 v 16 h 16 v -16 h -16 m 0,-32 v 16 h 16 V 96 Z"
     id="path12" />
  <path
     fill="#808000"
     stroke="none"
     d="m 400,192 h 16 v -16 h -16 v 16 m 32,48 v 16 h -16 v 16 h -80 v -16 h -32 v -16 h -16 v -32 h -16 v 48 h 16 v 16 h 16 v 16 h 16 v 16 h 96 v -16 h 32 v -16 h 16 v -48 h -16 v 16 h -16 m -32,-80 h -16 v 16 h 16 v -16 m 16,-80 v 16 h 48 V 64 h -16 v 16 h -32 m -112,48 h -16 v 16 h 16 v -16 m -16,-16 h -16 v 16 h 16 V 112 M 416,64 h -16 v 16 h 16 z"
     id="path14" />
  <path
     fill="#800000"
     stroke="none"
     d="m 176,256 h -16 v 16 H 32 v 16 H 16 v 16 h 144 v -16 h 16 v -32 m 32,-48 h -16 v 32 h 16 v -32 m 0,0 h 16 v -16 h -16 v 16 M 144,16 v 16 h 16 V 16 h -16 m 0,16 h -16 v 16 h 16 V 32 M 64.000003,64 V 96 H 112 V 80 h 16 V 64 Z"
     id="path16" />
  <path
     fill="#ff0000"
     stroke="none"
     d="M 64.000003,96 V 64 H 128 V 48 32 h 16 V 16 H 16 v 272 h 16 v -16 h 128 v -16 h 16 v -16 h 16 v -32 h 16 v -16 h 16 V 80 h -32 v 112 h -16 v 16 h -16 v 16 H 64.000003 Z"
     id="path18" />
  <path
     fill="#ffff00"
     stroke="none"
     d="m 384,128 v 32 h 16 v 16 h 16 v 16 16 h -16 v 16 h -64 v -16 h -16 v -16 h -48 v 16 h 16 v 32 h 16 v 16 h 32 v 16 h 80 v -16 h 16 v -16 h 16 v -16 h 16 V 160 H 448 V 144 H 416 V 128 H 384 M 416,32 V 16 H 304 v 16 h -16 v 16 h -16 v 64 h 16 v 16 h 16 V 80 h 16 V 64 h 80 16 v 16 h 32 V 64 h 16 V 48 H 448 V 32 Z"
     id="path24" />
  <rect
     style="fill:#ffffff"
     id="rect1329"
     width="497.80685"
     height="204.46362"
     x="655.66107"
     y="124.4236" />
</svg>
