<?xml version="1.0" encoding="UTF-8" standalone="no"?>
<!-- Generator: Adobe Illustrator 19.0.0, SVG Export Plug-In . SVG Version: 6.00 Build 0)  -->

<svg
   version="1.1"
   id="Capa_1"
   x="0px"
   y="0px"
   viewBox="0 0 60 60"
   style="enable-background:new 0 0 60 60;"
   xml:space="preserve"
   sodipodi:docname="undetermined.svg"
   inkscape:version="1.1.1 (3bf5ae0d25, 2021-09-20)"
   xmlns:inkscape="http://www.inkscape.org/namespaces/inkscape"
   xmlns:sodipodi="http://sodipodi.sourceforge.net/DTD/sodipodi-0.dtd"
   xmlns="http://www.w3.org/2000/svg"
   xmlns:svg="http://www.w3.org/2000/svg"><defs
   id="defs39" /><sodipodi:namedview
   id="namedview37"
   pagecolor="#ffffff"
   bordercolor="#666666"
   borderopacity="1.0"
   inkscape:pageshadow="2"
   inkscape:pageopacity="0.0"
   inkscape:pagecheckerboard="0"
   showgrid="false"
   inkscape:zoom="13.866667"
   inkscape:cx="29.999999"
   inkscape:cy="29.963942"
   inkscape:window-width="1920"
   inkscape:window-height="1017"
   inkscape:window-x="1672"
   inkscape:window-y="-8"
   inkscape:window-maximized="1"
   inkscape:current-layer="Capa_1" />
<polygon
   style="fill:#4f5050;fill-opacity:1"
   points="10,40 10,22 10,4 52,23.5 "
   id="polygon2"
   transform="matrix(-1,0,0,1,60,0)" />
<path
   style="fill:#aa4400;fill-opacity:1;stroke-width:1.28415"
   d="m 51.649038,0 c 0.91027,0 1.649039,0.447 1.649039,1 v 3 55 c 0,0.553 -0.738769,1 -1.649039,1 C 50.738769,60 50,59.553 50,59 V 4 1 c 0,-0.553 0.738769,-1 1.649038,-1 z"
   id="path4" />
<g
   id="g6"
   transform="matrix(-1,0,0,1,60,0)">
</g>
<g
   id="g8"
   transform="matrix(-1,0,0,1,60,0)">
</g>
<g
   id="g10"
   transform="matrix(-1,0,0,1,60,0)">
</g>
<g
   id="g12"
   transform="matrix(-1,0,0,1,60,0)">
</g>
<g
   id="g14"
   transform="matrix(-1,0,0,1,60,0)">
</g>
<g
   id="g16"
   transform="matrix(-1,0,0,1,60,0)">
</g>
<g
   id="g18"
   transform="matrix(-1,0,0,1,60,0)">
</g>
<g
   id="g20"
   transform="matrix(-1,0,0,1,60,0)">
</g>
<g
   id="g22"
   transform="matrix(-1,0,0,1,60,0)">
</g>
<g
   id="g24"
   transform="matrix(-1,0,0,1,60,0)">
</g>
<g
   id="g26"
   transform="matrix(-1,0,0,1,60,0)">
</g>
<g
   id="g28"
   transform="matrix(-1,0,0,1,60,0)">
</g>
<g
   id="g30"
   transform="matrix(-1,0,0,1,60,0)">
</g>
<g
   id="g32"
   transform="matrix(-1,0,0,1,60,0)">
</g>
<g
   id="g34"
   transform="matrix(-1,0,0,1,60,0)">
</g>
</svg>
