<?xml version="1.0" encoding="UTF-8" standalone="no"?>
<!-- Generator: Adobe Illustrator 19.0.0, SVG Export Plug-In . SVG Version: 6.00 Build 0)  -->

<svg
   version="1.1"
   id="Layer_1"
   x="0px"
   y="0px"
   viewBox="0 0 512.001 512.001"
   style="enable-background:new 0 0 512.001 512.001;"
   xml:space="preserve"
   sodipodi:docname="key.svg"
   inkscape:version="1.1.1 (3bf5ae0d25, 2021-09-20)"
   xmlns:inkscape="http://www.inkscape.org/namespaces/inkscape"
   xmlns:sodipodi="http://sodipodi.sourceforge.net/DTD/sodipodi-0.dtd"
   xmlns="http://www.w3.org/2000/svg"
   xmlns:svg="http://www.w3.org/2000/svg"><defs
   id="defs55">
	
	
	
	
</defs><sodipodi:namedview
   id="namedview53"
   pagecolor="#ffffff"
   bordercolor="#666666"
   borderopacity="1.0"
   inkscape:pageshadow="2"
   inkscape:pageopacity="0.0"
   inkscape:pagecheckerboard="0"
   showgrid="false"
   inkscape:zoom="1.1490463"
   inkscape:cx="167.53023"
   inkscape:cy="276.3161"
   inkscape:window-width="1920"
   inkscape:window-height="1017"
   inkscape:window-x="1672"
   inkscape:window-y="-8"
   inkscape:window-maximized="1"
   inkscape:current-layer="Layer_1" />

















<g
   id="g1308"
   transform="translate(11.331845,36.905032)"><path
     style="fill:#f4ad47"
     d="M 435.602,60.227 C 390.219,14.847 316.377,14.846 270.995,60.228 232.051,99.173 226.561,159.061 254.458,203.951 l -97.894,97.895 -53.587,-53.587 -37.42,37.42 53.587,53.587 -36.167,36.167 -34.971,-34.973 -37.421,37.421 51.049,51.051 c 11.679,11.679 30.613,11.689 42.304,0.02 l 187.938,-187.58 c 18.735,11.642 40.071,17.498 61.423,17.498 29.806,0 59.613,-11.346 82.304,-34.038 45.379,-45.382 45.379,-119.222 -0.001,-164.605 z m -41.738,95.002 c -14.708,14.709 -38.641,14.709 -53.349,0 -10e-4,-0.001 -0.004,-0.003 -0.005,-0.004 -14.702,-14.709 -14.701,-38.637 0.005,-53.343 14.708,-14.709 38.641,-14.708 53.349,-0.001 14.709,14.707 14.709,38.639 0,53.348 z"
     id="path2" /><g
     id="g1286"><g
       id="g1281"><g
         id="g1277"><path
           style="fill:#231f20"
           d="m 448.972,54.239 36.172,-36.172 c 4.133,-4.134 4.133,-10.834 0,-14.968 -4.134,-4.132 -10.834,-4.132 -14.968,0 L 433.805,39.47 c -22.621,-18.6 -50.773,-28.716 -80.507,-28.716 -33.952,0 -65.84,13.189 -89.788,37.135 -20.357,20.358 -33.273,47.34 -36.372,75.978 -2.744,25.359 2.249,51.133 14.106,73.474 l -84.681,84.682 -46.102,-46.104 c -1.984,-1.984 -4.677,-3.1 -7.484,-3.1 -2.807,0 -5.5,1.115 -7.484,3.1 l -37.42,37.42 c -4.134,4.134 -4.134,10.834 0,14.968 L 104.175,334.41 82.977,355.608 55.489,328.12 c -4.133,-4.132 -10.834,-4.132 -14.967,0 L 3.101,365.542 c -4.134,4.133 -4.134,10.834 0,14.967 l 51.049,51.052 c 7.651,7.651 17.825,11.866 28.646,11.866 10.806,0 20.971,-4.206 28.619,-11.84 L 293.62,249.729 c 18.314,9.75 38.777,14.869 59.678,14.869 33.952,0 65.84,-13.189 89.788,-37.137 47.448,-47.448 49.389,-123.399 5.886,-173.222 z m -95.674,189.192 c -19.784,0 -39.093,-5.498 -55.836,-15.904 -4.177,-2.596 -9.586,-1.973 -13.063,1.499 L 96.462,416.604 c -3.653,3.646 -8.506,5.653 -13.667,5.653 -5.166,0 -10.024,-2.012 -13.677,-5.666 L 25.553,373.025 48.006,350.572 75.494,378.06 c 1.984,1.984 4.677,3.1 7.484,3.1 2.807,0 5.5,-1.115 7.484,-3.1 l 36.165,-36.167 c 4.134,-4.134 4.133,-10.834 0,-14.968 l -46.102,-46.102 22.453,-22.453 46.102,46.104 c 1.984,1.984 4.677,3.1 7.484,3.1 2.807,0 5.5,-1.115 7.484,-3.1 l 97.894,-97.894 c 3.478,-3.478 4.103,-8.893 1.506,-13.071 -26.09,-41.984 -19.907,-95.712 15.033,-130.653 19.949,-19.949 46.521,-30.937 74.819,-30.937 24.069,0 46.872,7.974 65.431,22.623 l -27.34,27.34 c -7.271,-4.218 -15.557,-6.475 -24.199,-6.475 -12.915,0 -25.047,5.018 -34.158,14.131 -18.83,18.83 -18.833,49.475 -0.007,68.31 0.003,0.003 0.007,0.005 0.007,0.008 9.113,9.113 21.245,14.131 34.158,14.131 12.913,0 25.047,-5.018 34.158,-14.131 16.729,-16.731 18.584,-42.775 5.594,-61.588 l 27.025,-27.023 c 35.272,41.528 33.344,104.055 -5.848,143.246 -19.953,19.952 -46.525,30.94 -74.823,30.94 z M 386.38,142.889 c -5.113,5.115 -11.929,7.931 -19.19,7.931 -7.249,0 -14.054,-2.807 -19.165,-7.908 -0.019,-0.019 -0.036,-0.034 -0.054,-0.053 -10.552,-10.584 -10.542,-27.78 0.029,-38.351 5.113,-5.115 11.929,-7.931 19.19,-7.931 2.839,0 5.604,0.445 8.232,1.274 l -7.118,7.118 c -4.133,4.134 -4.133,10.834 0,14.968 2.068,2.067 4.775,3.1 7.484,3.1 2.709,0 5.418,-1.033 7.484,-3.1 l 8.234,-8.234 c 4.991,10.14 3.297,22.763 -5.126,31.186 z"
           id="path12" /></g></g></g><g
     id="g22">
</g><g
     id="g24">
</g><g
     id="g26">
</g><g
     id="g28">
</g><g
     id="g30">
</g><g
     id="g32">
</g><g
     id="g34">
</g><g
     id="g36">
</g><g
     id="g38">
</g><g
     id="g40">
</g><g
     id="g42">
</g><g
     id="g44">
</g><g
     id="g46">
</g><g
     id="g48">
</g><g
     id="g50">
</g></g>
</svg>
