<?xml version="1.0" encoding="UTF-8" standalone="no"?>
<!-- Created with Inkscape (http://www.inkscape.org/) -->

<svg
   width="282.22223mm"
   height="244.70329mm"
   viewBox="0 0 1000 867.05891"
   id="svg4272"
   version="1.1"
   inkscape:version="1.1.2 (b8e25be833, 2022-02-05)"
   sodipodi:docname="winnt31.svg"
   xmlns:inkscape="http://www.inkscape.org/namespaces/inkscape"
   xmlns:sodipodi="http://sodipodi.sourceforge.net/DTD/sodipodi-0.dtd"
   xmlns="http://www.w3.org/2000/svg"
   xmlns:svg="http://www.w3.org/2000/svg"
   xmlns:rdf="http://www.w3.org/1999/02/22-rdf-syntax-ns#"
   xmlns:cc="http://creativecommons.org/ns#"
   xmlns:dc="http://purl.org/dc/elements/1.1/">
  <defs
     id="defs4274" />
  <sodipodi:namedview
     id="base"
     pagecolor="#ffffff"
     bordercolor="#666666"
     borderopacity="1.0"
     inkscape:pageopacity="0.0"
     inkscape:pageshadow="2"
     inkscape:zoom="0.7"
     inkscape:cx="972.85714"
     inkscape:cy="735.71429"
     inkscape:document-units="px"
     inkscape:current-layer="layer1"
     showgrid="false"
     fit-margin-top="0"
     fit-margin-left="0"
     fit-margin-right="0"
     fit-margin-bottom="0"
     inkscape:window-width="2560"
     inkscape:window-height="1506"
     inkscape:window-x="-11"
     inkscape:window-y="-11"
     inkscape:window-maximized="1"
     inkscape:pagecheckerboard="0" />
  <metadata
     id="metadata4277">
    <rdf:RDF>
      <cc:Work
         rdf:about="">
        <dc:format>image/svg+xml</dc:format>
        <dc:type
           rdf:resource="http://purl.org/dc/dcmitype/StillImage" />
      </cc:Work>
    </rdf:RDF>
  </metadata>
  <g
     inkscape:label="Layer 1"
     inkscape:groupmode="layer"
     id="layer1"
     transform="translate(-265.33769,281.58699)">
    <path
       style="stroke-width:42.9258"
       d="M 1037.3586,585.42904 1265.3377,36.536417 C 1165.3205,-74.255134 1040.9215,-128.55628 891.53962,-125.72315 L 662.10105,428.23467 c 140.06703,-18.58695 264.38021,34.21188 375.25755,157.19437 z"
       id="path4518-2"
       inkscape:connector-curvature="0" />
    <path
       style="stroke-width:42.9258"
       d="m 878.61892,-125.72315 -84.34925,4.97939 -28.58854,70.054963 84.34916,-7.898406 z"
       id="path4520-4"
       inkscape:connector-curvature="0" />
    <path
       style="stroke-width:42.9258"
       d="m 845.0509,-46.353359 -83.6624,5.709151 -29.23249,70.054963 84.99312,-7.855415 z"
       id="path4522-2"
       inkscape:connector-curvature="0" />
    <path
       style="stroke-width:42.9258"
       d="m 812.16976,33.703385 -83.57653,4.936401 -29.36128,69.411104 85.03604,-6.4818 z"
       id="path4524-0"
       inkscape:connector-curvature="0" />
    <path
       style="stroke-width:42.9258"
       d="m 779.33149,113.71713 -84.39217,5.0223 -28.54564,69.3252 84.34928,-7.16865 z"
       id="path4526-9"
       inkscape:connector-curvature="0" />
    <path
       style="stroke-width:42.9258"
       d="m 746.45033,192.31427 -84.34928,5.02238 -28.63153,69.36811 85.03613,-7.16865 z"
       id="path4528-6"
       inkscape:connector-curvature="0" />
    <path
       style="stroke-width:42.9258"
       d="m 712.83941,273.78753 -84.39218,5.06519 -28.54564,70.05496 84.34919,-7.16856 z"
       id="path4530-0"
       inkscape:connector-curvature="0" />
    <path
       style="stroke-width:42.9258"
       d="m 679.18559,353.88707 -83.61953,5.06529 -29.27539,69.96907 84.99305,-7.89831 z"
       id="path4532-1"
       inkscape:connector-curvature="0" />
    <path
       style="stroke-width:42.9258"
       d="m 705.67085,-129.32893 -26.48526,63.658965 77.91038,-6.438808 26.48525,-62.843407 z"
       id="path4534-2"
       inkscape:connector-curvature="0" />
    <path
       d="m 724.2577,8.6346422 25.7555,-62.8863162 -77.91037,5.666246 -26.48526,63.61607 z"
       id="path4536-6"
       inkscape:connector-curvature="0"
       style="fill:#e6350b;stroke-width:42.9258;fill-opacity:1" />
    <path
       d="m 692.02039,85.815359 26.48526,-63.616156 -78.59723,6.395999 -25.7555,62.886312 z"
       id="path4538-8"
       inkscape:connector-curvature="0"
       style="fill:#e6350b;stroke-width:42.9258;fill-opacity:1" />
    <path
       style="stroke-width:42.9258"
       d="m 606.98435,108.73774 -27.17211,63.61606 79.36989,-6.4389 25.71251,-63.61606 z"
       id="path4540-2"
       inkscape:connector-curvature="0" />
    <path
       d="m 572.68658,189.43825 -25.71261,63.57316 78.59724,-6.26721 25.7984,-63.70186 z"
       id="path4542-0"
       inkscape:connector-curvature="0"
       style="fill:#0b46a4;stroke-width:42.9258;fill-opacity:1" />
    <path
       d="m 540.53517,266.70476 -25.71261,63.57317 78.68303,-6.4389 26.39937,-63.61606 z"
       id="path4544-0"
       inkscape:connector-curvature="0"
       style="fill:#0b46a4;stroke-width:42.9258;fill-opacity:1" />
    <path
       style="stroke-width:42.9258"
       d="m 559.85177,403.85278 26.39937,-62.88631 -77.82449,5.66615 -26.48526,62.9293 z"
       id="path4546-0"
       inkscape:connector-curvature="0" />
    <path
       style="stroke-width:42.9258"
       d="m 702.10797,-164.31347 -65.76243,2.87603 -23.56624,56.4904 66.44919,-3.64877 z"
       id="path4548-1"
       inkscape:connector-curvature="0" />
    <path
       d="m 602.73462,-80.007179 -23.56624,55.760654 66.44919,-3.562876 22.96528,-55.073801 z"
       id="path4550-3"
       inkscape:connector-curvature="0"
       style="fill:#e6350b;stroke-width:42.9258;fill-opacity:1" />
    <path
       d="M 570.58321,-3.4704115 547.70373,52.977 614.15292,49.414215 637.0324,-5.659672 Z"
       id="path4552-5"
       inkscape:connector-curvature="0"
       style="fill:#e6350b;stroke-width:42.9258;fill-opacity:1" />
    <path
       style="stroke-width:42.9258"
       d="m 603.46438,74.397068 -66.44919,2.103369 -22.87939,56.490403 66.53499,-3.51998 z"
       id="path4554-3"
       inkscape:connector-curvature="0" />
    <path
       d="m 503.40427,158.05949 -23.56625,56.44741 67.17895,-3.51989 22.83649,-55.71775 z"
       id="path4556-1"
       inkscape:connector-curvature="0"
       style="fill:#0b46a4;stroke-width:42.9258;fill-opacity:1" />
    <path
       d="m 471.89672,235.24011 -22.87948,55.0309 65.76242,-2.79013 23.56625,-55.76065 z"
       id="path4558-2"
       inkscape:connector-curvature="0"
       style="fill:#0b46a4;stroke-width:42.9258;fill-opacity:1" />
    <path
       style="stroke-width:42.9258"
       d="m 481.94139,367.49463 22.87949,-55.76065 -65.76243,2.83303 -23.56624,55.63195 z"
       id="path4560-8"
       inkscape:connector-curvature="0" />
    <path
       style="stroke-width:42.9258"
       d="m 570.58321,-185.08958 -16.39768,40.04982 52.84172,-2.18926 17.17034,-40.69368 z"
       id="path4562-4"
       inkscape:connector-curvature="0" />
    <path
       d="m 537.01519,-104.30318 -16.44058,40.006831 52.88462,-2.060378 17.17034,-40.779573 z"
       id="path4564-1"
       inkscape:connector-curvature="0"
       style="fill:#e6350b;stroke-width:42.9258;fill-opacity:1" />
    <path
       d="m 504.82088,-27.76641 -16.44059,40.049728 53.65728,-1.459415 17.08445,-42.153189 z"
       id="path4566-4"
       inkscape:connector-curvature="0"
       style="fill:#e6350b;stroke-width:42.9258;fill-opacity:1" />
    <path
       style="stroke-width:42.9258"
       d="m 525.554,49.414215 -53.65728,2.876023 -17.12735,40.04982 53.65728,-1.330716 z"
       id="path4568-2"
       inkscape:connector-curvature="0" />
    <path
       d="m 438.37169,132.99084 -17.12744,40.77948 54.34414,-2.14627 16.44058,-41.50923 z"
       id="path4570-3"
       inkscape:connector-curvature="0"
       style="fill:#0b46a4;stroke-width:42.9258;fill-opacity:1" />
    <path
       d="m 406.22018,210.25726 -16.48348,40.73667 53.65728,-2.14636 16.39768,-41.46633 z"
       id="path4572-3"
       inkscape:connector-curvature="0"
       style="fill:#0b46a4;stroke-width:42.9258;fill-opacity:1" />
    <path
       style="stroke-width:42.9258"
       d="m 372.65225,290.22811 -16.52647,40.77957 53.61438,-2.14636 17.17034,-41.42343 z"
       id="path4574-8"
       inkscape:connector-curvature="0" />
    <path
       style="stroke-width:42.9258"
       d="m 547.01697,-208.61292 14.29431,-34.34068 -40.73667,5.75205 -13.60746,33.56802 z"
       id="path4576-1"
       inkscape:connector-curvature="0" />
    <path
       d="m 486.92079,-156.45805 -14.29432,33.65382 40.69368,-5.02229 14.29432,-34.98454 z"
       id="path4578-4"
       inkscape:connector-curvature="0"
       style="fill:#e6350b;stroke-width:42.9258;fill-opacity:1" />
    <path
       d="m 454.76937,-79.191535 -14.29431,33.56793 40.73658,-4.979393 15.02407,-34.984536 z"
       id="path4580-1"
       inkscape:connector-curvature="0"
       style="fill:#e6350b;stroke-width:42.9258;fill-opacity:1" />
    <path
       style="stroke-width:42.9258"
       d="M 421.88811,0.77922722 407.59389,34.433047 447.60072,29.410755 462.62479,-5.659672 Z"
       id="path4582-2"
       inkscape:connector-curvature="0" />
    <path
       d="m 388.32018,81.608529 -13.52166,33.525121 39.96393,-4.9364 14.33722,-34.297776 z"
       id="path4584-2"
       inkscape:connector-curvature="0"
       style="fill:#0b46a4;stroke-width:42.9258;fill-opacity:1" />
    <path
       d="m 356.12578,158.74634 -13.52166,33.56793 39.96402,-4.97939 14.29422,-35.02744 z"
       id="path4586-9"
       inkscape:connector-curvature="0"
       style="fill:#0b46a4;stroke-width:42.9258;fill-opacity:1" />
    <path
       style="stroke-width:42.9258"
       d="m 322.55776,238.80299 -12.87771,32.92407 40.04982,-4.37843 14.29432,-34.98454 z"
       id="path4588-2"
       inkscape:connector-curvature="0" />
    <path
       style="stroke-width:42.9258"
       d="m 471.89672,-278.71079 -9.95879,22.87948 30.6491,-0.72993 10.77434,-25.02575 z"
       id="path4590-5"
       inkscape:connector-curvature="0" />
    <path
       d="m 439.05845,-198.65414 -10.00168,23.60924 30.04804,-0.72994 9.95878,-24.98285 z"
       id="path4592-2"
       inkscape:connector-curvature="0"
       style="fill:#e6350b;stroke-width:42.9258;fill-opacity:1" />
    <path
       d="m 406.90704,-122.20327 -9.31492,23.609238 h 29.27539 l 10.00177,-25.025748 z"
       id="path4594-9"
       inkscape:connector-curvature="0"
       style="fill:#e6350b;stroke-width:42.9258;fill-opacity:1" />
    <path
       style="stroke-width:42.9258"
       d="m 373.98297,-42.060724 -9.95878,23.523345 h 30.00514 l 10.68854,-25.025752 z"
       id="path4596-1"
       inkscape:connector-curvature="0" />
    <path
       d="m 340.41495,39.36954 -10.00178,22.879483 30.00524,-0.686946 9.95878,-23.566245 z"
       id="path4598-2"
       inkscape:connector-curvature="0"
       style="fill:#0b46a4;stroke-width:42.9258;fill-opacity:1" />
    <path
       d="m 308.26354,116.59316 -10.00178,23.56624 30.04814,-0.68695 10.64554,-24.38188 z"
       id="path4600-1"
       inkscape:connector-curvature="0"
       style="fill:#0b46a4;stroke-width:42.9258;fill-opacity:1" />
    <path
       style="stroke-width:42.9258"
       d="m 274.65262,196.6498 -9.31493,23.65214 30.04805,-0.81592 10.00168,-25.02575 z"
       id="path4602-1"
       inkscape:connector-curvature="0" />
    <path
       d="M 927.25391,142.26277 1000.1419,-32.831693 C 964.42762,-45.022638 917.20923,-49.959135 858.65845,-48.585428 L 786.41426,125.86509 c 53.61435,-2.18917 100.83273,3.64876 140.83965,16.39768 z"
       id="path4604-0"
       inkscape:connector-curvature="0"
       style="fill:#e6350b;stroke-width:42.9258;fill-opacity:1" />
    <path
       d="m 1168.1107,50.830731 c -32.8812,-33.61092 -71.5145,-57.1771653 -115.7709,-71.514379 l -74.34762,179.429988 50.00862,20.73312 c 19.2308,7.81252 41.4234,23.60924 67.136,47.90524 z"
       id="path4606-4"
       inkscape:connector-curvature="0"
       style="fill:#0c6d3b;stroke-width:42.9258;fill-opacity:1" />
    <path
       d="m 1073.7597,277.4791 c -32.9241,-32.96696 -72.2012,-55.11669 -117.2304,-67.22184 L 885.05782,382.4757 c 41.42344,14.33722 80.09955,37.90346 117.27338,69.32521 z"
       id="path4608-8"
       inkscape:connector-curvature="0"
       style="fill:#fcd844;stroke-width:42.9258;fill-opacity:1" />
    <path
       d="M 835.73607,363.88885 905.01829,196.6498 C 861.40569,182.35549 814.31603,176.64634 764.26453,180.20922 L 693.5228,349.68033 c 42.15319,-2.27506 89.32867,2.83313 142.21327,14.20852 z"
       id="path4610-7"
       inkscape:connector-curvature="0"
       style="fill:#0b46a4;stroke-width:42.9258;fill-opacity:1" />
  </g>
</svg>
