<?xml version="1.0" encoding="UTF-8" standalone="no"?>
<svg
   version="1.1"
   viewBox="0 0 426 426"
   enable-background="new 0 0 426 426"
   id="svg8"
   sodipodi:docname="chip-svgrepo-com.svg"
   inkscape:version="1.1.2 (b8e25be833, 2022-02-05)"
   xmlns:inkscape="http://www.inkscape.org/namespaces/inkscape"
   xmlns:sodipodi="http://sodipodi.sourceforge.net/DTD/sodipodi-0.dtd"
   xmlns="http://www.w3.org/2000/svg"
   xmlns:svg="http://www.w3.org/2000/svg">
  <defs
     id="defs12" />
  <sodipodi:namedview
     id="namedview10"
     pagecolor="#ffffff"
     bordercolor="#666666"
     borderopacity="1.0"
     inkscape:pageshadow="2"
     inkscape:pageopacity="0.0"
     inkscape:pagecheckerboard="0"
     showgrid="false"
     inkscape:zoom="1.6877934"
     inkscape:cx="213"
     inkscape:cy="212.70376"
     inkscape:window-width="2560"
     inkscape:window-height="1506"
     inkscape:window-x="-11"
     inkscape:window-y="-11"
     inkscape:window-maximized="1"
     inkscape:current-layer="svg8" />
  <path
     d="m 416,176.619 c 5.523,0 10,-4.477 10,-10 0,-5.523 -4.477,-10 -10,-10 H 366.848 V 130.238 H 416 c 5.523,0 10,-4.477 10,-10 0,-5.523 -4.477,-10 -10,-10 H 366.848 V 69.152 c 0,-5.523 -4.477,-10 -10,-10 H 315.762 V 10 c 0,-5.523 -4.477,-10 -10,-10 -5.523,0 -10,4.477 -10,10 V 59.152 H 269.38 V 10 c 0,-5.523 -4.477,-10 -10,-10 -5.523,0 -10,4.477 -10,10 V 59.152 H 223 V 10 C 223,4.477 218.523,0 213,0 207.477,0 203,4.477 203,10 V 59.152 H 176.619 V 10 c 0,-5.523 -4.477,-10 -10,-10 -5.523,0 -10,4.477 -10,10 V 59.152 H 130.238 V 10 c 0,-5.523 -4.477,-10 -10,-10 -5.523,0 -10,4.477 -10,10 V 59.152 H 69.152 c -5.523,0 -10,4.477 -10,10 v 41.086 H 10 c -5.523,0 -10,4.477 -10,10 0,5.523 4.477,10 10,10 h 49.152 v 26.381 H 10 c -5.523,0 -10,4.477 -10,10 0,5.523 4.477,10 10,10 H 59.152 V 203 H 10 c -5.523,0 -10,4.477 -10,10 0,5.523 4.477,10 10,10 h 49.152 v 26.381 H 10 c -5.523,0 -10,4.477 -10,10 0,5.523 4.477,10 10,10 h 49.152 v 26.381 H 10 c -5.523,0 -10,4.477 -10,10 0,5.523 4.477,10 10,10 h 49.152 v 41.086 c 0,5.523 4.477,10 10,10 h 41.086 V 416 c 0,5.523 4.477,10 10,10 5.523,0 10,-4.477 10,-10 v -49.152 h 26.381 V 416 c 0,5.523 4.477,10 10,10 5.523,0 10,-4.477 10,-10 V 366.848 H 203 V 416 c 0,5.523 4.477,10 10,10 5.523,0 10,-4.477 10,-10 v -49.152 h 26.38 V 416 c 0,5.523 4.477,10 10,10 5.523,0 10,-4.477 10,-10 v -49.152 h 26.381 V 416 c 0,5.523 4.477,10 10,10 5.523,0 10,-4.477 10,-10 v -49.152 h 41.086 c 5.523,0 10,-4.477 10,-10 V 315.762 H 416 c 5.523,0 10,-4.477 10,-10 0,-5.523 -4.477,-10 -10,-10 H 366.848 V 269.381 H 416 c 5.523,0 10,-4.477 10,-10 0,-5.523 -4.477,-10 -10,-10 H 366.848 V 223 H 416 c 5.523,0 10,-4.477 10,-10 0,-5.523 -4.477,-10 -10,-10 H 366.848 V 176.619 Z M 346.848,203 h -8.821 c -5.523,0 -10,4.477 -10,10 0,5.523 4.477,10 10,10 h 8.821 v 26.381 h -8.821 c -5.523,0 -10,4.477 -10,10 0,5.523 4.477,10 10,10 h 8.821 v 26.381 h -8.821 c -5.523,0 -10,4.477 -10,10 0,5.523 4.477,10 10,10 h 8.821 v 31.086 h -31.086 v -8.821 c 0,-5.523 -4.477,-10 -10,-10 -5.523,0 -10,4.477 -10,10 v 8.821 H 269.38 v -8.821 c 0,-5.523 -4.477,-10 -10,-10 -5.523,0 -10,4.477 -10,10 v 8.821 H 223 v -8.821 c 0,-5.523 -4.477,-10 -10,-10 -5.523,0 -10,4.477 -10,10 v 8.821 h -26.381 v -8.821 c 0,-5.523 -4.477,-10 -10,-10 -5.523,0 -10,4.477 -10,10 v 8.821 h -26.381 v -8.821 c 0,-5.523 -4.477,-10 -10,-10 -5.523,0 -10,4.477 -10,10 v 8.821 H 79.152 v -31.086 h 8.821 c 5.523,0 10,-4.477 10,-10 0,-5.523 -4.477,-10 -10,-10 h -8.821 v -26.381 h 8.821 c 5.523,0 10,-4.477 10,-10 0,-5.523 -4.477,-10 -10,-10 H 79.152 V 223 h 8.821 c 5.523,0 10,-4.477 10,-10 0,-5.523 -4.477,-10 -10,-10 h -8.821 v -26.381 h 8.821 c 5.523,0 10,-4.477 10,-10 0,-5.523 -4.477,-10 -10,-10 h -8.821 v -26.381 h 8.821 c 5.523,0 10,-4.477 10,-10 0,-5.523 -4.477,-10 -10,-10 H 79.152 V 79.152 h 31.086 v 8.821 c 0,5.523 4.477,10 10,10 5.523,0 10,-4.477 10,-10 v -8.821 h 26.381 v 8.821 c 0,5.523 4.477,10 10,10 5.523,0 10,-4.477 10,-10 V 79.152 H 203 v 8.821 c 0,5.523 4.477,10 10,10 5.523,0 10,-4.477 10,-10 v -8.821 h 26.38 v 8.821 c 0,5.523 4.477,10 10,10 5.523,0 10,-4.477 10,-10 v -8.821 h 26.381 v 8.821 c 0,5.523 4.477,10 10,10 5.523,0 10,-4.477 10,-10 v -8.821 h 31.086 v 31.086 h -8.821 c -5.523,0 -10,4.477 -10,10 0,5.523 4.477,10 10,10 h 8.821 v 26.381 h -8.821 c -5.523,0 -10,4.477 -10,10 0,5.523 4.477,10 10,10 h 8.821 V 203 Z"
     id="path2"
     style="fill:#ffffff" />
</svg>
