<?xml version="1.0" encoding="UTF-8" standalone="no"?>
<!-- Generator: Adobe Illustrator 19.0.0, SVG Export Plug-In . SVG Version: 6.00 Build 0)  -->

<svg
   version="1.1"
   id="Capa_1"
   x="64px"
   y="64px"
   viewBox="0 0 64 64"
   style="enable-background:new 0 0 64 64;"
   xml:space="preserve"
   sodipodi:docname="searchbw.svg"
   inkscape:version="1.1.1 (3bf5ae0d25, 2021-09-20)"
   xmlns:inkscape="http://www.inkscape.org/namespaces/inkscape"
   xmlns:sodipodi="http://sodipodi.sourceforge.net/DTD/sodipodi-0.dtd"
   xmlns="http://www.w3.org/2000/svg"
   xmlns:svg="http://www.w3.org/2000/svg"><defs
   id="defs65">
</defs><sodipodi:namedview
   id="namedview63"
   pagecolor="#ffffff"
   bordercolor="#666666"
   borderopacity="1.0"
   inkscape:pageshadow="2"
   inkscape:pageopacity="0.0"
   inkscape:pagecheckerboard="0"
   showgrid="false"
   inkscape:zoom="6.5"
   inkscape:cx="44.230769"
   inkscape:cy="27.461538"
   inkscape:window-width="1920"
   inkscape:window-height="1017"
   inkscape:window-x="1672"
   inkscape:window-y="-8"
   inkscape:window-maximized="1"
   inkscape:current-layer="Capa_1" />
<rect
   x="-51.972553"
   y="-1.7680687"
   transform="matrix(-0.70710678,-0.70710678,-0.70710678,0.70710678,0,0)"
   style="fill:#e8e7e6;stroke-width:0.124999;fill-opacity:1"
   width="5.6568208"
   height="3.5354662"
   id="rect6" /><path
   style="fill:#e7e6e7;stroke-width:0.125;fill-opacity:1"
   d="m 35.002,38.089375 c 0.375,-0.832 1.028375,-1.53375 1.29,-1.795875 0.473625,-0.474125 1.713875,-1.576625 3.001,-1.576625 0.548875,0 1.038125,0.19925 1.431625,0.59425 l 22.3965,23.56725 C 63.6875,59.445375 64,60.19875 64,61 64,61.80125 63.6875,62.55475 63.121125,63.121125 62.554625,63.688 61.80075,64 61,64 60.19925,64 59.44525,63.688 58.8975,63.139125 L 35.293,40.7075 c -0.379,-0.378375 -0.92,-1.222125 -0.291,-2.618125 z"
   id="path10" /><g
   id="g16"
   transform="matrix(-0.125,0,0,0.125,64,0)"
   style="fill:#fffeff;fill-opacity:1">
		<path
   style="fill:#fffeff;fill-opacity:1"
   d="m 356,0 c -86.016,0 -156,69.98 -156,156 0,86.02 69.984,156 156,156 86.016,0 156,-69.98 156,-156 C 512,69.98 442.016,0 356,0 Z m 0,288 C 283.215,288 224,228.785 224,156 224,83.215 283.215,24 356,24 c 72.785,0 132,59.215 132,132 0,72.785 -59.215,132 -132,132 z"
   id="path14" />
	</g><path
   style="fill:#d8d9d8;stroke-width:0.125;fill-opacity:1"
   d="m 35.002,38.089375 c 0.375,-0.832 1.028375,-1.53375 1.29,-1.795875 l 7.5e-4,-7.5e-4 26.828375,26.828375 C 62.554625,63.688 61.80075,64 61,64 60.19925,64 59.44525,63.688 58.8975,63.139125 L 35.293,40.7075 c -0.379,-0.378375 -0.92,-1.222125 -0.291,-2.618125 z"
   id="path18" /><g
   id="g24"
   transform="matrix(-0.125,0,0,0.125,64,0)"
   style="fill:#fffeff;fill-opacity:1">
		<polygon
   style="fill:#fffeff;fill-opacity:1"
   points="207.45,346.763 219.051,335.738 176.262,292.949 165.237,304.55 "
   id="polygon22" />
	</g>
<g
   id="g32"
   transform="matrix(-1,0,0,1,512,0)">
</g>
<g
   id="g34"
   transform="matrix(-1,0,0,1,512,0)">
</g>
<g
   id="g36"
   transform="matrix(-1,0,0,1,512,0)">
</g>
<g
   id="g38"
   transform="matrix(-1,0,0,1,512,0)">
</g>
<g
   id="g40"
   transform="matrix(-1,0,0,1,512,0)">
</g>
<g
   id="g42"
   transform="matrix(-1,0,0,1,512,0)">
</g>
<g
   id="g44"
   transform="matrix(-1,0,0,1,512,0)">
</g>
<g
   id="g46"
   transform="matrix(-1,0,0,1,512,0)">
</g>
<g
   id="g48"
   transform="matrix(-1,0,0,1,512,0)">
</g>
<g
   id="g50"
   transform="matrix(-1,0,0,1,512,0)">
</g>
<g
   id="g52"
   transform="matrix(-1,0,0,1,512,0)">
</g>
<g
   id="g54"
   transform="matrix(-1,0,0,1,512,0)">
</g>
<g
   id="g56"
   transform="matrix(-1,0,0,1,512,0)">
</g>
<g
   id="g58"
   transform="matrix(-1,0,0,1,512,0)">
</g>
<g
   id="g60"
   transform="matrix(-1,0,0,1,512,0)">
</g>
</svg>
