<?xml version="1.0" encoding="UTF-8" standalone="no"?>
<svg
   version="1.1"
   id="Capa_1"
   x="0px"
   y="0px"
   viewBox="0 0 76.586098 76.725998"
   xml:space="preserve"
   sodipodi:docname="monitor-svgrepo-com.svg"
   width="76.586098"
   height="76.725998"
   inkscape:version="1.2 (dc2aedaf03, 2022-05-15)"
   xmlns:inkscape="http://www.inkscape.org/namespaces/inkscape"
   xmlns:sodipodi="http://sodipodi.sourceforge.net/DTD/sodipodi-0.dtd"
   xmlns="http://www.w3.org/2000/svg"
   xmlns:svg="http://www.w3.org/2000/svg"><defs
   id="defs125" /><sodipodi:namedview
   id="namedview123"
   pagecolor="#ffffff"
   bordercolor="#000000"
   borderopacity="0.25"
   inkscape:showpageshadow="2"
   inkscape:pageopacity="0.0"
   inkscape:pagecheckerboard="0"
   inkscape:deskcolor="#d1d1d1"
   showgrid="false"
   inkscape:zoom="6.9655172"
   inkscape:cx="43.356436"
   inkscape:cy="27.420792"
   inkscape:window-width="1920"
   inkscape:window-height="1017"
   inkscape:window-x="1672"
   inkscape:window-y="-8"
   inkscape:window-maximized="1"
   inkscape:current-layer="Capa_1" />




<g
   id="g1338"
   transform="translate(0,-1)"><rect
     y="1"
     style="fill:#afb6bb"
     width="58"
     height="40"
     id="rect68"
     x="0" /><path
     style="fill:#38454f"
     d="m 32,49.073 v 3.06 C 32,52.611 31.611,53 31.132,53 H 26.868 C 26.389,53 26,52.611 26,52.132 v -3.06 C 18.599,49.424 13,51.047 13,53 c 0,2.209 7.163,4 16,4 8.837,0 16,-1.791 16,-4 0,-1.953 -5.599,-3.576 -13,-3.927 z"
     id="path70" /><path
     style="fill:#546a79"
     d="M 31.132,53 H 26.868 C 26.389,53 26,52.611 26,52.132 V 41 h 6 V 52.132 C 32,52.611 31.611,53 31.132,53 Z"
     id="path72" /><rect
     y="5"
     style="fill:#546a79"
     width="58"
     height="32"
     id="rect74"
     x="0" /><g
     id="g90">
	<path
   style="fill:#839caa"
   d="m 4,14 c 0.256,0 0.512,-0.098 0.707,-0.293 l 4,-4 c 0.391,-0.391 0.391,-1.023 0,-1.414 -0.391,-0.391 -1.023,-0.391 -1.414,0 l -4,4 c -0.391,0.391 -0.391,1.023 0,1.414 C 3.488,13.902 3.744,14 4,14 Z"
   id="path76" />
	<path
   style="fill:#839caa"
   d="m 4,19 c 0.256,0 0.512,-0.098 0.707,-0.293 l 2,-2 c 0.391,-0.391 0.391,-1.023 0,-1.414 -0.391,-0.391 -1.023,-0.391 -1.414,0 l -2,2 c -0.391,0.391 -0.391,1.023 0,1.414 C 3.488,18.902 3.744,19 4,19 Z"
   id="path78" />
	<path
   style="fill:#839caa"
   d="M 7.29,13.29 C 7.11,13.48 7,13.74 7,14 7,14.27 7.11,14.52 7.29,14.71 7.48,14.89 7.73,15 8,15 8.26,15 8.52,14.89 8.71,14.71 8.89,14.52 9,14.26 9,14 9,13.74 8.89,13.48 8.71,13.29 8.33,12.92 7.66,12.92 7.29,13.29 Z"
   id="path80" />
	<path
   style="fill:#839caa"
   d="M 9.293,12.707 C 9.488,12.902 9.744,13 10,13 c 0.256,0 0.512,-0.098 0.707,-0.293 l 3,-3 c 0.391,-0.391 0.391,-1.023 0,-1.414 -0.391,-0.391 -1.023,-0.391 -1.414,0 l -3,3 c -0.391,0.391 -0.391,1.023 0,1.414 z"
   id="path82" />
	<path
   style="fill:#839caa"
   d="m 12.293,13.293 -9,9 c -0.391,0.391 -0.391,1.023 0,1.414 C 3.488,23.902 3.744,24 4,24 4.256,24 4.512,23.902 4.707,23.707 l 9,-9 c 0.391,-0.391 0.391,-1.023 0,-1.414 -0.391,-0.391 -1.023,-0.391 -1.414,0 z"
   id="path84" />
	<path
   style="fill:#839caa"
   d="M 14.29,11.29 C 14.11,11.48 14,11.74 14,12 c 0,0.26 0.11,0.52 0.29,0.71 0.19,0.18 0.45,0.29 0.71,0.29 0.26,0 0.52,-0.11 0.71,-0.29 C 15.89,12.52 16,12.26 16,12 c 0,-0.27 -0.11,-0.52 -0.29,-0.71 -0.37,-0.37 -1.05,-0.37 -1.42,0 z"
   id="path86" />
	<path
   style="fill:#839caa"
   d="m 18.707,8.293 c -0.391,-0.391 -1.023,-0.391 -1.414,0 l -1,1 c -0.391,0.391 -0.391,1.023 0,1.414 C 16.488,10.902 16.744,11 17,11 c 0.256,0 0.512,-0.098 0.707,-0.293 l 1,-1 c 0.391,-0.391 0.391,-1.023 0,-1.414 z"
   id="path88" />
</g></g>
<g
   id="g92"
   transform="translate(-1.0767327,-1.2153465)">
</g>
<g
   id="g94"
   transform="translate(-1.0767327,-1.2153465)">
</g>
<g
   id="g96"
   transform="translate(-1.0767327,-1.2153465)">
</g>
<g
   id="g98"
   transform="translate(-1.0767327,-1.2153465)">
</g>
<g
   id="g100"
   transform="translate(-1.0767327,-1.2153465)">
</g>
<g
   id="g102"
   transform="translate(-1.0767327,-1.2153465)">
</g>
<g
   id="g104"
   transform="translate(-1.0767327,-1.2153465)">
</g>
<g
   id="g106"
   transform="translate(-1.0767327,-1.2153465)">
</g>
<g
   id="g108"
   transform="translate(-1.0767327,-1.2153465)">
</g>
<g
   id="g110"
   transform="translate(-1.0767327,-1.2153465)">
</g>
<g
   id="g112"
   transform="translate(-1.0767327,-1.2153465)">
</g>
<g
   id="g114"
   transform="translate(-1.0767327,-1.2153465)">
</g>
<g
   id="g116"
   transform="translate(-1.0767327,-1.2153465)">
</g>
<g
   id="g118"
   transform="translate(-1.0767327,-1.2153465)">
</g>
<g
   id="g120"
   transform="translate(-1.0767327,-1.2153465)">
</g>
<g
   id="g1417"
   transform="matrix(0.08593913,0,0,0.08593913,33.444652,38.025719)">
	<g
   id="g1401">
		<path
   style="fill:#50a5dc"
   d="M 51.498,161.326 H 10 v 179.349 h 41.498 c 10.193,0 20.3,0.8 30.242,2.353 V 158.973 c -9.943,1.553 -20.05,2.353 -30.242,2.353 z"
   id="path1397" />
		<path
   style="fill:#c7ebff"
   d="M 221.479,71.345 192.762,101.2 c -29.888,31.071 -68.969,51.207 -111.022,57.774 v 184.054 c 42.054,6.567 81.135,26.703 111.022,57.774 l 28.717,29.855 c 13.918,14.469 38.372,4.617 38.372,-15.46 V 86.804 c 0,-20.077 -24.454,-29.929 -38.372,-15.459 z"
   id="path1399" />
	</g>
	<g
   id="g1415">
		<path
   d="m 249.621,56.844 c -12.29,-4.953 -26.166,-1.98 -35.349,7.569 v 0 l -28.717,29.854 c -28.011,29.12 -65.428,48.591 -105.358,54.826 -9.486,1.481 -19.142,2.233 -28.699,2.233 H 10 c -5.523,0 -10,4.477 -10,10 v 179.349 c 0,5.523 4.477,10 10,10 h 41.498 c 9.557,0 19.212,0.751 28.699,2.233 39.93,6.235 77.348,25.706 105.358,54.826 l 28.717,29.854 c 6.234,6.481 14.629,9.933 23.223,9.932 4.067,0 8.179,-0.773 12.126,-2.363 12.289,-4.951 20.23,-16.711 20.23,-29.96 V 86.804 c 0,-13.249 -7.941,-25.009 -20.23,-29.96 z M 20,330.674 V 171.326 h 31.498 c 6.729,0 13.502,-0.336 20.242,-1.002 v 161.354 c -6.739,-0.667 -13.512,-1.002 -20.242,-1.002 H 20 Z m 229.851,84.522 c 0,7.707 -5.896,10.681 -7.704,11.409 -1.808,0.729 -8.119,2.672 -13.461,-2.882 L 199.969,393.869 C 170.932,363.683 132.768,342.858 91.74,334.653 V 167.348 c 41.029,-8.206 79.192,-29.03 108.229,-59.216 l 28.717,-29.854 v 0 c 5.342,-5.554 11.653,-3.611 13.461,-2.882 1.807,0.728 7.704,3.703 7.704,11.409 z"
   id="path1403" />
		<path
   d="m 433.289,98.379 c 1.942,2.802 5.059,4.305 8.228,4.305 1.965,0 3.95,-0.578 5.687,-1.782 4.54,-3.146 5.669,-9.375 2.523,-13.915 -7.664,-11.06 -16.197,-21.827 -25.361,-32.002 -3.696,-4.104 -10.02,-4.434 -14.123,-0.738 -4.104,3.696 -4.434,10.02 -0.738,14.123 8.599,9.547 16.601,19.644 23.784,30.009 z"
   id="path1405" />
		<path
   d="m 473.629,127.916 c -2.4,-4.974 -8.376,-7.061 -13.353,-4.66 -4.974,2.4 -7.06,8.378 -4.659,13.353 C 473.124,172.882 482,211.369 482,251 c 0,66.819 -25.068,129.971 -72.495,182.63 -3.696,4.104 -3.365,10.427 0.738,14.123 1.912,1.722 4.304,2.569 6.689,2.569 2.735,0 5.459,-1.116 7.434,-3.308 24.631,-27.349 43.812,-57.769 57.009,-90.416 C 495.061,322.746 502,287.217 502,251 c 0,-42.666 -9.545,-84.078 -28.371,-123.084 z"
   id="path1407" />
		<path
   d="m 330.713,209.57 c -3.244,-4.469 -9.497,-5.464 -13.967,-2.22 -4.47,3.244 -5.464,9.497 -2.22,13.967 6.703,9.237 10.102,19.224 10.102,29.683 0,10.459 -3.399,20.446 -10.102,29.683 -3.244,4.47 -2.25,10.723 2.22,13.967 1.774,1.288 3.829,1.907 5.865,1.907 3.094,0 6.145,-1.431 8.102,-4.127 9.104,-12.544 13.916,-26.871 13.916,-41.43 0,-14.559 -4.812,-28.886 -13.916,-41.43 z"
   id="path1409" />
		<path
   d="m 403.251,164.496 c -13.424,-25.63 -32.958,-48.138 -56.487,-65.089 -4.481,-3.228 -10.73,-2.212 -13.959,2.269 -3.228,4.481 -2.212,10.731 2.269,13.959 43.449,31.301 69.389,81.905 69.389,135.365 0,28.391 -7.261,56.418 -20.998,81.054 -2.69,4.824 -0.96,10.915 3.864,13.604 1.542,0.86 3.213,1.268 4.861,1.268 3.509,0 6.913,-1.85 8.743,-5.132 15.394,-27.606 23.53,-59.002 23.53,-90.794 -0.001,-30.099 -7.336,-60.011 -21.212,-86.504 z"
   id="path1411" />
		<path
   d="m 360.143,364.187 c -7.583,8.196 -16.018,15.658 -25.07,22.179 -4.481,3.228 -5.497,9.478 -2.269,13.959 1.955,2.713 5.016,4.156 8.122,4.156 2.025,0 4.069,-0.613 5.837,-1.887 10.132,-7.299 19.573,-15.651 28.059,-24.823 3.751,-4.054 3.505,-10.381 -0.548,-14.132 -4.054,-3.75 -10.38,-3.506 -14.131,0.548 z"
   id="path1413" />
	</g>
</g><g
   id="g1419"
   transform="matrix(0.08593913,0,0,0.08593913,33.157523,30.129679)">
</g><g
   id="g1421"
   transform="matrix(0.08593913,0,0,0.08593913,33.157523,30.129679)">
</g><g
   id="g1423"
   transform="matrix(0.08593913,0,0,0.08593913,33.157523,30.129679)">
</g><g
   id="g1425"
   transform="matrix(0.08593913,0,0,0.08593913,33.157523,30.129679)">
</g><g
   id="g1427"
   transform="matrix(0.08593913,0,0,0.08593913,33.157523,30.129679)">
</g><g
   id="g1429"
   transform="matrix(0.08593913,0,0,0.08593913,33.157523,30.129679)">
</g><g
   id="g1431"
   transform="matrix(0.08593913,0,0,0.08593913,33.157523,30.129679)">
</g><g
   id="g1433"
   transform="matrix(0.08593913,0,0,0.08593913,33.157523,30.129679)">
</g><g
   id="g1435"
   transform="matrix(0.08593913,0,0,0.08593913,33.157523,30.129679)">
</g><g
   id="g1437"
   transform="matrix(0.08593913,0,0,0.08593913,33.157523,30.129679)">
</g><g
   id="g1439"
   transform="matrix(0.08593913,0,0,0.08593913,33.157523,30.129679)">
</g><g
   id="g1441"
   transform="matrix(0.08593913,0,0,0.08593913,33.157523,30.129679)">
</g><g
   id="g1443"
   transform="matrix(0.08593913,0,0,0.08593913,33.157523,30.129679)">
</g><g
   id="g1445"
   transform="matrix(0.08593913,0,0,0.08593913,33.157523,30.129679)">
</g><g
   id="g1447"
   transform="matrix(0.08593913,0,0,0.08593913,33.157523,30.129679)">
</g></svg>
