<?xml version="1.0" encoding="UTF-8" standalone="no"?>
<svg
   version="1.1"
   id="Capa_1"
   x="0px"
   y="0px"
   viewBox="0 0 61 58"
   xml:space="preserve"
   sodipodi:docname="file.svg"
   inkscape:version="1.2 (dc2aedaf03, 2022-05-15)"
   width="61"
   height="58"
   xmlns:inkscape="http://www.inkscape.org/namespaces/inkscape"
   xmlns:sodipodi="http://sodipodi.sourceforge.net/DTD/sodipodi-0.dtd"
   xmlns="http://www.w3.org/2000/svg"
   xmlns:svg="http://www.w3.org/2000/svg"><defs
   id="defs3114" /><sodipodi:namedview
   id="namedview3112"
   pagecolor="#ffffff"
   bordercolor="#000000"
   borderopacity="0.25"
   inkscape:showpageshadow="2"
   inkscape:pageopacity="0.0"
   inkscape:pagecheckerboard="0"
   inkscape:deskcolor="#d1d1d1"
   showgrid="false"
   inkscape:zoom="14.327586"
   inkscape:cx="26.941035"
   inkscape:cy="29.034898"
   inkscape:window-width="1920"
   inkscape:window-height="1017"
   inkscape:window-x="1672"
   inkscape:window-y="-8"
   inkscape:window-maximized="1"
   inkscape:current-layer="Capa_1" />
























<g
   id="g5101"
   transform="translate(2.5824308,0.27918171)"><path
     style="fill:#ffe27d;fill-opacity:1"
     d="M 46.324,52.5 H 1.565 c -1.03,0 -1.779,-0.978 -1.51,-1.973 L 10.221,22.656 C 10.405,21.974 11.024,21.5 11.731,21.5 H 56.49 c 1.03,0 1.51,0.984 1.51,1.973 L 47.834,51.344 C 47.65,52.026 47.031,52.5 46.324,52.5 Z"
     id="path3061" /><path
     style="fill:#f4efdc"
     d="M 10.221,22.656 C 10.405,21.973 11.024,21.5 11.731,21.5 H 53 v -7 H 9 l -6,6 v 21.953 z"
     id="path3063" /><path
     style="fill:#efca50;fill-opacity:1"
     d="M 23.571,10.5 20,5.5 H 1.732 C 0.776,5.5 0,6.275 0,7.232 V 49.96 c 0.069,0.002 0.138,0.006 0.205,0.01 L 3,42.349 V 20.5 l 2,-2 v -8 z"
     id="path3065" /><polygon
     style="fill:#d1bf86"
     points="5,18.5 9,14.5 51,14.5 51,10.5 5,10.5 "
     id="polygon3067" /><rect
     x="28"
     y="19.5"
     style="fill:#bfbaa5"
     width="2"
     height="2"
     id="rect3069" /><rect
     x="35"
     y="19.5"
     style="fill:#bfbaa5"
     width="2"
     height="2"
     id="rect3071" /><rect
     x="42"
     y="19.5"
     style="fill:#bfbaa5"
     width="2"
     height="2"
     id="rect3073" /><rect
     x="14"
     y="19.5"
     style="fill:#bfbaa5"
     width="2"
     height="2"
     id="rect3075" /><rect
     x="21"
     y="19.5"
     style="fill:#bfbaa5"
     width="2"
     height="2"
     id="rect3077" /><polygon
     style="fill:#cec9ae"
     points="3,20.5 9,20.5 9,14.5 "
     id="polygon3079" /><g
     id="g3081">
</g><g
     id="g3083">
</g><g
     id="g3085">
</g><g
     id="g3087">
</g><g
     id="g3089">
</g><g
     id="g3091">
</g><g
     id="g3093">
</g><g
     id="g3095">
</g><g
     id="g3097">
</g><g
     id="g3099">
</g><g
     id="g3101">
</g><g
     id="g3103">
</g><g
     id="g3105">
</g><g
     id="g3107">
</g><g
     id="g3109">
</g></g>
</svg>
