<?xml version="1.0" encoding="UTF-8" standalone="no"?>
<svg
   version="1.1"
   id="Layer_1"
   x="0px"
   y="0px"
   viewBox="0 0 511.999 511.999"
   style="enable-background:new 0 0 511.999 511.999;"
   xml:space="preserve"
   sodipodi:docname="user-svgrepo-com.svg"
   inkscape:version="1.2 (dc2aedaf03, 2022-05-15)"
   xmlns:inkscape="http://www.inkscape.org/namespaces/inkscape"
   xmlns:sodipodi="http://sodipodi.sourceforge.net/DTD/sodipodi-0.dtd"
   xmlns="http://www.w3.org/2000/svg"
   xmlns:svg="http://www.w3.org/2000/svg"><defs
   id="defs1750" /><sodipodi:namedview
   id="namedview1748"
   pagecolor="#ffffff"
   bordercolor="#000000"
   borderopacity="0.25"
   inkscape:showpageshadow="2"
   inkscape:pageopacity="0.0"
   inkscape:pagecheckerboard="0"
   inkscape:deskcolor="#d1d1d1"
   showgrid="false"
   inkscape:zoom="1.1476697"
   inkscape:cx="291.0245"
   inkscape:cy="263.14191"
   inkscape:window-width="1920"
   inkscape:window-height="1017"
   inkscape:window-x="1672"
   inkscape:window-y="-8"
   inkscape:window-maximized="1"
   inkscape:current-layer="Layer_1" />

<path
   style="fill:#FEDAAB;"
   d="M188.634,318.73c15.629,8.192,33.844,12.718,53.892,12.718s38.263-4.635,53.892-12.718v34.276  c0,0-22.203,26.945-53.892,26.945s-53.892-26.945-53.892-26.945L188.634,318.73L188.634,318.73z"
   id="path1707" />
<path
   style="fill:#4cbd91"
   d="m 344.921,385.341 c 14.551,4.635 26.945,9.7 37.616,15.197 v 0.97 l 13.2289,14.17085 19.71597,14.46324 21.05413,14.47891 v 1.94 c 10.671,17.245 10.779,30.395 10.779,30.395 v 26.945 H 37.738 v -26.945 c 0,0 0.97,-58.958 102.395,-91.616 0,0 36.755,-19.185 48.503,-32.335 0,0 22.203,26.945 53.892,26.945 31.689,0 53.892,-26.945 53.892,-26.945 11.746,13.15 48.501,32.336 48.501,32.336 z"
   id="path1709"
   sodipodi:nodetypes="cccccccccccccscc" />
<path
   style="fill:#FEDAAB;"
   d="M296.418,318.73c-15.629,8.084-33.844,12.718-53.892,12.718s-38.263-4.527-53.892-12.718  c-34.598-18-57.34-53.353-63.161-95.497c-16.706-2.263-33.844-18.108-33.844-31.903c0-14.874,14.443-21.557,32.335-21.557v-21.557  c0,0,43.113,0,91.616-48.503c0,0,70.059,43.113,145.508,43.113v26.945c17.892,0,32.335,6.682,32.335,21.557  c0,13.797-17.137,29.64-33.844,31.903C353.76,265.377,331.016,300.73,296.418,318.73z"
   id="path1711" />
<path
   style="fill:#A67C52;"
   d="M215.581,99.714c-48.503,48.503-91.616,48.503-91.616,48.503v-5.389  c0,0-5.605-134.729,118.562-134.729c123.951,0,118.562,134.729,118.562,134.729C285.64,142.827,215.581,99.714,215.581,99.714z"
   id="path1713" />
<path
   style="fill:#231f20"
   d="M 405.02839,405.3898 386.209,393.409 l 0.037,-0.07 c -11.234,-5.787 -23.733,-10.86 -38.188,-15.498 -9.621,-5.065 -33.321,-18.491 -43.542,-28.137 v -26.192 c 32.68,-18.787 55.045,-52.405 62.206,-93.53 18.607,-5.313 34.799,-22.687 34.799,-38.653 0,-16.219 -12.185,-26.993 -32.335,-29.224 V 142.976 C 369.344,138.397 370.749,75.324 331.192,34.153 309.419,11.491 279.587,0 242.527,0 205.369,0 175.483,11.513 153.701,34.219 114.221,75.376 115.7,138.344 115.867,142.98 v 19.125 c -20.151,2.231 -32.335,13.004 -32.335,29.224 0,15.966 16.194,33.339 34.799,38.653 7.162,41.133 29.533,74.756 62.206,93.531 v 26.19 c -10.217,9.641 -33.938,23.079 -43.554,28.144 C 31.921,411.938 29.684,474.184 29.641,476.823 l -10e-4,35.176 h 425.773 v -35.11 c -0.004,-0.509 -0.175,-10.398 -6.421,-24.172 L 437.48446,436.16171 422.23617,419.98459 Z M 196.732,331.273 c 14.14,5.487 29.485,8.273 45.794,8.273 16.181,0 31.524,-2.8 45.794,-8.317 v 18.657 c -5.531,5.783 -23.048,21.967 -45.794,21.967 -22.598,0 -40.237,-16.216 -45.794,-21.984 z M 165.457,45.361 c 18.605,-19.353 44.534,-29.165 77.07,-29.165 32.442,0 58.322,9.793 76.918,29.106 27.707,28.776 32.611,71.659 33.422,89.245 -69.062,-2.924 -132.388,-41.328 -133.041,-41.73 l -5.447,-3.351 -4.523,4.522 c -33.19,33.19 -63.757,42.509 -77.815,45.119 0.165,-13.207 2.921,-62.024 33.416,-93.746 z m -31.962,176.766 -0.841,-6.091 -6.093,-0.826 c -11.717,-1.588 -26.834,-13.453 -26.834,-23.88 0,-12.488 18.552,-13.459 24.237,-13.459 h 8.098 v -22.305 c 14.834,-2.216 48.103,-10.995 84.763,-45.763 17.497,9.815 73.821,38.599 136.169,40.961 l -0.005,27.106 h 8.098 c 5.686,0 24.237,0.97 24.237,13.459 0,10.427 -15.117,22.292 -26.833,23.88 l -6.094,0.826 -0.841,6.091 c -5.559,40.254 -27.019,72.846 -58.86,89.412 -15.154,7.839 -32.033,11.812 -50.171,11.812 -18.337,0 -35.203,-3.968 -50.155,-11.805 -31.855,-16.573 -53.315,-49.164 -58.875,-89.418 z m 305.723,254.932 v 18.745 H 45.836 v -18.699 c 0.052,-0.948 0.975,-13.94 12.483,-30.19 20.263,-28.612 57.024,-45.086 84.297,-53.868 l 0.654,-0.211 0.61,-0.319 c 3.353,-1.75 29.401,-15.505 44.481,-28.135 9.324,8.777 28.869,23.665 54.166,23.665 25.296,0 44.842,-14.888 54.166,-23.665 15.08,12.629 41.129,26.385 44.481,28.135 l 0.622,0.325 0.668,0.213 c 0.366,0.117 0.715,0.236 1.078,0.353 l 16.5632,4.70209 19.32517,7.93432 19.94651,13.58252 14.59059,12.88422 10.05097,9.77395 6.75556,10.4329 c 7.838,13.494 8.416,23.685 8.444,24.341 z m -22.50303,-48.81264 -4.4286,-6.75282 -25.48642,-20.60085 1.59777,5.22799 13.9413,10.36271 z"
   id="path1715"
   sodipodi:nodetypes="cccccccscccscccsccccccccccccccsccscccsccccccccccsscccccssscccscccccccccccsccccccccccccccccc" />
<g
   id="g1717">
</g>
<g
   id="g1719">
</g>
<g
   id="g1721">
</g>
<g
   id="g1723">
</g>
<g
   id="g1725">
</g>
<g
   id="g1727">
</g>
<g
   id="g1729">
</g>
<g
   id="g1731">
</g>
<g
   id="g1733">
</g>
<g
   id="g1735">
</g>
<g
   id="g1737">
</g>
<g
   id="g1739">
</g>
<g
   id="g1741">
</g>
<g
   id="g1743">
</g>
<g
   id="g1745">
</g>
</svg>
