<?xml version="1.0" encoding="UTF-8" standalone="no"?>
<!-- kindly provided by 0xCats -->

<svg
   viewBox="0 0 565.34 560"
   version="1.1"
   id="svg795"
   sodipodi:docname="486dx.svg"
   inkscape:version="1.2 (dc2aedaf03, 2022-05-15)"
   xmlns:inkscape="http://www.inkscape.org/namespaces/inkscape"
   xmlns:sodipodi="http://sodipodi.sourceforge.net/DTD/sodipodi-0.dtd"
   xmlns="http://www.w3.org/2000/svg"
   xmlns:svg="http://www.w3.org/2000/svg"
   xmlns:rdf="http://www.w3.org/1999/02/22-rdf-syntax-ns#"
   xmlns:cc="http://creativecommons.org/ns#"
   xmlns:dc="http://purl.org/dc/elements/1.1/">
  <defs
     id="defs799" />
  <sodipodi:namedview
     id="namedview797"
     pagecolor="#ffffff"
     bordercolor="#000000"
     borderopacity="0.25"
     inkscape:showpageshadow="2"
     inkscape:pageopacity="0.0"
     inkscape:pagecheckerboard="0"
     inkscape:deskcolor="#d1d1d1"
     showgrid="false"
     inkscape:zoom="1"
     inkscape:cx="380"
     inkscape:cy="267"
     inkscape:window-width="1920"
     inkscape:window-height="1017"
     inkscape:window-x="1672"
     inkscape:window-y="-8"
     inkscape:window-maximized="1"
     inkscape:current-layer="svg795" />
  <title
     id="title717">Asset 2</title>
  <polygon
     points="556.34 0 7.34 0 0.34 7 0 543 19.34 560 557.34 560 565.34 553 565.34 8 556.34 0"
     fill="#8f8195"
     id="polygon719" />
  <path
     d="m 457.13697,199.43397 q 0,33.61643 0,67.21007 c 0,5.92157 -0.73025,6.96924 -6.25934,7.24254 -5.52913,0.27331 -10.80784,0.1822 -16.21175,0.1822 h -79.57736 c -6.02986,0 -7.15654,1.7537 -5.07008,8.13081 3.02535,9.26956 8.67964,16.48935 17.54707,17.99253 9.32645,1.59426 18.90327,0 25.03745,-9.38347 2.83756,-4.39561 6.55146,-5.07889 10.57831,-5.19276 a 165.22629,180.35797 0 0 1 20.07169,0.2733 c 4.17291,0.43274 4.90318,1.61704 3.15056,5.73938 -9.9524,23.29919 -26.12242,35.73452 -50.17922,38.05761 -29.06431,2.80138 -55.04067,-26.16888 -57.94083,-49.37695 -0.73026,-6.03547 -2.4203,-7.83472 -7.99112,-7.35644 -3.35921,0.2961 -6.71839,0 -10.14018,0.47829 -12.39352,1.68536 -22.179,-4.03123 -29.79454,-14.53067 a 10.912155,11.911507 0 0 1 -1.94042,-7.35644 c -0.22952,-21.63658 0.20864,-64.88698 0.20864,-64.88698 0,0 -0.58421,-5.12445 -0.60506,-7.69806 0,-3.8718 -1.56484,-5.23831 -5.1744,-5.3522 -7.28174,-0.27331 -8.03286,-1.43485 -7.99112,-9.36067 0,-12.07094 0.2295,-12.73141 11.03733,-14.07516 3.42179,-0.43274 3.21314,-1.95869 3.23402,-4.37287 0,-9.11013 0.35469,-18.40248 0,-27.60373 -0.16693,-4.98779 1.54396,-7.12867 5.86291,-6.8326 5.96728,0.40997 11.93452,0 17.94352,0.66049 4.69451,0.54661 5.8838,2.84691 5.8838,7.19702 0,8.72295 0,17.46869 0.1669,26.19163 0,6.14935 0.20866,6.24045 5.82122,6.53654 9.05523,0.50105 9.05523,0.50105 8.59618,10.56776 0,1.18431 -0.20863,2.27752 -0.25038,3.53018 -0.20862,8.44965 -0.18777,8.44965 -7.699,8.85961 -6.42626,0.36441 -6.80184,0.911 -6.8853,7.83471 -0.16691,14.87232 -0.47989,29.7446 -0.62594,44.61691 a 93.890431,102.48905 0 0 0 0.62594,10.54499 8.7422422,9.5428699 0 0 0 10.03585,9.11013 44.4832,48.557037 0 0 0 7.24,-0.93379 5.8420713,6.3770968 0 0 0 3.56784,-4.23621 57.440078,62.700527 0 0 1 11.1625,-20.49781 58.420713,63.770968 0 0 1 38.4325,-22.34262 c 21.61568,-2.77859 41.31179,9.11014 51.53542,30.51898 1.33533,2.80136 2.19077,8.08523 4.63193,7.51585 1.25186,0 0.62593,-5.7394 0.6468,-8.85961 l -0.25038,-57.89493 c 0,0 -0.39642,-36.25836 -0.52163,-54.41031 0,-7.78917 1.12671,-8.92793 8.34583,-8.97348 5.8212,0 11.68415,0.27331 17.4845,-0.11395 4.17288,-0.2733 5.04921,1.63982 5.21613,5.7394 1.0015,25.66781 1.0015,77.04899 1.0015,77.04899 v 9.88451 z m -82.18541,47.62325 v 0.20498 c 4.17289,0 8.19977,0.1822 12.26835,0 3.69301,-0.22774 8.93001,2.27755 10.64091,-1.68538 1.71089,-3.96291 -2.94191,-7.40198 -5.23701,-10.6133 a 21.657394,23.640809 0 0 0 -22.03295,-8.47243 c -8.0537,1.70814 -15.18938,6.33153 -18.21473,15.94273 -1.27274,3.9857 -0.60507,4.94227 3.21313,4.76007 6.44714,-0.36442 12.91514,-0.13678 19.3623,-0.13678 z"
     fill="#fdfdfc"
     id="path721"
     style="stroke-width:2.1799" />
  <path
     d="m 256.0654,266.75789 a 5.3830515,5.8760391 0 0 1 -5.50824,5.98994 c -6.36368,0 -12.72736,0 -19.09104,0 -2.73325,0 -3.9434,-1.13879 -3.9434,-4.14513 0,-9.36067 -0.2921,-28.10477 -0.2921,-28.10477 l -0.39644,-28.42364 a 85.148189,92.946185 0 0 0 -0.12523,-18.94909 c -3.00449,-17.05872 -16.52472,-22.6387 -29.81542,-13.09583 a 20.363792,22.228738 0 0 0 -9.57683,19.88289 c 0,21.22664 0,42.45324 0,63.77096 0,7.26534 -0.43815,7.7664 -6.80185,7.7664 -5.61255,0 -11.22511,-0.34164 -16.81682,0 -6.00898,0.34163 -5.65429,-11.50156 -5.65429,-11.50156 l 0.50075,-36.14446 -0.52161,-68.84987 c 0,0 1.77349,-5.76217 6.25937,-5.42055 a 130.71635,142.68753 0 0 0 16.69164,0 c 4.67365,-0.29607 7.15652,1.18432 6.7601,6.42266 0,1.11597 -0.18778,2.64194 1.23101,2.77859 0.62594,0 1.52311,-0.77438 2.08644,-1.43484 11.20427,-14.75843 37.97348,-15.55557 53.41324,0.18221 a 35.991332,39.28747 0 0 1 11.97623,29.3574 v 38.87753 z"
     fill="#fdfdfc"
     id="path723"
     style="stroke-width:2.1799" />
  <text
     transform="scale(0.97864346,1.0218226)"
     font-size="71.1017px"
     fill="#ffffff"
     font-family="SegoeUISymbol, 'Segoe UI Symbol'"
     id="text787"
     x="482.99622"
     y="158.17509"
     style="stroke-width:2.45177">Ⓡ</text>
  <circle
     cx="26.08"
     cy="536.32"
     r="7.96"
     fill="#999"
     id="circle789" />
  <rect
     x="107.3221"
     y="148.12112"
     width="31.29681"
     height="122.98687"
     fill="#ffffff"
     id="rect791"
     style="stroke-width:2.1799" />
  <rect
     x="107.3221"
     y="102.57042"
     width="31.29681"
     height="36.440552"
     fill="#ffffff"
     id="rect793"
     style="stroke-width:2.1799" />
  <metadata
     id="metadata918">
    <rdf:RDF>
      <cc:Work
         rdf:about="">
        <dc:title>Asset 2</dc:title>
      </cc:Work>
    </rdf:RDF>
  </metadata>
</svg>
