<?xml version="1.0" encoding="UTF-8" standalone="no"?>
<!-- made by computerguy096 -->

<svg
   version="1.1"
   id="Layer_1"
   x="0px"
   y="0px"
   width="300.02301"
   height="300"
   viewBox="0 0 300.02301 300"
   enable-background="new 0 0 512 512"
   xml:space="preserve"
   sodipodi:docname="chip.svg"
   inkscape:version="1.2 (dc2aedaf03, 2022-05-15)"
   xmlns:inkscape="http://www.inkscape.org/namespaces/inkscape"
   xmlns:sodipodi="http://sodipodi.sourceforge.net/DTD/sodipodi-0.dtd"
   xmlns="http://www.w3.org/2000/svg"
   xmlns:svg="http://www.w3.org/2000/svg"><defs
   id="defs5229">
		
	</defs><sodipodi:namedview
   id="namedview5227"
   pagecolor="#ffffff"
   bordercolor="#000000"
   borderopacity="0.25"
   inkscape:showpageshadow="2"
   inkscape:pageopacity="0.0"
   inkscape:pagecheckerboard="0"
   inkscape:deskcolor="#d1d1d1"
   showgrid="false"
   inkscape:zoom="1.6230469"
   inkscape:cx="190.99879"
   inkscape:cy="186.68592"
   inkscape:window-width="1920"
   inkscape:window-height="1017"
   inkscape:window-x="1672"
   inkscape:window-y="-8"
   inkscape:window-maximized="1"
   inkscape:current-layer="ram" />
<g
   id="ram"
   transform="matrix(-0.97437007,0.22495105,0.22495105,0.97437007,379.91368,-179.25998)">
	
	
	
	
		
	
	
	
		
	
	
	
<rect
   style="fill:#306565;fill-opacity:1;stroke:#000000;stroke-width:1.4403"
   id="rect6561"
   width="298.55969"
   height="298.55969"
   x="-379.1705"
   y="179.98013"
   transform="matrix(-0.97437007,0.22495105,0.22495105,0.97437007,0,0)" /><path
   style="fill:#6f6a6a;fill-opacity:1;stroke:#000000;stroke-width:1.446"
   d="m 396.38345,150.40378 40.49119,175.38661 -19.22141,43.43717 -185.13031,42.7407 -37.77924,-30.27753 -40.49119,-175.38662 21.13286,-41.82585 185.13031,-42.7407 z"
   id="path8698"
   sodipodi:nodetypes="ccccccccc" /><path
   style="fill:#fed15c;fill-opacity:1;stroke:#000000;stroke-width:1.446"
   d="m 471.46893,356.49773 -16.82262,2.87777 -11.32329,-3.53379 -15.76486,-9.21527 -5.81803,13.08974 18.67028,15.46547 11.85407,4.86442 11.33114,0.17853 13.18006,-0.74083 z"
   id="path10981"
   sodipodi:nodetypes="cccccccccc" /><path
   d="m 218.05199,220.34541 q 2.78734,12.07332 5.57279,24.13844 c 0.491,2.12674 0.85106,2.43994 2.94217,2.06055 2.09111,-0.37937 4.05833,-0.86801 6.07994,-1.33473 l 29.77,-6.87295 c 2.25577,-0.52078 2.82268,0.0117 2.5709,2.48228 -0.36319,3.59045 -1.87984,6.67178 -5.07252,7.9775 -3.35685,1.37809 -7.07174,1.63264 -10.14458,-1.20762 -1.42601,-1.33361 -2.87204,-1.25825 -4.38794,-0.95135 a 66.479287,63.437271 77 0 0 -7.48617,1.83171 c -1.52521,0.51583 -1.7002,1.00425 -0.70274,2.3334 5.65507,7.50832 12.73539,10.57789 21.92771,9.33448 11.10526,-1.50411 18.42095,-14.15228 17.58158,-22.73793 -0.22725,-2.23071 0.25581,-3.02287 2.37953,-3.33223 1.28123,-0.18379 2.51335,-0.58026 3.83311,-0.70401 4.77618,-0.46512 7.96293,-3.36339 9.94136,-7.79199 a 4.3905375,4.1896316 77 0 0 0.11594,-2.80966 c -1.70818,-7.79057 -5.45824,-23.28607 -5.45824,-23.28607 0,0 -0.20635,-1.8909 -0.41192,-2.81701 -0.32105,-1.39056 0.15105,-2.0165 1.49195,-2.36914 2.70145,-0.72707 2.88613,-1.20911 2.21334,-4.05205 -1.00087,-4.33527 -1.14149,-4.55267 -5.29614,-4.10182 -1.31597,0.14011 -1.36445,-0.42594 -1.57242,-1.29121 -0.75539,-3.27189 -1.65856,-6.57859 -2.2888,-9.91385 -0.35113,-1.80577 -1.16868,-2.4269 -2.75987,-1.94755 -2.19836,0.66262 -4.46472,1.03077 -6.65792,1.78696 -1.71091,0.60177 -1.96508,1.53065 -1.60439,3.09298 0.72328,3.13285 1.44843,6.27386 2.10927,9.42112 0.50989,2.20854 0.43939,2.25927 -1.63574,2.85035 -3.34602,0.96204 -3.34602,0.96204 -2.33961,4.53784 0.0983,0.42535 0.2669,0.79996 0.38637,1.24624 0.77868,3.01667 0.77087,3.01847 3.61483,2.51697 2.43428,-0.42414 2.6201,-0.26027 3.22542,2.21918 1.2956,5.32695 2.64583,10.6413 3.93362,15.97005 a 37.777091,36.048455 77 0 1 0.64018,3.84129 3.5174669,3.3565117 77 0 1 -2.99903,4.13867 17.897947,17.078958 77 0 1 -2.78593,0.28993 2.3505746,2.243015 77 0 1 -1.68598,-1.21328 23.111185,22.053644 77 0 0 -5.87551,-6.39769 23.505746,22.43015 77 0 0 -16.23021,-4.70499 c -8.31684,0.86898 -14.69942,6.83993 -16.74895,15.41189 -0.26728,1.12144 -0.14918,3.09302 -1.10962,3.09937 -0.46834,0.10806 -0.71005,-2.00725 -0.97658,-3.12607 l -4.70676,-20.81455 c 0,0 -2.8581,-13.05639 -4.31636,-19.58646 -0.64584,-2.79747 -1.16175,-3.10915 -3.86622,-2.50201 -2.17773,0.50276 -4.3484,1.1073 -6.55042,1.46919 -1.58375,0.26225 -1.75295,1.02504 -1.47546,2.51182 1.7536,9.30507 6.01393,27.75858 6.01393,27.75858 l 0.81958,3.55001 z m 34.69441,10.00565 0.017,0.0736 c -1.5611,0.3604 -3.05244,0.77363 -4.58961,1.05959 -1.40045,0.23716 -3.15188,1.58924 -4.12053,0.31373 -0.96863,-1.27552 0.48683,-2.91251 1.07916,-4.26406 a 8.7139158,8.315177 77 0 1 7.54005,-4.94582 c 3.15455,-0.0821 6.20736,0.96208 8.13607,4.15265 0.80661,1.32152 0.63615,1.72274 -0.80735,1.98707 -2.44211,0.42596 -4.8429,1.06638 -7.25479,1.6232 z"
   fill="#fdfdfc"
   id="path14753"
   style="fill:#d2c3ae;fill-opacity:1;stroke-width:0.820059" /><path
   d="m 298.85538,227.15858 a 2.1658867,2.0667782 77 0 0 2.55729,1.67555 c 2.38067,-0.54962 4.76133,-1.09925 7.142,-1.64886 1.0225,-0.23607 1.3808,-0.74958 1.13152,-1.82931 -0.77614,-3.36187 -2.22105,-10.11904 -2.22105,-10.11904 l -2.20849,-10.24256 a 34.259624,32.691943 77 0 1 -1.52435,-6.81637 c -0.29045,-6.38612 4.30481,-9.55787 10.06815,-7.27844 a 8.1934313,7.8185093 77 0 1 5.23131,6.31379 c 1.76003,7.62353 3.52005,15.24704 5.28764,22.90329 0.60241,2.60933 0.80787,2.75145 3.18853,2.20183 2.09967,-0.48475 4.17101,-1.09219 6.29119,-1.45244 2.27631,-0.39629 1.16162,-4.61913 1.16162,-4.61913 l -3.18429,-12.93801 -5.51363,-24.77242 c 0,0 -1.14124,-1.91631 -2.79108,-1.40618 a 52.594107,50.187461 77 0 1 -6.24436,1.44164 c -1.77297,0.2973 -2.57908,1.04343 -1.99643,2.89053 0.0925,0.40082 0.28931,0.93264 -0.23013,1.10425 -0.23417,0.0541 -0.634,-0.14655 -0.89952,-0.33511 -5.41525,-4.3328 -15.49574,-2.30708 -19.96685,4.67863 a 14.481219,13.818575 77 0 0 -2.04613,11.57806 l 3.22358,13.96283 z"
   fill="#fdfdfc"
   id="path14755"
   style="fill:#d2c3ae;fill-opacity:1;stroke-width:0.820059" /><text
   transform="matrix(-0.9732078,0.22468273,0.2252197,0.97553372,0,0)"
   font-size="26.7478px"
   fill="#ffffff"
   font-family="SegoeUISymbol, 'Segoe UI Symbol'"
   id="text14819"
   x="-157.1158"
   y="249.51546"
   style="fill:#d2c3ae;fill-opacity:1;stroke-width:0.922336">Ⓡ</text><rect
   x="-297.20496"
   y="244.8353"
   width="12.016151"
   height="45.332512"
   fill="#ffffff"
   id="rect14823"
   transform="matrix(-0.97437007,0.22495104,0.22495104,0.97437007,0,0)"
   style="fill:#d2c3ae;fill-opacity:1;stroke-width:0.820059" /><rect
   x="-297.20496"
   y="228.04546"
   width="12.016151"
   height="13.431855"
   fill="#ffffff"
   id="rect14825"
   transform="matrix(-0.97437007,0.22495104,0.22495104,0.97437007,0,0)"
   style="fill:#d2c3ae;fill-opacity:1;stroke-width:0.820059" /></g>
</svg>
