<?xml version="1.0" encoding="UTF-8" standalone="no"?>
<svg
   version="1.1"
   id="Capa_1"
   x="0px"
   y="0px"
   viewBox="0 0 64 64"
   style="enable-background:new 0 0 64 64;"
   xml:space="preserve"
   sodipodi:docname="edit.svg"
   inkscape:version="1.1.1 (3bf5ae0d25, 2021-09-20)"
   xmlns:inkscape="http://www.inkscape.org/namespaces/inkscape"
   xmlns:sodipodi="http://sodipodi.sourceforge.net/DTD/sodipodi-0.dtd"
   xmlns="http://www.w3.org/2000/svg"
   xmlns:svg="http://www.w3.org/2000/svg"><defs
   id="defs51" /><sodipodi:namedview
   id="namedview49"
   pagecolor="#ffffff"
   bordercolor="#666666"
   borderopacity="1.0"
   inkscape:pageshadow="2"
   inkscape:pageopacity="0.0"
   inkscape:pagecheckerboard="0"
   showgrid="false"
   inkscape:zoom="1.9656112"
   inkscape:cx="211.38463"
   inkscape:cy="171.19357"
   inkscape:window-width="1920"
   inkscape:window-height="1017"
   inkscape:window-x="1672"
   inkscape:window-y="-8"
   inkscape:window-maximized="1"
   inkscape:current-layer="Capa_1" />
<g
   id="g16"
   transform="matrix(0.15294405,0,0,0.15120087,-0.36890105,0)">
	<g
   id="g14">
		<path
   style="fill:none"
   d="m 186.95,343.077 -39.367,11.362 h 146.668 c 6.629,0 12,5.373 12,12 0,6.627 -5.371,12 -12,12 H 66.541 c -0.643,0 -1.268,-0.065 -1.883,-0.163 -0.643,0.105 -1.287,0.163 -1.928,0.163 -2.998,0 -5.932,-1.124 -8.184,-3.222 -3.086,-2.877 -4.435,-7.163 -3.553,-11.288 L 78.927,233.331 c 0.484,-2.264 1.613,-4.339 3.25,-5.976 L 228.255,81.277 H 26.412 V 399.278 H 344.413 V 187.728 L 192.108,340.033 c -1.435,1.434 -3.209,2.481 -5.158,3.044 z"
   id="path2" />
		<polygon
   style="fill:none"
   points="163.321,324.917 97.879,259.474 78.654,349.352 "
   id="polygon4" />
		<path
   style="fill:none"
   d="m 327.089,24 c -4.922,0 -8.928,1.6 -12.604,5.035 -0.145,0.137 -0.293,0.268 -0.443,0.395 l -8.666,8.666 77.363,77.362 8.471,-8.47 c 0.041,-0.042 0.084,-0.082 0.125,-0.123 l 0.086,-0.085 c 0.123,-0.145 0.25,-0.288 0.381,-0.428 C 407.984,89.034 380.118,58.569 371.193,49.645 354.897,33.346 338.821,24 327.089,24 Z"
   id="path6" />
		<path
   style="fill:#73d0f4"
   d="m 107.91,235.564 77.362,77.362 180.496,-180.498 -77.363,-77.363 z m 201.47,-124.11 c 4.686,4.686 4.686,12.284 0,16.97 L 182.606,255.197 c -2.344,2.342 -5.414,3.514 -8.486,3.514 -3.07,0 -6.141,-1.171 -8.484,-3.514 -4.686,-4.687 -4.686,-12.285 0,-16.971 L 292.409,111.454 c 4.686,-4.686 12.285,-4.686 16.971,0 z"
   id="path8" />
		<path
   style="fill:#3d6889"
   d="m 165.636,255.197 c 2.344,2.343 5.414,3.514 8.484,3.514 3.072,0 6.142,-1.172 8.486,-3.514 L 309.38,128.424 c 4.686,-4.687 4.686,-12.285 0,-16.97 -4.685,-4.686 -12.285,-4.686 -16.971,0 L 165.636,238.226 c -4.686,4.687 -4.686,12.284 0,16.971 z"
   id="path10" />
		<path
   style="fill:#3d6889"
   d="M 417.848,76.476 C 413.213,62.604 402.95,47.457 388.162,32.673 373.259,17.768 350.565,0 327.089,0 c -10.531,0 -20.234,3.703 -28.135,10.721 -0.412,0.316 -0.805,0.661 -1.176,1.032 L 252.253,57.277 H 14.412 c -6.627,0 -12,5.373 -12,12 v 342.001 c 0,6.627 5.373,12 12,12 h 342.001 c 6.627,0 12,-5.373 12,-12 V 166.123 c 0,-0.748 -0.078,-1.476 -0.209,-2.186 l 39.853,-39.854 c 0.08,-0.079 0.16,-0.157 0.238,-0.237 0.002,-0.001 0.004,-0.003 0.006,-0.005 l 0.781,-0.782 c 0.369,-0.369 0.707,-0.754 1.017,-1.157 10.913,-12.241 13.595,-27.923 7.749,-45.426 z M 163.321,324.917 78.654,349.353 97.879,259.475 Z m 21.951,-11.991 -77.362,-77.362 180.495,-180.498 77.363,77.363 z m 159.141,86.352 H 26.412 V 81.277 H 228.255 L 82.178,227.355 c -1.637,1.637 -2.766,3.712 -3.25,5.976 L 50.994,363.928 c -0.883,4.125 0.467,8.411 3.553,11.288 2.252,2.098 5.186,3.222 8.184,3.222 0.641,0 231.52,0 231.52,0 6.629,0 12,-5.373 12,-12 0,-6.627 -5.371,-12 -12,-12 H 147.583 l 39.367,-11.362 c 1.949,-0.563 3.723,-1.61 5.158,-3.044 L 344.413,187.727 Z m 47.389,-292.927 c -0.131,0.14 -0.258,0.283 -0.381,0.428 l -0.086,0.085 c -0.041,0.041 -0.084,0.082 -0.125,0.123 l -8.471,8.47 -77.363,-77.362 8.666,-8.666 c 0.15,-0.127 0.299,-0.258 0.443,-0.395 C 318.161,25.6 322.167,24 327.089,24 c 11.732,0 27.809,9.346 44.103,25.644 8.926,8.924 36.791,39.389 20.61,56.707 z"
   id="path12" />
	</g>
</g>
<g
   id="g18">
</g>
<g
   id="g20">
</g>
<g
   id="g22">
</g>
<g
   id="g24">
</g>
<g
   id="g26">
</g>
<g
   id="g28">
</g>
<g
   id="g30">
</g>
<g
   id="g32">
</g>
<g
   id="g34">
</g>
<g
   id="g36">
</g>
<g
   id="g38">
</g>
<g
   id="g40">
</g>
<g
   id="g42">
</g>
<g
   id="g44">
</g>
<g
   id="g46">
</g>
</svg>
