<?xml version="1.0" encoding="UTF-8" standalone="no"?>
<!-- Generator: Adobe Illustrator 18.0.0, SVG Export Plug-In . SVG Version: 6.00 Build 0)  -->

<svg
   version="1.1"
   id="Capa_1"
   x="0px"
   y="0px"
   viewBox="0 0 58 58"
   style="enable-background:new 0 0 58 58;"
   xml:space="preserve"
   sodipodi:docname="miscfile.svg"
   inkscape:version="1.2 (dc2aedaf03, 2022-05-15)"
   xmlns:inkscape="http://www.inkscape.org/namespaces/inkscape"
   xmlns:sodipodi="http://sodipodi.sourceforge.net/DTD/sodipodi-0.dtd"
   xmlns="http://www.w3.org/2000/svg"
   xmlns:svg="http://www.w3.org/2000/svg"><defs
   id="defs59">
	
	
</defs><sodipodi:namedview
   id="namedview57"
   pagecolor="#ffffff"
   bordercolor="#000000"
   borderopacity="0.25"
   inkscape:showpageshadow="2"
   inkscape:pageopacity="0.0"
   inkscape:pagecheckerboard="0"
   inkscape:deskcolor="#d1d1d1"
   showgrid="false"
   inkscape:zoom="7.1637931"
   inkscape:cx="16.750903"
   inkscape:cy="25.684717"
   inkscape:window-width="1920"
   inkscape:window-height="1017"
   inkscape:window-x="1672"
   inkscape:window-y="-8"
   inkscape:window-maximized="1"
   inkscape:current-layer="Capa_1" />
<g
   id="g18"
   style="stroke:#000000;stroke-opacity:1;stroke-width:0.2;stroke-dasharray:none">
		<polygon
   style="fill:#efebde;stroke:#000000;stroke-opacity:1;stroke-width:0.2;stroke-dasharray:none"
   points="0.5,0 0.5,58 45.5,58 45.5,14 31.5,0 "
   id="polygon2" />
		<g
   id="g14"
   style="stroke:#000000;stroke-opacity:1;stroke-width:0.2;stroke-dasharray:none">
			<path
   style="fill:#d5d0bb;stroke:#000000;stroke-opacity:1;stroke-width:0.2;stroke-dasharray:none"
   d="m 10.5,23 h 25 c 0.552,0 1,-0.447 1,-1 0,-0.553 -0.448,-1 -1,-1 h -25 c -0.552,0 -1,0.447 -1,1 0,0.553 0.448,1 1,1 z"
   id="path4" />
			<path
   style="fill:#d5d0bb;stroke:#000000;stroke-opacity:1;stroke-width:0.2;stroke-dasharray:none"
   d="m 10.5,15 h 10 c 0.552,0 1,-0.447 1,-1 0,-0.553 -0.448,-1 -1,-1 h -10 c -0.552,0 -1,0.447 -1,1 0,0.553 0.448,1 1,1 z"
   id="path6" />
			<path
   style="fill:#d5d0bb;stroke:#000000;stroke-opacity:1;stroke-width:0.2;stroke-dasharray:none"
   d="m 35.5,29 h -25 c -0.552,0 -1,0.447 -1,1 0,0.553 0.448,1 1,1 h 25 c 0.552,0 1,-0.447 1,-1 0,-0.553 -0.448,-1 -1,-1 z"
   id="path8" />
			<path
   style="fill:#d5d0bb;stroke:#000000;stroke-opacity:1;stroke-width:0.2;stroke-dasharray:none"
   d="m 35.5,37 h -25 c -0.552,0 -1,0.447 -1,1 0,0.553 0.448,1 1,1 h 25 c 0.552,0 1,-0.447 1,-1 0,-0.553 -0.448,-1 -1,-1 z"
   id="path10" />
			<path
   style="fill:#d5d0bb;stroke:#000000;stroke-opacity:1;stroke-width:0.2;stroke-dasharray:none"
   d="m 35.5,45 h -25 c -0.552,0 -1,0.447 -1,1 0,0.553 0.448,1 1,1 h 25 c 0.552,0 1,-0.447 1,-1 0,-0.553 -0.448,-1 -1,-1 z"
   id="path12" />
		</g>
		<polygon
   style="fill:#d5d0bb;stroke:#000000;stroke-opacity:1;stroke-width:0.2;stroke-dasharray:none"
   points="45.5,14 31.5,0 31.5,14 "
   id="polygon16" />
	</g><g
   id="g22"
   style="stroke:#000000;stroke-opacity:1;stroke-width:0.5;stroke-dasharray:none">
		<polygon
   style="fill:#f29c21;stroke:#000000;stroke-opacity:1;stroke-width:0.5;stroke-dasharray:none"
   points="57.5,44.403 51.5,50.04 52.916,58 45.5,54.242 38.084,58 39.5,50.04 33.5,44.403 41.792,43.242 45.5,36 49.208,43.242 "
   id="polygon20" />
	</g>
<g
   id="g26">
</g>
<g
   id="g28">
</g>
<g
   id="g30">
</g>
<g
   id="g32">
</g>
<g
   id="g34">
</g>
<g
   id="g36">
</g>
<g
   id="g38">
</g>
<g
   id="g40">
</g>
<g
   id="g42">
</g>
<g
   id="g44">
</g>
<g
   id="g46">
</g>
<g
   id="g48">
</g>
<g
   id="g50">
</g>
<g
   id="g52">
</g>
<g
   id="g54">
</g>
</svg>
