<?xml version="1.0" encoding="UTF-8" standalone="no"?>
<!-- Uploaded to: SVG Repo, www.svgrepo.com, Generator: SVG Repo Mixer Tools -->

<svg
   height="800px"
   width="800px"
   version="1.1"
   id="Layer_1"
   viewBox="0 0 512 512"
   xml:space="preserve"
   sodipodi:docname="motherboard.svg"
   inkscape:version="1.2 (dc2aedaf03, 2022-05-15)"
   xmlns:inkscape="http://www.inkscape.org/namespaces/inkscape"
   xmlns:sodipodi="http://sodipodi.sourceforge.net/DTD/sodipodi-0.dtd"
   xmlns="http://www.w3.org/2000/svg"
   xmlns:svg="http://www.w3.org/2000/svg"><defs
   id="defs93">
	
	
	
	
	
	
	
	
</defs><sodipodi:namedview
   id="namedview91"
   pagecolor="#ffffff"
   bordercolor="#000000"
   borderopacity="0.25"
   inkscape:showpageshadow="2"
   inkscape:pageopacity="0.0"
   inkscape:pagecheckerboard="0"
   inkscape:deskcolor="#d1d1d1"
   showgrid="false"
   inkscape:zoom="1.03875"
   inkscape:cx="399.51865"
   inkscape:cy="399.51865"
   inkscape:window-width="1920"
   inkscape:window-height="1017"
   inkscape:window-x="1672"
   inkscape:window-y="-8"
   inkscape:window-maximized="1"
   inkscape:current-layer="Layer_1" />
<path
   style="fill:#547475;"
   d="M468.052,53.426c0,7.376-5.979,13.357-13.357,13.357H296.643c-7.377,0-13.357-5.98-13.357-13.357  v-40.07C283.287,5.98,289.266,0,296.643,0h158.052c7.377,0,13.357,5.98,13.357,13.357V53.426z"
   id="path2" />
<path
   style="opacity:0.1;fill:#231F20;enable-background:new    ;"
   d="M301.096,53.426v-40.07C301.096,5.98,307.075,0,314.452,0  h-17.809c-7.377,0-13.357,5.98-13.357,13.357v40.07c0,7.376,5.979,13.357,13.357,13.357h17.809  C307.075,66.783,301.096,60.802,301.096,53.426z"
   id="path4" />
<path
   style="fill:#3a8cd3;fill-opacity:1"
   d="M490.538,29.332H21.463c-11.556,0-20.923,9.367-20.923,20.923v29.332V95.89v29.332V416.11v29.332  v16.303v29.332C0.54,502.633,9.908,512,21.463,512h469.073c11.555,0,20.923-9.367,20.923-20.923v-29.332v-16.303V416.11V188.665  v-12.636v-25.768V50.255C511.461,38.699,502.092,29.332,490.538,29.332z"
   id="path6" /><path
   style="fill:#88dd2c;fill-opacity:1"
   d="m 225.27094,293.57767 c -4.61,0 -8.348,-3.738 -8.348,-8.348 v -149.263 c 0,-4.61 3.738,-8.348 8.348,-8.348 4.61,0 8.348,3.738 8.348,8.348 v 149.264 c 0,4.609 -3.739,8.347 -8.348,8.347 z"
   id="path22-5" /><path
   style="fill:#f4eabc;fill-opacity:1"
   d="m 292.12094,133.1363 c -4.61,0 -8.348,-3.738 -8.348,-8.348 v -11.385 c 0,-4.61 3.738,-8.348 8.348,-8.348 4.61,0 8.348,3.738 8.348,8.348 v 11.385 c 0,4.61 -3.738,8.348 -8.348,8.348 z"
   id="path28-8" />
<path
   style="fill:#EBF25F;"
   d="M468.052,243.502c0,7.376-5.979,13.357-13.357,13.357H296.643c-7.377,0-13.357-5.98-13.357-13.357  V85.449c0-7.376,5.979-13.357,13.357-13.357h158.052c7.377,0,13.357,5.98,13.357,13.357V243.502z"
   id="path8" />
<path
   style="fill:#698F92;"
   d="M421.861,197.31c0,7.376-5.979,13.357-13.357,13.357h-65.67c-7.377,0-13.357-5.98-13.357-13.357  v-65.67c0-7.376,5.979-13.357,13.357-13.357h65.67c7.377,0,13.357,5.98,13.357,13.357V197.31z"
   id="path10" />
<g
   id="g20">
	<circle
   style="fill:#547475;"
   cx="375.664"
   cy="163.573"
   r="16.325"
   id="circle12" />
	<path
   style="fill:#547475;"
   d="M441.13,199.746h-18.365c-4.61,0-8.348-3.738-8.348-8.348c0-4.61,3.738-8.348,8.348-8.348h18.365   c4.61,0,8.348,3.738,8.348,8.348C449.478,196.008,445.74,199.746,441.13,199.746z"
   id="path14" />
	<path
   style="fill:#547475;"
   d="M441.13,171.92h-18.365c-4.61,0-8.348-3.738-8.348-8.348s3.738-8.348,8.348-8.348h18.365   c4.61,0,8.348,3.738,8.348,8.348S445.74,171.92,441.13,171.92z"
   id="path16" />
	<path
   style="fill:#547475;"
   d="M441.13,144.093h-18.365c-4.61,0-8.348-3.738-8.348-8.348c0-4.61,3.738-8.348,8.348-8.348h18.365   c4.61,0,8.348,3.738,8.348,8.348C449.478,140.356,445.74,144.093,441.13,144.093z"
   id="path18" />
</g>
<g
   id="g38"
   style="fill:#f4eabc;fill-opacity:1"
   transform="translate(-55.451264,-4.9290012)">
	<path
   style="fill:#f4eabc;fill-opacity:1"
   d="m 144.156,265.206 c -4.61,0 -8.348,-3.738 -8.348,-8.348 V 107.595 c 0,-4.61 3.738,-8.348 8.348,-8.348 4.61,0 8.348,3.738 8.348,8.348 v 149.264 c 0,4.609 -3.739,8.347 -8.348,8.347 z"
   id="path22" />
	<path
   style="fill:#f4eabc;fill-opacity:1"
   d="m 144.156,91.826 c -4.61,0 -8.348,-3.738 -8.348,-8.348 V 72.093 c 0,-4.61 3.738,-8.348 8.348,-8.348 4.61,0 8.348,3.738 8.348,8.348 v 11.385 c 0,4.61 -3.739,8.348 -8.348,8.348 z"
   id="path24" />
	<path
   style="fill:#f4eabc;fill-opacity:1"
   d="m 211.006,265.206 c -4.61,0 -8.348,-3.738 -8.348,-8.348 V 107.595 c 0,-4.61 3.738,-8.348 8.348,-8.348 4.61,0 8.348,3.738 8.348,8.348 v 149.264 c 0,4.609 -3.738,8.347 -8.348,8.347 z"
   id="path26" />
	<path
   style="fill:#f4eabc;fill-opacity:1"
   d="m 211.006,91.826 c -4.61,0 -8.348,-3.738 -8.348,-8.348 V 72.093 c 0,-4.61 3.738,-8.348 8.348,-8.348 4.61,0 8.348,3.738 8.348,8.348 v 11.385 c 0,4.61 -3.738,8.348 -8.348,8.348 z"
   id="path28" />
	<path
   style="fill:#f4eabc;fill-opacity:1"
   d="m 177.581,229.704 c -4.61,0 -8.348,-3.738 -8.348,-8.348 V 72.093 c 0,-4.61 3.738,-8.348 8.348,-8.348 4.61,0 8.348,3.738 8.348,8.348 v 149.264 c 0,4.61 -3.738,8.347 -8.348,8.347 z"
   id="path30" />
	<path
   style="fill:#f4eabc;fill-opacity:1"
   d="m 177.581,265.206 c -4.61,0 -8.348,-3.738 -8.348,-8.348 v -11.385 c 0,-4.61 3.738,-8.348 8.348,-8.348 4.61,0 8.348,3.738 8.348,8.348 v 11.385 c 0,4.61 -3.738,8.348 -8.348,8.348 z"
   id="path32" />
	<path
   style="fill:#f4eabc;fill-opacity:1"
   d="m 244.43,229.704 c -4.61,0 -8.348,-3.738 -8.348,-8.348 V 72.093 c 0,-4.61 3.738,-8.348 8.348,-8.348 4.61,0 8.348,3.738 8.348,8.348 v 149.264 c 0,4.61 -3.736,8.347 -8.348,8.347 z"
   id="path34" />
	<path
   style="fill:#f4eabc;fill-opacity:1"
   d="m 244.43,265.206 c -4.61,0 -8.348,-3.738 -8.348,-8.348 v -11.385 c 0,-4.61 3.738,-8.348 8.348,-8.348 4.61,0 8.348,3.738 8.348,8.348 v 11.385 c 0,4.61 -3.736,8.348 -8.348,8.348 z"
   id="path36" />
</g>
<g
   id="g44">
	<path
   style="fill:#EBF25F;"
   d="M16.517,72.093H0.54v7.494V95.89v29.332v132.735h15.976c7.377,0,13.357-5.979,13.357-13.357V85.449   C29.874,78.073,23.893,72.093,16.517,72.093z"
   id="path40" />
	<path
   style="fill:#EBF25F;"
   d="M16.517,317.136H0.54v98.974v29.332v5.259h15.976c7.377,0,13.357-5.98,13.357-13.357V330.493   C29.874,323.115,23.893,317.136,16.517,317.136z"
   id="path42" />
</g>
<g
   id="g50"
   style="fill:#ff9235;fill-opacity:1">
	<path
   style="fill:#ff9235;fill-opacity:1"
   d="M468.052,350.527c0,7.376-5.979,13.357-13.357,13.357H145.269c-7.376,0-13.357-5.98-13.357-13.357   v-20.035c0-7.377,5.98-13.357,13.357-13.357h309.426c7.377,0,13.357,5.979,13.357,13.357V350.527z"
   id="path46" />
	<path
   style="fill:#ff9235;fill-opacity:1"
   d="M468.052,437.345c0,7.376-5.979,13.357-13.357,13.357H145.269c-7.376,0-13.357-5.98-13.357-13.357   V417.31c0-7.377,5.98-13.357,13.357-13.357h309.426c7.377,0,13.357,5.979,13.357,13.357V437.345z"
   id="path48" />
</g>
<g
   id="g60">
	<path
   style="opacity:0.15;fill:#231F20;enable-background:new    ;"
   d="M301.096,243.502V85.449   c0-7.376,5.979-13.357,13.357-13.357h-17.809c-7.377,0-13.357,5.98-13.357,13.357v158.052c0,7.376,5.979,13.357,13.357,13.357   h17.809C307.075,256.858,301.096,250.878,301.096,243.502z"
   id="path52" />
	<path
   style="opacity:0.15;fill:#231F20;enable-background:new    ;"
   d="M347.287,197.31v-65.67c0-7.376,5.979-13.357,13.357-13.357   h-17.809c-7.377,0-13.357,5.98-13.357,13.357v65.67c0,7.376,5.979,13.357,13.357,13.357h17.809   C353.266,210.667,347.287,204.686,347.287,197.31z"
   id="path54" />
	<path
   style="opacity:0.1;fill:#231F20;enable-background:new    ;"
   d="M149.722,350.527v-20.035c0-7.377,5.98-13.357,13.357-13.357   h-17.809c-7.376,0-13.357,5.979-13.357,13.357v20.035c0,7.376,5.98,13.357,13.357,13.357h17.809   C155.701,363.884,149.722,357.904,149.722,350.527z"
   id="path56" />
	<path
   style="opacity:0.1;fill:#231F20;enable-background:new    ;"
   d="M149.722,437.345V417.31c0-7.377,5.98-13.357,13.357-13.357   h-17.809c-7.376,0-13.357,5.979-13.357,13.357v20.035c0,7.376,5.98,13.357,13.357,13.357h17.809   C155.701,450.701,149.722,444.721,149.722,437.345z"
   id="path58" />
</g>
<g
   id="g66">
	<path
   style="fill:#547475;"
   d="M434.375,475.429c-4.611,0-8.348-3.738-8.348-8.348V300.133c0-4.61,3.736-8.348,8.348-8.348   c4.611,0,8.348,3.738,8.348,8.348v166.948C442.722,471.691,438.985,475.429,434.375,475.429z"
   id="path62" />
	<path
   style="fill:#547475;"
   d="M165.589,475.429c-4.61,0-8.348-3.738-8.348-8.348V300.133c0-4.61,3.738-8.348,8.348-8.348   c4.61,0,8.348,3.738,8.348,8.348v166.948C173.937,471.691,170.199,475.429,165.589,475.429z"
   id="path64" />
</g>
<path
   style="opacity:0.15;fill:#231F20;enable-background:new    ;"
   d="M18.349,491.077v-29.332v-16.303V416.11V125.222V95.89  V79.587V50.255c0-11.556,9.367-20.923,20.923-20.923H21.463c-11.556,0-20.923,9.367-20.923,20.923v29.332V95.89v29.332V416.11  v29.332v16.303v29.332C0.54,502.633,9.908,512,21.463,512h17.809C27.716,512,18.349,502.633,18.349,491.077z"
   id="path68" />
<g
   id="g88">
	<path
   style="fill:#547475;"
   d="M347.375,124.356c-4.61,0-8.348-3.738-8.348-8.348V97.643c0-4.61,3.738-8.348,8.348-8.348   s8.348,3.738,8.348,8.348v18.365C355.723,120.618,351.984,124.356,347.375,124.356z"
   id="path70" />
	<path
   style="fill:#547475;"
   d="M375.201,124.356c-4.61,0-8.348-3.738-8.348-8.348V97.643c0-4.61,3.738-8.348,8.348-8.348   s8.348,3.738,8.348,8.348v18.365C383.549,120.618,379.81,124.356,375.201,124.356z"
   id="path72" />
	<path
   style="fill:#547475;"
   d="M403.027,124.356c-4.61,0-8.348-3.738-8.348-8.348V97.643c0-4.61,3.738-8.348,8.348-8.348   s8.348,3.738,8.348,8.348v18.365C411.375,120.618,407.636,124.356,403.027,124.356z"
   id="path74" />
	<path
   style="fill:#547475;"
   d="M347.843,237.38c-4.61,0-8.348-3.738-8.348-8.348v-18.365c0-4.61,3.738-8.348,8.348-8.348   c4.61,0,8.348,3.738,8.348,8.348v18.365C356.191,233.642,352.452,237.38,347.843,237.38z"
   id="path76" />
	<path
   style="fill:#547475;"
   d="M375.669,237.38c-4.61,0-8.348-3.738-8.348-8.348v-18.365c0-4.61,3.738-8.348,8.348-8.348   c4.61,0,8.348,3.738,8.348,8.348v18.365C384.017,233.642,380.279,237.38,375.669,237.38z"
   id="path78" />
	<path
   style="fill:#547475;"
   d="M403.496,237.38c-4.61,0-8.348-3.738-8.348-8.348v-18.365c0-4.61,3.738-8.348,8.348-8.348   s8.348,3.738,8.348,8.348v18.365C411.843,233.642,408.105,237.38,403.496,237.38z"
   id="path80" />
	<path
   style="fill:#547475;"
   d="M328.574,199.746h-18.365c-4.611,0-8.348-3.738-8.348-8.348c0-4.61,3.736-8.348,8.348-8.348h18.365   c4.611,0,8.348,3.738,8.348,8.348C336.922,196.008,333.186,199.746,328.574,199.746z"
   id="path82" />
	<path
   style="fill:#547475;"
   d="M328.106,171.451h-18.365c-4.61,0-8.348-3.738-8.348-8.348s3.738-8.348,8.348-8.348h18.365   c4.611,0,8.348,3.738,8.348,8.348S332.717,171.451,328.106,171.451z"
   id="path84" />
	<path
   style="fill:#547475;"
   d="M328.106,143.625h-18.365c-4.61,0-8.348-3.738-8.348-8.348c0-4.61,3.738-8.348,8.348-8.348h18.365   c4.611,0,8.348,3.738,8.348,8.348S332.717,143.625,328.106,143.625z"
   id="path86" />
</g>
</svg>
