<?xml version="1.0" encoding="UTF-8" standalone="no"?>
<!-- Uploaded to: SVG Repo, www.svgrepo.com, Generator: SVG Repo Mixer Tools -->

<svg
   version="1.1"
   id="Layer_1"
   width="800px"
   height="800px"
   viewBox="0 0 27 32"
   enable-background="new 0 0 27 32"
   xml:space="preserve"
   sodipodi:docname="tag.svg"
   inkscape:version="1.2 (dc2aedaf03, 2022-05-15)"
   xmlns:inkscape="http://www.inkscape.org/namespaces/inkscape"
   xmlns:sodipodi="http://sodipodi.sourceforge.net/DTD/sodipodi-0.dtd"
   xmlns="http://www.w3.org/2000/svg"
   xmlns:svg="http://www.w3.org/2000/svg"><defs
   id="defs9">
	
</defs><sodipodi:namedview
   id="namedview7"
   pagecolor="#ffffff"
   bordercolor="#000000"
   borderopacity="0.25"
   inkscape:showpageshadow="2"
   inkscape:pageopacity="0.0"
   inkscape:pagecheckerboard="0"
   inkscape:deskcolor="#d1d1d1"
   showgrid="false"
   inkscape:zoom="0.73450717"
   inkscape:cx="306.32785"
   inkscape:cy="476.50998"
   inkscape:window-width="1920"
   inkscape:window-height="1017"
   inkscape:window-x="1672"
   inkscape:window-y="-8"
   inkscape:window-maximized="1"
   inkscape:current-layer="Layer_1" />
<path
   fill="#808184"
   d="M 21.06,-0.024 C 18.86,-0.024 17,2.515 17,5.519 V 6 H 16.225 C 15.847,6 15.492,6.137 15.222,6.386 L 0.479,20.06 C 0.172,20.345 -0.003,20.749 0,21.169 c 0.002,0.42 0.182,0.822 0.491,1.104 l 10.262,9.319 c 0.272,0.248 0.624,0.383 0.99,0.384 0.388,0 0.754,-0.15 1.032,-0.422 L 26.548,18.075 C 26.836,17.794 27,17.402 27,16.999 V 7.479 C 27,6.664 26.335,6 25.518,6 h -0.416 c 0.011,-0.165 0.018,-0.332 0.018,-0.501 0,-3.031 -1.821,-5.523 -4.06,-5.523 z M 18,5.519 c 0,-2.42 1.43,-4.542 3.06,-4.542 1.659,0 3.061,2.06 3.061,4.498 0,0.18 -0.021,0.351 -0.035,0.525 H 18 Z M 25.518,7 C 25.788,7 26,7.21 26,7.479 v 9.519 c 0,0.136 -0.055,0.268 -0.15,0.361 L 12.076,30.838 c -0.173,0.171 -0.469,0.178 -0.651,0.013 L 1.163,21.533 C 1.059,21.438 1.001,21.307 1,21.164 0.999,21.021 1.056,20.889 1.159,20.793 L 15.901,7.12 C 16.008,7.021 16.136,7 16.225,7 h 7.706 C 23.723,7.859 23.351,8.597 22.864,9.118 22.851,9.105 22.843,9.09 22.83,9.078 c -0.984,-0.946 -2.69,-0.947 -3.675,0 -0.497,0.478 -0.771,1.115 -0.771,1.793 0,0.678 0.273,1.316 0.771,1.794 0.492,0.473 1.145,0.734 1.837,0.734 0.693,0 1.346,-0.261 1.838,-0.734 0.497,-0.479 0.771,-1.116 0.771,-1.794 0,-0.306 -0.063,-0.602 -0.17,-0.88 0.733,-0.718 1.283,-1.77 1.535,-2.992 h 0.552 z M 22.6,10.872 c 0,0.404 -0.164,0.786 -0.464,1.074 -0.608,0.586 -1.678,0.587 -2.288,0 -0.3,-0.288 -0.464,-0.669 -0.464,-1.074 0,-0.186 0.039,-0.367 0.106,-0.536 0.649,0.624 1.57,0.664 1.656,0.664 0.002,0 0.004,0 0.005,0 0.502,0 0.981,-0.136 1.424,-0.374 0.013,0.081 0.025,0.162 0.025,0.246 z M 20.16,9.57 c 0.249,-0.144 0.532,-0.226 0.831,-0.226 0.391,0 0.757,0.138 1.049,0.379 -0.283,0.135 -0.578,0.228 -0.891,0.228 -0.031,0 -0.623,-0.011 -0.989,-0.381 z"
   id="path2" />
<path
   style="fill:#e4d4a2;stroke:#000000;stroke-width:0.673887;stroke-linejoin:round;paint-order:fill markers stroke;fill-opacity:1"
   d="M 350.79468,772.28839 C 349.67639,771.64529 290.45642,718.16443 219.19473,653.44202 79.543569,526.60582 86.533009,533.4468 88.673785,525.69355 c 0.942967,-3.41516 -1.435151,-1.18922 289.665565,-271.12849 44.21179,-40.99784 81.63484,-75.51613 83.16232,-76.70732 l 2.77724,-2.1658 h 97.58377 c 88.87331,0 97.58377,0.1377 97.58377,1.54271 0,0.8485 -1.2858,5.38055 -2.85732,10.07124 -4.4795,13.3704 -12.29007,27.92597 -19.22119,35.82009 l -3.0706,3.49722 -5.95734,-4.42499 c -12.2011,-9.06273 -24.78924,-13.06458 -41.09572,-13.06458 -16.41318,0 -29.10913,4.06379 -41.12238,13.16268 -20.82938,15.77627 -29.53197,44.35091 -21.08587,69.23469 10.9453,32.24688 46.12954,50.5402 79.94785,41.56725 22.74311,-6.03438 41.06858,-24.69255 46.33643,-47.17767 1.92111,-8.20001 1.47592,-24.74481 -0.84048,-31.23499 l -1.52741,-4.27951 5.35497,-6.27292 c 14.27127,-16.71766 24.35985,-36.43872 30.57975,-59.77696 l 2.18085,-8.18291 8.69758,-0.27528 c 8.16207,-0.25833 8.88076,-0.12115 11.6725,2.22794 1.6362,1.37677 3.41838,4.09992 3.96041,6.05145 1.32121,4.75698 1.36354,239.01053 0.0441,243.76001 -0.70656,2.54325 -5.21042,7.58696 -18.05273,20.2166 -111.62751,109.77903 -328.9313,322.06621 -331.32979,323.6808 -2.87341,1.93431 -8.30984,2.15319 -11.26534,0.45358 z"
   id="path917"
   transform="matrix(0.04,0,0,0.04,-2.5,0)" /><path
   style="fill:none;stroke:#808184;stroke-width:0.8;stroke-linejoin:round;stroke-dasharray:none;paint-order:fill markers stroke;fill-opacity:1;stroke-opacity:1"
   d="M 4.4162022,21.647168 15.471233,11.572385 Z"
   id="path462" /><path
   style="fill:none;fill-opacity:1;stroke:#808184;stroke-width:0.8;stroke-linejoin:round;stroke-dasharray:none;stroke-opacity:1;paint-order:fill markers stroke"
   d="M 7.1663459,24.179478 18.221377,14.104695 Z"
   id="path462-1" /><path
   style="fill:none;fill-opacity:1;stroke:#808184;stroke-width:0.8;stroke-linejoin:round;stroke-dasharray:none;stroke-opacity:1;paint-order:fill markers stroke"
   d="M 10.052635,26.929621 21.107666,16.854838 Z"
   id="path462-9" /></svg>
