<?xml version="1.0" encoding="UTF-8" standalone="no"?>
<!-- Generator: Adobe Illustrator 18.0.0, SVG Export Plug-In . SVG Version: 6.00 Build 0)  -->

<svg
   version="1.1"
   id="Capa_1"
   x="0px"
   y="0px"
   viewBox="0 0 281.488 281.488"
   style="enable-background:new 0 0 281.488 281.488;"
   xml:space="preserve"
   sodipodi:docname="about.svg"
   inkscape:version="1.1.1 (3bf5ae0d25, 2021-09-20)"
   xmlns:inkscape="http://www.inkscape.org/namespaces/inkscape"
   xmlns:sodipodi="http://sodipodi.sourceforge.net/DTD/sodipodi-0.dtd"
   xmlns="http://www.w3.org/2000/svg"
   xmlns:svg="http://www.w3.org/2000/svg"><defs
   id="defs43" /><sodipodi:namedview
   id="namedview41"
   pagecolor="#ffffff"
   bordercolor="#666666"
   borderopacity="1.0"
   inkscape:pageshadow="2"
   inkscape:pageopacity="0.0"
   inkscape:pagecheckerboard="0"
   showgrid="false"
   inkscape:zoom="2.955721"
   inkscape:cx="140.57484"
   inkscape:cy="140.57484"
   inkscape:window-width="1920"
   inkscape:window-height="1017"
   inkscape:window-x="1672"
   inkscape:window-y="-8"
   inkscape:window-maximized="1"
   inkscape:current-layer="Capa_1" />
<g
   id="g8"
   style="fill:#ffffff">
	<path
   d="M140.744,0C63.138,0,0,63.138,0,140.744s63.138,140.744,140.744,140.744s140.744-63.138,140.744-140.744   S218.351,0,140.744,0z M140.744,263.488C73.063,263.488,18,208.426,18,140.744S73.063,18,140.744,18   s122.744,55.063,122.744,122.744S208.425,263.488,140.744,263.488z"
   id="path2"
   style="fill:#ffffff" />
	<path
   d="M163.374,181.765l-16.824,9.849v-71.791c0-3.143-1.64-6.058-4.325-7.69c-2.686-1.632-6.027-1.747-8.818-0.299   l-23.981,12.436c-4.413,2.288-6.135,7.72-3.847,12.132c2.289,4.413,7.72,6.136,12.133,3.847l10.838-5.62v72.684   c0,3.225,1.726,6.203,4.523,7.808c1.387,0.795,2.932,1.192,4.477,1.192c1.572,0,3.143-0.411,4.546-1.232l30.371-17.778   c4.29-2.512,5.732-8.024,3.221-12.314S167.663,179.255,163.374,181.765z"
   id="path4"
   style="fill:#ffffff" />
	<circle
   cx="137.549"
   cy="86.612"
   r="12.435"
   id="circle6"
   style="fill:#ffffff" />
</g>
<g
   id="g10">
</g>
<g
   id="g12">
</g>
<g
   id="g14">
</g>
<g
   id="g16">
</g>
<g
   id="g18">
</g>
<g
   id="g20">
</g>
<g
   id="g22">
</g>
<g
   id="g24">
</g>
<g
   id="g26">
</g>
<g
   id="g28">
</g>
<g
   id="g30">
</g>
<g
   id="g32">
</g>
<g
   id="g34">
</g>
<g
   id="g36">
</g>
<g
   id="g38">
</g>
</svg>
