<?xml version="1.0" encoding="UTF-8" standalone="no"?>
<svg
   version="1.1"
   viewBox="0 0 512 512"
   enable-background="new 0 0 512 512"
   id="svg14"
   sodipodi:docname="power.svg"
   inkscape:version="1.1.1 (3bf5ae0d25, 2021-09-20)"
   xmlns:inkscape="http://www.inkscape.org/namespaces/inkscape"
   xmlns:sodipodi="http://sodipodi.sourceforge.net/DTD/sodipodi-0.dtd"
   xmlns="http://www.w3.org/2000/svg"
   xmlns:svg="http://www.w3.org/2000/svg">
  <defs
     id="defs18" />
  <sodipodi:namedview
     id="namedview16"
     pagecolor="#ffffff"
     bordercolor="#666666"
     borderopacity="1.0"
     inkscape:pageshadow="2"
     inkscape:pageopacity="0.0"
     inkscape:pagecheckerboard="0"
     showgrid="false"
     inkscape:zoom="1.625"
     inkscape:cx="255.69231"
     inkscape:cy="256.30769"
     inkscape:window-width="1920"
     inkscape:window-height="1017"
     inkscape:window-x="1672"
     inkscape:window-y="-8"
     inkscape:window-maximized="1"
     inkscape:current-layer="svg14" />
  <g
     id="g12"
     style="fill:#ffffff">
    <g
       id="g10"
       style="fill:#ffffff">
      <g
         id="g4"
         style="fill:#ffffff">
        <path
           d="m256,501c-118.1,0-214.1-96-214.1-214.1 0-79.3 43.5-151.7 113.6-189 9.9-5.3 22.3-1.5 27.6,8.4 5.3,10 1.5,22.3-8.4,27.6-56.7,30.2-92,88.8-92,153 0,95.5 77.7,173.3 173.3,173.3s173.3-77.7 173.3-173.3c0-64.1-35.2-122.7-92-153-9.9-5.3-13.7-17.7-8.4-27.6 5.3-9.9 17.6-13.7 27.6-8.4 70.1,37.3 113.6,109.8 113.6,189 0,118.1-96,214.1-214.1,214.1z"
           id="path2"
           style="fill:#ffffff" />
      </g>
      <g
         id="g8"
         style="fill:#ffffff">
        <path
           d="m256,318.7c-11.3,0-20.4-9.1-20.4-20.4v-266.9c0-11.3 9.1-20.4 20.4-20.4 11.3,0 20.4,9.1 20.4,20.4v266.8c0,11.3-9.1,20.5-20.4,20.5z"
           id="path6"
           style="fill:#ffffff" />
      </g>
    </g>
  </g>
</svg>
