<!-- kindly provided by 0xCats -->
<svg xmlns="http://www.w3.org/2000/svg" viewBox="0 0 565.34 560"><title>Asset 2</title><polygon points="556.34 0 7.34 0 0.34 7 0 543 19.34 560 557.34 560 565.34 553 565.34 8 556.34 0" fill="#8f8195"/><path d="M332,68.53q0,14.76,0,29.51c0,2.6-.35,3.06-3,3.18s-5.18.08-7.77.08l-38.14,0c-2.89,0-3.43.77-2.43,3.57,1.45,4.07,4.16,7.24,8.41,7.9,4.47.7,9.06,0,12-4.12,1.36-1.93,3.14-2.23,5.07-2.28a79.19,79.19,0,0,1,9.62.12c2,.19,2.35.71,1.51,2.52-4.77,10.23-12.52,15.69-24.05,16.71-13.93,1.23-26.38-11.49-27.77-21.68-.35-2.65-1.16-3.44-3.83-3.23-1.61.13-3.22,0-4.86.21-5.94.74-10.63-1.77-14.28-6.38a5.23,5.23,0,0,1-.93-3.23c-.11-9.5.1-28.49.1-28.49s-.28-2.25-.29-3.38c0-1.7-.75-2.3-2.48-2.35-3.49-.12-3.85-.63-3.83-4.11,0-5.3.11-5.59,5.29-6.18,1.64-.19,1.54-.86,1.55-1.92,0-4,.17-8.08,0-12.12-.08-2.19.74-3.13,2.81-3,2.86.18,5.72,0,8.6.29,2.25.24,2.82,1.25,2.82,3.16,0,3.83,0,7.67.08,11.5,0,2.7.1,2.74,2.79,2.87,4.34.22,4.34.22,4.12,4.64,0,.52-.1,1-.12,1.55-.1,3.71-.09,3.71-3.69,3.89-3.08.16-3.26.4-3.3,3.44-.08,6.53-.23,13.06-.3,19.59a45,45,0,0,0,.3,4.63,4.19,4.19,0,0,0,4.81,4,21.32,21.32,0,0,0,3.47-.41,2.8,2.8,0,0,0,1.71-1.86,27.53,27.53,0,0,1,5.35-9,28,28,0,0,1,18.42-9.81c10.36-1.22,19.8,4,24.7,13.4.64,1.23,1.05,3.55,2.22,3.3.6,0,.3-2.52.31-3.89l-.12-25.42s-.19-15.92-.25-23.89c0-3.42.54-3.92,4-3.94,2.79,0,5.6.12,8.38-.05,2-.12,2.42.72,2.5,2.52.48,11.27.48,33.83.48,33.83v4.34ZM292.61,89.44v.09c2,0,3.93.08,5.88,0,1.77-.1,4.28,1,5.1-.74s-1.41-3.25-2.51-4.66a10.38,10.38,0,0,0-10.56-3.72c-3.86.75-7.28,2.78-8.73,7-.61,1.75-.29,2.17,1.54,2.09C286.42,89.34,289.52,89.44,292.61,89.44Z" fill="#fdfdfc"/><path d="M235.63,98.09a2.58,2.58,0,0,1-2.64,2.63c-3.05,0-6.1,0-9.15,0-1.31,0-1.89-.5-1.89-1.82,0-4.11-.14-12.34-.14-12.34l-.19-12.48a40.81,40.81,0,0,0-.06-8.32c-1.44-7.49-7.92-9.94-14.29-5.75a9.76,9.76,0,0,0-4.59,8.73c0,9.32,0,18.64,0,28,0,3.19-.21,3.41-3.26,3.41-2.69,0-5.38-.15-8.06,0-2.88.15-2.71-5.05-2.71-5.05l.24-15.87L188.64,49s.85-2.53,3-2.38a62.65,62.65,0,0,0,8,0c2.24-.13,3.43.52,3.24,2.82,0,.49-.09,1.16.59,1.22.3,0,.73-.34,1-.63,5.37-6.48,18.2-6.83,25.6.08A17.25,17.25,0,0,1,235.81,63V80.07Z" fill="#fdfdfc"/><path d="M333.53,217.83a12.81,12.81,0,0,1-6.1-.83c-3.17-1.37-4-3.13-3.74-7.32a6.93,6.93,0,0,1,5.22-6.56,4.88,4.88,0,0,0,3.87-3.47,259.8,259.8,0,0,0,11.77-35.87c.55-2.3.71-4.68,1.54-6.93,1-2.68,1.7-3.19,4.59-3.15s4.3,1,4.9,3.35a16.07,16.07,0,0,1,.27,8.21A197.28,197.28,0,0,1,347,192c-1.26,2.94-2.37,6-3.55,8.93-.21.55-.72,1.11-.11,1.68.45.41,1,.09,1.46,0a37.77,37.77,0,0,0,24.56-16,30.48,30.48,0,0,0,5.28-20.05c-.63-8.14-7.58-13.16-15.41-14-4.32-.47-8.64.16-12.92-.48-3.33-.5-4.38-1.6-4.66-4.38a6.65,6.65,0,0,1,3.89-7,7.89,7.89,0,0,1,3.35-.5c8.22.43,16.23,1.61,23.38,6.17a24.53,24.53,0,0,1,10.89,14.52c2.58,9.27,1.19,18.13-2.8,26.71-4.39,9.45-11.8,16-20.45,21.36a65.15,65.15,0,0,1-21.5,8.45A37.39,37.39,0,0,1,333.53,217.83Z" fill="#fdfdfc"/><path d="M438.14,145.39a8.59,8.59,0,0,1-2.73,5.81c-4.91,5-10.27,9.6-14.93,14.9q-8,9.09-15.88,18.26a3.5,3.5,0,0,0-.82,3.61c1.26,4.82,3,9.45,4.71,14.1.72,1.94,1.42,3.89,2,5.87.82,2.72.37,4.28-1.4,5.51-2.55,1.76-5,1.82-7.14.1a13.72,13.72,0,0,1-3.49-5.07,35.5,35.5,0,0,1-2.69-8.54c-.15-.71-.12-1.63-.91-1.81s-1.16.75-1.54,1.31q-7.08,10.53-14.1,21.1c-1.54,2.33-3,4.74-5.67,6-2.37,1.1-4.67,1.17-6.67-.57a6.21,6.21,0,0,1-1.89-6.78,12.53,12.53,0,0,1,2.31-4.37c7.56-9.17,14.76-18.62,21.86-28.16a6.5,6.5,0,0,0,1.14-5.76c-1.65-7.88-3-15.82-4.38-23.74a6.65,6.65,0,0,1,.77-4.5c1.44-2.62,3.37-3.67,6.11-3.2a5.88,5.88,0,0,1,4.17,4.9c.34,5.06,1.6,10,2,15,.07.79-.11,1.85.85,2.13s1.13-.77,1.55-1.29c2.78-3.47,5.45-7,8.25-10.47,4.09-5.06,7.85-10.4,12.23-15.23a44.18,44.18,0,0,1,4.27-4.48c2.22-1.86,4.88-3,7.72-1.64S438,142.09,438.14,145.39Z" fill="#fdfdfc"/><rect x="85.34" y="463" width="15" height="54"/><rect x="85.34" y="443" width="15" height="16"/><rect x="71.34" y="137.5" width="216.45" height="90" fill="none" stroke="#fff" stroke-miterlimit="10" stroke-width="3"/><line x1="120.34" y1="163" x2="286.34" y2="163" fill="#fff" stroke="#fff" stroke-miterlimit="10" stroke-width="3"/><line x1="120.34" y1="179.5" x2="286.34" y2="179.5" fill="#fff" stroke="#fff" stroke-miterlimit="10" stroke-width="3"/><line x1="120.34" y1="192.5" x2="286.34" y2="192.5" fill="#fff" stroke="#fff" stroke-miterlimit="10" stroke-width="3"/><line x1="120.34" y1="202.5" x2="286.34" y2="202.5" fill="#fff" stroke="#fff" stroke-miterlimit="10" stroke-width="3"/><line x1="120.34" y1="210.5" x2="286.34" y2="210.5" fill="#fff" stroke="#fff" stroke-miterlimit="10" stroke-width="3"/><line x1="120.34" y1="216.5" x2="286.34" y2="216.5" fill="#fff" stroke="#fff" stroke-miterlimit="10" stroke-width="3"/><line x1="120.34" y1="221.5" x2="286.34" y2="221.5" fill="#fff" stroke="#fff" stroke-miterlimit="10" stroke-width="3"/><path d="M130.32,197.26v-7.59L157.7,146h7.74v68.83H155.1V154.26H158l-22.48,36.22-.74-2.39h39.8v9.17Z" fill="#fff"/><path d="M196.5,180.92l3.39,1.58c-6.42,5.12-9.38,9.2-9.38,16.36s4.31,12.38,10.37,12.38,9.53-5.11,9.53-11.25-3.31-10.24-14.08-15.91c-9.58-5-14.12-11.88-14.12-20.47,0-11.47,8.27-18.54,18.95-18.54,11.25,0,17.28,7,17.28,16,0,5.82-3.33,12.29-14.43,17.86l-3-1.65c6.33-6.16,8.26-10.2,8.26-16.31,0-5.9-3.07-10.72-8.38-10.72-4.72,0-8.89,3.74-8.89,9.7,0,5.41,2.43,10.4,13.37,16.1,10.38,5.45,15.53,11.57,15.53,21.49,0,11.29-8.31,18.81-20.7,18.81-12.19,0-19.53-6.12-19.53-16.76C180.65,191.22,186.24,185.46,196.5,180.92Z" fill="#fff"/><path d="M258.78,195.23c0-10.79-3.54-15.81-9.43-15.81-3.76,0-7.93,1.64-11.1,6.43l-1.79-1.34c3.71-7.94,9.84-11.9,16.59-11.9,10.66,0,17.05,8.06,17.05,20.7,0,15.37-9,23.07-20.24,23.07-13.33,0-21.74-10.77-21.74-29.81,0-21.33,14.32-38.75,37.87-41.5l.56,4.34c-18.45,5.25-26.88,16.64-26.88,35.22s4.1,26.55,10.3,26.55C255.28,211.18,258.78,206.15,258.78,195.23Z" fill="#fff"/><path d="M75.34,142v81h45V142Zm30,78h-15V166h15Zm0-58h-15V146h15Z" fill="#fff"/><text transform="translate(293.45 161.71) scale(1 1.1)" font-size="29" fill="#fff" font-family="NeoSansStd-Bold, Neo Sans Std" font-weight="700">TM</text><text transform="translate(445.45 161.71) scale(1 1.1)" font-size="29" fill="#fff" font-family="NeoSansStd-Bold, Neo Sans Std" font-weight="700">TM</text><text transform="translate(109.42 411.39)" font-size="36" font-family="NeoSansIntel-Medium, Neo Sans Intel" font-weight="500" letter-spacing="0.02em">A80486<tspan x="139.26" y="0" letter-spacing="0em">D</tspan><tspan x="162.48" y="0" letter-spacing="0.03em">X</tspan></text><text transform="translate(295.98 411.39) scale(2.01 1)" font-size="36" font-family="NeoSansIntel-Medium, Neo Sans Intel" font-weight="500" letter-spacing="0.03em">-</text><text transform="translate(320.16 411.39)" font-size="36" font-family="NeoSansIntel-Medium, Neo Sans Intel" font-weight="500" letter-spacing="0.02em">33<tspan x="-210.74" y="36">L2331067</tspan><tspan x="-210.74" y="72">SX666</tspan><tspan x="-210.74" y="108">I</tspan><tspan x="-200.23" y="108" letter-spacing="0em">N</tspan><tspan x="-175.39" y="108" letter-spacing="0em">T</tspan><tspan x="-154.64" y="108">EL </tspan><tspan x="-104.85" y="108" font-family="SegoeUISymbol, Segoe UI Symbol" font-weight="400">ⓂⒸ</tspan><tspan x="-41.03" y="108">1989</tspan></text><text transform="translate(339.45 51.93) scale(1.15 1.1)" font-size="29" fill="#fff" font-family="SegoeUISymbol, Segoe UI Symbol">Ⓡ</text><circle cx="26.08" cy="536.32" r="7.96" fill="#999"/><rect x="164.34" y="46" width="15" height="54" fill="#fff"/><rect x="164.34" y="26" width="15" height="16" fill="#fff"/></svg>