<?xml version="1.0" encoding="UTF-8" standalone="no"?>
<!-- Generator: Adobe Illustrator 19.0.0, SVG Export Plug-In . SVG Version: 6.00 Build 0)  -->

<svg
   version="1.1"
   id="Layer_1"
   x="0px"
   y="0px"
   viewBox="0 0 414.99927 371.87299"
   xml:space="preserve"
   sodipodi:docname="articles.svg"
   width="414.99927"
   height="371.87299"
   inkscape:version="1.1.2 (b8e25be833, 2022-02-05)"
   xmlns:inkscape="http://www.inkscape.org/namespaces/inkscape"
   xmlns:sodipodi="http://sodipodi.sourceforge.net/DTD/sodipodi-0.dtd"
   xmlns="http://www.w3.org/2000/svg"
   xmlns:svg="http://www.w3.org/2000/svg"><defs
   id="defs65" /><sodipodi:namedview
   id="namedview63"
   pagecolor="#ffffff"
   bordercolor="#666666"
   borderopacity="1.0"
   inkscape:pageshadow="2"
   inkscape:pageopacity="0.0"
   inkscape:pagecheckerboard="0"
   showgrid="false"
   height="511.99899px"
   fit-margin-top="0"
   fit-margin-left="0"
   fit-margin-right="0"
   fit-margin-bottom="0"
   inkscape:zoom="2.8085993"
   inkscape:cx="240.33332"
   inkscape:cy="191.55456"
   inkscape:window-width="2560"
   inkscape:window-height="1506"
   inkscape:window-x="-11"
   inkscape:window-y="-11"
   inkscape:window-maximized="1"
   inkscape:current-layer="Layer_1"
   width="414.99927px" />
<g
   id="g30"
   transform="translate(0,-70.063)"
   style="fill:#ffffff">
	<g
   id="g28"
   style="fill:#ffffff">
		<g
   id="g26"
   style="fill:#ffffff">
			<path
   d="m 61.978,269.473 h 107.787 c 10.402,0 18.863,-8.463 18.863,-18.863 V 142.821 c 0,-10.401 -8.463,-18.863 -18.863,-18.863 H 61.978 c -10.402,0 -18.863,8.463 -18.863,18.863 V 250.61 c 0,10.401 8.462,18.863 18.863,18.863 z M 59.283,142.821 c 0,-1.486 1.209,-2.695 2.695,-2.695 h 107.787 c 1.485,0 2.695,1.208 2.695,2.695 V 250.61 c 0,1.486 -1.209,2.695 -2.695,2.695 H 61.978 c -1.485,0 -2.695,-1.208 -2.695,-2.695 z"
   id="path2"
   style="fill:#ffffff" />
			<path
   d="m 296.416,347.621 c 0,-4.466 -3.618,-8.084 -8.084,-8.084 H 51.199 c -4.465,0 -8.084,3.618 -8.084,8.084 0,4.466 3.62,8.084 8.084,8.084 h 237.133 c 4.464,0 8.084,-3.618 8.084,-8.084 z"
   id="path4"
   style="fill:#ffffff" />
			<path
   d="m 506.15,189.847 c -5.648,-7.623 -14.33,-11.995 -23.816,-11.995 h -43.101 c -4.465,0 -8.084,3.618 -8.084,8.084 0,4.466 3.618,8.084 8.084,8.084 h 43.101 c 4.313,0 8.259,1.988 10.826,5.453 2.567,3.465 3.319,7.818 2.064,11.944 l -62.329,204.8 c -1.739,5.713 -6.919,9.55 -12.891,9.55 h -5.023 v -158.99 c 0,-4.466 -3.618,-8.084 -8.084,-8.084 -4.466,0 -8.084,3.618 -8.084,8.084 v 158.99 H 29.641 c -7.429,0 -13.474,-6.044 -13.474,-13.474 V 99.705 c 0,-7.43 6.044,-13.474 13.474,-13.474 H 385.34 c 7.429,0 13.474,6.044 13.474,13.474 v 134.737 c 0,4.466 3.618,8.084 8.084,8.084 4.466,0 8.084,-3.618 8.084,-8.084 V 99.705 c 0,-16.344 -13.298,-29.642 -29.641,-29.642 H 29.641 C 13.297,70.063 0,83.361 0,99.705 v 312.589 c 0,16.344 13.297,29.642 29.641,29.642 h 390.363 c 13.137,0 24.533,-8.444 28.357,-21.011 l 62.329,-204.8 c 2.763,-9.077 1.108,-18.655 -4.54,-26.278 z"
   id="path6"
   style="fill:#ffffff" />
			<path
   d="m 137.428,398.821 h 226.354 c 4.465,0 8.084,-3.618 8.084,-8.084 0,-4.466 -3.618,-8.084 -8.084,-8.084 H 137.428 c -4.465,0 -8.084,3.618 -8.084,8.084 0,4.465 3.62,8.084 8.084,8.084 z"
   id="path8"
   style="fill:#ffffff" />
			<path
   d="m 51.199,382.652 c -4.465,0 -8.084,3.618 -8.084,8.084 0,4.466 3.62,8.084 8.084,8.084 h 53.894 c 4.465,0 8.084,-3.618 8.084,-8.084 0,-4.466 -3.62,-8.084 -8.084,-8.084 z"
   id="path10"
   style="fill:#ffffff" />
			<path
   d="m 51.199,312.589 h 107.787 c 4.465,0 8.084,-3.618 8.084,-8.084 0,-4.466 -3.62,-8.084 -8.084,-8.084 H 51.199 c -4.465,0 -8.084,3.618 -8.084,8.084 0,4.466 3.619,8.084 8.084,8.084 z"
   id="path12"
   style="fill:#ffffff" />
			<path
   d="M 363.783,210.189 H 223.659 c -4.465,0 -8.084,3.619 -8.084,8.084 0,4.466 3.62,8.084 8.084,8.084 h 140.124 c 4.465,0 8.084,-3.618 8.084,-8.084 0,-4.465 -3.619,-8.084 -8.084,-8.084 z"
   id="path14"
   style="fill:#ffffff" />
			<path
   d="M 363.783,167.073 H 223.659 c -4.465,0 -8.084,3.619 -8.084,8.084 0,4.465 3.62,8.084 8.084,8.084 h 140.124 c 4.465,0 8.084,-3.619 8.084,-8.084 0,-4.465 -3.619,-8.084 -8.084,-8.084 z"
   id="path16"
   style="fill:#ffffff" />
			<path
   d="M 363.783,123.958 H 223.659 c -4.465,0 -8.084,3.619 -8.084,8.084 0,4.465 3.62,8.084 8.084,8.084 h 140.124 c 4.465,0 8.084,-3.619 8.084,-8.084 0,-4.465 -3.619,-8.084 -8.084,-8.084 z"
   id="path18"
   style="fill:#ffffff" />
			<path
   d="M 363.783,253.305 H 223.659 c -4.465,0 -8.084,3.619 -8.084,8.084 0,4.466 3.62,8.084 8.084,8.084 h 140.124 c 4.465,0 8.084,-3.618 8.084,-8.084 0,-4.465 -3.619,-8.084 -8.084,-8.084 z"
   id="path20"
   style="fill:#ffffff" />
			<path
   d="m 363.783,339.537 h -43.115 c -4.465,0 -8.084,3.618 -8.084,8.084 0,4.466 3.618,8.084 8.084,8.084 h 43.115 c 4.465,0 8.084,-3.618 8.084,-8.084 0,-4.466 -3.619,-8.084 -8.084,-8.084 z"
   id="path22"
   style="fill:#ffffff" />
			<path
   d="m 363.783,296.421 h -172.46 c -4.465,0 -8.084,3.618 -8.084,8.084 0,4.466 3.62,8.084 8.084,8.084 h 172.46 c 4.465,0 8.084,-3.618 8.084,-8.084 0,-4.466 -3.619,-8.084 -8.084,-8.084 z"
   id="path24"
   style="fill:#ffffff" />
		</g>
	</g>
</g>
<g
   id="g32"
   transform="translate(0,-70.063)"
   style="fill:#ffffff">
</g>
<g
   id="g34"
   transform="translate(0,-70.063)"
   style="fill:#ffffff">
</g>
<g
   id="g36"
   transform="translate(0,-70.063)"
   style="fill:#ffffff">
</g>
<g
   id="g38"
   transform="translate(0,-70.063)"
   style="fill:#ffffff">
</g>
<g
   id="g40"
   transform="translate(0,-70.063)"
   style="fill:#ffffff">
</g>
<g
   id="g42"
   transform="translate(0,-70.063)"
   style="fill:#ffffff">
</g>
<g
   id="g44"
   transform="translate(0,-70.063)"
   style="fill:#ffffff">
</g>
<g
   id="g46"
   transform="translate(0,-70.063)"
   style="fill:#ffffff">
</g>
<g
   id="g48"
   transform="translate(0,-70.063)"
   style="fill:#ffffff">
</g>
<g
   id="g50"
   transform="translate(0,-70.063)"
   style="fill:#ffffff">
</g>
<g
   id="g52"
   transform="translate(0,-70.063)"
   style="fill:#ffffff">
</g>
<g
   id="g54"
   transform="translate(0,-70.063)"
   style="fill:#ffffff">
</g>
<g
   id="g56"
   transform="translate(0,-70.063)"
   style="fill:#ffffff">
</g>
<g
   id="g58"
   transform="translate(0,-70.063)"
   style="fill:#ffffff">
</g>
<g
   id="g60"
   transform="translate(0,-70.063)"
   style="fill:#ffffff">
</g>
</svg>
