<?xml version="1.0" encoding="UTF-8" standalone="no"?>
<!-- Uploaded to: SVG Repo, www.svgrepo.com, Generator: SVG Repo Mixer Tools -->

<svg
   height="1039"
   width="986"
   version="1.1"
   id="Layer_1"
   viewBox="0 0 631.04 664.96"
   xml:space="preserve"
   sodipodi:docname="board_slot.svg"
   inkscape:version="1.2 (dc2aedaf03, 2022-05-15)"
   xmlns:inkscape="http://www.inkscape.org/namespaces/inkscape"
   xmlns:sodipodi="http://sodipodi.sourceforge.net/DTD/sodipodi-0.dtd"
   xmlns="http://www.w3.org/2000/svg"
   xmlns:svg="http://www.w3.org/2000/svg"><defs
   id="defs93">
	
	
	
	
	
	
	
	
</defs><sodipodi:namedview
   id="namedview91"
   pagecolor="#ffffff"
   bordercolor="#000000"
   borderopacity="0.25"
   inkscape:showpageshadow="2"
   inkscape:pageopacity="0.0"
   inkscape:pagecheckerboard="0"
   inkscape:deskcolor="#d1d1d1"
   showgrid="false"
   inkscape:zoom="1.03875"
   inkscape:cx="379.78339"
   inkscape:cy="481.82912"
   inkscape:window-width="2560"
   inkscape:window-height="1361"
   inkscape:window-x="2391"
   inkscape:window-y="-9"
   inkscape:window-maximized="1"
   inkscape:current-layer="Layer_1" />
<path
   style="fill:#547475"
   d="m 468.052,53.426 c 0,7.376 -5.979,13.357 -13.357,13.357 H 296.643 c -7.377,0 -13.357,-5.98 -13.357,-13.357 V 13.356 C 283.287,5.98 289.266,0 296.643,0 h 158.052 c 7.377,0 13.357,5.98 13.357,13.357 z"
   id="path2" />
<path
   style="opacity:0.1;fill:#231f20;enable-background:new"
   d="M 301.096,53.426 V 13.356 C 301.096,5.98 307.075,0 314.452,0 h -17.809 c -7.377,0 -13.357,5.98 -13.357,13.357 v 40.07 c 0,7.376 5.979,13.357 13.357,13.357 h 17.809 c -7.377,-0.001 -13.356,-5.982 -13.356,-13.358 z"
   id="path4" />
<path
   style="fill:#3a8cd3;fill-opacity:1"
   d="M 490.538,29.332 H 21.463 C 9.907,29.332 0.54,38.699 0.54,50.255 v 29.332 16.303 29.332 290.888 29.332 16.303 29.332 C 0.54,502.633 9.908,512 21.463,512 h 469.073 c 11.555,0 20.923,-9.367 20.923,-20.923 V 461.745 445.442 416.11 188.665 176.029 150.261 50.255 c 0.002,-11.556 -9.367,-20.923 -20.921,-20.923 z"
   id="path6" /><path
   style="fill:#88dd2c;fill-opacity:1"
   d="m 225.27094,293.57767 c -4.61,0 -8.348,-3.738 -8.348,-8.348 v -149.263 c 0,-4.61 3.738,-8.348 8.348,-8.348 4.61,0 8.348,3.738 8.348,8.348 v 149.264 c 0,4.609 -3.739,8.347 -8.348,8.347 z"
   id="path22-5" /><path
   style="fill:#f4eabc;fill-opacity:1"
   d="m 292.12094,133.1363 c -4.61,0 -8.348,-3.738 -8.348,-8.348 v -11.385 c 0,-4.61 3.738,-8.348 8.348,-8.348 4.61,0 8.348,3.738 8.348,8.348 v 11.385 c 0,4.61 -3.738,8.348 -8.348,8.348 z"
   id="path28-8" />
<path
   style="fill:#ebf25f"
   d="m 468.052,243.502 c 0,7.376 -5.979,13.357 -13.357,13.357 H 296.643 c -7.377,0 -13.357,-5.98 -13.357,-13.357 V 85.449 c 0,-7.376 5.979,-13.357 13.357,-13.357 h 158.052 c 7.377,0 13.357,5.98 13.357,13.357 z"
   id="path8" />
<path
   style="fill:#698f92"
   d="m 421.861,197.31 c 0,7.376 -5.979,13.357 -13.357,13.357 h -65.67 c -7.377,0 -13.357,-5.98 -13.357,-13.357 v -65.67 c 0,-7.376 5.979,-13.357 13.357,-13.357 h 65.67 c 7.377,0 13.357,5.98 13.357,13.357 z"
   id="path10" />
<g
   id="g20">
	<circle
   style="fill:#547475"
   cx="375.664"
   cy="163.573"
   r="16.325001"
   id="circle12" />
	<path
   style="fill:#547475"
   d="m 441.13,199.746 h -18.365 c -4.61,0 -8.348,-3.738 -8.348,-8.348 0,-4.61 3.738,-8.348 8.348,-8.348 h 18.365 c 4.61,0 8.348,3.738 8.348,8.348 0,4.61 -3.738,8.348 -8.348,8.348 z"
   id="path14" />
	<path
   style="fill:#547475"
   d="m 441.13,171.92 h -18.365 c -4.61,0 -8.348,-3.738 -8.348,-8.348 0,-4.61 3.738,-8.348 8.348,-8.348 h 18.365 c 4.61,0 8.348,3.738 8.348,8.348 0,4.61 -3.738,8.348 -8.348,8.348 z"
   id="path16" />
	<path
   style="fill:#547475"
   d="m 441.13,144.093 h -18.365 c -4.61,0 -8.348,-3.738 -8.348,-8.348 0,-4.61 3.738,-8.348 8.348,-8.348 h 18.365 c 4.61,0 8.348,3.738 8.348,8.348 0,4.611 -3.738,8.348 -8.348,8.348 z"
   id="path18" />
</g>
<g
   id="g38"
   style="fill:#f4eabc;fill-opacity:1"
   transform="translate(-55.451264,-4.9290012)">
	<path
   style="fill:#f4eabc;fill-opacity:1"
   d="m 144.156,265.206 c -4.61,0 -8.348,-3.738 -8.348,-8.348 V 107.595 c 0,-4.61 3.738,-8.348 8.348,-8.348 4.61,0 8.348,3.738 8.348,8.348 v 149.264 c 0,4.609 -3.739,8.347 -8.348,8.347 z"
   id="path22" />
	<path
   style="fill:#f4eabc;fill-opacity:1"
   d="m 144.156,91.826 c -4.61,0 -8.348,-3.738 -8.348,-8.348 V 72.093 c 0,-4.61 3.738,-8.348 8.348,-8.348 4.61,0 8.348,3.738 8.348,8.348 v 11.385 c 0,4.61 -3.739,8.348 -8.348,8.348 z"
   id="path24" />
	<path
   style="fill:#f4eabc;fill-opacity:1"
   d="m 211.006,265.206 c -4.61,0 -8.348,-3.738 -8.348,-8.348 V 107.595 c 0,-4.61 3.738,-8.348 8.348,-8.348 4.61,0 8.348,3.738 8.348,8.348 v 149.264 c 0,4.609 -3.738,8.347 -8.348,8.347 z"
   id="path26" />
	<path
   style="fill:#f4eabc;fill-opacity:1"
   d="m 211.006,91.826 c -4.61,0 -8.348,-3.738 -8.348,-8.348 V 72.093 c 0,-4.61 3.738,-8.348 8.348,-8.348 4.61,0 8.348,3.738 8.348,8.348 v 11.385 c 0,4.61 -3.738,8.348 -8.348,8.348 z"
   id="path28" />
	<path
   style="fill:#f4eabc;fill-opacity:1"
   d="m 177.581,229.704 c -4.61,0 -8.348,-3.738 -8.348,-8.348 V 72.093 c 0,-4.61 3.738,-8.348 8.348,-8.348 4.61,0 8.348,3.738 8.348,8.348 v 149.264 c 0,4.61 -3.738,8.347 -8.348,8.347 z"
   id="path30" />
	<path
   style="fill:#f4eabc;fill-opacity:1"
   d="m 177.581,265.206 c -4.61,0 -8.348,-3.738 -8.348,-8.348 v -11.385 c 0,-4.61 3.738,-8.348 8.348,-8.348 4.61,0 8.348,3.738 8.348,8.348 v 11.385 c 0,4.61 -3.738,8.348 -8.348,8.348 z"
   id="path32" />
	<path
   style="fill:#f4eabc;fill-opacity:1"
   d="m 244.43,229.704 c -4.61,0 -8.348,-3.738 -8.348,-8.348 V 72.093 c 0,-4.61 3.738,-8.348 8.348,-8.348 4.61,0 8.348,3.738 8.348,8.348 v 149.264 c 0,4.61 -3.736,8.347 -8.348,8.347 z"
   id="path34" />
	<path
   style="fill:#f4eabc;fill-opacity:1"
   d="m 244.43,265.206 c -4.61,0 -8.348,-3.738 -8.348,-8.348 v -11.385 c 0,-4.61 3.738,-8.348 8.348,-8.348 4.61,0 8.348,3.738 8.348,8.348 v 11.385 c 0,4.61 -3.736,8.348 -8.348,8.348 z"
   id="path36" />
</g>
<g
   id="g44">
	<path
   style="fill:#ebf25f"
   d="M 16.517,72.093 H 0.54 v 7.494 16.303 29.332 132.735 h 15.976 c 7.377,0 13.357,-5.979 13.357,-13.357 V 85.449 C 29.874,78.073 23.893,72.093 16.517,72.093 Z"
   id="path40" />
	<path
   style="fill:#ebf25f"
   d="M 16.517,317.136 H 0.54 v 98.974 29.332 5.259 h 15.976 c 7.377,0 13.357,-5.98 13.357,-13.357 V 330.493 c 10e-4,-7.378 -5.98,-13.357 -13.356,-13.357 z"
   id="path42" />
</g>
<g
   id="g50"
   style="fill:#ff9235;fill-opacity:1">
	<path
   style="fill:#ff9235;fill-opacity:1"
   d="m 468.052,350.527 c 0,7.376 -5.979,13.357 -13.357,13.357 H 145.269 c -7.376,0 -13.357,-5.98 -13.357,-13.357 v -20.035 c 0,-7.377 5.98,-13.357 13.357,-13.357 h 309.426 c 7.377,0 13.357,5.979 13.357,13.357 z"
   id="path46" />
	<path
   style="fill:#ff9235;fill-opacity:1"
   d="m 468.052,437.345 c 0,7.376 -5.979,13.357 -13.357,13.357 H 145.269 c -7.376,0 -13.357,-5.98 -13.357,-13.357 V 417.31 c 0,-7.377 5.98,-13.357 13.357,-13.357 h 309.426 c 7.377,0 13.357,5.979 13.357,13.357 z"
   id="path48" />
</g>
<g
   id="g60">
	<path
   style="opacity:0.15;fill:#231f20;enable-background:new"
   d="M 301.096,243.502 V 85.449 c 0,-7.376 5.979,-13.357 13.357,-13.357 h -17.809 c -7.377,0 -13.357,5.98 -13.357,13.357 v 158.052 c 0,7.376 5.979,13.357 13.357,13.357 h 17.809 c -7.378,0 -13.357,-5.98 -13.357,-13.356 z"
   id="path52" />
	<path
   style="opacity:0.15;fill:#231f20;enable-background:new"
   d="m 347.287,197.31 v -65.67 c 0,-7.376 5.979,-13.357 13.357,-13.357 h -17.809 c -7.377,0 -13.357,5.98 -13.357,13.357 v 65.67 c 0,7.376 5.979,13.357 13.357,13.357 h 17.809 c -7.378,0 -13.357,-5.981 -13.357,-13.357 z"
   id="path54" />
	<path
   style="opacity:0.1;fill:#231f20;enable-background:new"
   d="m 149.722,350.527 v -20.035 c 0,-7.377 5.98,-13.357 13.357,-13.357 H 145.27 c -7.376,0 -13.357,5.979 -13.357,13.357 v 20.035 c 0,7.376 5.98,13.357 13.357,13.357 h 17.809 c -7.378,0 -13.357,-5.98 -13.357,-13.357 z"
   id="path56" />
	<path
   style="opacity:0.1;fill:#231f20;enable-background:new"
   d="M 149.722,437.345 V 417.31 c 0,-7.377 5.98,-13.357 13.357,-13.357 H 145.27 c -7.376,0 -13.357,5.979 -13.357,13.357 v 20.035 c 0,7.376 5.98,13.357 13.357,13.357 h 17.809 c -7.378,-10e-4 -13.357,-5.981 -13.357,-13.357 z"
   id="path58" />
</g>
<g
   id="g66">
	<path
   style="fill:#547475"
   d="m 434.375,475.429 c -4.611,0 -8.348,-3.738 -8.348,-8.348 V 300.133 c 0,-4.61 3.736,-8.348 8.348,-8.348 4.611,0 8.348,3.738 8.348,8.348 v 166.948 c -0.001,4.61 -3.738,8.348 -8.348,8.348 z"
   id="path62" />
	<path
   style="fill:#547475"
   d="m 165.589,475.429 c -4.61,0 -8.348,-3.738 -8.348,-8.348 V 300.133 c 0,-4.61 3.738,-8.348 8.348,-8.348 4.61,0 8.348,3.738 8.348,8.348 v 166.948 c 0,4.61 -3.738,8.348 -8.348,8.348 z"
   id="path64" />
</g>
<path
   style="opacity:0.15;fill:#231f20;enable-background:new"
   d="M 18.349,491.077 V 461.745 445.442 416.11 125.222 95.89 79.587 50.255 c 0,-11.556 9.367,-20.923 20.923,-20.923 H 21.463 C 9.907,29.332 0.54,38.699 0.54,50.255 v 29.332 16.303 29.332 290.888 29.332 16.303 29.332 C 0.54,502.633 9.908,512 21.463,512 h 17.809 c -11.556,0 -20.923,-9.367 -20.923,-20.923 z"
   id="path68" />
<g
   id="g88">
	<path
   style="fill:#547475"
   d="m 347.375,124.356 c -4.61,0 -8.348,-3.738 -8.348,-8.348 V 97.643 c 0,-4.61 3.738,-8.348 8.348,-8.348 4.61,0 8.348,3.738 8.348,8.348 v 18.365 c 0,4.61 -3.739,8.348 -8.348,8.348 z"
   id="path70" />
	<path
   style="fill:#547475"
   d="m 375.201,124.356 c -4.61,0 -8.348,-3.738 -8.348,-8.348 V 97.643 c 0,-4.61 3.738,-8.348 8.348,-8.348 4.61,0 8.348,3.738 8.348,8.348 v 18.365 c 0,4.61 -3.739,8.348 -8.348,8.348 z"
   id="path72" />
	<path
   style="fill:#547475"
   d="m 403.027,124.356 c -4.61,0 -8.348,-3.738 -8.348,-8.348 V 97.643 c 0,-4.61 3.738,-8.348 8.348,-8.348 4.61,0 8.348,3.738 8.348,8.348 v 18.365 c 0,4.61 -3.739,8.348 -8.348,8.348 z"
   id="path74" />
	<path
   style="fill:#547475"
   d="m 347.843,237.38 c -4.61,0 -8.348,-3.738 -8.348,-8.348 v -18.365 c 0,-4.61 3.738,-8.348 8.348,-8.348 4.61,0 8.348,3.738 8.348,8.348 v 18.365 c 0,4.61 -3.739,8.348 -8.348,8.348 z"
   id="path76" />
	<path
   style="fill:#547475"
   d="m 375.669,237.38 c -4.61,0 -8.348,-3.738 -8.348,-8.348 v -18.365 c 0,-4.61 3.738,-8.348 8.348,-8.348 4.61,0 8.348,3.738 8.348,8.348 v 18.365 c 0,4.61 -3.738,8.348 -8.348,8.348 z"
   id="path78" />
	<path
   style="fill:#547475"
   d="m 403.496,237.38 c -4.61,0 -8.348,-3.738 -8.348,-8.348 v -18.365 c 0,-4.61 3.738,-8.348 8.348,-8.348 4.61,0 8.348,3.738 8.348,8.348 v 18.365 c -10e-4,4.61 -3.739,8.348 -8.348,8.348 z"
   id="path80" />
	<path
   style="fill:#547475"
   d="m 328.574,199.746 h -18.365 c -4.611,0 -8.348,-3.738 -8.348,-8.348 0,-4.61 3.736,-8.348 8.348,-8.348 h 18.365 c 4.611,0 8.348,3.738 8.348,8.348 0,4.61 -3.736,8.348 -8.348,8.348 z"
   id="path82" />
	<path
   style="fill:#547475"
   d="m 328.106,171.451 h -18.365 c -4.61,0 -8.348,-3.738 -8.348,-8.348 0,-4.61 3.738,-8.348 8.348,-8.348 h 18.365 c 4.611,0 8.348,3.738 8.348,8.348 0,4.61 -3.737,8.348 -8.348,8.348 z"
   id="path84" />
	<path
   style="fill:#547475"
   d="m 328.106,143.625 h -18.365 c -4.61,0 -8.348,-3.738 -8.348,-8.348 0,-4.61 3.738,-8.348 8.348,-8.348 h 18.365 c 4.611,0 8.348,3.738 8.348,8.348 0,4.61 -3.737,8.348 -8.348,8.348 z"
   id="path86" />
</g>
<g
   id="g24890"
   transform="matrix(0.64,0,0,0.64,287.14342,401.74126)"><g
     id="g24753">
	<path
   style="fill:#ff6600"
   d="m 18.064,193.007 12.864,49.36 c 2.8,10.832 5.408,20.88 7.216,30.912 h 0.608 c 2.208,-9.84 5.408,-20.272 8.608,-30.704 l 15.872,-49.552 h 14.816 l 15.072,48.56 c 3.6,11.632 6.416,21.872 8.608,31.712 h 0.608 c 1.6,-9.84 4.24,-20.08 7.456,-31.504 l 13.824,-48.752 h 17.472 l -31.296,97.12 H 93.712 L 78.848,243.807 C 75.44,232.991 72.64,223.359 70.24,211.919 h -0.416 c -2.4,11.632 -5.408,21.68 -8.816,32.096 l -15.664,46.16 H 29.328 L 0,193.007 Z"
   id="path24747" />
	<path
   style="fill:#ff6600"
   d="m 168.064,193.007 12.864,49.36 c 2.8,10.832 5.408,20.88 7.216,30.912 h 0.608 c 2.208,-9.84 5.408,-20.272 8.608,-30.704 l 15.872,-49.552 h 14.816 l 15.072,48.56 c 3.6,11.632 6.416,21.872 8.608,31.712 h 0.608 c 1.6,-9.84 4.24,-20.08 7.456,-31.504 l 13.824,-48.752 h 17.472 l -31.296,97.12 h -16.064 l -14.864,-46.352 c -3.408,-10.816 -6.208,-20.448 -8.608,-31.888 h -0.4 c -2.4,11.632 -5.408,21.68 -8.816,32.096 l -15.664,46.16 h -16.032 l -29.328,-97.12 h 18.048 z"
   id="path24749" />
	<path
   style="fill:#ff6600"
   d="m 318.112,193.007 12.816,49.36 c 2.8,10.832 5.408,20.88 7.216,30.912 h 0.608 c 2.208,-9.84 5.456,-20.272 8.656,-30.704 l 15.824,-49.552 h 14.864 l 15.072,48.56 c 3.6,11.632 6.416,21.872 8.608,31.712 h 0.608 c 1.6,-9.84 4.208,-20.08 7.408,-31.504 l 13.856,-48.752 h 17.424 l -31.296,97.12 H 393.744 L 378.88,243.807 c -3.408,-10.816 -6.208,-20.448 -8.608,-31.888 h -0.4 c -2.4,11.632 -5.456,21.68 -8.848,32.096 l -15.632,46.16 h -16.064 l -29.28,-97.12 h 18.064 z"
   id="path24751" />
</g><g
     id="g24759">
	<path
   style="fill:#22acdd"
   d="m 366.448,369.007 c -41.632,0 -81.088,-20.128 -105.568,-53.84 l 11.616,-8.448 c 21.792,30.032 56.912,47.952 93.952,47.952 63.968,0 116.032,-52.064 116.032,-116.032 0,-63.968 -52.064,-116.032 -116.032,-116.032 -42.928,0 -82.176,23.552 -102.432,61.472 l -12.656,-6.768 c 22.752,-42.592 66.848,-69.056 115.088,-69.056 71.888,0 130.368,58.48 130.368,130.368 0,71.888 -58.48,130.384 -130.368,130.384 z"
   id="path24755" />
	
		<rect
   x="433.14099"
   y="360.939"
   transform="matrix(-0.7063,-0.7079,0.7079,-0.7063,552.3334,965.3643)"
   style="fill:#22acdd"
   width="86.558998"
   height="14.336"
   id="rect24757" />
</g></g></svg>
