<?xml version="1.0" encoding="UTF-8" standalone="no"?>
<!-- Uploaded to: SVG Repo, www.svgrepo.com, Generator: SVG Repo Mixer Tools -->

<svg
   height="939.1095"
   width="860.3631"
   version="1.1"
   id="Layer_1"
   viewBox="0 0 550.63238 601.03008"
   xml:space="preserve"
   sodipodi:docname="board_alias.svg"
   inkscape:version="1.2 (dc2aedaf03, 2022-05-15)"
   xmlns:inkscape="http://www.inkscape.org/namespaces/inkscape"
   xmlns:sodipodi="http://sodipodi.sourceforge.net/DTD/sodipodi-0.dtd"
   xmlns="http://www.w3.org/2000/svg"
   xmlns:svg="http://www.w3.org/2000/svg"><defs
   id="defs93">
	
	
	
	
	
	
	
	
</defs><sodipodi:namedview
   id="namedview91"
   pagecolor="#ffffff"
   bordercolor="#000000"
   borderopacity="0.25"
   inkscape:showpageshadow="2"
   inkscape:pageopacity="0.0"
   inkscape:pagecheckerboard="0"
   inkscape:deskcolor="#d1d1d1"
   showgrid="false"
   inkscape:zoom="1.03875"
   inkscape:cx="378.8207"
   inkscape:cy="400"
   inkscape:window-width="2560"
   inkscape:window-height="1361"
   inkscape:window-x="2391"
   inkscape:window-y="-9"
   inkscape:window-maximized="1"
   inkscape:current-layer="Layer_1" />
<path
   style="fill:#547475"
   d="m 467.512,53.426 c 0,7.376 -5.979,13.357 -13.357,13.357 H 296.103 c -7.377,0 -13.357,-5.98 -13.357,-13.357 V 13.356 C 282.747,5.98 288.726,0 296.103,0 h 158.052 c 7.377,0 13.357,5.98 13.357,13.357 z"
   id="path2" />
<path
   style="opacity:0.1;fill:#231f20;enable-background:new"
   d="M 300.556,53.426 V 13.356 C 300.556,5.98 306.535,0 313.912,0 h -17.809 c -7.377,0 -13.357,5.98 -13.357,13.357 v 40.07 c 0,7.376 5.979,13.357 13.357,13.357 h 17.809 c -7.377,-0.001 -13.356,-5.982 -13.356,-13.358 z"
   id="path4" />
<path
   style="fill:#3a8cd3;fill-opacity:1"
   d="M 489.998,29.332 H 20.923 C 9.367,29.332 0,38.699 0,50.255 v 29.332 16.303 29.332 290.888 29.332 16.303 29.332 C 0,502.633 9.368,512 20.923,512 h 469.073 c 11.555,0 20.923,-9.367 20.923,-20.923 V 461.745 445.442 416.11 188.665 176.029 150.261 50.255 c 0.002,-11.556 -9.367,-20.923 -20.921,-20.923 z"
   id="path6" /><path
   style="fill:#88dd2c;fill-opacity:1"
   d="m 224.73094,293.57767 c -4.61,0 -8.348,-3.738 -8.348,-8.348 v -149.263 c 0,-4.61 3.738,-8.348 8.348,-8.348 4.61,0 8.348,3.738 8.348,8.348 v 149.264 c 0,4.609 -3.739,8.347 -8.348,8.347 z"
   id="path22-5" /><path
   style="fill:#f4eabc;fill-opacity:1"
   d="m 291.58094,133.1363 c -4.61,0 -8.348,-3.738 -8.348,-8.348 v -11.385 c 0,-4.61 3.738,-8.348 8.348,-8.348 4.61,0 8.348,3.738 8.348,8.348 v 11.385 c 0,4.61 -3.738,8.348 -8.348,8.348 z"
   id="path28-8" />
<path
   style="fill:#ebf25f"
   d="m 467.512,243.502 c 0,7.376 -5.979,13.357 -13.357,13.357 H 296.103 c -7.377,0 -13.357,-5.98 -13.357,-13.357 V 85.449 c 0,-7.376 5.979,-13.357 13.357,-13.357 h 158.052 c 7.377,0 13.357,5.98 13.357,13.357 z"
   id="path8" />
<path
   style="fill:#698f92"
   d="m 421.321,197.31 c 0,7.376 -5.979,13.357 -13.357,13.357 h -65.67 c -7.377,0 -13.357,-5.98 -13.357,-13.357 v -65.67 c 0,-7.376 5.979,-13.357 13.357,-13.357 h 65.67 c 7.377,0 13.357,5.98 13.357,13.357 z"
   id="path10" />
<g
   id="g20"
   transform="translate(-0.54)">
	<circle
   style="fill:#547475"
   cx="375.664"
   cy="163.573"
   r="16.325001"
   id="circle12" />
	<path
   style="fill:#547475"
   d="m 441.13,199.746 h -18.365 c -4.61,0 -8.348,-3.738 -8.348,-8.348 0,-4.61 3.738,-8.348 8.348,-8.348 h 18.365 c 4.61,0 8.348,3.738 8.348,8.348 0,4.61 -3.738,8.348 -8.348,8.348 z"
   id="path14" />
	<path
   style="fill:#547475"
   d="m 441.13,171.92 h -18.365 c -4.61,0 -8.348,-3.738 -8.348,-8.348 0,-4.61 3.738,-8.348 8.348,-8.348 h 18.365 c 4.61,0 8.348,3.738 8.348,8.348 0,4.61 -3.738,8.348 -8.348,8.348 z"
   id="path16" />
	<path
   style="fill:#547475"
   d="m 441.13,144.093 h -18.365 c -4.61,0 -8.348,-3.738 -8.348,-8.348 0,-4.61 3.738,-8.348 8.348,-8.348 h 18.365 c 4.61,0 8.348,3.738 8.348,8.348 0,4.611 -3.738,8.348 -8.348,8.348 z"
   id="path18" />
</g>
<g
   id="g38"
   style="fill:#f4eabc;fill-opacity:1"
   transform="translate(-55.991264,-4.9290012)">
	<path
   style="fill:#f4eabc;fill-opacity:1"
   d="m 144.156,265.206 c -4.61,0 -8.348,-3.738 -8.348,-8.348 V 107.595 c 0,-4.61 3.738,-8.348 8.348,-8.348 4.61,0 8.348,3.738 8.348,8.348 v 149.264 c 0,4.609 -3.739,8.347 -8.348,8.347 z"
   id="path22" />
	<path
   style="fill:#f4eabc;fill-opacity:1"
   d="m 144.156,91.826 c -4.61,0 -8.348,-3.738 -8.348,-8.348 V 72.093 c 0,-4.61 3.738,-8.348 8.348,-8.348 4.61,0 8.348,3.738 8.348,8.348 v 11.385 c 0,4.61 -3.739,8.348 -8.348,8.348 z"
   id="path24" />
	<path
   style="fill:#f4eabc;fill-opacity:1"
   d="m 211.006,265.206 c -4.61,0 -8.348,-3.738 -8.348,-8.348 V 107.595 c 0,-4.61 3.738,-8.348 8.348,-8.348 4.61,0 8.348,3.738 8.348,8.348 v 149.264 c 0,4.609 -3.738,8.347 -8.348,8.347 z"
   id="path26" />
	<path
   style="fill:#f4eabc;fill-opacity:1"
   d="m 211.006,91.826 c -4.61,0 -8.348,-3.738 -8.348,-8.348 V 72.093 c 0,-4.61 3.738,-8.348 8.348,-8.348 4.61,0 8.348,3.738 8.348,8.348 v 11.385 c 0,4.61 -3.738,8.348 -8.348,8.348 z"
   id="path28" />
	<path
   style="fill:#f4eabc;fill-opacity:1"
   d="m 177.581,229.704 c -4.61,0 -8.348,-3.738 -8.348,-8.348 V 72.093 c 0,-4.61 3.738,-8.348 8.348,-8.348 4.61,0 8.348,3.738 8.348,8.348 v 149.264 c 0,4.61 -3.738,8.347 -8.348,8.347 z"
   id="path30" />
	<path
   style="fill:#f4eabc;fill-opacity:1"
   d="m 177.581,265.206 c -4.61,0 -8.348,-3.738 -8.348,-8.348 v -11.385 c 0,-4.61 3.738,-8.348 8.348,-8.348 4.61,0 8.348,3.738 8.348,8.348 v 11.385 c 0,4.61 -3.738,8.348 -8.348,8.348 z"
   id="path32" />
	<path
   style="fill:#f4eabc;fill-opacity:1"
   d="m 244.43,229.704 c -4.61,0 -8.348,-3.738 -8.348,-8.348 V 72.093 c 0,-4.61 3.738,-8.348 8.348,-8.348 4.61,0 8.348,3.738 8.348,8.348 v 149.264 c 0,4.61 -3.736,8.347 -8.348,8.347 z"
   id="path34" />
	<path
   style="fill:#f4eabc;fill-opacity:1"
   d="m 244.43,265.206 c -4.61,0 -8.348,-3.738 -8.348,-8.348 v -11.385 c 0,-4.61 3.738,-8.348 8.348,-8.348 4.61,0 8.348,3.738 8.348,8.348 v 11.385 c 0,4.61 -3.736,8.348 -8.348,8.348 z"
   id="path36" />
</g>
<g
   id="g44"
   transform="translate(-0.54)">
	<path
   style="fill:#ebf25f"
   d="M 16.517,72.093 H 0.54 v 7.494 16.303 29.332 132.735 h 15.976 c 7.377,0 13.357,-5.979 13.357,-13.357 V 85.449 C 29.874,78.073 23.893,72.093 16.517,72.093 Z"
   id="path40" />
	<path
   style="fill:#ebf25f"
   d="M 16.517,317.136 H 0.54 v 98.974 29.332 5.259 h 15.976 c 7.377,0 13.357,-5.98 13.357,-13.357 V 330.493 c 10e-4,-7.378 -5.98,-13.357 -13.356,-13.357 z"
   id="path42" />
</g>
<g
   id="g50"
   style="fill:#ff9235;fill-opacity:1"
   transform="translate(-0.54)">
	<path
   style="fill:#ff9235;fill-opacity:1"
   d="m 468.052,350.527 c 0,7.376 -5.979,13.357 -13.357,13.357 H 145.269 c -7.376,0 -13.357,-5.98 -13.357,-13.357 v -20.035 c 0,-7.377 5.98,-13.357 13.357,-13.357 h 309.426 c 7.377,0 13.357,5.979 13.357,13.357 z"
   id="path46" />
	<path
   style="fill:#ff9235;fill-opacity:1"
   d="m 468.052,437.345 c 0,7.376 -5.979,13.357 -13.357,13.357 H 145.269 c -7.376,0 -13.357,-5.98 -13.357,-13.357 V 417.31 c 0,-7.377 5.98,-13.357 13.357,-13.357 h 309.426 c 7.377,0 13.357,5.979 13.357,13.357 z"
   id="path48" />
</g>
<g
   id="g60"
   transform="translate(-0.54)">
	<path
   style="opacity:0.15;fill:#231f20;enable-background:new"
   d="M 301.096,243.502 V 85.449 c 0,-7.376 5.979,-13.357 13.357,-13.357 h -17.809 c -7.377,0 -13.357,5.98 -13.357,13.357 v 158.052 c 0,7.376 5.979,13.357 13.357,13.357 h 17.809 c -7.378,0 -13.357,-5.98 -13.357,-13.356 z"
   id="path52" />
	<path
   style="opacity:0.15;fill:#231f20;enable-background:new"
   d="m 347.287,197.31 v -65.67 c 0,-7.376 5.979,-13.357 13.357,-13.357 h -17.809 c -7.377,0 -13.357,5.98 -13.357,13.357 v 65.67 c 0,7.376 5.979,13.357 13.357,13.357 h 17.809 c -7.378,0 -13.357,-5.981 -13.357,-13.357 z"
   id="path54" />
	<path
   style="opacity:0.1;fill:#231f20;enable-background:new"
   d="m 149.722,350.527 v -20.035 c 0,-7.377 5.98,-13.357 13.357,-13.357 H 145.27 c -7.376,0 -13.357,5.979 -13.357,13.357 v 20.035 c 0,7.376 5.98,13.357 13.357,13.357 h 17.809 c -7.378,0 -13.357,-5.98 -13.357,-13.357 z"
   id="path56" />
	<path
   style="opacity:0.1;fill:#231f20;enable-background:new"
   d="M 149.722,437.345 V 417.31 c 0,-7.377 5.98,-13.357 13.357,-13.357 H 145.27 c -7.376,0 -13.357,5.979 -13.357,13.357 v 20.035 c 0,7.376 5.98,13.357 13.357,13.357 h 17.809 c -7.378,-10e-4 -13.357,-5.981 -13.357,-13.357 z"
   id="path58" />
</g>
<g
   id="g66"
   transform="translate(-0.54)">
	<path
   style="fill:#547475"
   d="m 434.375,475.429 c -4.611,0 -8.348,-3.738 -8.348,-8.348 V 300.133 c 0,-4.61 3.736,-8.348 8.348,-8.348 4.611,0 8.348,3.738 8.348,8.348 v 166.948 c -0.001,4.61 -3.738,8.348 -8.348,8.348 z"
   id="path62" />
	<path
   style="fill:#547475"
   d="m 165.589,475.429 c -4.61,0 -8.348,-3.738 -8.348,-8.348 V 300.133 c 0,-4.61 3.738,-8.348 8.348,-8.348 4.61,0 8.348,3.738 8.348,8.348 v 166.948 c 0,4.61 -3.738,8.348 -8.348,8.348 z"
   id="path64" />
</g>
<path
   style="opacity:0.15;fill:#231f20;enable-background:new"
   d="M 17.809,491.077 V 461.745 445.442 416.11 125.222 95.89 79.587 50.255 c 0,-11.556 9.367,-20.923 20.923,-20.923 H 20.923 C 9.367,29.332 0,38.699 0,50.255 v 29.332 16.303 29.332 290.888 29.332 16.303 29.332 C 0,502.633 9.368,512 20.923,512 h 17.809 c -11.556,0 -20.923,-9.367 -20.923,-20.923 z"
   id="path68" />
<g
   id="g88"
   transform="translate(-0.54)">
	<path
   style="fill:#547475"
   d="m 347.375,124.356 c -4.61,0 -8.348,-3.738 -8.348,-8.348 V 97.643 c 0,-4.61 3.738,-8.348 8.348,-8.348 4.61,0 8.348,3.738 8.348,8.348 v 18.365 c 0,4.61 -3.739,8.348 -8.348,8.348 z"
   id="path70" />
	<path
   style="fill:#547475"
   d="m 375.201,124.356 c -4.61,0 -8.348,-3.738 -8.348,-8.348 V 97.643 c 0,-4.61 3.738,-8.348 8.348,-8.348 4.61,0 8.348,3.738 8.348,8.348 v 18.365 c 0,4.61 -3.739,8.348 -8.348,8.348 z"
   id="path72" />
	<path
   style="fill:#547475"
   d="m 403.027,124.356 c -4.61,0 -8.348,-3.738 -8.348,-8.348 V 97.643 c 0,-4.61 3.738,-8.348 8.348,-8.348 4.61,0 8.348,3.738 8.348,8.348 v 18.365 c 0,4.61 -3.739,8.348 -8.348,8.348 z"
   id="path74" />
	<path
   style="fill:#547475"
   d="m 347.843,237.38 c -4.61,0 -8.348,-3.738 -8.348,-8.348 v -18.365 c 0,-4.61 3.738,-8.348 8.348,-8.348 4.61,0 8.348,3.738 8.348,8.348 v 18.365 c 0,4.61 -3.739,8.348 -8.348,8.348 z"
   id="path76" />
	<path
   style="fill:#547475"
   d="m 375.669,237.38 c -4.61,0 -8.348,-3.738 -8.348,-8.348 v -18.365 c 0,-4.61 3.738,-8.348 8.348,-8.348 4.61,0 8.348,3.738 8.348,8.348 v 18.365 c 0,4.61 -3.738,8.348 -8.348,8.348 z"
   id="path78" />
	<path
   style="fill:#547475"
   d="m 403.496,237.38 c -4.61,0 -8.348,-3.738 -8.348,-8.348 v -18.365 c 0,-4.61 3.738,-8.348 8.348,-8.348 4.61,0 8.348,3.738 8.348,8.348 v 18.365 c -10e-4,4.61 -3.739,8.348 -8.348,8.348 z"
   id="path80" />
	<path
   style="fill:#547475"
   d="m 328.574,199.746 h -18.365 c -4.611,0 -8.348,-3.738 -8.348,-8.348 0,-4.61 3.736,-8.348 8.348,-8.348 h 18.365 c 4.611,0 8.348,3.738 8.348,8.348 0,4.61 -3.736,8.348 -8.348,8.348 z"
   id="path82" />
	<path
   style="fill:#547475"
   d="m 328.106,171.451 h -18.365 c -4.61,0 -8.348,-3.738 -8.348,-8.348 0,-4.61 3.738,-8.348 8.348,-8.348 h 18.365 c 4.611,0 8.348,3.738 8.348,8.348 0,4.61 -3.737,8.348 -8.348,8.348 z"
   id="path84" />
	<path
   style="fill:#547475"
   d="m 328.106,143.625 h -18.365 c -4.61,0 -8.348,-3.738 -8.348,-8.348 0,-4.61 3.738,-8.348 8.348,-8.348 h 18.365 c 4.611,0 8.348,3.738 8.348,8.348 0,4.61 -3.737,8.348 -8.348,8.348 z"
   id="path86" />
</g>
<g
   id="g747"
   transform="matrix(10.031288,0,0,10.031288,279.78762,280.26963)"><path
     fill="#808184"
     d="M 21.06,-0.024 C 18.86,-0.024 17,2.515 17,5.519 V 6 H 16.225 C 15.847,6 15.492,6.137 15.222,6.386 L 0.479,20.06 C 0.172,20.345 -0.003,20.749 0,21.169 c 0.002,0.42 0.182,0.822 0.491,1.104 l 10.262,9.319 c 0.272,0.248 0.624,0.383 0.99,0.384 0.388,0 0.754,-0.15 1.032,-0.422 L 26.548,18.075 C 26.836,17.794 27,17.402 27,16.999 V 7.479 C 27,6.664 26.335,6 25.518,6 h -0.416 c 0.011,-0.165 0.018,-0.332 0.018,-0.501 0,-3.031 -1.821,-5.523 -4.06,-5.523 z M 18,5.519 c 0,-2.42 1.43,-4.542 3.06,-4.542 1.659,0 3.061,2.06 3.061,4.498 0,0.18 -0.021,0.351 -0.035,0.525 H 18 Z M 25.518,7 C 25.788,7 26,7.21 26,7.479 v 9.519 c 0,0.136 -0.055,0.268 -0.15,0.361 L 12.076,30.838 c -0.173,0.171 -0.469,0.178 -0.651,0.013 L 1.163,21.533 C 1.059,21.438 1.001,21.307 1,21.164 0.999,21.021 1.056,20.889 1.159,20.793 L 15.901,7.12 C 16.008,7.021 16.136,7 16.225,7 h 7.706 C 23.723,7.859 23.351,8.597 22.864,9.118 22.851,9.105 22.843,9.09 22.83,9.078 c -0.984,-0.946 -2.69,-0.947 -3.675,0 -0.497,0.478 -0.771,1.115 -0.771,1.793 0,0.678 0.273,1.316 0.771,1.794 0.492,0.473 1.145,0.734 1.837,0.734 0.693,0 1.346,-0.261 1.838,-0.734 0.497,-0.479 0.771,-1.116 0.771,-1.794 0,-0.306 -0.063,-0.602 -0.17,-0.88 0.733,-0.718 1.283,-1.77 1.535,-2.992 h 0.552 z M 22.6,10.872 c 0,0.404 -0.164,0.786 -0.464,1.074 -0.608,0.586 -1.678,0.587 -2.288,0 -0.3,-0.288 -0.464,-0.669 -0.464,-1.074 0,-0.186 0.039,-0.367 0.106,-0.536 0.649,0.624 1.57,0.664 1.656,0.664 0.002,0 0.004,0 0.005,0 0.502,0 0.981,-0.136 1.424,-0.374 0.013,0.081 0.025,0.162 0.025,0.246 z M 20.16,9.57 c 0.249,-0.144 0.532,-0.226 0.831,-0.226 0.391,0 0.757,0.138 1.049,0.379 -0.283,0.135 -0.578,0.228 -0.891,0.228 -0.031,0 -0.623,-0.011 -0.989,-0.381 z"
     id="path2-7" /><path
     style="fill:#e4d4a2;fill-opacity:1;stroke:#000000;stroke-width:0.673887;stroke-linejoin:round;paint-order:fill markers stroke"
     d="M 350.79468,772.28839 C 349.67639,771.64529 290.45642,718.16443 219.19473,653.44202 79.543569,526.60582 86.533009,533.4468 88.673785,525.69355 c 0.942967,-3.41516 -1.435151,-1.18922 289.665565,-271.12849 44.21179,-40.99784 81.63484,-75.51613 83.16232,-76.70732 l 2.77724,-2.1658 h 97.58377 c 88.87331,0 97.58377,0.1377 97.58377,1.54271 0,0.8485 -1.2858,5.38055 -2.85732,10.07124 -4.4795,13.3704 -12.29007,27.92597 -19.22119,35.82009 l -3.0706,3.49722 -5.95734,-4.42499 c -12.2011,-9.06273 -24.78924,-13.06458 -41.09572,-13.06458 -16.41318,0 -29.10913,4.06379 -41.12238,13.16268 -20.82938,15.77627 -29.53197,44.35091 -21.08587,69.23469 10.9453,32.24688 46.12954,50.5402 79.94785,41.56725 22.74311,-6.03438 41.06858,-24.69255 46.33643,-47.17767 1.92111,-8.20001 1.47592,-24.74481 -0.84048,-31.23499 l -1.52741,-4.27951 5.35497,-6.27292 c 14.27127,-16.71766 24.35985,-36.43872 30.57975,-59.77696 l 2.18085,-8.18291 8.69758,-0.27528 c 8.16207,-0.25833 8.88076,-0.12115 11.6725,2.22794 1.6362,1.37677 3.41838,4.09992 3.96041,6.05145 1.32121,4.75698 1.36354,239.01053 0.0441,243.76001 -0.70656,2.54325 -5.21042,7.58696 -18.05273,20.2166 -111.62751,109.77903 -328.9313,322.06621 -331.32979,323.6808 -2.87341,1.93431 -8.30984,2.15319 -11.26534,0.45358 z"
     id="path917"
     transform="matrix(0.04,0,0,0.04,-2.5,0)" /><path
     style="fill:none;fill-opacity:1;stroke:#808184;stroke-width:0.8;stroke-linejoin:round;stroke-dasharray:none;stroke-opacity:1;paint-order:fill markers stroke"
     d="M 4.4162022,21.647168 15.471233,11.572385 Z"
     id="path462" /><path
     style="fill:none;fill-opacity:1;stroke:#808184;stroke-width:0.8;stroke-linejoin:round;stroke-dasharray:none;stroke-opacity:1;paint-order:fill markers stroke"
     d="M 7.1663459,24.179478 18.221377,14.104695 Z"
     id="path462-1" /><path
     style="fill:none;fill-opacity:1;stroke:#808184;stroke-width:0.8;stroke-linejoin:round;stroke-dasharray:none;stroke-opacity:1;paint-order:fill markers stroke"
     d="M 10.052635,26.929621 21.107666,16.854838 Z"
     id="path462-9" /></g></svg>
