<?xml version="1.0" encoding="UTF-8" standalone="no"?>
<!-- Uploaded to: SVG Repo, www.svgrepo.com, Generator: SVG Repo Mixer Tools -->

<svg
   height="992"
   width="1040"
   version="1.1"
   id="Layer_1"
   viewBox="0 0 665.6 634.88"
   xml:space="preserve"
   sodipodi:docname="board_ram.svg"
   inkscape:version="1.2 (dc2aedaf03, 2022-05-15)"
   xmlns:inkscape="http://www.inkscape.org/namespaces/inkscape"
   xmlns:sodipodi="http://sodipodi.sourceforge.net/DTD/sodipodi-0.dtd"
   xmlns="http://www.w3.org/2000/svg"
   xmlns:svg="http://www.w3.org/2000/svg"><defs
   id="defs93">
	
	
	
	
	
	
	
	
</defs><sodipodi:namedview
   id="namedview91"
   pagecolor="#ffffff"
   bordercolor="#000000"
   borderopacity="0.25"
   inkscape:showpageshadow="2"
   inkscape:pageopacity="0.0"
   inkscape:pagecheckerboard="0"
   inkscape:deskcolor="#d1d1d1"
   showgrid="false"
   inkscape:zoom="1.03875"
   inkscape:cx="379.78339"
   inkscape:cy="477.01564"
   inkscape:window-width="2560"
   inkscape:window-height="1361"
   inkscape:window-x="2391"
   inkscape:window-y="-9"
   inkscape:window-maximized="1"
   inkscape:current-layer="Layer_1" />
<path
   style="fill:#547475"
   d="m 468.052,53.426 c 0,7.376 -5.979,13.357 -13.357,13.357 H 296.643 c -7.377,0 -13.357,-5.98 -13.357,-13.357 V 13.356 C 283.287,5.98 289.266,0 296.643,0 h 158.052 c 7.377,0 13.357,5.98 13.357,13.357 z"
   id="path2" />
<path
   style="opacity:0.1;fill:#231f20;enable-background:new"
   d="M 301.096,53.426 V 13.356 C 301.096,5.98 307.075,0 314.452,0 h -17.809 c -7.377,0 -13.357,5.98 -13.357,13.357 v 40.07 c 0,7.376 5.979,13.357 13.357,13.357 h 17.809 c -7.377,-0.001 -13.356,-5.982 -13.356,-13.358 z"
   id="path4" />
<path
   style="fill:#3a8cd3;fill-opacity:1"
   d="M 490.538,29.332 H 21.463 C 9.907,29.332 0.54,38.699 0.54,50.255 v 29.332 16.303 29.332 290.888 29.332 16.303 29.332 C 0.54,502.633 9.908,512 21.463,512 h 469.073 c 11.555,0 20.923,-9.367 20.923,-20.923 V 461.745 445.442 416.11 188.665 176.029 150.261 50.255 c 0.002,-11.556 -9.367,-20.923 -20.921,-20.923 z"
   id="path6" /><path
   style="fill:#88dd2c;fill-opacity:1"
   d="m 225.27094,293.57767 c -4.61,0 -8.348,-3.738 -8.348,-8.348 v -149.263 c 0,-4.61 3.738,-8.348 8.348,-8.348 4.61,0 8.348,3.738 8.348,8.348 v 149.264 c 0,4.609 -3.739,8.347 -8.348,8.347 z"
   id="path22-5" /><path
   style="fill:#f4eabc;fill-opacity:1"
   d="m 292.12094,133.1363 c -4.61,0 -8.348,-3.738 -8.348,-8.348 v -11.385 c 0,-4.61 3.738,-8.348 8.348,-8.348 4.61,0 8.348,3.738 8.348,8.348 v 11.385 c 0,4.61 -3.738,8.348 -8.348,8.348 z"
   id="path28-8" />
<path
   style="fill:#ebf25f"
   d="m 468.052,243.502 c 0,7.376 -5.979,13.357 -13.357,13.357 H 296.643 c -7.377,0 -13.357,-5.98 -13.357,-13.357 V 85.449 c 0,-7.376 5.979,-13.357 13.357,-13.357 h 158.052 c 7.377,0 13.357,5.98 13.357,13.357 z"
   id="path8" />
<path
   style="fill:#698f92"
   d="m 421.861,197.31 c 0,7.376 -5.979,13.357 -13.357,13.357 h -65.67 c -7.377,0 -13.357,-5.98 -13.357,-13.357 v -65.67 c 0,-7.376 5.979,-13.357 13.357,-13.357 h 65.67 c 7.377,0 13.357,5.98 13.357,13.357 z"
   id="path10" />
<g
   id="g20">
	<circle
   style="fill:#547475"
   cx="375.664"
   cy="163.573"
   r="16.325001"
   id="circle12" />
	<path
   style="fill:#547475"
   d="m 441.13,199.746 h -18.365 c -4.61,0 -8.348,-3.738 -8.348,-8.348 0,-4.61 3.738,-8.348 8.348,-8.348 h 18.365 c 4.61,0 8.348,3.738 8.348,8.348 0,4.61 -3.738,8.348 -8.348,8.348 z"
   id="path14" />
	<path
   style="fill:#547475"
   d="m 441.13,171.92 h -18.365 c -4.61,0 -8.348,-3.738 -8.348,-8.348 0,-4.61 3.738,-8.348 8.348,-8.348 h 18.365 c 4.61,0 8.348,3.738 8.348,8.348 0,4.61 -3.738,8.348 -8.348,8.348 z"
   id="path16" />
	<path
   style="fill:#547475"
   d="m 441.13,144.093 h -18.365 c -4.61,0 -8.348,-3.738 -8.348,-8.348 0,-4.61 3.738,-8.348 8.348,-8.348 h 18.365 c 4.61,0 8.348,3.738 8.348,8.348 0,4.611 -3.738,8.348 -8.348,8.348 z"
   id="path18" />
</g>
<g
   id="g38"
   style="fill:#f4eabc;fill-opacity:1"
   transform="translate(-55.451264,-4.9290012)">
	<path
   style="fill:#f4eabc;fill-opacity:1"
   d="m 144.156,265.206 c -4.61,0 -8.348,-3.738 -8.348,-8.348 V 107.595 c 0,-4.61 3.738,-8.348 8.348,-8.348 4.61,0 8.348,3.738 8.348,8.348 v 149.264 c 0,4.609 -3.739,8.347 -8.348,8.347 z"
   id="path22" />
	<path
   style="fill:#f4eabc;fill-opacity:1"
   d="m 144.156,91.826 c -4.61,0 -8.348,-3.738 -8.348,-8.348 V 72.093 c 0,-4.61 3.738,-8.348 8.348,-8.348 4.61,0 8.348,3.738 8.348,8.348 v 11.385 c 0,4.61 -3.739,8.348 -8.348,8.348 z"
   id="path24" />
	<path
   style="fill:#f4eabc;fill-opacity:1"
   d="m 211.006,265.206 c -4.61,0 -8.348,-3.738 -8.348,-8.348 V 107.595 c 0,-4.61 3.738,-8.348 8.348,-8.348 4.61,0 8.348,3.738 8.348,8.348 v 149.264 c 0,4.609 -3.738,8.347 -8.348,8.347 z"
   id="path26" />
	<path
   style="fill:#f4eabc;fill-opacity:1"
   d="m 211.006,91.826 c -4.61,0 -8.348,-3.738 -8.348,-8.348 V 72.093 c 0,-4.61 3.738,-8.348 8.348,-8.348 4.61,0 8.348,3.738 8.348,8.348 v 11.385 c 0,4.61 -3.738,8.348 -8.348,8.348 z"
   id="path28" />
	<path
   style="fill:#f4eabc;fill-opacity:1"
   d="m 177.581,229.704 c -4.61,0 -8.348,-3.738 -8.348,-8.348 V 72.093 c 0,-4.61 3.738,-8.348 8.348,-8.348 4.61,0 8.348,3.738 8.348,8.348 v 149.264 c 0,4.61 -3.738,8.347 -8.348,8.347 z"
   id="path30" />
	<path
   style="fill:#f4eabc;fill-opacity:1"
   d="m 177.581,265.206 c -4.61,0 -8.348,-3.738 -8.348,-8.348 v -11.385 c 0,-4.61 3.738,-8.348 8.348,-8.348 4.61,0 8.348,3.738 8.348,8.348 v 11.385 c 0,4.61 -3.738,8.348 -8.348,8.348 z"
   id="path32" />
	<path
   style="fill:#f4eabc;fill-opacity:1"
   d="m 244.43,229.704 c -4.61,0 -8.348,-3.738 -8.348,-8.348 V 72.093 c 0,-4.61 3.738,-8.348 8.348,-8.348 4.61,0 8.348,3.738 8.348,8.348 v 149.264 c 0,4.61 -3.736,8.347 -8.348,8.347 z"
   id="path34" />
	<path
   style="fill:#f4eabc;fill-opacity:1"
   d="m 244.43,265.206 c -4.61,0 -8.348,-3.738 -8.348,-8.348 v -11.385 c 0,-4.61 3.738,-8.348 8.348,-8.348 4.61,0 8.348,3.738 8.348,8.348 v 11.385 c 0,4.61 -3.736,8.348 -8.348,8.348 z"
   id="path36" />
</g>
<g
   id="g44">
	<path
   style="fill:#ebf25f"
   d="M 16.517,72.093 H 0.54 v 7.494 16.303 29.332 132.735 h 15.976 c 7.377,0 13.357,-5.979 13.357,-13.357 V 85.449 C 29.874,78.073 23.893,72.093 16.517,72.093 Z"
   id="path40" />
	<path
   style="fill:#ebf25f"
   d="M 16.517,317.136 H 0.54 v 98.974 29.332 5.259 h 15.976 c 7.377,0 13.357,-5.98 13.357,-13.357 V 330.493 c 10e-4,-7.378 -5.98,-13.357 -13.356,-13.357 z"
   id="path42" />
</g>
<g
   id="g50"
   style="fill:#ff9235;fill-opacity:1">
	<path
   style="fill:#ff9235;fill-opacity:1"
   d="m 468.052,350.527 c 0,7.376 -5.979,13.357 -13.357,13.357 H 145.269 c -7.376,0 -13.357,-5.98 -13.357,-13.357 v -20.035 c 0,-7.377 5.98,-13.357 13.357,-13.357 h 309.426 c 7.377,0 13.357,5.979 13.357,13.357 z"
   id="path46" />
	<path
   style="fill:#ff9235;fill-opacity:1"
   d="m 468.052,437.345 c 0,7.376 -5.979,13.357 -13.357,13.357 H 145.269 c -7.376,0 -13.357,-5.98 -13.357,-13.357 V 417.31 c 0,-7.377 5.98,-13.357 13.357,-13.357 h 309.426 c 7.377,0 13.357,5.979 13.357,13.357 z"
   id="path48" />
</g>
<g
   id="g60">
	<path
   style="opacity:0.15;fill:#231f20;enable-background:new"
   d="M 301.096,243.502 V 85.449 c 0,-7.376 5.979,-13.357 13.357,-13.357 h -17.809 c -7.377,0 -13.357,5.98 -13.357,13.357 v 158.052 c 0,7.376 5.979,13.357 13.357,13.357 h 17.809 c -7.378,0 -13.357,-5.98 -13.357,-13.356 z"
   id="path52" />
	<path
   style="opacity:0.15;fill:#231f20;enable-background:new"
   d="m 347.287,197.31 v -65.67 c 0,-7.376 5.979,-13.357 13.357,-13.357 h -17.809 c -7.377,0 -13.357,5.98 -13.357,13.357 v 65.67 c 0,7.376 5.979,13.357 13.357,13.357 h 17.809 c -7.378,0 -13.357,-5.981 -13.357,-13.357 z"
   id="path54" />
	<path
   style="opacity:0.1;fill:#231f20;enable-background:new"
   d="m 149.722,350.527 v -20.035 c 0,-7.377 5.98,-13.357 13.357,-13.357 H 145.27 c -7.376,0 -13.357,5.979 -13.357,13.357 v 20.035 c 0,7.376 5.98,13.357 13.357,13.357 h 17.809 c -7.378,0 -13.357,-5.98 -13.357,-13.357 z"
   id="path56" />
	<path
   style="opacity:0.1;fill:#231f20;enable-background:new"
   d="M 149.722,437.345 V 417.31 c 0,-7.377 5.98,-13.357 13.357,-13.357 H 145.27 c -7.376,0 -13.357,5.979 -13.357,13.357 v 20.035 c 0,7.376 5.98,13.357 13.357,13.357 h 17.809 c -7.378,-10e-4 -13.357,-5.981 -13.357,-13.357 z"
   id="path58" />
</g>
<g
   id="g66">
	<path
   style="fill:#547475"
   d="m 434.375,475.429 c -4.611,0 -8.348,-3.738 -8.348,-8.348 V 300.133 c 0,-4.61 3.736,-8.348 8.348,-8.348 4.611,0 8.348,3.738 8.348,8.348 v 166.948 c -0.001,4.61 -3.738,8.348 -8.348,8.348 z"
   id="path62" />
	<path
   style="fill:#547475"
   d="m 165.589,475.429 c -4.61,0 -8.348,-3.738 -8.348,-8.348 V 300.133 c 0,-4.61 3.738,-8.348 8.348,-8.348 4.61,0 8.348,3.738 8.348,8.348 v 166.948 c 0,4.61 -3.738,8.348 -8.348,8.348 z"
   id="path64" />
</g>
<path
   style="opacity:0.15;fill:#231f20;enable-background:new"
   d="M 18.349,491.077 V 461.745 445.442 416.11 125.222 95.89 79.587 50.255 c 0,-11.556 9.367,-20.923 20.923,-20.923 H 21.463 C 9.907,29.332 0.54,38.699 0.54,50.255 v 29.332 16.303 29.332 290.888 29.332 16.303 29.332 C 0.54,502.633 9.908,512 21.463,512 h 17.809 c -11.556,0 -20.923,-9.367 -20.923,-20.923 z"
   id="path68" />
<g
   id="g88">
	<path
   style="fill:#547475"
   d="m 347.375,124.356 c -4.61,0 -8.348,-3.738 -8.348,-8.348 V 97.643 c 0,-4.61 3.738,-8.348 8.348,-8.348 4.61,0 8.348,3.738 8.348,8.348 v 18.365 c 0,4.61 -3.739,8.348 -8.348,8.348 z"
   id="path70" />
	<path
   style="fill:#547475"
   d="m 375.201,124.356 c -4.61,0 -8.348,-3.738 -8.348,-8.348 V 97.643 c 0,-4.61 3.738,-8.348 8.348,-8.348 4.61,0 8.348,3.738 8.348,8.348 v 18.365 c 0,4.61 -3.739,8.348 -8.348,8.348 z"
   id="path72" />
	<path
   style="fill:#547475"
   d="m 403.027,124.356 c -4.61,0 -8.348,-3.738 -8.348,-8.348 V 97.643 c 0,-4.61 3.738,-8.348 8.348,-8.348 4.61,0 8.348,3.738 8.348,8.348 v 18.365 c 0,4.61 -3.739,8.348 -8.348,8.348 z"
   id="path74" />
	<path
   style="fill:#547475"
   d="m 347.843,237.38 c -4.61,0 -8.348,-3.738 -8.348,-8.348 v -18.365 c 0,-4.61 3.738,-8.348 8.348,-8.348 4.61,0 8.348,3.738 8.348,8.348 v 18.365 c 0,4.61 -3.739,8.348 -8.348,8.348 z"
   id="path76" />
	<path
   style="fill:#547475"
   d="m 375.669,237.38 c -4.61,0 -8.348,-3.738 -8.348,-8.348 v -18.365 c 0,-4.61 3.738,-8.348 8.348,-8.348 4.61,0 8.348,3.738 8.348,8.348 v 18.365 c 0,4.61 -3.738,8.348 -8.348,8.348 z"
   id="path78" />
	<path
   style="fill:#547475"
   d="m 403.496,237.38 c -4.61,0 -8.348,-3.738 -8.348,-8.348 v -18.365 c 0,-4.61 3.738,-8.348 8.348,-8.348 4.61,0 8.348,3.738 8.348,8.348 v 18.365 c -10e-4,4.61 -3.739,8.348 -8.348,8.348 z"
   id="path80" />
	<path
   style="fill:#547475"
   d="m 328.574,199.746 h -18.365 c -4.611,0 -8.348,-3.738 -8.348,-8.348 0,-4.61 3.736,-8.348 8.348,-8.348 h 18.365 c 4.611,0 8.348,3.738 8.348,8.348 0,4.61 -3.736,8.348 -8.348,8.348 z"
   id="path82" />
	<path
   style="fill:#547475"
   d="m 328.106,171.451 h -18.365 c -4.61,0 -8.348,-3.738 -8.348,-8.348 0,-4.61 3.738,-8.348 8.348,-8.348 h 18.365 c 4.611,0 8.348,3.738 8.348,8.348 0,4.61 -3.737,8.348 -8.348,8.348 z"
   id="path84" />
	<path
   style="fill:#547475"
   d="m 328.106,143.625 h -18.365 c -4.61,0 -8.348,-3.738 -8.348,-8.348 0,-4.61 3.738,-8.348 8.348,-8.348 h 18.365 c 4.611,0 8.348,3.738 8.348,8.348 0,4.61 -3.737,8.348 -8.348,8.348 z"
   id="path86" />
</g>
<g
   id="g461"
   transform="matrix(0.62359684,0.14396867,-0.14396867,0.62359684,357.17725,289.62597)"><path
     fill="#a0d468"
     d="M 278.625,361.594 256,338.969 v 0 c -4.172,-4.156 -4.172,-10.922 0,-15.094 4.156,-4.156 10.922,-4.156 15.078,0 v 0 L 293.703,346.516 512,128.227 459.203,75.43 c -4.172,4.164 -10.922,4.164 -15.094,0 -4.156,-4.164 -4.156,-10.922 0,-15.086 l -7.531,-7.539 c -4.172,4.164 -10.922,4.164 -15.094,-0.008 -4.156,-4.164 -4.156,-10.914 0,-15.078 L 383.781,0 0,383.781 37.703,421.5 c 4.172,-4.172 10.922,-4.172 15.094,0 4.156,4.156 4.156,10.906 0,15.078 l 7.531,7.547 c 4.172,-4.172 10.922,-4.172 15.094,0 4.156,4.156 4.172,10.906 0,15.078 L 128.219,512 Z"
     id="path5161"
     style="fill:#8db856;fill-opacity:1" /><g
     id="g5169"
     style="fill:#87ae54;fill-opacity:1">
		<polygon
   fill="#8cc153"
   points="256,338.969 105.594,489.375 128.219,512 278.625,361.594 "
   id="polygon5165"
   style="fill:#87ae54;fill-opacity:1" />
		<polygon
   fill="#8cc153"
   points="512,128.227 489.375,105.602 271.078,323.875 293.703,346.516 "
   id="polygon5167"
   style="fill:#87ae54;fill-opacity:1" />
	</g><g
     id="g5201">
		<path
   fill="#ffce54"
   d="m 482.266,142.867 c -4.156,4.164 -4.156,10.922 0,15.086 l 15.094,-15.086 c -4.172,-4.164 -10.922,-4.164 -15.094,0 z"
   id="path5171" />
		<path
   fill="#ffce54"
   d="m 459.641,165.492 c -4.156,4.164 -4.156,10.922 0,15.086 l 15.094,-15.086 c -4.173,-4.164 -10.923,-4.164 -15.094,0 z"
   id="path5173" />
		<path
   fill="#ffce54"
   d="m 437.016,188.117 c -4.172,4.172 -4.172,10.922 0,15.086 l 15.078,-15.086 c -4.156,-4.164 -10.906,-4.164 -15.078,0 z"
   id="path5175" />
		<path
   fill="#ffce54"
   d="m 414.391,210.75 c -4.172,4.164 -4.172,10.922 0,15.086 l 15.078,-15.086 c -4.157,-4.164 -10.922,-4.164 -15.078,0 z"
   id="path5177" />
		<path
   fill="#ffce54"
   d="m 391.766,233.375 c -4.172,4.164 -4.172,10.922 0,15.086 l 15.078,-15.086 c -4.156,-4.164 -10.922,-4.164 -15.078,0 z"
   id="path5179" />
		<path
   fill="#ffce54"
   d="m 369.125,256 c -4.156,4.172 -4.156,10.922 0,15.086 L 384.219,256 c -4.172,-4.164 -10.922,-4.164 -15.094,0 z"
   id="path5181" />
		<path
   fill="#ffce54"
   d="m 346.5,278.625 c -4.156,4.172 -4.156,10.938 0,15.094 l 15.094,-15.094 c -4.172,-4.156 -10.922,-4.156 -15.094,0 z"
   id="path5183" />
		<path
   fill="#ffce54"
   d="m 323.875,301.25 c -4.156,4.172 -4.156,10.938 0,15.094 l 15.094,-15.094 c -4.172,-4.156 -10.922,-4.156 -15.094,0 z"
   id="path5185" />
		<path
   fill="#ffce54"
   d="m 301.25,323.875 c -4.156,4.188 -4.172,10.938 0,15.094 l 15.094,-15.094 c -4.172,-4.156 -10.922,-4.156 -15.094,0 z"
   id="path5187" />
		<path
   fill="#ffce54"
   d="m 256,369.141 c -4.172,4.172 -4.172,10.922 0,15.078 l 15.078,-15.078 c -4.156,-4.172 -10.922,-4.172 -15.078,0 z"
   id="path5189" />
		<path
   fill="#ffce54"
   d="m 233.375,391.766 c -4.172,4.172 -4.172,10.922 0,15.078 l 15.078,-15.078 c -4.172,-4.172 -10.922,-4.172 -15.078,0 z"
   id="path5191" />
		<path
   fill="#ffce54"
   d="m 210.734,414.406 c -4.156,4.156 -4.156,10.906 0,15.078 l 15.094,-15.078 c -4.172,-4.187 -10.922,-4.187 -15.094,0 z"
   id="path5193" />
		<path
   fill="#ffce54"
   d="m 188.109,437.031 c -4.156,4.156 -4.156,10.906 0,15.078 l 15.094,-15.078 c -4.172,-4.172 -10.922,-4.172 -15.094,0 z"
   id="path5195" />
		<path
   fill="#ffce54"
   d="m 165.484,459.656 c -4.156,4.156 -4.156,10.906 0,15.078 l 15.094,-15.078 c -4.172,-4.172 -10.922,-4.172 -15.094,0 z"
   id="path5197" />
		<path
   fill="#ffce54"
   d="m 142.859,482.281 c -4.172,4.156 -4.172,10.906 0,15.078 l 15.078,-15.078 c -4.156,-4.172 -10.906,-4.172 -15.078,0 z"
   id="path5199" />
	</g><rect
     x="84.259003"
     y="362.44699"
     transform="matrix(0.7071,0.7071,-0.7071,0.7071,302.302,37.7409)"
     fill="#656d78"
     width="42.668999"
     height="42.668999"
     id="rect5203" /><polygon
     fill="#656d78"
     points="165.938,353.609 135.766,323.438 165.938,293.281 196.094,323.438 "
     id="polygon5205" /><polygon
     fill="#656d78"
     points="256.438,263.102 226.266,232.93 256.438,202.766 286.609,232.93 "
     id="polygon5207" /><rect
     x="295.44699"
     y="151.259"
     transform="matrix(0.7071,0.7071,-0.7071,0.7071,214.8253,-173.4466)"
     fill="#656d78"
     width="42.668999"
     height="42.668999"
     id="rect5209" /><g
     id="g5219">
		<path
   fill="#434a54"
   d="m 60.328,383.781 45.266,45.25 45.25,-45.25 -45.25,-45.25 z m 45.266,15.094 -15.094,-15.094 15.094,-15.094 15.078,15.094 z"
   id="path5211" />
		<path
   fill="#434a54"
   d="m 120.672,323.438 45.266,45.25 45.25,-45.25 -45.25,-45.25 z m 45.266,15.093 -15.094,-15.094 15.094,-15.078 15.078,15.078 z"
   id="path5213" />
		<path
   fill="#434a54"
   d="m 211.188,232.93 45.25,45.258 45.25,-45.258 -45.25,-45.25 z m 45.25,15.086 -15.078,-15.086 15.078,-15.086 15.094,15.086 z"
   id="path5215" />
		<path
   fill="#434a54"
   d="m 316.781,127.336 -45.25,45.258 45.25,45.25 45.25,-45.25 z m -15.093,45.258 15.094,-15.086 15.078,15.086 -15.078,15.086 z"
   id="path5217" />
	</g><polygon
     fill="#656d78"
     points="377.125,142.422 346.953,112.25 377.125,82.086 407.281,112.25 "
     id="polygon5221" /><path
     fill="#434a54"
     d="m 377.125,67 -45.266,45.25 45.266,45.258 45.25,-45.258 z m 0,60.336 -15.094,-15.086 15.094,-15.078 15.078,15.078 z"
     id="path5223" /></g></svg>
