<?xml version="1.0" encoding="UTF-8" standalone="no"?>
<!-- Uploaded to: SVG Repo, www.svgrepo.com, Generator: SVG Repo Mixer Tools -->

<svg
   height="992"
   width="988"
   version="1.1"
   id="Layer_1"
   viewBox="0 0 632.32 634.88"
   xml:space="preserve"
   sodipodi:docname="board_slot.svg"
   inkscape:version="1.2 (dc2aedaf03, 2022-05-15)"
   xmlns:inkscape="http://www.inkscape.org/namespaces/inkscape"
   xmlns:sodipodi="http://sodipodi.sourceforge.net/DTD/sodipodi-0.dtd"
   xmlns="http://www.w3.org/2000/svg"
   xmlns:svg="http://www.w3.org/2000/svg"><defs
   id="defs93">
	
	
	
	
	
	
	
	
</defs><sodipodi:namedview
   id="namedview91"
   pagecolor="#ffffff"
   bordercolor="#000000"
   borderopacity="0.25"
   inkscape:showpageshadow="2"
   inkscape:pageopacity="0.0"
   inkscape:pagecheckerboard="0"
   inkscape:deskcolor="#d1d1d1"
   showgrid="false"
   inkscape:zoom="1.03875"
   inkscape:cx="379.78339"
   inkscape:cy="481.82912"
   inkscape:window-width="2560"
   inkscape:window-height="1361"
   inkscape:window-x="2391"
   inkscape:window-y="-9"
   inkscape:window-maximized="1"
   inkscape:current-layer="Layer_1" />
<path
   style="fill:#547475"
   d="m 468.052,53.426 c 0,7.376 -5.979,13.357 -13.357,13.357 H 296.643 c -7.377,0 -13.357,-5.98 -13.357,-13.357 V 13.356 C 283.287,5.98 289.266,0 296.643,0 h 158.052 c 7.377,0 13.357,5.98 13.357,13.357 z"
   id="path2" />
<path
   style="opacity:0.1;fill:#231f20;enable-background:new"
   d="M 301.096,53.426 V 13.356 C 301.096,5.98 307.075,0 314.452,0 h -17.809 c -7.377,0 -13.357,5.98 -13.357,13.357 v 40.07 c 0,7.376 5.979,13.357 13.357,13.357 h 17.809 c -7.377,-0.001 -13.356,-5.982 -13.356,-13.358 z"
   id="path4" />
<path
   style="fill:#3a8cd3;fill-opacity:1"
   d="M 490.538,29.332 H 21.463 C 9.907,29.332 0.54,38.699 0.54,50.255 v 29.332 16.303 29.332 290.888 29.332 16.303 29.332 C 0.54,502.633 9.908,512 21.463,512 h 469.073 c 11.555,0 20.923,-9.367 20.923,-20.923 V 461.745 445.442 416.11 188.665 176.029 150.261 50.255 c 0.002,-11.556 -9.367,-20.923 -20.921,-20.923 z"
   id="path6" /><path
   style="fill:#88dd2c;fill-opacity:1"
   d="m 225.27094,293.57767 c -4.61,0 -8.348,-3.738 -8.348,-8.348 v -149.263 c 0,-4.61 3.738,-8.348 8.348,-8.348 4.61,0 8.348,3.738 8.348,8.348 v 149.264 c 0,4.609 -3.739,8.347 -8.348,8.347 z"
   id="path22-5" /><path
   style="fill:#f4eabc;fill-opacity:1"
   d="m 292.12094,133.1363 c -4.61,0 -8.348,-3.738 -8.348,-8.348 v -11.385 c 0,-4.61 3.738,-8.348 8.348,-8.348 4.61,0 8.348,3.738 8.348,8.348 v 11.385 c 0,4.61 -3.738,8.348 -8.348,8.348 z"
   id="path28-8" />
<path
   style="fill:#ebf25f"
   d="m 468.052,243.502 c 0,7.376 -5.979,13.357 -13.357,13.357 H 296.643 c -7.377,0 -13.357,-5.98 -13.357,-13.357 V 85.449 c 0,-7.376 5.979,-13.357 13.357,-13.357 h 158.052 c 7.377,0 13.357,5.98 13.357,13.357 z"
   id="path8" />
<path
   style="fill:#698f92"
   d="m 421.861,197.31 c 0,7.376 -5.979,13.357 -13.357,13.357 h -65.67 c -7.377,0 -13.357,-5.98 -13.357,-13.357 v -65.67 c 0,-7.376 5.979,-13.357 13.357,-13.357 h 65.67 c 7.377,0 13.357,5.98 13.357,13.357 z"
   id="path10" />
<g
   id="g20">
	<circle
   style="fill:#547475"
   cx="375.664"
   cy="163.573"
   r="16.325001"
   id="circle12" />
	<path
   style="fill:#547475"
   d="m 441.13,199.746 h -18.365 c -4.61,0 -8.348,-3.738 -8.348,-8.348 0,-4.61 3.738,-8.348 8.348,-8.348 h 18.365 c 4.61,0 8.348,3.738 8.348,8.348 0,4.61 -3.738,8.348 -8.348,8.348 z"
   id="path14" />
	<path
   style="fill:#547475"
   d="m 441.13,171.92 h -18.365 c -4.61,0 -8.348,-3.738 -8.348,-8.348 0,-4.61 3.738,-8.348 8.348,-8.348 h 18.365 c 4.61,0 8.348,3.738 8.348,8.348 0,4.61 -3.738,8.348 -8.348,8.348 z"
   id="path16" />
	<path
   style="fill:#547475"
   d="m 441.13,144.093 h -18.365 c -4.61,0 -8.348,-3.738 -8.348,-8.348 0,-4.61 3.738,-8.348 8.348,-8.348 h 18.365 c 4.61,0 8.348,3.738 8.348,8.348 0,4.611 -3.738,8.348 -8.348,8.348 z"
   id="path18" />
</g>
<g
   id="g38"
   style="fill:#f4eabc;fill-opacity:1"
   transform="translate(-55.451264,-4.9290012)">
	<path
   style="fill:#f4eabc;fill-opacity:1"
   d="m 144.156,265.206 c -4.61,0 -8.348,-3.738 -8.348,-8.348 V 107.595 c 0,-4.61 3.738,-8.348 8.348,-8.348 4.61,0 8.348,3.738 8.348,8.348 v 149.264 c 0,4.609 -3.739,8.347 -8.348,8.347 z"
   id="path22" />
	<path
   style="fill:#f4eabc;fill-opacity:1"
   d="m 144.156,91.826 c -4.61,0 -8.348,-3.738 -8.348,-8.348 V 72.093 c 0,-4.61 3.738,-8.348 8.348,-8.348 4.61,0 8.348,3.738 8.348,8.348 v 11.385 c 0,4.61 -3.739,8.348 -8.348,8.348 z"
   id="path24" />
	<path
   style="fill:#f4eabc;fill-opacity:1"
   d="m 211.006,265.206 c -4.61,0 -8.348,-3.738 -8.348,-8.348 V 107.595 c 0,-4.61 3.738,-8.348 8.348,-8.348 4.61,0 8.348,3.738 8.348,8.348 v 149.264 c 0,4.609 -3.738,8.347 -8.348,8.347 z"
   id="path26" />
	<path
   style="fill:#f4eabc;fill-opacity:1"
   d="m 211.006,91.826 c -4.61,0 -8.348,-3.738 -8.348,-8.348 V 72.093 c 0,-4.61 3.738,-8.348 8.348,-8.348 4.61,0 8.348,3.738 8.348,8.348 v 11.385 c 0,4.61 -3.738,8.348 -8.348,8.348 z"
   id="path28" />
	<path
   style="fill:#f4eabc;fill-opacity:1"
   d="m 177.581,229.704 c -4.61,0 -8.348,-3.738 -8.348,-8.348 V 72.093 c 0,-4.61 3.738,-8.348 8.348,-8.348 4.61,0 8.348,3.738 8.348,8.348 v 149.264 c 0,4.61 -3.738,8.347 -8.348,8.347 z"
   id="path30" />
	<path
   style="fill:#f4eabc;fill-opacity:1"
   d="m 177.581,265.206 c -4.61,0 -8.348,-3.738 -8.348,-8.348 v -11.385 c 0,-4.61 3.738,-8.348 8.348,-8.348 4.61,0 8.348,3.738 8.348,8.348 v 11.385 c 0,4.61 -3.738,8.348 -8.348,8.348 z"
   id="path32" />
	<path
   style="fill:#f4eabc;fill-opacity:1"
   d="m 244.43,229.704 c -4.61,0 -8.348,-3.738 -8.348,-8.348 V 72.093 c 0,-4.61 3.738,-8.348 8.348,-8.348 4.61,0 8.348,3.738 8.348,8.348 v 149.264 c 0,4.61 -3.736,8.347 -8.348,8.347 z"
   id="path34" />
	<path
   style="fill:#f4eabc;fill-opacity:1"
   d="m 244.43,265.206 c -4.61,0 -8.348,-3.738 -8.348,-8.348 v -11.385 c 0,-4.61 3.738,-8.348 8.348,-8.348 4.61,0 8.348,3.738 8.348,8.348 v 11.385 c 0,4.61 -3.736,8.348 -8.348,8.348 z"
   id="path36" />
</g>
<g
   id="g44">
	<path
   style="fill:#ebf25f"
   d="M 16.517,72.093 H 0.54 v 7.494 16.303 29.332 132.735 h 15.976 c 7.377,0 13.357,-5.979 13.357,-13.357 V 85.449 C 29.874,78.073 23.893,72.093 16.517,72.093 Z"
   id="path40" />
	<path
   style="fill:#ebf25f"
   d="M 16.517,317.136 H 0.54 v 98.974 29.332 5.259 h 15.976 c 7.377,0 13.357,-5.98 13.357,-13.357 V 330.493 c 10e-4,-7.378 -5.98,-13.357 -13.356,-13.357 z"
   id="path42" />
</g>
<g
   id="g50"
   style="fill:#ff9235;fill-opacity:1">
	<path
   style="fill:#ff9235;fill-opacity:1"
   d="m 468.052,350.527 c 0,7.376 -5.979,13.357 -13.357,13.357 H 145.269 c -7.376,0 -13.357,-5.98 -13.357,-13.357 v -20.035 c 0,-7.377 5.98,-13.357 13.357,-13.357 h 309.426 c 7.377,0 13.357,5.979 13.357,13.357 z"
   id="path46" />
	<path
   style="fill:#ff9235;fill-opacity:1"
   d="m 468.052,437.345 c 0,7.376 -5.979,13.357 -13.357,13.357 H 145.269 c -7.376,0 -13.357,-5.98 -13.357,-13.357 V 417.31 c 0,-7.377 5.98,-13.357 13.357,-13.357 h 309.426 c 7.377,0 13.357,5.979 13.357,13.357 z"
   id="path48" />
</g>
<g
   id="g60">
	<path
   style="opacity:0.15;fill:#231f20;enable-background:new"
   d="M 301.096,243.502 V 85.449 c 0,-7.376 5.979,-13.357 13.357,-13.357 h -17.809 c -7.377,0 -13.357,5.98 -13.357,13.357 v 158.052 c 0,7.376 5.979,13.357 13.357,13.357 h 17.809 c -7.378,0 -13.357,-5.98 -13.357,-13.356 z"
   id="path52" />
	<path
   style="opacity:0.15;fill:#231f20;enable-background:new"
   d="m 347.287,197.31 v -65.67 c 0,-7.376 5.979,-13.357 13.357,-13.357 h -17.809 c -7.377,0 -13.357,5.98 -13.357,13.357 v 65.67 c 0,7.376 5.979,13.357 13.357,13.357 h 17.809 c -7.378,0 -13.357,-5.981 -13.357,-13.357 z"
   id="path54" />
	<path
   style="opacity:0.1;fill:#231f20;enable-background:new"
   d="m 149.722,350.527 v -20.035 c 0,-7.377 5.98,-13.357 13.357,-13.357 H 145.27 c -7.376,0 -13.357,5.979 -13.357,13.357 v 20.035 c 0,7.376 5.98,13.357 13.357,13.357 h 17.809 c -7.378,0 -13.357,-5.98 -13.357,-13.357 z"
   id="path56" />
	<path
   style="opacity:0.1;fill:#231f20;enable-background:new"
   d="M 149.722,437.345 V 417.31 c 0,-7.377 5.98,-13.357 13.357,-13.357 H 145.27 c -7.376,0 -13.357,5.979 -13.357,13.357 v 20.035 c 0,7.376 5.98,13.357 13.357,13.357 h 17.809 c -7.378,-10e-4 -13.357,-5.981 -13.357,-13.357 z"
   id="path58" />
</g>
<g
   id="g66">
	<path
   style="fill:#547475"
   d="m 434.375,475.429 c -4.611,0 -8.348,-3.738 -8.348,-8.348 V 300.133 c 0,-4.61 3.736,-8.348 8.348,-8.348 4.611,0 8.348,3.738 8.348,8.348 v 166.948 c -0.001,4.61 -3.738,8.348 -8.348,8.348 z"
   id="path62" />
	<path
   style="fill:#547475"
   d="m 165.589,475.429 c -4.61,0 -8.348,-3.738 -8.348,-8.348 V 300.133 c 0,-4.61 3.738,-8.348 8.348,-8.348 4.61,0 8.348,3.738 8.348,8.348 v 166.948 c 0,4.61 -3.738,8.348 -8.348,8.348 z"
   id="path64" />
</g>
<path
   style="opacity:0.15;fill:#231f20;enable-background:new"
   d="M 18.349,491.077 V 461.745 445.442 416.11 125.222 95.89 79.587 50.255 c 0,-11.556 9.367,-20.923 20.923,-20.923 H 21.463 C 9.907,29.332 0.54,38.699 0.54,50.255 v 29.332 16.303 29.332 290.888 29.332 16.303 29.332 C 0.54,502.633 9.908,512 21.463,512 h 17.809 c -11.556,0 -20.923,-9.367 -20.923,-20.923 z"
   id="path68" />
<g
   id="g88">
	<path
   style="fill:#547475"
   d="m 347.375,124.356 c -4.61,0 -8.348,-3.738 -8.348,-8.348 V 97.643 c 0,-4.61 3.738,-8.348 8.348,-8.348 4.61,0 8.348,3.738 8.348,8.348 v 18.365 c 0,4.61 -3.739,8.348 -8.348,8.348 z"
   id="path70" />
	<path
   style="fill:#547475"
   d="m 375.201,124.356 c -4.61,0 -8.348,-3.738 -8.348,-8.348 V 97.643 c 0,-4.61 3.738,-8.348 8.348,-8.348 4.61,0 8.348,3.738 8.348,8.348 v 18.365 c 0,4.61 -3.739,8.348 -8.348,8.348 z"
   id="path72" />
	<path
   style="fill:#547475"
   d="m 403.027,124.356 c -4.61,0 -8.348,-3.738 -8.348,-8.348 V 97.643 c 0,-4.61 3.738,-8.348 8.348,-8.348 4.61,0 8.348,3.738 8.348,8.348 v 18.365 c 0,4.61 -3.739,8.348 -8.348,8.348 z"
   id="path74" />
	<path
   style="fill:#547475"
   d="m 347.843,237.38 c -4.61,0 -8.348,-3.738 -8.348,-8.348 v -18.365 c 0,-4.61 3.738,-8.348 8.348,-8.348 4.61,0 8.348,3.738 8.348,8.348 v 18.365 c 0,4.61 -3.739,8.348 -8.348,8.348 z"
   id="path76" />
	<path
   style="fill:#547475"
   d="m 375.669,237.38 c -4.61,0 -8.348,-3.738 -8.348,-8.348 v -18.365 c 0,-4.61 3.738,-8.348 8.348,-8.348 4.61,0 8.348,3.738 8.348,8.348 v 18.365 c 0,4.61 -3.738,8.348 -8.348,8.348 z"
   id="path78" />
	<path
   style="fill:#547475"
   d="m 403.496,237.38 c -4.61,0 -8.348,-3.738 -8.348,-8.348 v -18.365 c 0,-4.61 3.738,-8.348 8.348,-8.348 4.61,0 8.348,3.738 8.348,8.348 v 18.365 c -10e-4,4.61 -3.739,8.348 -8.348,8.348 z"
   id="path80" />
	<path
   style="fill:#547475"
   d="m 328.574,199.746 h -18.365 c -4.611,0 -8.348,-3.738 -8.348,-8.348 0,-4.61 3.736,-8.348 8.348,-8.348 h 18.365 c 4.611,0 8.348,3.738 8.348,8.348 0,4.61 -3.736,8.348 -8.348,8.348 z"
   id="path82" />
	<path
   style="fill:#547475"
   d="m 328.106,171.451 h -18.365 c -4.61,0 -8.348,-3.738 -8.348,-8.348 0,-4.61 3.738,-8.348 8.348,-8.348 h 18.365 c 4.611,0 8.348,3.738 8.348,8.348 0,4.61 -3.737,8.348 -8.348,8.348 z"
   id="path84" />
	<path
   style="fill:#547475"
   d="m 328.106,143.625 h -18.365 c -4.61,0 -8.348,-3.738 -8.348,-8.348 0,-4.61 3.738,-8.348 8.348,-8.348 h 18.365 c 4.611,0 8.348,3.738 8.348,8.348 0,4.61 -3.737,8.348 -8.348,8.348 z"
   id="path86" />
</g>
<g
   id="g23840"
   transform="matrix(2.9724499,0,0,2.9724499,330.60551,358.92156)"><path
     style="fill:#444444;stroke:#333333"
     d="M 20,20 C 10,10 6,6 5,-0.6 l -7,0.4 c 0,0 3,10.2 12,20.2 0,0 10,0 10,0 z"
     id="path23648" /><path
     style="fill:#555555;stroke:#444444;stroke-width:2"
     d="M 35,26 23,16 C 23,16 7,14 8.5,31 l 5.5,7 z"
     id="path23650" /><path
     style="fill:#777777;stroke:#444444"
     d="M 82,42 65,27 c 0,0 -2,-2 -6,1 l 18,15 z"
     id="path23652" /><path
     style="fill:#666666;stroke:#333333"
     d="M 77,43 57,26 c 0,0 -4,-5 -10,-3 -8,3 -24,6 -24,6 0,0 -10,2 -9,11 l 17,16 z"
     id="path23654" /><path
     style="fill:#626262;stroke:#333333"
     d="M 31,56 14,40 C 14,40 1.8,37 3.3,53 3,52 26,74 26,74 Z"
     id="path23656" /><path
     style="fill:none;stroke:#555555"
     d="m 29,40 30,-7 v 0 0 M 33,43 63,36 v 0 0 M 36,46 66,39 v 0 0 M 41,49 70,42 v 0 0"
     id="path23658" /><path
     style="fill:#444444;stroke:#555555"
     d="m 97,45 -4,-4 c 0,0 -2,-2 -5,-1 0,0 -59,16 -59,16 0,0 -4,1 -3,7 v 19 c 0,6 8,7 8,7 z"
     id="path23660" /><path
     style="fill:#aca275;stroke:#606060"
     d="M 92,43 36,59 c 0,0 -7,2 -6,10 v 16 c 0,6 7,4 7,4 L 92,71 c 0,0 5,0 5,-7 0,-8 0,-15 0,-18 0,-3 -5,-3 -5,-3 z"
     id="path23662" /><path
     style="fill:#cfc6a3;stroke:#736b47"
     d="m 85,61 c -1,-7 -2,-8 -5,-7 l -30,9 c 0,0 -5,1 -5,5 0,0 2,6 3,9 1,3 2,2 9,5 1,0 18,-9 25,-16 2,-2 4,2 3,-5 z"
     id="path23664" /><path
     style="fill:#e5e0cb"
     d="m 84,60 -25,8 c 0,0 -5,1 -5,4 0,4 3,10 3,10 0,0 1,1 4,0 L 86,63 c 0,0 1,-2 -2,-3 z"
     id="path23666" /><path
     style="fill:#555555"
     d="m 83,63 c -1,0 -22,7 -22,7 0,0 -4,1 -4,3 0,3 1,5 2,8 1,2 4,1 4,1 l 20,-7 c 2,-1 2,-2 3,-11 0,-2 -3,-1 -3,-1 z"
     id="path23668" /><circle
     cx="40"
     cy="76"
     r="3.5"
     fill="#222222"
     stroke="#111111"
     id="circle23670" /><circle
     cx="90"
     cy="60"
     r="3"
     fill="#333333"
     stroke="#222222"
     id="circle23672" /><g
     style="fill:#000000"
     id="g23692"><circle
       cx="62"
       cy="74"
       r="1.7"
       id="circle23674" /><circle
       cx="67"
       cy="72"
       r="1.7"
       id="circle23676" /><circle
       cx="72"
       cy="70"
       r="1.7"
       id="circle23678" /><circle
       cx="77"
       cy="68.5"
       r="1.7"
       id="circle23680" /><circle
       cx="82"
       cy="67"
       r="1.7"
       id="circle23682" /><circle
       cx="65"
       cy="79"
       r="1.7"
       id="circle23684" /><circle
       cx="70"
       cy="77"
       r="1.7"
       id="circle23686" /><circle
       cx="75"
       cy="75"
       r="1.7"
       id="circle23688" /><circle
       cx="80"
       cy="73"
       r="1.7"
       id="circle23690" /></g></g></svg>
