<?xml version="1.0" encoding="UTF-8" standalone="no"?>
<!-- Uploaded to: SVG Repo, www.svgrepo.com, Generator: SVG Repo Mixer Tools -->

<svg
   height="746.22815"
   width="800.00323"
   version="1.1"
   id="_x32_"
   viewBox="0 0 512.00207 477.58602"
   xml:space="preserve"
   sodipodi:docname="book.svg"
   inkscape:version="1.2 (dc2aedaf03, 2022-05-15)"
   xmlns:inkscape="http://www.inkscape.org/namespaces/inkscape"
   xmlns:sodipodi="http://sodipodi.sourceforge.net/DTD/sodipodi-0.dtd"
   xmlns="http://www.w3.org/2000/svg"
   xmlns:svg="http://www.w3.org/2000/svg"><defs
   id="defs21" /><sodipodi:namedview
   id="namedview19"
   pagecolor="#ffffff"
   bordercolor="#000000"
   borderopacity="0.25"
   inkscape:showpageshadow="2"
   inkscape:pageopacity="0.0"
   inkscape:pagecheckerboard="0"
   inkscape:deskcolor="#d1d1d1"
   showgrid="false"
   inkscape:zoom="1.03875"
   inkscape:cx="380.26474"
   inkscape:cy="372.56318"
   inkscape:window-width="1920"
   inkscape:window-height="1017"
   inkscape:window-x="1672"
   inkscape:window-y="-8"
   inkscape:window-maximized="1"
   inkscape:current-layer="g16" />
<style
   type="text/css"
   id="style2">
	.st0{fill:#000000;}
</style>
<g
   id="g16"
   transform="translate(0,-17.206)">
	<polygon
   class="st0"
   points="1.897,293.657 1.914,293.73 1.914,293.714 "
   id="polygon4" />
	<path
   class="st0"
   d="m 10.027,313.061 -0.12,-0.145 c -0.008,-0.008 -0.008,-0.008 -0.008,-0.008 z"
   id="path6" />
	<path
   class="st0"
   d="m 10.027,223.738 -0.12,-0.145 c -0.008,0 -0.008,0 -0.008,0 z"
   id="path8" />
	<path
   class="st0"
   d="m 1.914,204.423 c 0,0 0,-0.024 -0.008,-0.04 l -0.008,-0.024 z"
   id="path10" />
	<path
   class="st0"
   d="m 512,204.688 c 0.008,-2.275 -0.435,-4.479 -1.15,-6.569 0.7,-1.93 1.07,-3.876 1.078,-5.758 0.016,-2.96 -0.805,-5.822 -2.05,-8.122 l -0.04,-0.072 c -0.378,-0.691 -0.893,-1.423 -1.464,-2.155 v -55.268 c 2.268,-3.257 3.619,-7.173 3.627,-11.378 0,-8.138 -4.905,-15.448 -12.408,-18.527 L 314.233,19.393 h -0.539 c -3.892,-1.367 -7.928,-2.187 -12.022,-2.187 -3.996,0 -8.001,0.78 -11.852,2.106 h -0.482 l -271.671,109.474 -0.676,0.378 0.016,0.024 c -3.466,1.825 -6.031,4.358 -7.8,6.81 -3.095,4.302 -4.679,8.838 -5.83,12.955 l -0.008,0.056 c -1.728,6.393 -2.452,12.882 -2.894,18.375 l -0.008,0.048 c -0.41,5.516 -0.434,10.18 -0.466,12.095 v 0.048 1.022 c 0.008,6.698 0.378,15.406 1.906,23.786 l 0.024,0.089 c 0.805,4.213 1.938,8.491 3.869,12.657 l 0.032,0.064 0.007,0.016 c 0.982,2.051 2.26,4.246 4.029,6.337 l 0.04,0.048 c 0.128,0.153 0.314,0.29 0.459,0.435 -0.37,0.434 -0.853,0.852 -1.159,1.294 -3.104,4.294 -4.679,8.83 -5.83,12.938 l -0.008,0.04 v 0.016 c -1.728,6.393 -2.452,12.89 -2.894,18.382 l -0.008,0.04 C 0.056,262.264 0.032,266.92 0,268.842 v 0.04 1.029 c 0.008,6.707 0.378,15.416 1.914,23.803 l 0.016,0.064 c 0.805,4.222 1.938,8.508 3.869,12.673 l 0.039,0.072 c 0.974,2.035 2.252,4.23 4.029,6.344 l 0.04,0.049 c 0.322,0.386 0.796,0.732 1.174,1.117 -0.636,0.7 -1.367,1.392 -1.874,2.091 -3.104,4.302 -4.679,8.838 -5.83,12.938 l -0.024,0.113 0.016,-0.049 c -1.728,6.393 -2.452,12.891 -2.894,18.383 l -0.008,0.048 c -0.41,5.516 -0.434,10.18 -0.466,12.11 v 0.048 0.997 c 0.008,6.714 0.378,15.431 1.914,23.819 l 0.016,0.064 c 0.805,4.214 1.938,8.5 3.869,12.657 l 0.039,0.08 c 0.974,2.043 2.252,4.23 4.029,6.345 l -0.128,-0.145 0.169,0.201 c 1.696,1.97 4.028,3.876 6.94,5.299 l -0.032,0.048 0.056,0.032 0.41,0.233 199.948,82.52 0.458,0.193 c 4.431,1.81 9.143,2.734 13.879,2.734 4.648,0 9.304,-0.892 13.694,-2.686 l 255.907,-103.99 v -0.008 c 2.951,-1.19 5.734,-3.128 7.865,-6.24 l 0.008,0.008 c 0,0 0.008,-0.024 0.016,-0.04 0.008,-0.008 0.016,-0.008 0.024,-0.024 h -0.008 c 2.018,-3.056 2.838,-6.272 2.855,-9.328 0.016,-2.96 -0.805,-5.822 -2.05,-8.122 l -0.04,-0.072 v 0.008 c -0.378,-0.692 -0.893,-1.431 -1.464,-2.163 v -55.26 c 2.268,-3.257 3.619,-7.189 3.627,-11.386 0.008,-2.541 -0.531,-5.01 -1.44,-7.318 0.917,-2.171 1.359,-4.382 1.367,-6.498 0.016,-2.967 -0.805,-5.813 -2.05,-8.13 l -0.04,-0.072 c -0.378,-0.684 -0.893,-1.424 -1.464,-2.156 v -55.252 c 2.265,-3.261 3.617,-7.186 3.625,-11.375 z M 216.272,469.136 25.852,390.539 25.136,389.703 c -0.595,-0.925 -1.358,-2.686 -1.97,-4.873 -0.948,-3.273 -1.6,-7.535 -1.994,-11.845 -0.394,-4.302 -0.531,-8.636 -0.531,-12.271 v -0.86 c 0.032,-2.806 0.136,-10.928 1.294,-18.568 0.547,-3.812 1.392,-7.487 2.436,-10.092 l 0.218,-0.474 191.681,77.76 v 60.656 z m 0,-90.812 -173.267,-71.535 -17.152,-7.06 -0.716,-0.836 c -0.595,-0.933 -1.358,-2.686 -1.97,-4.866 -0.948,-3.289 -1.6,-7.543 -1.994,-11.852 -0.394,-4.302 -0.531,-8.636 -0.531,-12.264 v -0.868 c 0.032,-2.814 0.136,-10.928 1.294,-18.576 0.547,-3.804 1.392,-7.487 2.436,-10.084 l 0.218,-0.474 191.681,77.759 v 60.656 z m 0,-145.033 v 3.682 52.036 l -175.108,-72.3 -15.311,-6.297 -0.716,-0.844 c -0.595,-0.925 -1.358,-2.686 -1.97,-4.856 -0.948,-3.282 -1.6,-7.535 -1.994,-11.854 -0.394,-4.31 -0.531,-8.636 -0.531,-12.262 v -0.869 c 0.032,-2.806 0.136,-10.928 1.294,-18.568 0.547,-3.812 1.392,-7.486 2.436,-10.092 l 0.218,-0.466 191.681,77.752 v 4.938 z m 271.459,138.022 -249.571,101.393 -0.66,0.297 c -1.922,0.756 -3.924,1.15 -5.934,1.15 -0.716,0 -1.447,-0.105 -2.155,-0.217 v -61.412 c 0.941,0.105 1.914,0.161 2.855,0.161 3.756,0 7.519,-0.74 11.033,-2.187 l 0.241,-0.104 244.192,-99.664 v 60.583 z m 0,-91.157 v 0.338 l -249.571,101.401 -0.66,0.29 c -1.922,0.764 -3.924,1.15 -5.934,1.15 -0.716,0 -1.447,-0.104 -2.155,-0.201 v -61.42 c 0.941,0.104 1.914,0.161 2.855,0.161 3.756,0 7.519,-0.74 11.033,-2.18 l 0.241,-0.112 171.272,-69.896 72.919,-29.77 z m 0,-90.811 v 1.841 L 238.16,292.58 l -0.66,0.289 c -1.922,0.764 -3.924,1.158 -5.934,1.158 -0.716,0 -1.447,-0.105 -2.155,-0.208 v -56.145 -5.283 c 0.941,0.113 1.914,0.16 2.855,0.16 3.756,0 7.519,-0.731 11.033,-2.17 l 0.241,-0.105 244.192,-99.672 v 58.741 z"
   id="path12"
   style="fill:#ffffff" />
	<polygon
   class="st0"
   points="1.897,384.484 1.914,384.549 1.914,384.533 "
   id="polygon14" />
</g>
</svg>
