<?xml version="1.0" encoding="UTF-8" standalone="no"?>
<!-- Uploaded to: SVG Repo, www.svgrepo.com, Generator: SVG Repo Mixer Tools -->

<svg
   width="800px"
   height="800px"
   viewBox="0 0 100 100"
   version="1.1"
   id="svg14"
   sodipodi:docname="card_tag.svg"
   inkscape:version="1.2 (dc2aedaf03, 2022-05-15)"
   xmlns:inkscape="http://www.inkscape.org/namespaces/inkscape"
   xmlns:sodipodi="http://sodipodi.sourceforge.net/DTD/sodipodi-0.dtd"
   xmlns="http://www.w3.org/2000/svg"
   xmlns:svg="http://www.w3.org/2000/svg">
  <defs
     id="defs18" />
  <sodipodi:namedview
     id="namedview16"
     pagecolor="#ffffff"
     bordercolor="#000000"
     borderopacity="0.25"
     inkscape:showpageshadow="2"
     inkscape:pageopacity="0.0"
     inkscape:pagecheckerboard="0"
     inkscape:deskcolor="#d1d1d1"
     showgrid="false"
     inkscape:zoom="1.28375"
     inkscape:cx="399.61052"
     inkscape:cy="400"
     inkscape:window-width="2560"
     inkscape:window-height="1361"
     inkscape:window-x="2391"
     inkscape:window-y="-9"
     inkscape:window-maximized="1"
     inkscape:current-layer="svg14" />
  <path
     style="fill:#549E45;stroke:#2A5F1F;stroke-width:2"
     d="m 39,19 57,-17 0,38 -7,3 0,14 -28,13 0,-16 -14,7 0,16 -8,4 z"
     id="path2" />
  <path
     style="fill:#ccc"
     d="m 77,18 13,-4 0,18 -13,5 z m -31,8 20,-6 0,22 -20,8 z"
     id="path4" />
  <path
     style="fill:#333;stroke:#111;stoke-width:2"
     d="m 80,19 13,-4 0,18 -13,5 z m -31,8 20,-6 0,22 -20,8 z"
     id="path6" />
  <path
     style="fill:#CDB754;stroke:#6A5600"
     d="m 85,45 2,-1 0,14 -2,1 z m -5,2 2,-1 0,14 -2,1 z m -5,2 2,-1 0,14 -2,1 z m -5,17 0,-15 2,-1 0,15 z m -5,2 0,-15 2,-1 0,15 z"
     id="path8" />
  <path
     style="fill:#888;stroke:#333"
     d="M 14 15 L 15 82 C 15 82 22 85 21 95 L 34 97 C 33 87 39 86 39 86 L 39 17 L 14 15 z M 18 54 L 25 55 L 25 72 L 18 71 L 18 54 z "
     id="path10" />
  <path
     style="fill:#aaa;stroke:#555"
     d="M 16.7,13.7 5,17 l 9,1 4.7,-1.4 6.3,0.6 -4,1.8 9,1 10,-4 z"
     id="path12" />
  <g
     id="g428"
     transform="matrix(0.37134486,0,0,0.37134486,53.610785,51.775617)">
    <path
       fill="#808184"
       d="m 99.087571,24.488802 c -6.875,0 -12.6875,7.934375 -12.6875,17.321875 v 1.503125 h -2.421875 c -1.18125,0 -2.290625,0.428125 -3.134375,1.20625 l -46.071875,42.73125 c -0.959375,0.890625 -1.50625,2.153125 -1.496875,3.465625 0.0063,1.3125 0.56875,2.56875 1.534375,3.45 l 32.06875,29.121873 c 0.85,0.775 1.95,1.19688 3.09375,1.2 1.2125,0 2.35625,-0.46875 3.225,-1.31875 L 116.23757,81.048177 c 0.9,-0.878125 1.4125,-2.103125 1.4125,-3.3625 v -29.75 c 0,-2.546875 -2.07812,-4.621875 -4.63125,-4.621875 h -1.3 c 0.0344,-0.515625 0.0563,-1.0375 0.0563,-1.565625 0,-9.471875 -5.69062,-17.259375 -12.687499,-17.259375 z m -9.5625,17.321875 c 0,-7.5625 4.46875,-14.19375 9.5625,-14.19375 5.184379,0 9.565629,6.4375 9.565629,14.05625 0,0.5625 -0.0656,1.096875 -0.10938,1.640625 H 89.525071 Z m 23.493749,4.628125 c 0.84375,0 1.50625,0.65625 1.50625,1.496875 v 29.746875 c 0,0.425 -0.17187,0.8375 -0.46875,1.128125 L 71.012571,120.93255 c -0.540625,0.53438 -1.465625,0.55625 -2.034375,0.0406 L 36.909446,91.854427 c -0.325,-0.296875 -0.50625,-0.70625 -0.509375,-1.153125 -0.0031,-0.446875 0.175,-0.859375 0.496875,-1.159375 l 46.06875,-42.728125 c 0.334375,-0.309375 0.734375,-0.375 1.0125,-0.375 h 24.081254 c -0.65,2.684375 -1.8125,4.990625 -3.33438,6.61875 -0.0406,-0.04062 -0.0656,-0.0875 -0.10625,-0.125 -3.075,-2.95625 -8.406249,-2.959375 -11.484374,0 -1.553125,1.49375 -2.409375,3.484375 -2.409375,5.603125 0,2.11875 0.853125,4.1125 2.409375,5.60625 1.5375,1.478125 3.578125,2.29375 5.740625,2.29375 2.165629,0 4.206249,-0.815625 5.743749,-2.29375 1.55313,-1.496875 2.40938,-3.4875 2.40938,-5.60625 0,-0.95625 -0.19688,-1.88125 -0.53125,-2.75 2.29062,-2.24375 4.00937,-5.53125 4.79687,-9.35 h 1.725 z m -9.11875,12.1 c 0,1.2625 -0.5125,2.45625 -1.45,3.35625 -1.9,1.83125 -5.243749,1.834375 -7.149999,0 -0.9375,-0.9 -1.45,-2.090625 -1.45,-3.35625 0,-0.58125 0.121875,-1.146875 0.33125,-1.675 2.028125,1.95 4.90625,2.075 5.175,2.075 0.0063,0 0.0125,0 0.01563,0 1.568749,0 3.065619,-0.425 4.450009,-1.16875 0.0406,0.253125 0.0781,0.50625 0.0781,0.76875 z m -7.624999,-4.06875 c 0.778125,-0.45 1.6625,-0.70625 2.596875,-0.70625 1.221874,0 2.365624,0.43125 3.278124,1.184375 -0.88437,0.421875 -1.80625,0.7125 -2.784374,0.7125 -0.09687,0 -1.946875,-0.03437 -3.090625,-1.190625 z"
       id="path2-0"
       style="stroke-width:3.125" />
    <path
       style="fill:#e4d4a2;fill-opacity:1;stroke:#000000;stroke-width:0.0842359;stroke-linejoin:round;paint-order:fill markers stroke"
       d="M 69.311906,121.09985 C 69.17212,121.01946 61.769623,114.33436 52.861912,106.24405 35.405517,90.389529 36.279197,91.244652 36.546794,90.275496 36.664665,89.848601 36.3674,90.126843 72.75499,56.384434 c 5.526473,-5.12473 10.204355,-9.439516 10.39529,-9.588415 l 0.347155,-0.270725 h 12.197971 c 11.109164,0 12.197974,0.01721 12.197974,0.192839 0,0.106063 -0.16073,0.672569 -0.35717,1.258905 -0.55994,1.6713 -1.53626,3.490746 -2.40265,4.477511 l -0.38382,0.437153 -0.74467,-0.553124 c -1.52514,-1.132841 -3.09865,-1.633072 -5.136964,-1.633072 -2.051648,0 -3.638641,0.507973 -5.140298,1.645335 -2.603672,1.972033 -3.691496,5.543863 -2.635733,8.654336 1.368162,4.03086 5.766192,6.317525 9.993485,5.195906 2.84288,-0.754297 5.13357,-3.086569 5.79205,-5.897209 0.24014,-1.025001 0.18449,-3.093101 -0.10506,-3.904373 l -0.19093,-0.534939 0.66937,-0.784115 c 1.78391,-2.089708 3.04499,-4.55484 3.82247,-7.47212 l 0.27261,-1.022864 1.0872,-0.03441 c 1.02026,-0.03229 1.11009,-0.01514 1.45906,0.278493 0.20452,0.172096 0.4273,0.51249 0.49505,0.756431 0.16515,0.594622 0.17044,29.876316 0.006,30.470001 -0.0883,0.317906 -0.6513,0.94837 -2.25659,2.527075 -13.953437,13.722379 -41.11641,40.258277 -41.416222,40.460097 -0.359176,0.24179 -1.03873,0.26915 -1.408167,0.0567 z"
       id="path917" />
    <path
       style="fill:none;fill-opacity:1;stroke:#808184;stroke-width:2.5;stroke-linejoin:round;stroke-dasharray:none;stroke-opacity:1;paint-order:fill markers stroke"
       d="M 47.075703,92.211202 81.622674,60.727505 Z"
       id="path462" />
    <path
       style="fill:none;fill-opacity:1;stroke:#808184;stroke-width:2.5;stroke-linejoin:round;stroke-dasharray:none;stroke-opacity:1;paint-order:fill markers stroke"
       d="M 55.669902,100.12467 90.216874,68.640974 Z"
       id="path462-1" />
    <path
       style="fill:none;fill-opacity:1;stroke:#808184;stroke-width:2.5;stroke-linejoin:round;stroke-dasharray:none;stroke-opacity:1;paint-order:fill markers stroke"
       d="M 64.689555,108.71887 99.236527,77.235171 Z"
       id="path462-9" />
  </g>
</svg>
