<?xml version="1.0" encoding="UTF-8" standalone="no"?>
<!-- Uploaded to: SVG Repo, www.svgrepo.com, Generator: SVG Repo Mixer Tools -->

<svg
   width="800px"
   height="800px"
   viewBox="0 0 100 100"
   version="1.1"
   id="svg14"
   sodipodi:docname="card_tag.svg"
   inkscape:version="1.2 (dc2aedaf03, 2022-05-15)"
   xmlns:inkscape="http://www.inkscape.org/namespaces/inkscape"
   xmlns:sodipodi="http://sodipodi.sourceforge.net/DTD/sodipodi-0.dtd"
   xmlns="http://www.w3.org/2000/svg"
   xmlns:svg="http://www.w3.org/2000/svg">
  <defs
     id="defs18" />
  <sodipodi:namedview
     id="namedview16"
     pagecolor="#ffffff"
     bordercolor="#000000"
     borderopacity="0.25"
     inkscape:showpageshadow="2"
     inkscape:pageopacity="0.0"
     inkscape:pagecheckerboard="0"
     inkscape:deskcolor="#d1d1d1"
     showgrid="false"
     inkscape:zoom="1.28375"
     inkscape:cx="400.38948"
     inkscape:cy="400.77897"
     inkscape:window-width="2560"
     inkscape:window-height="1361"
     inkscape:window-x="2391"
     inkscape:window-y="-9"
     inkscape:window-maximized="1"
     inkscape:current-layer="svg14" />
  <path
     style="fill:#549E45;stroke:#2A5F1F;stroke-width:2"
     d="m 39,19 57,-17 0,38 -7,3 0,14 -28,13 0,-16 -14,7 0,16 -8,4 z"
     id="path2" />
  <path
     style="fill:#ccc"
     d="m 77,18 13,-4 0,18 -13,5 z m -31,8 20,-6 0,22 -20,8 z"
     id="path4" />
  <path
     style="fill:#333;stroke:#111;stoke-width:2"
     d="m 80,19 13,-4 0,18 -13,5 z m -31,8 20,-6 0,22 -20,8 z"
     id="path6" />
  <path
     style="fill:#CDB754;stroke:#6A5600"
     d="m 85,45 2,-1 0,14 -2,1 z m -5,2 2,-1 0,14 -2,1 z m -5,2 2,-1 0,14 -2,1 z m -5,17 0,-15 2,-1 0,15 z m -5,2 0,-15 2,-1 0,15 z"
     id="path8" />
  <path
     style="fill:#888;stroke:#333"
     d="M 14 15 L 15 82 C 15 82 22 85 21 95 L 34 97 C 33 87 39 86 39 86 L 39 17 L 14 15 z M 18 54 L 25 55 L 25 72 L 18 71 L 18 54 z "
     id="path10" />
  <path
     style="fill:#aaa;stroke:#555"
     d="M 16.7,13.7 5,17 l 9,1 4.7,-1.4 6.3,0.6 -4,1.8 9,1 10,-4 z"
     id="path12" />
  <g
     id="g24890"
     transform="matrix(0.09205516,0,0,0.09205516,51.759762,61.63038)">
    <g
       id="g24753">
	<path
   style="fill:#ff6600"
   d="m 18.064,193.007 12.864,49.36 c 2.8,10.832 5.408,20.88 7.216,30.912 h 0.608 c 2.208,-9.84 5.408,-20.272 8.608,-30.704 l 15.872,-49.552 h 14.816 l 15.072,48.56 c 3.6,11.632 6.416,21.872 8.608,31.712 h 0.608 c 1.6,-9.84 4.24,-20.08 7.456,-31.504 l 13.824,-48.752 h 17.472 l -31.296,97.12 H 93.712 L 78.848,243.807 C 75.44,232.991 72.64,223.359 70.24,211.919 h -0.416 c -2.4,11.632 -5.408,21.68 -8.816,32.096 l -15.664,46.16 H 29.328 L 0,193.007 Z"
   id="path24747" />

	<path
   style="fill:#ff6600"
   d="m 168.064,193.007 12.864,49.36 c 2.8,10.832 5.408,20.88 7.216,30.912 h 0.608 c 2.208,-9.84 5.408,-20.272 8.608,-30.704 l 15.872,-49.552 h 14.816 l 15.072,48.56 c 3.6,11.632 6.416,21.872 8.608,31.712 h 0.608 c 1.6,-9.84 4.24,-20.08 7.456,-31.504 l 13.824,-48.752 h 17.472 l -31.296,97.12 h -16.064 l -14.864,-46.352 c -3.408,-10.816 -6.208,-20.448 -8.608,-31.888 h -0.4 c -2.4,11.632 -5.408,21.68 -8.816,32.096 l -15.664,46.16 h -16.032 l -29.328,-97.12 h 18.048 z"
   id="path24749" />

	<path
   style="fill:#ff6600"
   d="m 318.112,193.007 12.816,49.36 c 2.8,10.832 5.408,20.88 7.216,30.912 h 0.608 c 2.208,-9.84 5.456,-20.272 8.656,-30.704 l 15.824,-49.552 h 14.864 l 15.072,48.56 c 3.6,11.632 6.416,21.872 8.608,31.712 h 0.608 c 1.6,-9.84 4.208,-20.08 7.408,-31.504 l 13.856,-48.752 h 17.424 l -31.296,97.12 H 393.744 L 378.88,243.807 c -3.408,-10.816 -6.208,-20.448 -8.608,-31.888 h -0.4 c -2.4,11.632 -5.456,21.68 -8.848,32.096 l -15.632,46.16 h -16.064 l -29.28,-97.12 h 18.064 z"
   id="path24751" />

</g>
    <g
       id="g24759">
	<path
   style="fill:#22acdd"
   d="m 366.448,369.007 c -41.632,0 -81.088,-20.128 -105.568,-53.84 l 11.616,-8.448 c 21.792,30.032 56.912,47.952 93.952,47.952 63.968,0 116.032,-52.064 116.032,-116.032 0,-63.968 -52.064,-116.032 -116.032,-116.032 -42.928,0 -82.176,23.552 -102.432,61.472 l -12.656,-6.768 c 22.752,-42.592 66.848,-69.056 115.088,-69.056 71.888,0 130.368,58.48 130.368,130.368 0,71.888 -58.48,130.384 -130.368,130.384 z"
   id="path24755" />

	
		<rect
   x="433.14099"
   y="360.939"
   transform="matrix(-0.7063,-0.7079,0.7079,-0.7063,552.3334,965.3643)"
   style="fill:#22acdd"
   width="86.558998"
   height="14.336"
   id="rect24757" />

</g>
  </g>
</svg>
