<?xml version="1.0" encoding="UTF-8" standalone="no"?>
<!-- Uploaded to: SVG Repo, www.svgrepo.com, Generator: SVG Repo Mixer Tools -->

<svg
   width="800px"
   height="800px"
   viewBox="0 0 100 100"
   version="1.1"
   id="svg14"
   sodipodi:docname="card_image.svg"
   inkscape:version="1.2 (dc2aedaf03, 2022-05-15)"
   xmlns:inkscape="http://www.inkscape.org/namespaces/inkscape"
   xmlns:sodipodi="http://sodipodi.sourceforge.net/DTD/sodipodi-0.dtd"
   xmlns="http://www.w3.org/2000/svg"
   xmlns:svg="http://www.w3.org/2000/svg">
  <defs
     id="defs18" />
  <sodipodi:namedview
     id="namedview16"
     pagecolor="#ffffff"
     bordercolor="#000000"
     borderopacity="0.25"
     inkscape:showpageshadow="2"
     inkscape:pageopacity="0.0"
     inkscape:pagecheckerboard="0"
     inkscape:deskcolor="#d1d1d1"
     showgrid="false"
     inkscape:zoom="1.28375"
     inkscape:cx="399.61052"
     inkscape:cy="400"
     inkscape:window-width="2560"
     inkscape:window-height="1361"
     inkscape:window-x="2391"
     inkscape:window-y="-9"
     inkscape:window-maximized="1"
     inkscape:current-layer="svg14" />
  <path
     style="fill:#549E45;stroke:#2A5F1F;stroke-width:2"
     d="m 39,19 57,-17 0,38 -7,3 0,14 -28,13 0,-16 -14,7 0,16 -8,4 z"
     id="path2" />
  <path
     style="fill:#ccc"
     d="m 77,18 13,-4 0,18 -13,5 z m -31,8 20,-6 0,22 -20,8 z"
     id="path4" />
  <path
     style="fill:#333;stroke:#111;stoke-width:2"
     d="m 80,19 13,-4 0,18 -13,5 z m -31,8 20,-6 0,22 -20,8 z"
     id="path6" />
  <path
     style="fill:#CDB754;stroke:#6A5600"
     d="m 85,45 2,-1 0,14 -2,1 z m -5,2 2,-1 0,14 -2,1 z m -5,2 2,-1 0,14 -2,1 z m -5,17 0,-15 2,-1 0,15 z m -5,2 0,-15 2,-1 0,15 z"
     id="path8" />
  <path
     style="fill:#888;stroke:#333"
     d="M 14 15 L 15 82 C 15 82 22 85 21 95 L 34 97 C 33 87 39 86 39 86 L 39 17 L 14 15 z M 18 54 L 25 55 L 25 72 L 18 71 L 18 54 z "
     id="path10" />
  <path
     style="fill:#aaa;stroke:#555"
     d="M 16.7,13.7 5,17 l 9,1 4.7,-1.4 6.3,0.6 -4,1.8 9,1 10,-4 z"
     id="path12" />
  <g
     id="g1414"
     transform="matrix(0.55580043,0,0,0.56251106,67.450827,72.500027)">
    <g
       id="g1387">
      <g
         id="g1381">
        <g
           id="g6">
			<rect
   x="1"
   y="4"
   style="fill:#ecf0f1"
   width="55"
   height="42"
   id="rect2" />

			<path
   style="fill:#545e73"
   d="M 57,47 H 0 V 3 H 57 Z M 2,45 H 55 V 5 H 2 Z"
   id="path4-0" />

		</g>
      </g>
    </g>
    <rect
       x="5"
       y="8"
       style="fill:#00d4ff;fill-opacity:1"
       width="47"
       height="34"
       id="rect8" />
    <path
       style="fill:#00d4ff;fill-opacity:1"
       d="M 53,43 H 4 V 7 H 53 Z M 6,41 H 51 V 9 H 6 Z"
       id="path10-3" />
    <circle
       style="fill:#f3d55a"
       cx="15"
       cy="16.569"
       r="4.5689998"
       id="circle14" />
    <polygon
       style="fill:#11a085"
       points="50,31 38,20 27.5,31.5 32.983,36.983 37,41 51,41 51,32.111 "
       id="polygon16" />
    <polygon
       style="fill:#26b999"
       points="32.983,36.983 22.017,26.017 6,40 6,41 37,41 "
       id="polygon18" />
    <g
       id="g28">
</g>
    <g
       id="g30">
</g>
    <g
       id="g32">
</g>
    <g
       id="g34">
</g>
    <g
       id="g36">
</g>
    <g
       id="g38">
</g>
    <g
       id="g40">
</g>
    <g
       id="g42">
</g>
    <g
       id="g44">
</g>
    <g
       id="g46">
</g>
    <g
       id="g48">
</g>
    <g
       id="g50">
</g>
    <g
       id="g52">
</g>
    <g
       id="g54">
</g>
    <g
       id="g56">
</g>
  </g>
</svg>
