<?xml version="1.0" encoding="UTF-8" standalone="no"?>
<!-- Generator: Adobe Illustrator 19.0.0, SVG Export Plug-In . SVG Version: 6.00 Build 0)  -->

<svg
   version="1.1"
   id="Layer_1"
   x="0px"
   y="0px"
   viewBox="0 0 512 512"
   style="enable-background:new 0 0 512 512;"
   xml:space="preserve"
   sodipodi:docname="cd.svg"
   inkscape:version="1.1.1 (3bf5ae0d25, 2021-09-20)"
   xmlns:inkscape="http://www.inkscape.org/namespaces/inkscape"
   xmlns:sodipodi="http://sodipodi.sourceforge.net/DTD/sodipodi-0.dtd"
   xmlns="http://www.w3.org/2000/svg"
   xmlns:svg="http://www.w3.org/2000/svg"><defs
   id="defs55">
	
	
</defs><sodipodi:namedview
   id="namedview53"
   pagecolor="#ffffff"
   bordercolor="#666666"
   borderopacity="1.0"
   inkscape:pageshadow="2"
   inkscape:pageopacity="0.0"
   inkscape:pagecheckerboard="0"
   showgrid="false"
   inkscape:zoom="1.625"
   inkscape:cx="256.30769"
   inkscape:cy="255.07692"
   inkscape:window-width="1920"
   inkscape:window-height="1017"
   inkscape:window-x="1672"
   inkscape:window-y="-8"
   inkscape:window-maximized="1"
   inkscape:current-layer="Layer_1" />
<path
   style="fill:#B9B9B9;"
   d="M256,0l45.011,97.336L256,180.044c-41.95,0-75.956,34.006-75.956,75.956  c0,13.83,3.702,26.804,10.172,37.978l-55.762,90.2L34.298,384C12.468,346.36,0,302.643,0,256C0,114.62,114.62,0,256,0z"
   id="path2" />
<path
   style="fill:#969696;"
   d="M477.735,127.978c-0.034,0.022-45.506-9.216-45.506-9.216l-173.36,393.216  C398.932,510.447,512,396.423,512,256C512,209.357,499.532,165.64,477.735,127.978z"
   id="path4" />
<path
   style="fill:#f5f6f5;fill-opacity:1"
   d="M477.735,127.978c-0.034,0.022-23.001,13.289-23.001,13.289l-87.164-53.102l69.441-13.177  C452.777,90.742,466.494,108.555,477.735,127.978z"
   id="path6" />
<path
   style="fill:#B9B9B9;"
   d="M454.735,141.267c15.034,34.512,23.507,73.48,23.507,114.733  c0,140.277-97.944,254.211-219.372,255.978C257.913,511.989,256.957,512,256,512l-45.011-101.275L256,331.956  c41.95,0,75.956-34.006,75.956-75.956c0-13.83-3.702-26.804-10.172-37.978l52.905-59.545L454.735,141.267z"
   id="path8" />
<path
   style="fill:#FFFFFF;"
   d="M454.735,141.267l-132.951,76.755c-3.331-5.773-7.393-11.05-12.074-15.731l19.434-75.697  l94.692-38.428C435.943,104.234,446.352,122.059,454.735,141.267z"
   id="path10" />
<path
   style="fill:#c4c8c6;fill-opacity:1"
   d="M258.869,0.023l164.965,88.143l13.177-13.177C391.326,29.28,328.423,0.776,258.869,0.023z"
   id="path12" />
<path
   style="fill:#e2e3e2;fill-opacity:1"
   d="M 258.869,0.023 C 324.72,0.979 383.651,34.929 423.834,88.166 L 309.709,202.291 C 295.969,188.551 276.975,180.044 256,180.044 V 0 c 0.957,0 1.913,0.011 2.869,0.023 z"
   id="path14" /><path
   style="fill:#e2e3e2;fill-opacity:1"
   d="m 190.216,293.978 c 13.121,22.708 37.663,37.978 65.784,37.978 V 512 C 161.263,512 78.533,460.53 34.265,384.023 34.298,384 190.216,293.978 190.216,293.978 Z"
   id="path16" />
<path
   style="fill:#e3f6f5;fill-opacity:1"
   d="M256,154.725c-55.843,0-101.275,45.432-101.275,101.275S200.157,357.275,256,357.275  S357.275,311.843,357.275,256S311.843,154.725,256,154.725z M256,298.198c-23.306,0-42.198-18.892-42.198-42.198  s18.892-42.198,42.198-42.198s42.198,18.892,42.198,42.198S279.306,298.198,256,298.198z"
   id="path20" />
<g
   id="g22">
</g>
<g
   id="g24">
</g>
<g
   id="g26">
</g>
<g
   id="g28">
</g>
<g
   id="g30">
</g>
<g
   id="g32">
</g>
<g
   id="g34">
</g>
<g
   id="g36">
</g>
<g
   id="g38">
</g>
<g
   id="g40">
</g>
<g
   id="g42">
</g>
<g
   id="g44">
</g>
<g
   id="g46">
</g>
<g
   id="g48">
</g>
<g
   id="g50">
</g>
</svg>
