<?xml version="1.0" encoding="UTF-8" standalone="no"?>
<!-- made with Inkscape by computerguy096  -->

<svg
   version="1.1"
   id="Capa_1"
   x="0px"
   y="0px"
   viewBox="0 0 226.43872 226.607"
   xml:space="preserve"
   width="226.43872"
   height="226.60699"
   sodipodi:docname="cd_drive.svg"
   inkscape:version="1.2 (dc2aedaf03, 2022-05-15)"
   xmlns:inkscape="http://www.inkscape.org/namespaces/inkscape"
   xmlns:sodipodi="http://sodipodi.sourceforge.net/DTD/sodipodi-0.dtd"
   xmlns="http://www.w3.org/2000/svg"
   xmlns:svg="http://www.w3.org/2000/svg"><defs
   id="defs13">	
</defs><sodipodi:namedview
   id="namedview11"
   pagecolor="#ffffff"
   bordercolor="#666666"
   borderopacity="1.0"
   inkscape:pageshadow="2"
   inkscape:pageopacity="0.0"
   inkscape:pagecheckerboard="0"
   showgrid="false"
   inkscape:zoom="2.8284271"
   inkscape:cx="-59.39697"
   inkscape:cy="121.79914"
   inkscape:window-width="2560"
   inkscape:window-height="1361"
   inkscape:window-x="2391"
   inkscape:window-y="-9"
   inkscape:window-maximized="1"
   inkscape:current-layer="Capa_1"
   inkscape:snap-nodes="false"
   inkscape:showpageshadow="2"
   inkscape:deskcolor="#d1d1d1" />
<g
   id="g3399"
   transform="translate(-14.50167,-2.95363)"><g
     id="g824"
     transform="translate(14.932693,38.766828)"><path
       style="fill:none;stroke:#000000;stroke-width:0.862046px;stroke-linecap:butt;stroke-linejoin:miter;stroke-opacity:1"
       d="m 0,80 125,50 v 40 L 0,120 Z"
       id="path1347" /><path
       style="fill:none;stroke:#000000;stroke-width:0.898438px;stroke-linecap:butt;stroke-linejoin:miter;stroke-opacity:1"
       d="M 0,80 100,20 225,70 125,130 v 40 L 225,110 V 70"
       id="path967" /></g><path
     style="fill:#e6e6e6;stroke-width:0.276442"
     d="M 77.339546,183.09765 15.485578,158.35652 v -19.29604 c 0,-10.61283 0.06207,-19.29605 0.137947,-19.29605 0.280886,0 123.301245,49.25912 123.502775,49.45228 0.11507,0.1103 0.17727,8.84539 0.13822,19.41131 l -0.071,19.21076 z"
     id="path906" /><path
     style="fill:#b3b3b3;stroke-width:0.276442"
     d="M 78.172948,143.42731 C 44.30755,129.88057 16.597663,118.73462 16.595421,118.65854 c -0.0022,-0.0761 22.145169,-13.42786 49.216467,-29.670622 l 49.220542,-29.53229 61.7577,24.703127 61.75771,24.703125 -48.8113,29.29442 c -26.84621,16.11194 -49.07653,29.43101 -49.40072,29.59793 -0.50296,0.25898 -9.62201,-3.30969 -62.162872,-24.32692 z"
     id="path945" /><path
     style="fill:#cccccc;stroke-width:0.276442"
     d="m 140.44688,188.40006 0.009,-19.29068 48.40995,-29.02645 c 26.62547,-15.96454 48.88868,-29.31339 49.47379,-29.6641 l 1.06385,-0.63767 v 19.29798 19.29798 l -48.82463,29.30243 c -26.85356,16.11634 -49.12098,29.4619 -49.48318,29.65681 l -0.65853,0.35438 z"
     id="path984" /><path
     style="fill:#00fd00;fill-opacity:1;stroke:#000000;stroke-width:0.61762px;stroke-linecap:butt;stroke-linejoin:miter;stroke-opacity:1"
     d="m 126.63158,198.26282 4.10283,1.19157 -0.12148,-7.96708 -3.96238,-1.10718 z"
     id="path17632-19" /><path
     style="fill:#00fd00;fill-opacity:0;stroke:#000000;stroke-width:0.762;stroke-linejoin:round;stroke-dasharray:none;stroke-opacity:1;paint-order:fill markers stroke"
     d="m 29.25,141.75 89.875,36.375 -0.125,7.25 -89.75,-37.25 z"
     id="path2652" /></g><g
   id="g3992"
   transform="matrix(0.25974757,0,0,0.25974757,52.999693,9.3933982)"
   style="stroke:#000000;stroke-opacity:1;stroke-width:1.00097183;stroke-dasharray:none"><path
     style="fill:#b9b9b9;stroke:#000000;stroke-opacity:1;stroke-width:1.00097183;stroke-dasharray:none"
     d="M 256,0 301.011,97.336 256,180.044 c -41.95,0 -75.956,34.006 -75.956,75.956 0,13.83 3.702,26.804 10.172,37.978 l -55.762,90.2 L 34.298,384 C 12.468,346.36 0,302.643 0,256 0,114.62 114.62,0 256,0 Z"
     id="path2" /><path
     style="fill:#969696;stroke:#000000;stroke-opacity:1;stroke-width:1.00097183;stroke-dasharray:none"
     d="m 477.735,127.978 c -0.034,0.022 -45.506,-9.216 -45.506,-9.216 L 258.869,511.978 C 398.932,510.447 512,396.423 512,256 512,209.357 499.532,165.64 477.735,127.978 Z"
     id="path4" /><path
     style="fill:#f5f6f5;fill-opacity:1;stroke:#000000;stroke-opacity:1;stroke-width:1.00097183;stroke-dasharray:none"
     d="m 477.735,127.978 c -0.034,0.022 -23.001,13.289 -23.001,13.289 L 367.57,88.165 437.011,74.988 c 15.766,15.754 29.483,33.567 40.724,52.99 z"
     id="path6" /><path
     style="fill:#b9b9b9;stroke:#000000;stroke-opacity:1;stroke-width:1.00097183;stroke-dasharray:none"
     d="m 454.735,141.267 c 15.034,34.512 23.507,73.48 23.507,114.733 0,140.277 -97.944,254.211 -219.372,255.978 C 257.913,511.989 256.957,512 256,512 L 210.989,410.725 256,331.956 c 41.95,0 75.956,-34.006 75.956,-75.956 0,-13.83 -3.702,-26.804 -10.172,-37.978 l 52.905,-59.545 z"
     id="path8" /><path
     style="fill:#ffffff;stroke:#000000;stroke-opacity:1;stroke-width:1.00097183;stroke-dasharray:none"
     d="m 454.735,141.267 -132.951,76.755 c -3.331,-5.773 -7.393,-11.05 -12.074,-15.731 l 19.434,-75.697 94.692,-38.428 c 12.107,16.068 22.516,33.893 30.899,53.101 z"
     id="path10" /><path
     style="fill:#c4c8c6;fill-opacity:1;stroke:#000000;stroke-opacity:1;stroke-width:1.00097183;stroke-dasharray:none"
     d="M 258.869,0.023 423.834,88.166 437.011,74.989 C 391.326,29.28 328.423,0.776 258.869,0.023 Z"
     id="path12" /><path
     style="fill:#e2e3e2;fill-opacity:1;stroke:#000000;stroke-opacity:1;stroke-width:1.00097183;stroke-dasharray:none"
     d="M 258.869,0.023 C 324.72,0.979 383.651,34.929 423.834,88.166 L 309.709,202.291 C 295.969,188.551 276.975,180.044 256,180.044 V 0 c 0.957,0 1.913,0.011 2.869,0.023 z"
     id="path14" /><path
     style="fill:#e2e3e2;fill-opacity:1;stroke:#000000;stroke-opacity:1;stroke-width:1.00097183;stroke-dasharray:none"
     d="m 190.216,293.978 c 13.121,22.708 37.663,37.978 65.784,37.978 V 512 C 161.263,512 78.533,460.53 34.265,384.023 34.298,384 190.216,293.978 190.216,293.978 Z"
     id="path16" /><path
     style="fill:#e3f6f5;fill-opacity:1;stroke:#000000;stroke-opacity:1;stroke-width:1.00097183;stroke-dasharray:none"
     d="m 256,154.725 c -55.843,0 -101.275,45.432 -101.275,101.275 0,55.843 45.432,101.275 101.275,101.275 55.843,0 101.275,-45.432 101.275,-101.275 0,-55.843 -45.432,-101.275 -101.275,-101.275 z m 0,143.473 c -23.306,0 -42.198,-18.892 -42.198,-42.198 0,-23.306 18.892,-42.198 42.198,-42.198 23.306,0 42.198,18.892 42.198,42.198 0,23.306 -18.892,42.198 -42.198,42.198 z"
     id="path20" /><g
     id="g22"
     style="stroke:#000000;stroke-opacity:1;stroke-width:1.00097183;stroke-dasharray:none">
</g><g
     id="g24"
     style="stroke:#000000;stroke-opacity:1;stroke-width:1.00097183;stroke-dasharray:none">
</g><g
     id="g26"
     style="stroke:#000000;stroke-opacity:1;stroke-width:1.00097183;stroke-dasharray:none">
</g><g
     id="g28"
     style="stroke:#000000;stroke-opacity:1;stroke-width:1.00097183;stroke-dasharray:none">
</g><g
     id="g30"
     style="stroke:#000000;stroke-opacity:1;stroke-width:1.00097183;stroke-dasharray:none">
</g><g
     id="g32"
     style="stroke:#000000;stroke-opacity:1;stroke-width:1.00097183;stroke-dasharray:none">
</g><g
     id="g34"
     style="stroke:#000000;stroke-opacity:1;stroke-width:1.00097183;stroke-dasharray:none">
</g><g
     id="g36"
     style="stroke:#000000;stroke-opacity:1;stroke-width:1.00097183;stroke-dasharray:none">
</g><g
     id="g38"
     style="stroke:#000000;stroke-opacity:1;stroke-width:1.00097183;stroke-dasharray:none">
</g><g
     id="g40"
     style="stroke:#000000;stroke-opacity:1;stroke-width:1.00097183;stroke-dasharray:none">
</g><g
     id="g42"
     style="stroke:#000000;stroke-opacity:1;stroke-width:1.00097183;stroke-dasharray:none">
</g><g
     id="g44"
     style="stroke:#000000;stroke-opacity:1;stroke-width:1.00097183;stroke-dasharray:none">
</g><g
     id="g46"
     style="stroke:#000000;stroke-opacity:1;stroke-width:1.00097183;stroke-dasharray:none">
</g><g
     id="g48"
     style="stroke:#000000;stroke-opacity:1;stroke-width:1.00097183;stroke-dasharray:none">
</g><g
     id="g50"
     style="stroke:#000000;stroke-opacity:1;stroke-width:1.00097183;stroke-dasharray:none">
</g></g></svg>
