<?xml version="1.0" encoding="UTF-8" standalone="no"?>
<!-- made by computerguy096 -->

<svg
   version="1.1"
   id="Layer_1"
   x="0px"
   y="0px"
   width="363.74155"
   height="383.58429"
   viewBox="0 0 363.74155 383.58429"
   enable-background="new 0 0 512 512"
   xml:space="preserve"
   sodipodi:docname="chipset_docs.svg"
   inkscape:version="1.2 (dc2aedaf03, 2022-05-15)"
   xmlns:inkscape="http://www.inkscape.org/namespaces/inkscape"
   xmlns:sodipodi="http://sodipodi.sourceforge.net/DTD/sodipodi-0.dtd"
   xmlns="http://www.w3.org/2000/svg"
   xmlns:svg="http://www.w3.org/2000/svg"><defs
   id="defs5229">
		
	</defs><sodipodi:namedview
   id="namedview5227"
   pagecolor="#ffffff"
   bordercolor="#000000"
   borderopacity="0.25"
   inkscape:showpageshadow="2"
   inkscape:pageopacity="0.0"
   inkscape:pagecheckerboard="0"
   inkscape:deskcolor="#d1d1d1"
   showgrid="false"
   inkscape:zoom="1.6230469"
   inkscape:cx="178.36823"
   inkscape:cy="187.61011"
   inkscape:window-width="2560"
   inkscape:window-height="1361"
   inkscape:window-x="2391"
   inkscape:window-y="-9"
   inkscape:window-maximized="1"
   inkscape:current-layer="ram" />
<g
   id="ram"
   transform="matrix(-0.97437007,0.22495105,0.22495105,0.97437007,379.91368,-179.25998)">
	
	
	
	
		
	
	
	
		
	
	
	
<rect
   style="fill:#306565;fill-opacity:1;stroke:#000000;stroke-width:1.4403"
   id="rect6561"
   width="298.55969"
   height="298.55969"
   x="-379.1705"
   y="179.98013"
   transform="matrix(-0.97437007,0.22495105,0.22495105,0.97437007,0,0)" /><path
   style="fill:#6f6a6a;fill-opacity:1;stroke:#000000;stroke-width:1.446"
   d="m 396.38345,150.40378 40.49119,175.38661 -19.22141,43.43717 -185.13031,42.7407 -37.77924,-30.27753 -40.49119,-175.38662 21.13286,-41.82585 185.13031,-42.7407 z"
   id="path8698"
   sodipodi:nodetypes="ccccccccc" /><path
   style="fill:#fed15c;fill-opacity:1;stroke:#000000;stroke-width:1.446"
   d="m 471.46893,356.49773 -16.82262,2.87777 -11.32329,-3.53379 -15.76486,-9.21527 -5.81803,13.08974 18.67028,15.46547 11.85407,4.86442 11.33114,0.17853 13.18006,-0.74083 z"
   id="path10981"
   sodipodi:nodetypes="cccccccccc" /><path
   d="m 218.05199,220.34541 q 2.78734,12.07332 5.57279,24.13844 c 0.491,2.12674 0.85106,2.43994 2.94217,2.06055 2.09111,-0.37937 4.05833,-0.86801 6.07994,-1.33473 l 29.77,-6.87295 c 2.25577,-0.52078 2.82268,0.0117 2.5709,2.48228 -0.36319,3.59045 -1.87984,6.67178 -5.07252,7.9775 -3.35685,1.37809 -7.07174,1.63264 -10.14458,-1.20762 -1.42601,-1.33361 -2.87204,-1.25825 -4.38794,-0.95135 a 66.479287,63.437271 77 0 0 -7.48617,1.83171 c -1.52521,0.51583 -1.7002,1.00425 -0.70274,2.3334 5.65507,7.50832 12.73539,10.57789 21.92771,9.33448 11.10526,-1.50411 18.42095,-14.15228 17.58158,-22.73793 -0.22725,-2.23071 0.25581,-3.02287 2.37953,-3.33223 1.28123,-0.18379 2.51335,-0.58026 3.83311,-0.70401 4.77618,-0.46512 7.96293,-3.36339 9.94136,-7.79199 a 4.3905375,4.1896316 77 0 0 0.11594,-2.80966 c -1.70818,-7.79057 -5.45824,-23.28607 -5.45824,-23.28607 0,0 -0.20635,-1.8909 -0.41192,-2.81701 -0.32105,-1.39056 0.15105,-2.0165 1.49195,-2.36914 2.70145,-0.72707 2.88613,-1.20911 2.21334,-4.05205 -1.00087,-4.33527 -1.14149,-4.55267 -5.29614,-4.10182 -1.31597,0.14011 -1.36445,-0.42594 -1.57242,-1.29121 -0.75539,-3.27189 -1.65856,-6.57859 -2.2888,-9.91385 -0.35113,-1.80577 -1.16868,-2.4269 -2.75987,-1.94755 -2.19836,0.66262 -4.46472,1.03077 -6.65792,1.78696 -1.71091,0.60177 -1.96508,1.53065 -1.60439,3.09298 0.72328,3.13285 1.44843,6.27386 2.10927,9.42112 0.50989,2.20854 0.43939,2.25927 -1.63574,2.85035 -3.34602,0.96204 -3.34602,0.96204 -2.33961,4.53784 0.0983,0.42535 0.2669,0.79996 0.38637,1.24624 0.77868,3.01667 0.77087,3.01847 3.61483,2.51697 2.43428,-0.42414 2.6201,-0.26027 3.22542,2.21918 1.2956,5.32695 2.64583,10.6413 3.93362,15.97005 a 37.777091,36.048455 77 0 1 0.64018,3.84129 3.5174669,3.3565117 77 0 1 -2.99903,4.13867 17.897947,17.078958 77 0 1 -2.78593,0.28993 2.3505746,2.243015 77 0 1 -1.68598,-1.21328 23.111185,22.053644 77 0 0 -5.87551,-6.39769 23.505746,22.43015 77 0 0 -16.23021,-4.70499 c -8.31684,0.86898 -14.69942,6.83993 -16.74895,15.41189 -0.26728,1.12144 -0.14918,3.09302 -1.10962,3.09937 -0.46834,0.10806 -0.71005,-2.00725 -0.97658,-3.12607 l -4.70676,-20.81455 c 0,0 -2.8581,-13.05639 -4.31636,-19.58646 -0.64584,-2.79747 -1.16175,-3.10915 -3.86622,-2.50201 -2.17773,0.50276 -4.3484,1.1073 -6.55042,1.46919 -1.58375,0.26225 -1.75295,1.02504 -1.47546,2.51182 1.7536,9.30507 6.01393,27.75858 6.01393,27.75858 l 0.81958,3.55001 z m 34.69441,10.00565 0.017,0.0736 c -1.5611,0.3604 -3.05244,0.77363 -4.58961,1.05959 -1.40045,0.23716 -3.15188,1.58924 -4.12053,0.31373 -0.96863,-1.27552 0.48683,-2.91251 1.07916,-4.26406 a 8.7139158,8.315177 77 0 1 7.54005,-4.94582 c 3.15455,-0.0821 6.20736,0.96208 8.13607,4.15265 0.80661,1.32152 0.63615,1.72274 -0.80735,1.98707 -2.44211,0.42596 -4.8429,1.06638 -7.25479,1.6232 z"
   fill="#fdfdfc"
   id="path14753"
   style="fill:#d2c3ae;fill-opacity:1;stroke-width:0.820059" /><path
   d="m 298.85538,227.15858 a 2.1658867,2.0667782 77 0 0 2.55729,1.67555 c 2.38067,-0.54962 4.76133,-1.09925 7.142,-1.64886 1.0225,-0.23607 1.3808,-0.74958 1.13152,-1.82931 -0.77614,-3.36187 -2.22105,-10.11904 -2.22105,-10.11904 l -2.20849,-10.24256 a 34.259624,32.691943 77 0 1 -1.52435,-6.81637 c -0.29045,-6.38612 4.30481,-9.55787 10.06815,-7.27844 a 8.1934313,7.8185093 77 0 1 5.23131,6.31379 c 1.76003,7.62353 3.52005,15.24704 5.28764,22.90329 0.60241,2.60933 0.80787,2.75145 3.18853,2.20183 2.09967,-0.48475 4.17101,-1.09219 6.29119,-1.45244 2.27631,-0.39629 1.16162,-4.61913 1.16162,-4.61913 l -3.18429,-12.93801 -5.51363,-24.77242 c 0,0 -1.14124,-1.91631 -2.79108,-1.40618 a 52.594107,50.187461 77 0 1 -6.24436,1.44164 c -1.77297,0.2973 -2.57908,1.04343 -1.99643,2.89053 0.0925,0.40082 0.28931,0.93264 -0.23013,1.10425 -0.23417,0.0541 -0.634,-0.14655 -0.89952,-0.33511 -5.41525,-4.3328 -15.49574,-2.30708 -19.96685,4.67863 a 14.481219,13.818575 77 0 0 -2.04613,11.57806 l 3.22358,13.96283 z"
   fill="#fdfdfc"
   id="path14755"
   style="fill:#d2c3ae;fill-opacity:1;stroke-width:0.820059" /><text
   transform="matrix(-0.9732078,0.22468273,0.2252197,0.97553372,0,0)"
   font-size="26.7478px"
   fill="#ffffff"
   font-family="SegoeUISymbol, 'Segoe UI Symbol'"
   id="text14819"
   x="-157.1158"
   y="249.51546"
   style="fill:#d2c3ae;fill-opacity:1;stroke-width:0.922336">Ⓡ</text><rect
   x="-297.20496"
   y="244.8353"
   width="12.016151"
   height="45.332512"
   fill="#ffffff"
   id="rect14823"
   transform="matrix(-0.97437007,0.22495104,0.22495104,0.97437007,0,0)"
   style="fill:#d2c3ae;fill-opacity:1;stroke-width:0.820059" /><rect
   x="-297.20496"
   y="228.04546"
   width="12.016151"
   height="13.431855"
   fill="#ffffff"
   id="rect14825"
   transform="matrix(-0.97437007,0.22495104,0.22495104,0.97437007,0,0)"
   style="fill:#d2c3ae;fill-opacity:1;stroke-width:0.820059" /><g
   id="g9274"
   transform="matrix(-0.35772195,0.08258661,0.08258661,0.35772195,261.77649,343.88454)"><path
     id="XMLID_2069_"
     style="fill:#fbe375"
     d="m 350,30 h 80 c 5.523,0 10,4.477 10,10 v 50 c 0,5.523 -4.477,10 -10,10 h -80 z" /><path
     id="XMLID_2068_"
     style="fill:#c9a252"
     d="m 330,30 h 90 v 70 h -90 z" /><path
     id="XMLID_2067_"
     style="fill:#a79a87"
     d="M 390,460 H 60 C 48.954,460 40,451.046 40,440 V 20 C 40,8.954 48.954,0 60,0 h 330 c 11.046,0 20,8.954 20,20 v 420 c 0,11.046 -8.954,20 -20,20 z" /><path
     id="XMLID_2066_"
     style="fill:#999999"
     d="m 290,410 v 0 c 0,-5.523 4.477,-10 10,-10 h 60 c 5.523,0 10,4.477 10,10 v 0 c 0,5.523 -4.477,10 -10,10 h -60 c -5.523,0 -10,-4.477 -10,-10 z M 360,60 v 0 c 5.523,0 10,-4.477 10,-10 v 0 c 0,-5.523 -4.477,-10 -10,-10 v 0 c -5.523,0 -10,4.477 -10,10 v 0 c 0,5.523 4.477,10 10,10 z m -50,0 v 0 c 5.523,0 10,-4.477 10,-10 v 0 c 0,-5.523 -4.477,-10 -10,-10 v 0 c -5.523,0 -10,4.477 -10,10 v 0 c 0,5.523 4.477,10 10,10 z m -50,0 v 0 c 5.523,0 10,-4.477 10,-10 v 0 c 0,-5.523 -4.477,-10 -10,-10 v 0 c -5.523,0 -10,4.477 -10,10 v 0 c 0,5.523 4.477,10 10,10 z m -50,0 v 0 c 5.523,0 10,-4.477 10,-10 v 0 c 0,-5.523 -4.477,-10 -10,-10 v 0 c -5.523,0 -10,4.477 -10,10 v 0 c 0,5.523 4.477,10 10,10 z m -50,0 v 0 c 5.523,0 10,-4.477 10,-10 v 0 c 0,-5.523 -4.477,-10 -10,-10 v 0 c -5.523,0 -10,4.477 -10,10 v 0 c 0,5.523 4.477,10 10,10 z m 200,50 v 0 c 5.523,0 10,-4.477 10,-10 v 0 c 0,-5.523 -4.477,-10 -10,-10 v 0 c -5.523,0 -10,4.477 -10,10 v 0 c 0,5.523 4.477,10 10,10 z m -50,0 v 0 c 5.523,0 10,-4.477 10,-10 v 0 c 0,-5.523 -4.477,-10 -10,-10 v 0 c -5.523,0 -10,4.477 -10,10 v 0 c 0,5.523 4.477,10 10,10 z m -50,0 v 0 c 5.523,0 10,-4.477 10,-10 v 0 c 0,-5.523 -4.477,-10 -10,-10 v 0 c -5.523,0 -10,4.477 -10,10 v 0 c 0,5.523 4.477,10 10,10 z m -50,0 v 0 c 5.523,0 10,-4.477 10,-10 v 0 c 0,-5.523 -4.477,-10 -10,-10 v 0 c -5.523,0 -10,4.477 -10,10 v 0 c 0,5.523 4.477,10 10,10 z m -50,0 v 0 c 5.523,0 10,-4.477 10,-10 v 0 c 0,-5.523 -4.477,-10 -10,-10 v 0 c -5.523,0 -10,4.477 -10,10 v 0 c 0,5.523 4.477,10 10,10 z m 200,50 v 0 c 5.523,0 10,-4.477 10,-10 v 0 c 0,-5.523 -4.477,-10 -10,-10 v 0 c -5.523,0 -10,4.477 -10,10 v 0 c 0,5.523 4.477,10 10,10 z m -50,0 v 0 c 5.523,0 10,-4.477 10,-10 v 0 c 0,-5.523 -4.477,-10 -10,-10 v 0 c -5.523,0 -10,4.477 -10,10 v 0 c 0,5.523 4.477,10 10,10 z m -50,0 v 0 c 5.523,0 10,-4.477 10,-10 v 0 c 0,-5.523 -4.477,-10 -10,-10 v 0 c -5.523,0 -10,4.477 -10,10 v 0 c 0,5.523 4.477,10 10,10 z m -50,0 v 0 c 5.523,0 10,-4.477 10,-10 v 0 c 0,-5.523 -4.477,-10 -10,-10 v 0 c -5.523,0 -10,4.477 -10,10 v 0 c 0,5.523 4.477,10 10,10 z m -50,0 v 0 c 5.523,0 10,-4.477 10,-10 v 0 c 0,-5.523 -4.477,-10 -10,-10 v 0 c -5.523,0 -10,4.477 -10,10 v 0 c 0,5.523 4.477,10 10,10 z m 200,50 v 0 c 5.523,0 10,-4.477 10,-10 v 0 c 0,-5.523 -4.477,-10 -10,-10 v 0 c -5.523,0 -10,4.477 -10,10 v 0 c 0,5.523 4.477,10 10,10 z m -50,0 v 0 c 5.523,0 10,-4.477 10,-10 v 0 c 0,-5.523 -4.477,-10 -10,-10 v 0 c -5.523,0 -10,4.477 -10,10 v 0 c 0,5.523 4.477,10 10,10 z m -50,0 v 0 c 5.523,0 10,-4.477 10,-10 v 0 c 0,-5.523 -4.477,-10 -10,-10 v 0 c -5.523,0 -10,4.477 -10,10 v 0 c 0,5.523 4.477,10 10,10 z m -50,0 v 0 c 5.523,0 10,-4.477 10,-10 v 0 c 0,-5.523 -4.477,-10 -10,-10 v 0 c -5.523,0 -10,4.477 -10,10 v 0 c 0,5.523 4.477,10 10,10 z m -50,0 v 0 c 5.523,0 10,-4.477 10,-10 v 0 c 0,-5.523 -4.477,-10 -10,-10 v 0 c -5.523,0 -10,4.477 -10,10 v 0 c 0,5.523 4.477,10 10,10 z m 200,50 v 0 c 5.523,0 10,-4.477 10,-10 v 0 c 0,-5.523 -4.477,-10 -10,-10 v 0 c -5.523,0 -10,4.477 -10,10 v 0 c 0,5.523 4.477,10 10,10 z m -50,0 v 0 c 5.523,0 10,-4.477 10,-10 v 0 c 0,-5.523 -4.477,-10 -10,-10 v 0 c -5.523,0 -10,4.477 -10,10 v 0 c 0,5.523 4.477,10 10,10 z m -50,0 v 0 c 5.523,0 10,-4.477 10,-10 v 0 c 0,-5.523 -4.477,-10 -10,-10 v 0 c -5.523,0 -10,4.477 -10,10 v 0 c 0,5.523 4.477,10 10,10 z m -50,0 v 0 c 5.523,0 10,-4.477 10,-10 v 0 c 0,-5.523 -4.477,-10 -10,-10 v 0 c -5.523,0 -10,4.477 -10,10 v 0 c 0,5.523 4.477,10 10,10 z m -50,0 v 0 c 5.523,0 10,-4.477 10,-10 v 0 c 0,-5.523 -4.477,-10 -10,-10 v 0 c -5.523,0 -10,4.477 -10,10 v 0 c 0,5.523 4.477,10 10,10 z m 200,50 v 0 c 5.523,0 10,-4.477 10,-10 v 0 c 0,-5.523 -4.477,-10 -10,-10 v 0 c -5.523,0 -10,4.477 -10,10 v 0 c 0,5.523 4.477,10 10,10 z m -50,0 v 0 c 5.523,0 10,-4.477 10,-10 v 0 c 0,-5.523 -4.477,-10 -10,-10 v 0 c -5.523,0 -10,4.477 -10,10 v 0 c 0,5.523 4.477,10 10,10 z m -50,0 v 0 c 5.523,0 10,-4.477 10,-10 v 0 c 0,-5.523 -4.477,-10 -10,-10 v 0 c -5.523,0 -10,4.477 -10,10 v 0 c 0,5.523 4.477,10 10,10 z m -50,0 v 0 c 5.523,0 10,-4.477 10,-10 v 0 c 0,-5.523 -4.477,-10 -10,-10 v 0 c -5.523,0 -10,4.477 -10,10 v 0 c 0,5.523 4.477,10 10,10 z m -50,0 v 0 c 5.523,0 10,-4.477 10,-10 v 0 c 0,-5.523 -4.477,-10 -10,-10 v 0 c -5.523,0 -10,4.477 -10,10 v 0 c 0,5.523 4.477,10 10,10 z" /><path
     id="XMLID_14_"
     style="fill:#968b79"
     d="M 110,460 H 60 C 48.954,460 40,451.046 40,440 V 20 C 40,8.954 48.954,0 60,0 h 50 z" /><path
     id="XMLID_10_"
     style="fill:#ffffff"
     d="m 85,390 v 0 c 2.761,0 5,2.239 5,5 v 0 c 0,2.761 -2.239,5 -5,5 v 0 c -2.761,0 -5,-2.239 -5,-5 v 0 c 0,-2.761 2.239,-5 5,-5 z M 80,65 v 0 c 0,2.761 2.239,5 5,5 v 0 c 2.761,0 5,-2.239 5,-5 v 0 c 0,-2.761 -2.239,-5 -5,-5 v 0 c -2.761,0 -5,2.239 -5,5 z m 0,165 v 0 c 0,2.761 2.239,5 5,5 v 0 c 2.761,0 5,-2.239 5,-5 v 0 c 0,-2.761 -2.239,-5 -5,-5 v 0 c -2.761,0 -5,2.239 -5,5 z" /><path
     id="XMLID_11_"
     style="fill:#272525"
     d="M 55,40 H 25 c -2.761,0 -5,-2.239 -5,-5 v 0 c 0,-2.761 2.239,-5 5,-5 h 30 c 2.761,0 5,2.239 5,5 v 0 c 0,2.761 -2.239,5 -5,5 z m 5,25 v 0 c 0,-2.761 -2.239,-5 -5,-5 H 25 c -2.761,0 -5,2.239 -5,5 v 0 c 0,2.761 2.239,5 5,5 h 30 c 2.761,0 5,-2.239 5,-5 z m 0,30 v 0 c 0,-2.761 -2.239,-5 -5,-5 H 25 c -2.761,0 -5,2.239 -5,5 v 0 c 0,2.761 2.239,5 5,5 h 30 c 2.761,0 5,-2.239 5,-5 z m 0,30 v 0 c 0,-2.761 -2.239,-5 -5,-5 H 25 c -2.761,0 -5,2.239 -5,5 v 0 c 0,2.761 2.239,5 5,5 h 30 c 2.761,0 5,-2.239 5,-5 z m 0,30 v 0 c 0,-2.761 -2.239,-5 -5,-5 H 25 c -2.761,0 -5,2.239 -5,5 v 0 c 0,2.761 2.239,5 5,5 h 30 c 2.761,0 5,-2.239 5,-5 z m 0,30 v 0 c 0,-2.761 -2.239,-5 -5,-5 H 25 c -2.761,0 -5,2.239 -5,5 v 0 c 0,2.761 2.239,5 5,5 h 30 c 2.761,0 5,-2.239 5,-5 z m 0,30 v 0 c 0,-2.761 -2.239,-5 -5,-5 H 25 c -2.761,0 -5,2.239 -5,5 v 0 c 0,2.761 2.239,5 5,5 h 30 c 2.761,0 5,-2.239 5,-5 z m 0,30 v 0 c 0,-2.761 -2.239,-5 -5,-5 H 25 c -2.761,0 -5,2.239 -5,5 v 0 c 0,2.761 2.239,5 5,5 h 30 c 2.761,0 5,-2.239 5,-5 z m 0,30 v 0 c 0,-2.761 -2.239,-5 -5,-5 H 25 c -2.761,0 -5,2.239 -5,5 v 0 c 0,2.761 2.239,5 5,5 h 30 c 2.761,0 5,-2.239 5,-5 z m 0,30 v 0 c 0,-2.761 -2.239,-5 -5,-5 H 25 c -2.761,0 -5,2.239 -5,5 v 0 c 0,2.761 2.239,5 5,5 h 30 c 2.761,0 5,-2.239 5,-5 z m 0,30 v 0 c 0,-2.761 -2.239,-5 -5,-5 H 25 c -2.761,0 -5,2.239 -5,5 v 0 c 0,2.761 2.239,5 5,5 h 30 c 2.761,0 5,-2.239 5,-5 z m 0,30 v 0 c 0,-2.761 -2.239,-5 -5,-5 H 25 c -2.761,0 -5,2.239 -5,5 v 0 c 0,2.761 2.239,5 5,5 h 30 c 2.761,0 5,-2.239 5,-5 z m 0,30 v 0 c 0,-2.761 -2.239,-5 -5,-5 H 25 c -2.761,0 -5,2.239 -5,5 v 0 c 0,2.761 2.239,5 5,5 h 30 c 2.761,0 5,-2.239 5,-5 z m 0,30 v 0 c 0,-2.761 -2.239,-5 -5,-5 H 25 c -2.761,0 -5,2.239 -5,5 v 0 c 0,2.761 2.239,5 5,5 h 30 c 2.761,0 5,-2.239 5,-5 z" /><path
     style="fill:#f2f2f2;stroke-width:0.615385"
     d="M 122.46154,256 V -0.01848268 l 158,0.16308748 c 149.15345,0.15395612 158.15505,0.22374831 160.76923,1.2464941 3.96087,1.5496098 8.60303,5.2432759 10.91734,8.6866761 C 456.33644,16.309502 456,-5.1706944 456,256 c 0,261.1707 0.33644,239.6905 -3.85189,245.92223 -2.31431,3.44339 -6.95647,7.13706 -10.91734,8.68667 -2.61418,1.02275 -11.61578,1.09254 -160.76923,1.2465 l -158,0.16308 z M 405.1063,466.8609 c 3.51422,-1.46834 7.19453,-6.86676 7.19453,-10.55321 0,-3.80543 -3.23017,-8.49524 -7.0446,-10.2279 -2.32003,-1.05384 -4.88062,-1.13059 -38.13886,-1.1432 -35.08687,-0.0133 -35.69459,0.007 -38.3483,1.29181 -3.997,1.93492 -5.99984,5.29953 -5.99984,10.07929 0,4.74366 1.98527,8.10183 5.94971,10.06417 2.63328,1.30344 3.1015,1.31948 38.5316,1.31996 28.73207,3.9e-4 36.2617,-0.16488 37.85576,-0.83092 z M 184.48518,343.23614 c 6.69611,-4.43128 6.49956,-14.80181 -0.36089,-19.0418 -3.44758,-2.13072 -8.88528,-1.99536 -12.36897,0.3079 -5.83377,3.85704 -6.63506,13.24539 -1.51311,17.72843 3.98725,3.48988 9.86207,3.90461 14.24297,1.00547 z m 55.96691,-0.24156 c 3.44688,-2.75395 4.57909,-5.33032 4.32595,-9.84379 -0.25592,-4.56282 -2.34137,-7.73921 -6.24506,-9.51195 -8.55018,-3.88279 -18.05301,3.83231 -15.79001,12.8195 1.47592,5.86141 5.80307,9.00357 11.86297,8.61428 2.7958,-0.17961 4.01044,-0.61135 5.84615,-2.07804 z m 54.16345,0.93087 c 5.04726,-2.44334 7.43509,-8.48774 5.42862,-13.74162 -4.77,-12.49006 -22.72993,-8.66939 -21.76788,4.63074 0.59101,8.17075 8.81194,12.75479 16.33926,9.11088 z m 55.52717,0.0802 c 3.69816,-1.88666 5.73871,-4.99046 6.04255,-9.19111 0.61182,-8.45826 -6.38447,-14.04303 -14.69892,-11.73338 -4.85596,1.34893 -8.60649,7.57727 -7.6719,12.74039 1.34176,7.41259 9.66408,11.58392 16.32827,8.1841 z m 56.8439,-0.6456 c 5.56726,-3.81475 6.68757,-11.5636 2.40728,-16.65044 -6.45803,-7.67493 -18.90879,-3.96266 -19.72512,5.88117 -0.45559,5.49391 1.49946,9.10967 6.33123,11.70923 2.69332,1.44904 8.18589,0.97912 10.98661,-0.93996 z m -225.9288,-54.15639 c 4.63544,-1.28739 8.45362,-6.27819 8.45362,-11.04984 0,-3.13093 -1.96265,-6.96208 -4.59525,-8.97006 -2.97544,-2.26948 -8.6902,-2.77796 -11.94935,-1.06321 -9.03213,4.75211 -7.82619,18.22513 1.88124,21.01766 2.78611,0.80148 3.53128,0.80933 6.20974,0.0654 z m 55.92729,-0.067 c 5.16463,-1.75175 7.93798,-5.59446 7.93798,-10.99874 0,-3.47701 -0.59504,-4.98085 -2.99827,-7.57747 -2.35283,-2.54216 -4.53431,-3.48352 -8.07261,-3.48352 -10.09476,0 -15.22624,11.47012 -8.43055,18.84437 1.92305,2.08677 5.61064,3.84419 8.17883,3.89785 0.71103,0.0148 2.2341,-0.29227 3.38462,-0.68249 z m 55.49326,0.0571 c 7.25378,-2.01439 10.59806,-11.05708 6.39557,-17.29315 -3.91108,-5.80366 -12.95587,-6.49688 -17.75786,-1.36102 -3.39059,3.62634 -3.9843,9.1467 -1.44898,13.47289 1.67226,2.85349 3.42518,4.22273 6.56037,5.1244 2.7974,0.80453 3.53451,0.81123 6.2509,0.0569 z m 58.15298,-1.00789 c 4.30928,-2.04489 6.78562,-8.80628 5.09804,-13.91969 -0.93963,-2.84711 -4.89735,-6.39088 -7.73111,-6.92249 -3.62396,-0.67986 -7.48052,0.0423 -9.84114,1.84286 -7.15418,5.45675 -5.36812,16.64667 3.15811,19.78601 2.70082,0.99444 6.18216,0.70046 9.3161,-0.78669 z m 53.35478,0.97389 c 5.51051,-1.52984 9.12358,-7.78573 7.71877,-13.36474 -1.41812,-5.63186 -5.34597,-8.71809 -11.09555,-8.71809 -3.53831,0 -5.71978,0.94136 -8.07261,3.48352 -2.40323,2.59662 -2.99827,4.10046 -2.99827,7.57747 0,5.26836 3.11971,9.66756 7.87161,11.09999 2.36773,0.71374 3.78434,0.69691 6.57605,-0.0781 z m -220.63516,-56.5272 c 6.50966,-3.32097 8.16865,-11.9088 3.33425,-17.2599 -5.61257,-6.21245 -15.12727,-5.18392 -18.61066,2.01181 -3.79068,7.83051 1.41855,16.44693 9.94997,16.4579 1.7261,0.002 3.93339,-0.49912 5.32644,-1.20981 z m 54.9765,0.36632 c 4.13066,-1.76739 6.59562,-5.7296 6.59562,-10.60191 0,-7.73474 -7.86269,-13.18481 -15.05739,-10.43713 -8.82203,3.36917 -10.13679,15.1222 -2.25109,20.12317 3.15635,2.0017 7.33932,2.35931 10.71286,0.91587 z m 56.4656,-0.39564 c 2.949,-1.50447 5.31477,-4.9103 5.87549,-8.45853 1.1233,-7.10816 -5.74321,-13.93 -12.88552,-12.8017 -9.01821,1.42466 -12.86587,12.4129 -6.66696,19.03963 3.36254,3.59461 9.14381,4.53325 13.67699,2.2206 z m 55.31703,0.16505 c 5.53038,-2.82003 7.72101,-9.54046 4.96537,-15.23285 -4.30414,-8.89115 -17.07585,-8.11614 -20.65409,1.25333 -1.93487,5.06638 0.37086,11.27917 5.11558,13.78395 2.92628,1.54481 7.75208,1.63407 10.57314,0.19557 z m 56.36393,-0.43537 c 6.4645,-3.78845 7.5348,-12.31505 2.21376,-17.63608 -6.85069,-6.85069 -18.23619,-2.93036 -19.02237,6.54991 -0.15105,1.82149 -0.099,4.01182 0.11579,4.8674 0.53037,2.11316 3.93594,5.88472 6.20736,6.87443 3.07958,1.34187 7.55441,1.06205 10.48546,-0.65566 z m -224.83734,-54.5889 c 3.52197,-1.0552 7.07834,-5.16715 7.62565,-8.81691 1.15931,-7.73085 -4.31439,-13.67386 -12.0769,-13.11237 -8.13643,0.58853 -12.75047,8.82088 -9.13261,16.29437 2.49106,5.14584 7.82755,7.35954 13.58386,5.63491 z m 56.09637,-0.17406 c 1.29163,-0.46066 2.91341,-1.3485 3.60394,-1.97299 3.1411,-2.84068 4.49302,-8.80877 2.93155,-12.94152 -2.26707,-6.00031 -9.62381,-8.65113 -15.76226,-5.67955 -8.46551,4.09808 -8.04395,16.35753 0.69903,20.32892 2.94079,1.33581 5.31838,1.40974 8.52774,0.26514 z m 56.13856,-0.26514 c 11.12445,-5.05313 7.80806,-21.61251 -4.3284,-21.61251 -6.7623,0 -11.38936,4.65137 -11.38936,11.44919 0,8.14164 8.32198,13.52276 15.71776,10.16332 z m 57.598,-0.98033 c 3.41246,-2.25826 5.03547,-5.79454 4.71198,-10.2667 -0.96193,-13.29861 -20.29203,-13.93466 -22.37705,-0.7363 -0.7592,4.80585 2.06321,9.80555 6.78539,12.01982 3.25106,1.52445 7.66259,1.11215 10.87968,-1.01682 z m 53.78662,0.98033 c 8.70647,-3.9548 9.12917,-16.24796 0.69903,-20.32892 -4.5474,-2.20136 -9.51372,-1.55677 -12.93328,1.67864 -2.55912,2.42132 -3.48352,4.58268 -3.48352,8.14497 0,5.29991 2.54067,9.11295 7.17243,10.7644 3.227,1.15058 5.60037,1.07863 8.54534,-0.25909 z M 184.91618,120.35467 c 2.6326,-2.00797 4.59525,-5.83913 4.59525,-8.97005 0,-4.86823 -3.8532,-9.80188 -8.66783,-11.09833 -6.88206,-1.853145 -14.07437,3.73991 -14.07437,10.94486 0,3.23303 0.88037,5.54133 2.96223,7.76687 2.48692,2.65856 4.83606,3.50736 9.11774,3.29447 3.02256,-0.15029 4.22835,-0.53543 6.06698,-1.93782 z m 53.72976,1.23873 c 1.89189,-0.98837 4.56566,-3.71968 5.58656,-5.70679 1.10543,-2.15165 0.83221,-7.35033 -0.52626,-10.01315 -3.38444,-6.634057 -12.55051,-7.94322 -17.93249,-2.56124 -7.25392,7.25392 -2.35601,19.03618 7.94912,19.12212 1.79373,0.0149 4.00911,-0.36347 4.92307,-0.84094 z m 57.57647,-1.17893 c 9.60299,-7.32456 2.33549,-23.061916 -9.2973,-20.13275 -3.72628,0.93829 -5.47506,2.20187 -7.25802,5.24426 -3.25818,5.55966 -1.46439,12.10875 4.33291,15.81942 2.86215,1.83197 9.23659,1.34646 12.22241,-0.93093 z m 53.80815,1.17893 c 5.7075,-2.98174 7.84905,-9.64998 4.99354,-15.54866 -4.08096,-8.430143 -16.37412,-8.007435 -20.32892,0.69903 -3.48002,7.66124 1.84924,15.70402 10.4123,15.71398 1.79373,0.002 4.00912,-0.38688 4.92308,-0.86435 z m 56.09598,-0.3487 c 6.63406,-3.38444 7.94322,-12.55051 2.56124,-17.93248 -4.01592,-4.015925 -10.20699,-4.458522 -14.96585,-1.06992 -4.17367,2.97191 -5.51621,10.3148 -2.72808,14.92084 3.02507,4.99745 9.77093,6.81693 15.13269,4.08156 z M 183.23093,65.7716 c 5.42361,-2.625526 7.74834,-9.483625 5.08187,-14.991821 -4.06449,-8.396106 -16.10579,-8.564664 -20.32997,-0.284586 -1.45536,2.852737 -1.55806,6.566086 -0.26705,9.655896 1.27504,3.051606 2.5871,4.423969 5.51499,5.768462 3.26376,1.49872 6.70372,1.447827 10.00016,-0.147951 z m 55.30205,0.128018 c 6.37578,-2.89536 8.56039,-12.033063 4.13436,-17.293103 -5.02504,-5.971922 -14.64683,-5.531928 -18.30801,0.837207 -2.97903,5.182436 -2.56197,9.718907 1.28498,13.977023 3.32344,3.678646 8.1869,4.614037 12.88867,2.478873 z m 57.2358,-0.784412 c 2.89701,-1.953151 5.41692,-7.13465 4.99599,-10.272903 -0.81267,-6.058925 -4.72385,-9.918137 -10.54057,-10.400504 -3.98585,-0.330537 -7.5059,1.266109 -9.99979,4.535764 -3.20038,4.195917 -2.5062,11.597862 1.42072,15.149003 3.58286,3.239988 10.10695,3.696671 14.12365,0.98864 z m 53.61308,1.015169 c 4.37792,-1.829212 6.92583,-5.669217 6.92583,-10.438067 0,-8.555866 -8.65795,-13.857022 -16.4617,-10.079293 -6.65745,3.222821 -8.21945,12.464778 -3.01053,17.81264 3.51133,3.604973 8.05004,4.583422 12.5464,2.70472 z m 55.87437,-0.210166 c 7.88637,-3.582289 9.13807,-13.184006 2.48067,-19.029275 -6.96906,-6.118916 -18.19436,-0.809314 -18.19748,8.607466 -0.002,5.144097 1.98747,8.350948 6.46058,10.415422 3.12083,1.440356 6.09484,1.442406 9.25623,0.0064 z"
     id="path867"
     transform="scale(0.8984375)" /><path
     style="fill:#cccccc;stroke-width:0.615385"
     d="m 63.16953,511.35449 c -6.763101,-1.13481 -13.715128,-6.48372 -16.583339,-12.75927 -1.103574,-2.41459 -1.364977,-4.3263 -1.55395,-11.36445 l -0.22719,-8.46154 h 9.337119 9.33712 l 1.798816,-1.79882 c 1.877721,-1.87771 2.230444,-3.75503 1.20987,-6.43933 -1.075538,-2.82888 -3.414135,-3.45416 -12.918954,-3.45416 H 44.923077 V 456.35101 445.6251 l 9.52307,-0.19717 c 10.873635,-0.22512 11.818895,-0.62824 12.446572,-5.30792 0.29753,-2.21824 0.112269,-2.74816 -1.537569,-4.398 l -1.87586,-1.87586 h -9.278107 -9.278106 v -10.76923 -10.76923 h 8.215863 c 9.262216,0 11.728373,-0.58904 13.033605,-3.11308 1.31887,-2.55041 1.113491,-4.54397 -0.688787,-6.68585 l -1.593165,-1.89338 h -9.483759 -9.483757 v -11.07692 -11.07692 h 9.483757 9.483759 l 1.593165,-1.89337 c 1.802278,-2.14189 2.007657,-4.13544 0.688787,-6.68586 -1.305232,-2.52404 -3.771389,-3.11308 -13.033605,-3.11308 H 44.923077 V 356 345.23077 h 9.278106 9.278107 l 1.798816,-1.79882 c 1.877721,-1.87772 2.230444,-3.75503 1.20987,-6.43933 -1.075538,-2.82888 -3.414135,-3.45416 -12.918954,-3.45416 h -8.645945 v -10.72591 -10.72591 l 9.52307,-0.19717 c 10.873635,-0.22513 11.818895,-0.62824 12.446572,-5.30792 0.29753,-2.21825 0.112269,-2.74816 -1.537569,-4.398 l -1.87586,-1.87586 h -9.278107 -9.278106 v -10.76923 -10.76923 h 8.215863 c 9.262216,0 11.728373,-0.58904 13.033605,-3.11308 1.31887,-2.55041 1.113491,-4.54397 -0.688787,-6.68585 l -1.593165,-1.89338 H 54.406834 44.923077 V 256 244.92308 h 9.483757 9.483759 l 1.593165,-1.89338 c 1.802278,-2.14188 2.007657,-4.13544 0.688787,-6.68585 -1.305232,-2.52404 -3.771389,-3.11308 -13.033605,-3.11308 h -8.215863 v -10.76923 -10.76923 h 9.278106 9.278107 l 1.87586,-1.87586 c 1.649838,-1.64984 1.835099,-2.17975 1.537569,-4.398 -0.627677,-4.67968 -1.572937,-5.08279 -12.446572,-5.30792 l -9.52307,-0.19717 v -10.72591 -10.72591 h 8.645945 c 9.504819,0 11.843416,-0.62528 12.918954,-3.45416 1.020574,-2.6843 0.667851,-4.56161 -1.20987,-6.43933 L 63.47929,166.76923 H 54.201183 44.923077 V 156 145.23077 h 8.215863 c 9.262216,0 11.728373,-0.58904 13.033605,-3.11308 1.31887,-2.55042 1.113491,-4.54397 -0.688787,-6.68586 l -1.593165,-1.89337 h -9.483759 -9.483757 v -11.07692 -11.07692 h 9.278106 9.278107 l 1.798816,-1.79882 c 2.012218,-2.01222 2.286185,-4.08907 0.894439,-6.78041 -1.305232,-2.52404 -3.771389,-3.113082 -13.033605,-3.113082 H 44.923077 V 88.923077 78.153846 h 9.278106 9.278107 l 1.87586,-1.875858 c 1.649838,-1.64984 1.835099,-2.179754 1.537569,-4.398 -0.627677,-4.67968 -1.572937,-5.082794 -12.446572,-5.30792 l -9.52307,-0.19717 V 55.648989 44.923077 h 8.645945 c 9.504819,0 11.843416,-0.625273 12.918954,-3.454151 1.020574,-2.684312 0.667851,-4.56162 -1.20987,-6.43934 L 63.47929,33.230769 H 54.14217 44.805051 L 45.01791,24.769231 C 45.21382,16.981463 45.367691,16.02887 46.950299,12.8061 49.141487,8.3440412 54.258486,3.6173649 58.925133,1.7447025 62.422064,0.3414312 62.796407,0.32335889 92.461538,0.12565126 L 122.46154,-0.07428815 V 255.96286 512 L 94.307692,511.9276 C 78.823077,511.8878 64.810904,511.6299 63.16953,511.35449 Z m 35.339346,-67.61485 c 1.331755,-1.33175 1.798814,-2.38264 1.798814,-4.04733 0,-4.93893 -6.15168,-7.75042 -9.541405,-4.36069 -3.990899,3.9909 -1.467739,10.10188 4.204129,10.1822 1.124793,0.0159 2.375411,-0.61112 3.538462,-1.77418 z m 0.288327,-183.71167 c 1.111422,-1.11142 1.510487,-2.1756 1.510487,-4.02797 0,-3.53692 -2.063857,-5.53846 -5.710909,-5.53846 -3.539015,0 -5.645732,2.06669 -5.645732,5.53846 0,3.47177 2.106717,5.53846 5.645732,5.53846 2.035465,0 3.057438,-0.36751 4.200422,-1.51049 z M 98.508876,76.355028 c 1.331755,-1.331754 1.798814,-2.38264 1.798814,-4.047336 0,-2.772135 -2.741614,-5.846154 -5.21399,-5.846154 -3.907286,0 -7.087656,3.642265 -6.215308,7.117976 1.14697,4.569895 6.339588,6.066412 9.630484,2.775514 z"
     id="path906"
     transform="scale(0.8984375)" /></g></g>
</svg>
