<?xml version="1.0" encoding="UTF-8" standalone="no"?>
<svg
   xml:space="preserve"
   enable-background="new 0 0 360.66 324.359"
   overflow="visible"
   viewBox="0 0 300.83435 301.29772"
   height="301.29773"
   width="300.83435"
   id="Layer_1"
   version="1.0"
   inkscape:version="1.2 (dc2aedaf03, 2022-05-15)"
   sodipodi:docname="chip_docs.svg"
   xmlns:inkscape="http://www.inkscape.org/namespaces/inkscape"
   xmlns:sodipodi="http://sodipodi.sourceforge.net/DTD/sodipodi-0.dtd"
   xmlns="http://www.w3.org/2000/svg"
   xmlns:svg="http://www.w3.org/2000/svg"
   xmlns:rdf="http://www.w3.org/1999/02/22-rdf-syntax-ns#"
   xmlns:cc="http://creativecommons.org/ns#"
   xmlns:dc="http://purl.org/dc/elements/1.1/"><sodipodi:namedview
     pagecolor="#ffffff"
     bordercolor="#666666"
     borderopacity="1"
     objecttolerance="10"
     gridtolerance="10"
     guidetolerance="10"
     inkscape:pageopacity="0"
     inkscape:pageshadow="2"
     inkscape:window-width="2560"
     inkscape:window-height="1361"
     id="namedview356"
     showgrid="false"
     inkscape:zoom="2"
     inkscape:cx="74.25"
     inkscape:cy="153.75"
     inkscape:window-x="2391"
     inkscape:window-y="-9"
     inkscape:window-maximized="1"
     inkscape:current-layer="XMLID_1_"
     inkscape:pagecheckerboard="0"
     inkscape:showpageshadow="2"
     inkscape:deskcolor="#d1d1d1" /><metadata
     id="metadata5829"><rdf:RDF><cc:Work
         rdf:about=""><dc:format>image/svg+xml</dc:format><dc:type
           rdf:resource="http://purl.org/dc/dcmitype/StillImage" /></cc:Work></rdf:RDF></metadata><defs
     id="defs5827" /><g
     id="XMLID_1_"
     transform="translate(-4.4158176,-4.857094)"><path
       d="m 92.538519,138.16964 -0.02933,0.01 -33.116638,-19.16391 6.922522,-4.04886 0.02933,0.0391 c 0.801761,-0.51821 1.427526,-1.06575 1.896849,-1.63284 1.690543,-2.11194 1.055978,-4.49863 -1.927159,-6.38471 -4.419463,-2.19994 -9.484246,-2.19994 -13.903708,0 l -6.922522,4.01855 -0.02933,0.01 -33.11566,-19.16391 -0.0098,-0.0284 L 162.81281,4.857094 243.06713,51.20246 Z m 1.349305,-25.54861 c 0.615987,7.65578 19.907136,7.43188 19.535586,-0.46835 -1.24175,-7.01144 -19.007597,-6.96256 -19.535586,0.46835 z"
       id="path5131"
       style="fill:#464747;fill-opacity:1"
       sodipodi:nodetypes="cccccccccccccccccc" /><path
       d="m 113.42341,112.15171 c 0.37155,7.90022 -18.920576,8.12608 -19.535586,0.46834 0.527989,-7.42993 18.293836,-7.47881 19.535586,-0.46834 z"
       id="path5133"
       style="fill:#595959;fill-opacity:1" /><polygon
       transform="matrix(0.97775726,0,0,0.97775039,4.5110331,-56.891559)"
       points="193.89,279.81 193.89,278.19 198.15,280.65 198.15,282.24 198.12,282.25 "
       id="polygon5135"
       style="fill:#babdb6;stroke:#000000;stroke-width:0.306826;stroke-dasharray:none;stroke-opacity:1" /><polygon
       transform="matrix(0.97775726,0,0,0.97775039,4.5110331,-56.891559)"
       points="229.89,257.43 234.15,259.89 234.15,261.48 234.12,261.49 229.89,259.05 "
       id="polygon5137"
       style="fill:#babdb6;stroke:#000000;stroke-width:0.306826;stroke-dasharray:none;stroke-opacity:1" /><polygon
       transform="matrix(0.97775726,0,0,0.97775039,4.5110331,-56.891559)"
       points="229.17,256.41 229.17,199.41 232.32,201.25 233.43,200.61 233.43,258.87 233.4,258.85 "
       id="polygon5151"
       style="fill:#babdb6;stroke:#000000;stroke-width:0.715927;stroke-dasharray:none;stroke-opacity:1" /><polygon
       transform="matrix(0.97775726,0,0,0.97775039,4.5110331,-56.891559)"
       points="193.23,277.169 193.23,220.18 196.32,222.01 197.43,221.37 197.43,279.629 197.4,279.61 "
       id="polygon5153"
       style="fill:#babdb6;stroke:#000000;stroke-width:0.715927;stroke-dasharray:none;stroke-opacity:1" /><path
       d="m 180.41934,115.67161 17.64852,-10.22825 0.0108,0.0205 0.0489,-0.0293 0.01,0.0293 2.75728,1.58298 c 0.43901,0.26497 0.8702,0.55732 1.28966,0.88975 4.04889,3.05059 6.90394,8.51621 7.03985,13.48318 v 7.42113 18.21549 l -5.10389,8.74011 0.01,0.0205 -1.01687,0.54754 0.01,0.0205 v 56.96472 l -0.75288,1.73942 0.0489,0.0205 v 1.58396 l -4.16525,2.37691 v -1.5556 l -0.73331,-1.01686 0.0293,0.0205 v -56.96374 l -1.08531,0.62674 -3.02127,-1.78928 -1.93596,-1.14397 v -25.56133 c -0.0782,-5.27888 -3.7057,-11.78287 -8.33049,-14.37293 l -2.75728,-1.64262 z"
       id="path5155"
       style="fill:#babdb6;stroke:#000000;stroke-width:0.7;stroke-dasharray:none;stroke-opacity:1" /><path
       d="m 237.56925,194.79117 0.0489,0.0205 v 1.58396 l -4.16524,2.37593 v -1.55462 l -0.73332,-1.01686 0.0293,0.0205 v -56.96472 l -1.08531,0.62674 -3.07994,-1.79906 -1.93498,-1.13419 v -25.55937 c 0.0587,-5.45585 -3.64703,-11.62545 -8.27182,-14.4316 l -2.81594,-1.58395 17.7062,-10.28691 0.0108,0.0205 0.0489,-0.0284 0.01,0.0284 2.75728,1.6436 c 0.43901,0.24443 0.8702,0.52798 1.28086,0.83206 4.03814,2.98214 6.95185,8.72154 7.04963,13.54185 v 7.4221 18.15585 l -5.10389,8.74011 0.0195,0.0293 -1.03642,0.58665 0.0196,0.0293 v 56.9041 l -0.75385,1.79808 z"
       id="path5157"
       style="fill:#babdb6;stroke:#000000;stroke-width:0.7;stroke-dasharray:none;stroke-opacity:1" /><path
       d="m 226.6477,136.94746 v 0.0205 l -4.10658,-2.40527 v -13.3766 -12.20233 -0.0596 c -0.15644,-2.86481 -1.75996,-5.61131 -4.16524,-7.15615 l -2.81594,-1.61231 v -0.0293 -4.75088 l 2.81594,1.58395 c 4.62381,2.80614 8.33049,8.97673 8.27182,14.4316 v 25.55644 0 z"
       id="path5169"
       style="fill:#babdb6;stroke:#000000;stroke-width:0.7;stroke-dasharray:none;stroke-opacity:1" /><path
       d="m 191.50711,157.26511 -4.16525,-2.40527 v -13.31696 -12.26099 c -0.17599,-2.86578 -1.73063,-5.67193 -4.16524,-7.21677 l -2.75728,-1.60351 v -0.0391 -4.75089 l 2.75728,1.64262 c 4.62381,2.59006 8.25129,9.09405 8.33049,14.37293 v 25.55937 0.0186 0 z"
       id="path5171"
       style="fill:#babdb6;stroke:#000000;stroke-width:0.7;stroke-dasharray:none;stroke-opacity:1" /><path
       d="m 156.30785,177.59254 v 0.0293 l -4.16525,-2.40526 v -13.37661 -12.26099 -0.0596 c -0.14666,-2.69859 -1.83818,-5.75895 -4.16524,-7.09847 l -2.75728,-1.66217 v -0.0391 -4.6932 l 2.75728,1.58395 c 4.72256,2.79539 8.18382,8.90633 8.33049,14.37195 v 25.61022 0 z"
       id="path5173"
       style="fill:#babdb6;stroke:#000000;stroke-width:0.7;stroke-dasharray:none;stroke-opacity:1" /><path
       d="m 174.02481,149.19867 v 18.15682 l -5.10389,8.74011 0.01,0.0205 -1.01686,0.54851 0.01,0.0205 v 56.96374 l -0.75287,1.74039 0.0489,0.0205 v 1.64262 l -4.16525,2.37692 v -1.61231 l -0.67465,-0.95722 0.0293,0.0205 v -56.96472 l -1.08531,0.5671 -3.07896,-1.77071 -1.93595,-1.11561 v -25.6063 c -0.14569,-5.46563 -3.60695,-11.57657 -8.3305,-14.37196 l -2.75727,-1.58395 17.64852,-10.28691 0.0107,0.0205 0.0489,-0.0284 0.01,0.0284 2.75727,1.58395 c 0.43902,0.26497 0.87021,0.55634 1.28966,0.879 3.98925,3.05058 7.02128,8.72153 7.03986,13.55064 v 7.41722 z"
       id="path5175"
       style="fill:#babdb6;stroke:#000000;stroke-width:0.7;stroke-dasharray:none;stroke-opacity:1" /><polygon
       transform="matrix(0.97775726,0,0,0.97775039,4.5110331,-56.891559)"
       points="161.46,300.43 157.23,297.99 157.23,240.959 160.38,242.77 161.49,242.19 161.49,300.45 "
       id="polygon5177"
       style="fill:#babdb6;stroke:#000000;stroke-width:0.715927;stroke-dasharray:none;stroke-opacity:1" /><polygon
       transform="matrix(0.97775726,0,0,0.97775039,4.5110331,-56.891559)"
       points="157.95,300.629 157.95,298.95 162.15,301.41 162.15,303.06 162.12,303.07 "
       id="polygon5179"
       style="fill:#babdb6;stroke:#000000;stroke-width:0.306826;stroke-dasharray:none;stroke-opacity:1" /><polygon
       transform="matrix(0.97775726,0,0,0.97775039,4.5110331,-56.891559)"
       points="121.95,321.39 121.95,319.77 126.21,322.23 126.21,323.82 126.18,323.83 "
       id="polygon5181"
       style="fill:#babdb6;stroke:#000000;stroke-width:0.306826;stroke-dasharray:none;stroke-opacity:1" /><polygon
       transform="matrix(0.97775726,0,0,0.97775039,4.5110331,-56.891559)"
       points="125.46,321.19 121.23,318.75 121.23,261.75 124.38,263.589 125.49,262.95 125.49,321.209 "
       id="polygon5183"
       style="fill:#babdb6;stroke:#000000;stroke-width:0.715927;stroke-dasharray:none;stroke-opacity:1" /><path
       d="m 110.02082,156.32647 17.64852,-10.28594 0.0108,0.0196 0.0489,-0.0284 0.01,0.0284 2.75727,1.6436 c 0.43902,0.23466 0.87021,0.51723 1.28967,0.82131 3.97947,2.944 7.03985,8.84962 7.03985,13.55162 v 7.42112 18.15585 l -5.10389,8.74109 0.0195,0.0283 -1.03642,0.58763 0.0196,0.0284 v 56.90507 l -0.75287,1.79906 0.0489,0.0205 v 1.58396 l -4.10658,2.37593 v -1.55462 l -0.73332,-1.01686 0.0293,0.0205 v -56.96374 l -1.08531,0.62576 -3.07896,-1.79906 -1.93596,-1.13419 v -25.55839 c -0.13688,-5.52331 -3.58837,-11.56679 -8.33049,-14.43258 l -2.75825,-1.58395 z"
       id="path5185"
       style="fill:#babdb6;stroke:#000000;stroke-width:0.7;stroke-dasharray:none;stroke-opacity:1" /><path
       d="m 121.10859,197.91997 -4.16525,-2.40527 v -13.37562 -12.20233 -0.0596 c 0.10755,-2.54313 -2.02396,-5.89583 -4.16525,-7.15713 l -2.75727,-1.60351 v -0.0391 -4.75187 l 2.75727,1.58396 c 4.74213,2.86578 8.19361,8.9073 8.3305,14.43257 v 25.5584 z"
       id="path5187"
       style="fill:#babdb6;stroke:#000000;stroke-width:0.7;stroke-dasharray:none;stroke-opacity:1" /><polygon
       transform="matrix(0.97775726,0,0,0.97775039,4.5110331,-56.891559)"
       points="49.95,236.61 49.92,236.57 54.21,239.07 54.21,240.75 49.95,238.27 "
       id="polygon5189"
       style="fill:#ffffff" /><polygon
       transform="matrix(0.97775726,0,0,0.97775039,4.5110331,-56.891559)"
       points="13.95,257.43 13.92,257.39 18.21,259.89 18.21,261.51 13.95,259.03 "
       id="polygon5191"
       style="fill:#babdb6;stroke:#000000;stroke-width:0.306826;stroke-dasharray:none;stroke-opacity:1" /><polygon
       transform="matrix(0.97775726,0,0,0.97775039,4.5110331,-56.891559)"
       points="22.47,258.99 18.21,261.51 18.21,259.89 17.49,258.87 17.49,217 23.19,220.29 23.19,255.51 22.47,257.43 "
       id="polygon5193"
       style="fill:#babdb6;stroke:#000000;stroke-width:0.715927;stroke-dasharray:none;stroke-opacity:1" /><polygon
       transform="matrix(0.97775726,0,0,0.97775039,4.5110331,-56.891559)"
       points="13.23,256.39 13.23,214.54 17.49,217 17.49,258.87 "
       id="polygon5195"
       style="fill:#babdb6;stroke:#000000;stroke-width:0.715927;stroke-dasharray:none;stroke-opacity:1" /><path
       d="m 250.63894,79.89929 -6.34411,21.47866 v -0.35101 c 0.15644,-4.53774 -3.09949,-10.63792 -6.98216,-13.54282 v -0.01 l 13.23252,-7.6063 z"
       id="path5197"
       style="fill:#464747;fill-opacity:1;stroke:#000000;stroke-width:0.3;stroke-dasharray:none;stroke-opacity:1"
       sodipodi:nodetypes="ccccccc" /><path
       d="m 250.72987,79.78817 -13.34639,7.78289 -0.01,0.0108 c -0.41066,-0.30408 -0.84087,-0.58763 -1.28086,-0.83207 l -2.75728,-1.6436 -0.01,-0.0284 17.43341,-10.00141 v 4.6932 l -0.0293,0.0186 z"
       id="path5211"
       style="fill:#464747;fill-opacity:1" /><path
       d="m 215.55994,100.15471 2.81594,1.61231 c 2.40528,1.54484 4.0088,4.2933 4.16524,7.15615 v 0.0597 12.20134 L 209.22407,128.84 v -7.42113 c -0.13689,-4.96697 -2.99194,-10.43259 -7.03985,-13.48317 v -0.0108 l 13.34638,-7.78289 0.0293,0.0127 z"
       id="path5213"
       style="fill:#464747;fill-opacity:1;stroke:#000000;stroke-width:0.7;stroke-dasharray:none;stroke-opacity:1" /><path
       d="m 215.5306,100.14493 -13.34638,7.78289 v 0.0108 c -0.42044,-0.33244 -0.85065,-0.62674 -1.28966,-0.88975 l -2.75728,-1.58298 -0.01,-0.0293 17.43342,-10.06105 v 4.75088 l -0.0303,0.0186 z"
       id="path5215"
       style="fill:#464747;fill-opacity:1" /><path
       d="m 180.41934,120.46258 2.75728,1.60352 c 2.43461,1.54484 3.98925,4.35098 4.16524,7.21677 v 12.26099 l -13.31705,7.65481 v -7.42113 c -0.0196,-4.82911 -3.0506,-10.50006 -7.03985,-13.55064 l 13.40505,-7.78289 0.0293,0.0186 z"
       id="path5217"
       style="fill:#464747;fill-opacity:1;stroke:#000000;stroke-width:0.7;stroke-dasharray:none;stroke-opacity:1" /><path
       d="m 180.39001,120.44303 -13.40505,7.78289 c -0.42044,-0.32265 -0.85065,-0.61598 -1.28966,-0.87899 l -2.75728,-1.58396 -0.01,-0.0284 17.49208,-10.06105 v 4.75089 l -0.0303,0.0186 z"
       id="path5219"
       style="fill:#464747;fill-opacity:1" /><path
       d="m 145.22008,140.76068 2.75728,1.66218 c 2.32706,1.33952 4.0176,4.39988 4.16524,7.09847 v 0.0596 12.26099 l -13.31705,7.65578 v -7.42112 c 0,-4.70396 -3.06038,-10.60957 -7.03985,-13.55162 l 13.40505,-7.78289 0.0293,0.0186 z"
       id="path5221"
       style="fill:#464747;fill-opacity:1;stroke:#000000;stroke-width:0.7;stroke-dasharray:none;stroke-opacity:1" /><path
       d="m 145.19075,140.74015 -13.40505,7.78289 c -0.42044,-0.30408 -0.85065,-0.58762 -1.28967,-0.82131 l -2.75727,-1.6436 -0.01,-0.0284 17.49208,-10.00141 v 4.6932 l -0.0303,0.0186 z"
       id="path5223"
       style="fill:#464747;fill-opacity:1" /><path
       d="m 110.02082,161.11745 2.75727,1.60351 c 2.14032,1.26129 4.2728,4.61596 4.16525,7.15713 v 0.0596 12.20135 l -24.404821,14.04929 v -24.96099 l 17.452971,-10.12851 0.0293,0.0186 z"
       id="path5225"
       style="fill:#464747;fill-opacity:1;stroke:#000000;stroke-width:0.7;stroke-dasharray:none;stroke-opacity:1" /><polygon
       transform="matrix(0.97775726,0,0,0.97775039,4.5110331,-56.891559)"
       points="90.03,228.36 107.91,218.07 107.91,222.93 107.88,222.95 90.03,233.31 90.03,233.25 90.03,228.39 "
       id="polygon5227"
       style="fill:#464747;fill-opacity:1;stroke:#000000;stroke-width:0.306826;stroke-dasharray:none;stroke-opacity:1" /><polygon
       transform="matrix(0.97775726,0,0,0.97775039,4.5110331,-56.891559)"
       points="90.03,233.25 90.03,233.31 0.51,181.589 0.51,176.669 90,228.37 90.03,228.39 "
       id="polygon5229"
       style="fill:#464747;fill-opacity:1" /><polygon
       transform="matrix(0.97775726,0,0,0.97775039,4.5110331,-56.891559)"
       points="90.03,258.839 90,258.85 56.36,239.44 53.5,237.79 23.19,220.29 17.49,217 13.23,214.54 9.99,212.669 0.51,181.589 90.03,233.31 "
       id="polygon5231"
       style="fill:#464747;fill-opacity:1;stroke:#000000;stroke-width:0.715927;stroke-dasharray:none;stroke-opacity:1" /><path
       d="m 68.241251,113.37389 c -3.500371,-3.911 -11.47887,-4.05668 -15.82989,-1.57417 l -7.616729,4.42041 0.68443,-5.18306 0.0098,-0.0283 6.922521,-4.01856 c 4.419463,-2.19994 9.484246,-2.19994 13.903709,0 2.982159,1.88608 3.617701,4.27179 1.926181,6.38373 z"
       id="path5233"
       style="fill:#2e3436" /><path
       d="m 68.241251,113.37389 c -0.469323,0.5671 -1.095088,1.11464 -1.896849,1.63285 l -0.02933,-0.0391 -6.922522,4.04886 -0.761673,5.22119 -13.845043,-7.97844 0.0098,-0.0381 7.616729,-4.42041 c 4.350042,-2.48446 12.328541,-2.3378 15.828912,1.5732 z"
       id="path5235"
       style="fill:#2e3436" /><polygon
       transform="matrix(0.97775726,0,0,0.97775039,4.5110331,-56.891559)"
       points="8.01,152.129 41.88,171.73 41.9,171.75 41.2,177.05 41.19,177.089 55.35,185.25 56.13,179.91 90,199.51 90.03,199.53 90.03,228.33 90.03,228.36 90,228.37 0.51,176.669 "
       id="polygon5239"
       style="fill:#464747;fill-opacity:1;stroke:#000000;stroke-width:0.715927;stroke-dasharray:none;stroke-opacity:1" /><path
       style="fill:#464747;fill-opacity:1;stroke:#000000;stroke-width:0.7;stroke-linejoin:round;stroke-dasharray:none;paint-order:fill markers stroke"
       d="M 92.600652,138.10861 243.01557,51.32694 250.55738,75.05316 92.556459,166.39289 Z"
       id="path1419"
       sodipodi:nodetypes="ccccc" /><g
       id="g9274"
       transform="matrix(0.21320654,0,0,0.21320654,211.43929,208.07628)"><path
         id="XMLID_2069_"
         style="fill:#fbe375"
         d="m 350,30 h 80 c 5.523,0 10,4.477 10,10 v 50 c 0,5.523 -4.477,10 -10,10 h -80 z" /><path
         id="XMLID_2068_"
         style="fill:#c9a252"
         d="m 330,30 h 90 v 70 h -90 z" /><path
         id="XMLID_2067_"
         style="fill:#a79a87"
         d="M 390,460 H 60 C 48.954,460 40,451.046 40,440 V 20 C 40,8.954 48.954,0 60,0 h 330 c 11.046,0 20,8.954 20,20 v 420 c 0,11.046 -8.954,20 -20,20 z" /><path
         id="XMLID_2066_"
         style="fill:#999999"
         d="m 290,410 v 0 c 0,-5.523 4.477,-10 10,-10 h 60 c 5.523,0 10,4.477 10,10 v 0 c 0,5.523 -4.477,10 -10,10 h -60 c -5.523,0 -10,-4.477 -10,-10 z M 360,60 v 0 c 5.523,0 10,-4.477 10,-10 v 0 c 0,-5.523 -4.477,-10 -10,-10 v 0 c -5.523,0 -10,4.477 -10,10 v 0 c 0,5.523 4.477,10 10,10 z m -50,0 v 0 c 5.523,0 10,-4.477 10,-10 v 0 c 0,-5.523 -4.477,-10 -10,-10 v 0 c -5.523,0 -10,4.477 -10,10 v 0 c 0,5.523 4.477,10 10,10 z m -50,0 v 0 c 5.523,0 10,-4.477 10,-10 v 0 c 0,-5.523 -4.477,-10 -10,-10 v 0 c -5.523,0 -10,4.477 -10,10 v 0 c 0,5.523 4.477,10 10,10 z m -50,0 v 0 c 5.523,0 10,-4.477 10,-10 v 0 c 0,-5.523 -4.477,-10 -10,-10 v 0 c -5.523,0 -10,4.477 -10,10 v 0 c 0,5.523 4.477,10 10,10 z m -50,0 v 0 c 5.523,0 10,-4.477 10,-10 v 0 c 0,-5.523 -4.477,-10 -10,-10 v 0 c -5.523,0 -10,4.477 -10,10 v 0 c 0,5.523 4.477,10 10,10 z m 200,50 v 0 c 5.523,0 10,-4.477 10,-10 v 0 c 0,-5.523 -4.477,-10 -10,-10 v 0 c -5.523,0 -10,4.477 -10,10 v 0 c 0,5.523 4.477,10 10,10 z m -50,0 v 0 c 5.523,0 10,-4.477 10,-10 v 0 c 0,-5.523 -4.477,-10 -10,-10 v 0 c -5.523,0 -10,4.477 -10,10 v 0 c 0,5.523 4.477,10 10,10 z m -50,0 v 0 c 5.523,0 10,-4.477 10,-10 v 0 c 0,-5.523 -4.477,-10 -10,-10 v 0 c -5.523,0 -10,4.477 -10,10 v 0 c 0,5.523 4.477,10 10,10 z m -50,0 v 0 c 5.523,0 10,-4.477 10,-10 v 0 c 0,-5.523 -4.477,-10 -10,-10 v 0 c -5.523,0 -10,4.477 -10,10 v 0 c 0,5.523 4.477,10 10,10 z m -50,0 v 0 c 5.523,0 10,-4.477 10,-10 v 0 c 0,-5.523 -4.477,-10 -10,-10 v 0 c -5.523,0 -10,4.477 -10,10 v 0 c 0,5.523 4.477,10 10,10 z m 200,50 v 0 c 5.523,0 10,-4.477 10,-10 v 0 c 0,-5.523 -4.477,-10 -10,-10 v 0 c -5.523,0 -10,4.477 -10,10 v 0 c 0,5.523 4.477,10 10,10 z m -50,0 v 0 c 5.523,0 10,-4.477 10,-10 v 0 c 0,-5.523 -4.477,-10 -10,-10 v 0 c -5.523,0 -10,4.477 -10,10 v 0 c 0,5.523 4.477,10 10,10 z m -50,0 v 0 c 5.523,0 10,-4.477 10,-10 v 0 c 0,-5.523 -4.477,-10 -10,-10 v 0 c -5.523,0 -10,4.477 -10,10 v 0 c 0,5.523 4.477,10 10,10 z m -50,0 v 0 c 5.523,0 10,-4.477 10,-10 v 0 c 0,-5.523 -4.477,-10 -10,-10 v 0 c -5.523,0 -10,4.477 -10,10 v 0 c 0,5.523 4.477,10 10,10 z m -50,0 v 0 c 5.523,0 10,-4.477 10,-10 v 0 c 0,-5.523 -4.477,-10 -10,-10 v 0 c -5.523,0 -10,4.477 -10,10 v 0 c 0,5.523 4.477,10 10,10 z m 200,50 v 0 c 5.523,0 10,-4.477 10,-10 v 0 c 0,-5.523 -4.477,-10 -10,-10 v 0 c -5.523,0 -10,4.477 -10,10 v 0 c 0,5.523 4.477,10 10,10 z m -50,0 v 0 c 5.523,0 10,-4.477 10,-10 v 0 c 0,-5.523 -4.477,-10 -10,-10 v 0 c -5.523,0 -10,4.477 -10,10 v 0 c 0,5.523 4.477,10 10,10 z m -50,0 v 0 c 5.523,0 10,-4.477 10,-10 v 0 c 0,-5.523 -4.477,-10 -10,-10 v 0 c -5.523,0 -10,4.477 -10,10 v 0 c 0,5.523 4.477,10 10,10 z m -50,0 v 0 c 5.523,0 10,-4.477 10,-10 v 0 c 0,-5.523 -4.477,-10 -10,-10 v 0 c -5.523,0 -10,4.477 -10,10 v 0 c 0,5.523 4.477,10 10,10 z m -50,0 v 0 c 5.523,0 10,-4.477 10,-10 v 0 c 0,-5.523 -4.477,-10 -10,-10 v 0 c -5.523,0 -10,4.477 -10,10 v 0 c 0,5.523 4.477,10 10,10 z m 200,50 v 0 c 5.523,0 10,-4.477 10,-10 v 0 c 0,-5.523 -4.477,-10 -10,-10 v 0 c -5.523,0 -10,4.477 -10,10 v 0 c 0,5.523 4.477,10 10,10 z m -50,0 v 0 c 5.523,0 10,-4.477 10,-10 v 0 c 0,-5.523 -4.477,-10 -10,-10 v 0 c -5.523,0 -10,4.477 -10,10 v 0 c 0,5.523 4.477,10 10,10 z m -50,0 v 0 c 5.523,0 10,-4.477 10,-10 v 0 c 0,-5.523 -4.477,-10 -10,-10 v 0 c -5.523,0 -10,4.477 -10,10 v 0 c 0,5.523 4.477,10 10,10 z m -50,0 v 0 c 5.523,0 10,-4.477 10,-10 v 0 c 0,-5.523 -4.477,-10 -10,-10 v 0 c -5.523,0 -10,4.477 -10,10 v 0 c 0,5.523 4.477,10 10,10 z m -50,0 v 0 c 5.523,0 10,-4.477 10,-10 v 0 c 0,-5.523 -4.477,-10 -10,-10 v 0 c -5.523,0 -10,4.477 -10,10 v 0 c 0,5.523 4.477,10 10,10 z m 200,50 v 0 c 5.523,0 10,-4.477 10,-10 v 0 c 0,-5.523 -4.477,-10 -10,-10 v 0 c -5.523,0 -10,4.477 -10,10 v 0 c 0,5.523 4.477,10 10,10 z m -50,0 v 0 c 5.523,0 10,-4.477 10,-10 v 0 c 0,-5.523 -4.477,-10 -10,-10 v 0 c -5.523,0 -10,4.477 -10,10 v 0 c 0,5.523 4.477,10 10,10 z m -50,0 v 0 c 5.523,0 10,-4.477 10,-10 v 0 c 0,-5.523 -4.477,-10 -10,-10 v 0 c -5.523,0 -10,4.477 -10,10 v 0 c 0,5.523 4.477,10 10,10 z m -50,0 v 0 c 5.523,0 10,-4.477 10,-10 v 0 c 0,-5.523 -4.477,-10 -10,-10 v 0 c -5.523,0 -10,4.477 -10,10 v 0 c 0,5.523 4.477,10 10,10 z m -50,0 v 0 c 5.523,0 10,-4.477 10,-10 v 0 c 0,-5.523 -4.477,-10 -10,-10 v 0 c -5.523,0 -10,4.477 -10,10 v 0 c 0,5.523 4.477,10 10,10 z" /><path
         id="XMLID_14_"
         style="fill:#968b79"
         d="M 110,460 H 60 C 48.954,460 40,451.046 40,440 V 20 C 40,8.954 48.954,0 60,0 h 50 z" /><path
         id="XMLID_10_"
         style="fill:#ffffff"
         d="m 85,390 v 0 c 2.761,0 5,2.239 5,5 v 0 c 0,2.761 -2.239,5 -5,5 v 0 c -2.761,0 -5,-2.239 -5,-5 v 0 c 0,-2.761 2.239,-5 5,-5 z M 80,65 v 0 c 0,2.761 2.239,5 5,5 v 0 c 2.761,0 5,-2.239 5,-5 v 0 c 0,-2.761 -2.239,-5 -5,-5 v 0 c -2.761,0 -5,2.239 -5,5 z m 0,165 v 0 c 0,2.761 2.239,5 5,5 v 0 c 2.761,0 5,-2.239 5,-5 v 0 c 0,-2.761 -2.239,-5 -5,-5 v 0 c -2.761,0 -5,2.239 -5,5 z" /><path
         id="XMLID_11_"
         style="fill:#272525"
         d="M 55,40 H 25 c -2.761,0 -5,-2.239 -5,-5 v 0 c 0,-2.761 2.239,-5 5,-5 h 30 c 2.761,0 5,2.239 5,5 v 0 c 0,2.761 -2.239,5 -5,5 z m 5,25 v 0 c 0,-2.761 -2.239,-5 -5,-5 H 25 c -2.761,0 -5,2.239 -5,5 v 0 c 0,2.761 2.239,5 5,5 h 30 c 2.761,0 5,-2.239 5,-5 z m 0,30 v 0 c 0,-2.761 -2.239,-5 -5,-5 H 25 c -2.761,0 -5,2.239 -5,5 v 0 c 0,2.761 2.239,5 5,5 h 30 c 2.761,0 5,-2.239 5,-5 z m 0,30 v 0 c 0,-2.761 -2.239,-5 -5,-5 H 25 c -2.761,0 -5,2.239 -5,5 v 0 c 0,2.761 2.239,5 5,5 h 30 c 2.761,0 5,-2.239 5,-5 z m 0,30 v 0 c 0,-2.761 -2.239,-5 -5,-5 H 25 c -2.761,0 -5,2.239 -5,5 v 0 c 0,2.761 2.239,5 5,5 h 30 c 2.761,0 5,-2.239 5,-5 z m 0,30 v 0 c 0,-2.761 -2.239,-5 -5,-5 H 25 c -2.761,0 -5,2.239 -5,5 v 0 c 0,2.761 2.239,5 5,5 h 30 c 2.761,0 5,-2.239 5,-5 z m 0,30 v 0 c 0,-2.761 -2.239,-5 -5,-5 H 25 c -2.761,0 -5,2.239 -5,5 v 0 c 0,2.761 2.239,5 5,5 h 30 c 2.761,0 5,-2.239 5,-5 z m 0,30 v 0 c 0,-2.761 -2.239,-5 -5,-5 H 25 c -2.761,0 -5,2.239 -5,5 v 0 c 0,2.761 2.239,5 5,5 h 30 c 2.761,0 5,-2.239 5,-5 z m 0,30 v 0 c 0,-2.761 -2.239,-5 -5,-5 H 25 c -2.761,0 -5,2.239 -5,5 v 0 c 0,2.761 2.239,5 5,5 h 30 c 2.761,0 5,-2.239 5,-5 z m 0,30 v 0 c 0,-2.761 -2.239,-5 -5,-5 H 25 c -2.761,0 -5,2.239 -5,5 v 0 c 0,2.761 2.239,5 5,5 h 30 c 2.761,0 5,-2.239 5,-5 z m 0,30 v 0 c 0,-2.761 -2.239,-5 -5,-5 H 25 c -2.761,0 -5,2.239 -5,5 v 0 c 0,2.761 2.239,5 5,5 h 30 c 2.761,0 5,-2.239 5,-5 z m 0,30 v 0 c 0,-2.761 -2.239,-5 -5,-5 H 25 c -2.761,0 -5,2.239 -5,5 v 0 c 0,2.761 2.239,5 5,5 h 30 c 2.761,0 5,-2.239 5,-5 z m 0,30 v 0 c 0,-2.761 -2.239,-5 -5,-5 H 25 c -2.761,0 -5,2.239 -5,5 v 0 c 0,2.761 2.239,5 5,5 h 30 c 2.761,0 5,-2.239 5,-5 z m 0,30 v 0 c 0,-2.761 -2.239,-5 -5,-5 H 25 c -2.761,0 -5,2.239 -5,5 v 0 c 0,2.761 2.239,5 5,5 h 30 c 2.761,0 5,-2.239 5,-5 z" /><path
         style="fill:#f2f2f2;stroke-width:0.615385"
         d="M 122.46154,256 V -0.01848268 l 158,0.16308748 c 149.15345,0.15395612 158.15505,0.22374831 160.76923,1.2464941 3.96087,1.5496098 8.60303,5.2432759 10.91734,8.6866761 C 456.33644,16.309502 456,-5.1706944 456,256 c 0,261.1707 0.33644,239.6905 -3.85189,245.92223 -2.31431,3.44339 -6.95647,7.13706 -10.91734,8.68667 -2.61418,1.02275 -11.61578,1.09254 -160.76923,1.2465 l -158,0.16308 z M 405.1063,466.8609 c 3.51422,-1.46834 7.19453,-6.86676 7.19453,-10.55321 0,-3.80543 -3.23017,-8.49524 -7.0446,-10.2279 -2.32003,-1.05384 -4.88062,-1.13059 -38.13886,-1.1432 -35.08687,-0.0133 -35.69459,0.007 -38.3483,1.29181 -3.997,1.93492 -5.99984,5.29953 -5.99984,10.07929 0,4.74366 1.98527,8.10183 5.94971,10.06417 2.63328,1.30344 3.1015,1.31948 38.5316,1.31996 28.73207,3.9e-4 36.2617,-0.16488 37.85576,-0.83092 z M 184.48518,343.23614 c 6.69611,-4.43128 6.49956,-14.80181 -0.36089,-19.0418 -3.44758,-2.13072 -8.88528,-1.99536 -12.36897,0.3079 -5.83377,3.85704 -6.63506,13.24539 -1.51311,17.72843 3.98725,3.48988 9.86207,3.90461 14.24297,1.00547 z m 55.96691,-0.24156 c 3.44688,-2.75395 4.57909,-5.33032 4.32595,-9.84379 -0.25592,-4.56282 -2.34137,-7.73921 -6.24506,-9.51195 -8.55018,-3.88279 -18.05301,3.83231 -15.79001,12.8195 1.47592,5.86141 5.80307,9.00357 11.86297,8.61428 2.7958,-0.17961 4.01044,-0.61135 5.84615,-2.07804 z m 54.16345,0.93087 c 5.04726,-2.44334 7.43509,-8.48774 5.42862,-13.74162 -4.77,-12.49006 -22.72993,-8.66939 -21.76788,4.63074 0.59101,8.17075 8.81194,12.75479 16.33926,9.11088 z m 55.52717,0.0802 c 3.69816,-1.88666 5.73871,-4.99046 6.04255,-9.19111 0.61182,-8.45826 -6.38447,-14.04303 -14.69892,-11.73338 -4.85596,1.34893 -8.60649,7.57727 -7.6719,12.74039 1.34176,7.41259 9.66408,11.58392 16.32827,8.1841 z m 56.8439,-0.6456 c 5.56726,-3.81475 6.68757,-11.5636 2.40728,-16.65044 -6.45803,-7.67493 -18.90879,-3.96266 -19.72512,5.88117 -0.45559,5.49391 1.49946,9.10967 6.33123,11.70923 2.69332,1.44904 8.18589,0.97912 10.98661,-0.93996 z m -225.9288,-54.15639 c 4.63544,-1.28739 8.45362,-6.27819 8.45362,-11.04984 0,-3.13093 -1.96265,-6.96208 -4.59525,-8.97006 -2.97544,-2.26948 -8.6902,-2.77796 -11.94935,-1.06321 -9.03213,4.75211 -7.82619,18.22513 1.88124,21.01766 2.78611,0.80148 3.53128,0.80933 6.20974,0.0654 z m 55.92729,-0.067 c 5.16463,-1.75175 7.93798,-5.59446 7.93798,-10.99874 0,-3.47701 -0.59504,-4.98085 -2.99827,-7.57747 -2.35283,-2.54216 -4.53431,-3.48352 -8.07261,-3.48352 -10.09476,0 -15.22624,11.47012 -8.43055,18.84437 1.92305,2.08677 5.61064,3.84419 8.17883,3.89785 0.71103,0.0148 2.2341,-0.29227 3.38462,-0.68249 z m 55.49326,0.0571 c 7.25378,-2.01439 10.59806,-11.05708 6.39557,-17.29315 -3.91108,-5.80366 -12.95587,-6.49688 -17.75786,-1.36102 -3.39059,3.62634 -3.9843,9.1467 -1.44898,13.47289 1.67226,2.85349 3.42518,4.22273 6.56037,5.1244 2.7974,0.80453 3.53451,0.81123 6.2509,0.0569 z m 58.15298,-1.00789 c 4.30928,-2.04489 6.78562,-8.80628 5.09804,-13.91969 -0.93963,-2.84711 -4.89735,-6.39088 -7.73111,-6.92249 -3.62396,-0.67986 -7.48052,0.0423 -9.84114,1.84286 -7.15418,5.45675 -5.36812,16.64667 3.15811,19.78601 2.70082,0.99444 6.18216,0.70046 9.3161,-0.78669 z m 53.35478,0.97389 c 5.51051,-1.52984 9.12358,-7.78573 7.71877,-13.36474 -1.41812,-5.63186 -5.34597,-8.71809 -11.09555,-8.71809 -3.53831,0 -5.71978,0.94136 -8.07261,3.48352 -2.40323,2.59662 -2.99827,4.10046 -2.99827,7.57747 0,5.26836 3.11971,9.66756 7.87161,11.09999 2.36773,0.71374 3.78434,0.69691 6.57605,-0.0781 z m -220.63516,-56.5272 c 6.50966,-3.32097 8.16865,-11.9088 3.33425,-17.2599 -5.61257,-6.21245 -15.12727,-5.18392 -18.61066,2.01181 -3.79068,7.83051 1.41855,16.44693 9.94997,16.4579 1.7261,0.002 3.93339,-0.49912 5.32644,-1.20981 z m 54.9765,0.36632 c 4.13066,-1.76739 6.59562,-5.7296 6.59562,-10.60191 0,-7.73474 -7.86269,-13.18481 -15.05739,-10.43713 -8.82203,3.36917 -10.13679,15.1222 -2.25109,20.12317 3.15635,2.0017 7.33932,2.35931 10.71286,0.91587 z m 56.4656,-0.39564 c 2.949,-1.50447 5.31477,-4.9103 5.87549,-8.45853 1.1233,-7.10816 -5.74321,-13.93 -12.88552,-12.8017 -9.01821,1.42466 -12.86587,12.4129 -6.66696,19.03963 3.36254,3.59461 9.14381,4.53325 13.67699,2.2206 z m 55.31703,0.16505 c 5.53038,-2.82003 7.72101,-9.54046 4.96537,-15.23285 -4.30414,-8.89115 -17.07585,-8.11614 -20.65409,1.25333 -1.93487,5.06638 0.37086,11.27917 5.11558,13.78395 2.92628,1.54481 7.75208,1.63407 10.57314,0.19557 z m 56.36393,-0.43537 c 6.4645,-3.78845 7.5348,-12.31505 2.21376,-17.63608 -6.85069,-6.85069 -18.23619,-2.93036 -19.02237,6.54991 -0.15105,1.82149 -0.099,4.01182 0.11579,4.8674 0.53037,2.11316 3.93594,5.88472 6.20736,6.87443 3.07958,1.34187 7.55441,1.06205 10.48546,-0.65566 z m -224.83734,-54.5889 c 3.52197,-1.0552 7.07834,-5.16715 7.62565,-8.81691 1.15931,-7.73085 -4.31439,-13.67386 -12.0769,-13.11237 -8.13643,0.58853 -12.75047,8.82088 -9.13261,16.29437 2.49106,5.14584 7.82755,7.35954 13.58386,5.63491 z m 56.09637,-0.17406 c 1.29163,-0.46066 2.91341,-1.3485 3.60394,-1.97299 3.1411,-2.84068 4.49302,-8.80877 2.93155,-12.94152 -2.26707,-6.00031 -9.62381,-8.65113 -15.76226,-5.67955 -8.46551,4.09808 -8.04395,16.35753 0.69903,20.32892 2.94079,1.33581 5.31838,1.40974 8.52774,0.26514 z m 56.13856,-0.26514 c 11.12445,-5.05313 7.80806,-21.61251 -4.3284,-21.61251 -6.7623,0 -11.38936,4.65137 -11.38936,11.44919 0,8.14164 8.32198,13.52276 15.71776,10.16332 z m 57.598,-0.98033 c 3.41246,-2.25826 5.03547,-5.79454 4.71198,-10.2667 -0.96193,-13.29861 -20.29203,-13.93466 -22.37705,-0.7363 -0.7592,4.80585 2.06321,9.80555 6.78539,12.01982 3.25106,1.52445 7.66259,1.11215 10.87968,-1.01682 z m 53.78662,0.98033 c 8.70647,-3.9548 9.12917,-16.24796 0.69903,-20.32892 -4.5474,-2.20136 -9.51372,-1.55677 -12.93328,1.67864 -2.55912,2.42132 -3.48352,4.58268 -3.48352,8.14497 0,5.29991 2.54067,9.11295 7.17243,10.7644 3.227,1.15058 5.60037,1.07863 8.54534,-0.25909 z M 184.91618,120.35467 c 2.6326,-2.00797 4.59525,-5.83913 4.59525,-8.97005 0,-4.86823 -3.8532,-9.80188 -8.66783,-11.09833 -6.88206,-1.853145 -14.07437,3.73991 -14.07437,10.94486 0,3.23303 0.88037,5.54133 2.96223,7.76687 2.48692,2.65856 4.83606,3.50736 9.11774,3.29447 3.02256,-0.15029 4.22835,-0.53543 6.06698,-1.93782 z m 53.72976,1.23873 c 1.89189,-0.98837 4.56566,-3.71968 5.58656,-5.70679 1.10543,-2.15165 0.83221,-7.35033 -0.52626,-10.01315 -3.38444,-6.634057 -12.55051,-7.94322 -17.93249,-2.56124 -7.25392,7.25392 -2.35601,19.03618 7.94912,19.12212 1.79373,0.0149 4.00911,-0.36347 4.92307,-0.84094 z m 57.57647,-1.17893 c 9.60299,-7.32456 2.33549,-23.061916 -9.2973,-20.13275 -3.72628,0.93829 -5.47506,2.20187 -7.25802,5.24426 -3.25818,5.55966 -1.46439,12.10875 4.33291,15.81942 2.86215,1.83197 9.23659,1.34646 12.22241,-0.93093 z m 53.80815,1.17893 c 5.7075,-2.98174 7.84905,-9.64998 4.99354,-15.54866 -4.08096,-8.430143 -16.37412,-8.007435 -20.32892,0.69903 -3.48002,7.66124 1.84924,15.70402 10.4123,15.71398 1.79373,0.002 4.00912,-0.38688 4.92308,-0.86435 z m 56.09598,-0.3487 c 6.63406,-3.38444 7.94322,-12.55051 2.56124,-17.93248 -4.01592,-4.015925 -10.20699,-4.458522 -14.96585,-1.06992 -4.17367,2.97191 -5.51621,10.3148 -2.72808,14.92084 3.02507,4.99745 9.77093,6.81693 15.13269,4.08156 z M 183.23093,65.7716 c 5.42361,-2.625526 7.74834,-9.483625 5.08187,-14.991821 -4.06449,-8.396106 -16.10579,-8.564664 -20.32997,-0.284586 -1.45536,2.852737 -1.55806,6.566086 -0.26705,9.655896 1.27504,3.051606 2.5871,4.423969 5.51499,5.768462 3.26376,1.49872 6.70372,1.447827 10.00016,-0.147951 z m 55.30205,0.128018 c 6.37578,-2.89536 8.56039,-12.033063 4.13436,-17.293103 -5.02504,-5.971922 -14.64683,-5.531928 -18.30801,0.837207 -2.97903,5.182436 -2.56197,9.718907 1.28498,13.977023 3.32344,3.678646 8.1869,4.614037 12.88867,2.478873 z m 57.2358,-0.784412 c 2.89701,-1.953151 5.41692,-7.13465 4.99599,-10.272903 -0.81267,-6.058925 -4.72385,-9.918137 -10.54057,-10.400504 -3.98585,-0.330537 -7.5059,1.266109 -9.99979,4.535764 -3.20038,4.195917 -2.5062,11.597862 1.42072,15.149003 3.58286,3.239988 10.10695,3.696671 14.12365,0.98864 z m 53.61308,1.015169 c 4.37792,-1.829212 6.92583,-5.669217 6.92583,-10.438067 0,-8.555866 -8.65795,-13.857022 -16.4617,-10.079293 -6.65745,3.222821 -8.21945,12.464778 -3.01053,17.81264 3.51133,3.604973 8.05004,4.583422 12.5464,2.70472 z m 55.87437,-0.210166 c 7.88637,-3.582289 9.13807,-13.184006 2.48067,-19.029275 -6.96906,-6.118916 -18.19436,-0.809314 -18.19748,8.607466 -0.002,5.144097 1.98747,8.350948 6.46058,10.415422 3.12083,1.440356 6.09484,1.442406 9.25623,0.0064 z"
         id="path867"
         transform="scale(0.8984375)" /><path
         style="fill:#cccccc;stroke-width:0.615385"
         d="m 63.16953,511.35449 c -6.763101,-1.13481 -13.715128,-6.48372 -16.583339,-12.75927 -1.103574,-2.41459 -1.364977,-4.3263 -1.55395,-11.36445 l -0.22719,-8.46154 h 9.337119 9.33712 l 1.798816,-1.79882 c 1.877721,-1.87771 2.230444,-3.75503 1.20987,-6.43933 -1.075538,-2.82888 -3.414135,-3.45416 -12.918954,-3.45416 H 44.923077 V 456.35101 445.6251 l 9.52307,-0.19717 c 10.873635,-0.22512 11.818895,-0.62824 12.446572,-5.30792 0.29753,-2.21824 0.112269,-2.74816 -1.537569,-4.398 l -1.87586,-1.87586 h -9.278107 -9.278106 v -10.76923 -10.76923 h 8.215863 c 9.262216,0 11.728373,-0.58904 13.033605,-3.11308 1.31887,-2.55041 1.113491,-4.54397 -0.688787,-6.68585 l -1.593165,-1.89338 h -9.483759 -9.483757 v -11.07692 -11.07692 h 9.483757 9.483759 l 1.593165,-1.89337 c 1.802278,-2.14189 2.007657,-4.13544 0.688787,-6.68586 -1.305232,-2.52404 -3.771389,-3.11308 -13.033605,-3.11308 H 44.923077 V 356 345.23077 h 9.278106 9.278107 l 1.798816,-1.79882 c 1.877721,-1.87772 2.230444,-3.75503 1.20987,-6.43933 -1.075538,-2.82888 -3.414135,-3.45416 -12.918954,-3.45416 h -8.645945 v -10.72591 -10.72591 l 9.52307,-0.19717 c 10.873635,-0.22513 11.818895,-0.62824 12.446572,-5.30792 0.29753,-2.21825 0.112269,-2.74816 -1.537569,-4.398 l -1.87586,-1.87586 h -9.278107 -9.278106 v -10.76923 -10.76923 h 8.215863 c 9.262216,0 11.728373,-0.58904 13.033605,-3.11308 1.31887,-2.55041 1.113491,-4.54397 -0.688787,-6.68585 l -1.593165,-1.89338 H 54.406834 44.923077 V 256 244.92308 h 9.483757 9.483759 l 1.593165,-1.89338 c 1.802278,-2.14188 2.007657,-4.13544 0.688787,-6.68585 -1.305232,-2.52404 -3.771389,-3.11308 -13.033605,-3.11308 h -8.215863 v -10.76923 -10.76923 h 9.278106 9.278107 l 1.87586,-1.87586 c 1.649838,-1.64984 1.835099,-2.17975 1.537569,-4.398 -0.627677,-4.67968 -1.572937,-5.08279 -12.446572,-5.30792 l -9.52307,-0.19717 v -10.72591 -10.72591 h 8.645945 c 9.504819,0 11.843416,-0.62528 12.918954,-3.45416 1.020574,-2.6843 0.667851,-4.56161 -1.20987,-6.43933 L 63.47929,166.76923 H 54.201183 44.923077 V 156 145.23077 h 8.215863 c 9.262216,0 11.728373,-0.58904 13.033605,-3.11308 1.31887,-2.55042 1.113491,-4.54397 -0.688787,-6.68586 l -1.593165,-1.89337 h -9.483759 -9.483757 v -11.07692 -11.07692 h 9.278106 9.278107 l 1.798816,-1.79882 c 2.012218,-2.01222 2.286185,-4.08907 0.894439,-6.78041 -1.305232,-2.52404 -3.771389,-3.113082 -13.033605,-3.113082 H 44.923077 V 88.923077 78.153846 h 9.278106 9.278107 l 1.87586,-1.875858 c 1.649838,-1.64984 1.835099,-2.179754 1.537569,-4.398 -0.627677,-4.67968 -1.572937,-5.082794 -12.446572,-5.30792 l -9.52307,-0.19717 V 55.648989 44.923077 h 8.645945 c 9.504819,0 11.843416,-0.625273 12.918954,-3.454151 1.020574,-2.684312 0.667851,-4.56162 -1.20987,-6.43934 L 63.47929,33.230769 H 54.14217 44.805051 L 45.01791,24.769231 C 45.21382,16.981463 45.367691,16.02887 46.950299,12.8061 49.141487,8.3440412 54.258486,3.6173649 58.925133,1.7447025 62.422064,0.3414312 62.796407,0.32335889 92.461538,0.12565126 L 122.46154,-0.07428815 V 255.96286 512 L 94.307692,511.9276 C 78.823077,511.8878 64.810904,511.6299 63.16953,511.35449 Z m 35.339346,-67.61485 c 1.331755,-1.33175 1.798814,-2.38264 1.798814,-4.04733 0,-4.93893 -6.15168,-7.75042 -9.541405,-4.36069 -3.990899,3.9909 -1.467739,10.10188 4.204129,10.1822 1.124793,0.0159 2.375411,-0.61112 3.538462,-1.77418 z m 0.288327,-183.71167 c 1.111422,-1.11142 1.510487,-2.1756 1.510487,-4.02797 0,-3.53692 -2.063857,-5.53846 -5.710909,-5.53846 -3.539015,0 -5.645732,2.06669 -5.645732,5.53846 0,3.47177 2.106717,5.53846 5.645732,5.53846 2.035465,0 3.057438,-0.36751 4.200422,-1.51049 z M 98.508876,76.355028 c 1.331755,-1.331754 1.798814,-2.38264 1.798814,-4.047336 0,-2.772135 -2.741614,-5.846154 -5.21399,-5.846154 -3.907286,0 -7.087656,3.642265 -6.215308,7.117976 1.14697,4.569895 6.339588,6.066412 9.630484,2.775514 z"
         id="path906"
         transform="scale(0.8984375)" /></g></g><rect
     style="fill:none"
     id="rect5823"
     height="317.14215"
     width="352.63794"
     y="-1.2486526"
     x="-0.40478453" /></svg>
