<?xml version="1.0" encoding="UTF-8" standalone="no"?>
<!-- made by computerguy096 -->

<svg
   version="1.1"
   id="Layer_1"
   x="0px"
   y="0px"
   width="300.02301"
   height="300"
   viewBox="0 0 300.02301 300"
   enable-background="new 0 0 512 512"
   xml:space="preserve"
   sodipodi:docname="chip.svg"
   inkscape:version="1.2 (dc2aedaf03, 2022-05-15)"
   xmlns:inkscape="http://www.inkscape.org/namespaces/inkscape"
   xmlns:sodipodi="http://sodipodi.sourceforge.net/DTD/sodipodi-0.dtd"
   xmlns="http://www.w3.org/2000/svg"
   xmlns:svg="http://www.w3.org/2000/svg"><defs
   id="defs5229">
		
	</defs><sodipodi:namedview
   id="namedview5227"
   pagecolor="#ffffff"
   bordercolor="#000000"
   borderopacity="0.25"
   inkscape:showpageshadow="2"
   inkscape:pageopacity="0.0"
   inkscape:pagecheckerboard="0"
   inkscape:deskcolor="#d1d1d1"
   showgrid="false"
   inkscape:zoom="1.6230469"
   inkscape:cx="190.9988"
   inkscape:cy="186.0698"
   inkscape:window-width="1920"
   inkscape:window-height="1017"
   inkscape:window-x="1672"
   inkscape:window-y="-8"
   inkscape:window-maximized="1"
   inkscape:current-layer="ram" />
<g
   id="ram"
   transform="matrix(-0.97437007,0.22495105,0.22495105,0.97437007,379.91368,-179.25998)">
	
	
	
	
		
	
	
	
		
	
	
	
<rect
   style="fill:#306565;fill-opacity:1;stroke:#000000;stroke-width:1.4403"
   id="rect6561"
   width="298.55969"
   height="298.55969"
   x="-379.1705"
   y="179.98013"
   transform="matrix(-0.97437007,0.22495105,0.22495105,0.97437007,0,0)" /><path
   style="fill:#6f6a6a;fill-opacity:1;stroke:#000000;stroke-width:1.446"
   d="m 396.38345,150.40378 40.49119,175.38661 -19.22141,43.43717 -185.13031,42.7407 -37.77924,-30.27753 -40.49119,-175.38662 21.13286,-41.82585 185.13031,-42.7407 z"
   id="path8698"
   sodipodi:nodetypes="ccccccccc" /><g
   aria-label="Ⓜ"
   transform="matrix(-0.99657997,0.23007861,0.21993779,0.95265513,0,0)"
   id="text14797-50"
   style="font-weight:500;font-size:17.7903px;font-family:NeoSansIntel-Medium, 'Neo Sans Intel';letter-spacing:0.02em;fill:#d2c3ae;stroke-width:0.494172"><path
     d="m -200.56099,400.89919 q -3.26618,0 -5.55946,2.29328 -2.29329,2.29328 -2.29329,5.55947 0,3.26619 2.29329,5.55947 2.29328,2.29328 5.55946,2.29328 3.26619,0 5.55947,-2.29328 2.29328,-2.29328 2.29328,-5.55947 0,-3.26619 -2.29328,-5.55947 -2.29328,-2.29328 -5.55947,-2.29328 z m 0,-0.69493 q 3.54417,0 6.04593,2.50176 2.50176,2.50176 2.50176,6.04592 0,3.54416 -2.50176,6.04592 -2.50176,2.50176 -6.04593,2.50176 -3.54416,0 -6.04592,-2.50176 -2.50176,-2.50176 -2.50176,-6.04592 0,-3.54416 2.50176,-6.04592 2.50176,-2.50176 6.04592,-2.50176 z m 4.79505,2.64074 v 11.46641 h -1.38987 v -7.85275 l -2.77974,7.85275 h -1.32037 l -2.77973,-7.85275 v 7.85275 h -1.38987 V 402.845 h 1.66784 l 3.1272,9.24262 3.1967,-9.24262 z"
     id="path20127" /></g><g
   aria-label="©"
   transform="matrix(-1.0041767,0.23183245,0.21827393,0.94544817,0,0)"
   id="text14797-0"
   style="font-weight:500;font-size:21.0774px;font-family:NeoSansIntel-Medium, 'Neo Sans Intel';letter-spacing:0.02em;fill:#d2c3ae;stroke-width:0.585482"><path
     d="m -169.70702,411.68081 q 0,3.68443 -2.61409,6.29852 -2.6038,2.6038 -6.28823,2.6038 -3.68443,0 -6.29852,-2.6038 -2.6038,-2.61409 -2.6038,-6.29852 0,-3.68443 2.6038,-6.28823 2.61409,-2.61409 6.29852,-2.61409 3.68443,0 6.28823,2.61409 2.61409,2.6038 2.61409,6.28823 z m -1.19384,0 q 0,-3.19042 -2.26417,-5.47518 -2.25388,-2.28476 -5.44431,-2.28476 -3.19043,0 -5.4546,2.28476 -2.25388,2.28476 -2.25388,5.47518 0,3.19043 2.25388,5.47519 2.26417,2.28475 5.4546,2.28475 3.19043,0 5.44431,-2.28475 2.26417,-2.28476 2.26417,-5.47519 z m -4.09609,4.08581 q -0.88509,0.40137 -1.70843,0.60721 -0.81304,0.19554 -1.61579,0.19554 -2.33622,0 -3.69472,-1.26588 -1.35851,-1.26588 -1.35851,-3.67414 0,-2.31563 1.37909,-3.64326 1.38938,-1.32763 3.67414,-1.32763 0.91596,0 1.80104,0.247 0.88509,0.247 1.52318,0.53517 v 1.8628 h -0.16467 q -0.55575,-0.41167 -1.43055,-0.77188 -0.8645,-0.36021 -1.78046,-0.36021 -1.46142,0 -2.28476,0.88509 -0.81304,0.87479 -0.81304,2.57292 0,1.63638 0.78217,2.53176 0.79246,0.89538 2.31563,0.89538 0.85421,0 1.65696,-0.29846 0.81305,-0.29846 1.55405,-0.83363 h 0.16467 z"
     id="path20124" /></g><g
   aria-label="AGPset"
   transform="matrix(-0.93577098,0.21603975,0.23422995,1.0145613,0,0)"
   id="text14797"
   style="font-weight:500;font-size:22.6182px;font-family:NeoSansIntel-Medium, 'Neo Sans Intel';letter-spacing:0.02em;fill:#d2c3ae;stroke-width:0.628282"><path
     d="m -284.55672,308.09381 h -2.33029 l -1.61243,-4.58328 h -7.11236 l -1.61243,4.58328 h -2.21986 l 5.98587,-16.44458 h 2.91563 z m -4.61641,-6.46076 -2.88249,-8.0732 -2.89354,8.0732 z"
     id="path20173" /><path
     d="m -267.8917,306.87897 q -1.34737,0.61846 -2.94876,1.08231 -1.59034,0.45281 -3.08128,0.45281 -1.92167,0 -3.52305,-0.53012 -1.60139,-0.53011 -2.72788,-1.59034 -1.13754,-1.07127 -1.75601,-2.67266 -0.61846,-1.61243 -0.61846,-3.76602 0,-3.94272 2.29716,-6.21779 2.3082,-2.28612 6.32824,-2.28612 1.40259,0 2.8604,0.34237 1.46886,0.33132 3.1586,1.13753 v 2.59535 h -0.19879 q -0.34237,-0.26505 -0.99397,-0.69577 -0.6516,-0.43072 -1.28111,-0.71786 -0.76204,-0.34237 -1.73391,-0.56325 -0.96083,-0.23193 -2.18672,-0.23193 -2.76101,0 -4.37344,1.7781 -1.60139,1.76704 -1.60139,4.79311 0,3.19173 1.6787,4.96982 1.67869,1.76705 4.57223,1.76705 1.06023,0 2.10941,-0.20984 1.06023,-0.20984 1.8554,-0.54116 v -4.03107 h -4.40657 v -1.92167 h 6.5712 z"
     id="path20175" /><path
     d="m -252.86119,296.61905 q 0,1.09336 -0.38655,2.0321 -0.37549,0.9277 -1.06022,1.61243 -0.85039,0.8504 -2.01002,1.28111 -1.15962,0.41968 -2.92667,0.41968 h -2.18672 v 6.12944 h -2.18672 v -16.44458 h 4.46179 q 1.4799,0 2.507,0.25401 1.0271,0.24297 1.82227,0.77309 0.93874,0.62951 1.44677,1.56825 0.51907,0.93874 0.51907,2.37447 z m -2.27508,0.0552 q 0,-0.85039 -0.29819,-1.4799 -0.29819,-0.62951 -0.90561,-1.0271 -0.53011,-0.34236 -1.21484,-0.48594 -0.67369,-0.15461 -1.71183,-0.15461 h -2.16463 v 6.5712 h 1.84435 q 1.32529,0 2.15359,-0.23192 0.82831,-0.24297 1.34738,-0.76204 0.51907,-0.53011 0.7289,-1.11545 0.22088,-0.58533 0.22088,-1.31424 z"
     id="path20177" /><path
     d="m -240.87885,304.53763 q 0,1.68974 -1.40259,2.77205 -1.39155,1.08232 -3.8102,1.08232 -1.36946,0 -2.51804,-0.32028 -1.13754,-0.33132 -1.91062,-0.71786 v -2.33029 h 0.11044 q 0.98292,0.73995 2.18672,1.18171 1.2038,0.43072 2.30821,0.43072 1.36946,0 2.14254,-0.44176 0.77308,-0.44177 0.77308,-1.39155 0,-0.72891 -0.41967,-1.10441 -0.41967,-0.3755 -1.61243,-0.64055 -0.44176,-0.0994 -1.15963,-0.23193 -0.70681,-0.13253 -1.29215,-0.28714 -1.62347,-0.43072 -2.3082,-1.25902 -0.67369,-0.83935 -0.67369,-2.0542 0,-0.76203 0.30923,-1.43572 0.32028,-0.67369 0.96083,-1.2038 0.61847,-0.51907 1.56826,-0.81726 0.96083,-0.30923 2.14254,-0.30923 1.10441,0 2.2309,0.2761 1.13754,0.26505 1.88853,0.6516 v 2.21985 h -0.11044 q -0.79517,-0.58534 -1.93271,-0.98292 -1.13753,-0.40863 -2.23089,-0.40863 -1.13754,0 -1.92167,0.44176 -0.78412,0.43072 -0.78412,1.29215 0,0.76204 0.47489,1.14858 0.46385,0.38655 1.50199,0.62951 0.57429,0.13253 1.28111,0.26506 0.71786,0.13253 1.19276,0.24297 1.44676,0.33132 2.23089,1.13754 0.78413,0.81726 0.78413,2.16463 z"
     id="path20179" /><path
     d="m -227.12946,302.14107 h -9.08925 q 0,1.13754 0.34237,1.98793 0.34236,0.83935 0.93874,1.3805 0.57429,0.53012 1.35842,0.79518 0.79517,0.26505 1.74496,0.26505 1.25902,0 2.52908,-0.49698 1.28111,-0.50802 1.82227,-0.99396 h 0.11044 v 2.26403 q -1.04918,0.44176 -2.14254,0.73995 -1.09336,0.29819 -2.29716,0.29819 -3.07025,0 -4.79312,-1.65661 -1.72287,-1.66765 -1.72287,-4.72685 0,-3.02607 1.64556,-4.80416 1.65661,-1.77809 4.35136,-1.77809 2.49595,0 3.84332,1.45781 1.35842,1.45782 1.35842,4.14152 z m -2.02106,-1.59034 q -0.011,-1.63452 -0.8283,-2.52909 -0.80622,-0.89456 -2.46282,-0.89456 -1.66765,0 -2.66162,0.98292 -0.98292,0.98292 -1.11545,2.44073 z"
     id="path20181" /><path
     d="m -217.124,307.98337 q -0.58533,0.15462 -1.28111,0.25401 -0.68473,0.0994 -1.22589,0.0994 -1.88853,0 -2.87145,-1.01605 -0.98292,-1.01605 -0.98292,-3.25799 v -6.56017 h -1.40259 v -1.74496 h 1.40259 v -3.54513 h 2.07628 v 3.54513 h 4.28509 v 1.74496 h -4.28509 v 5.62142 q 0,0.97188 0.0442,1.52408 0.0442,0.54116 0.30923,1.01605 0.24297,0.44176 0.66264,0.6516 0.43072,0.19879 1.3032,0.19879 0.50803,0 1.06023,-0.14357 0.5522,-0.15462 0.79517,-0.25401 h 0.11044 z"
     id="path20183" /></g><g
   aria-label="FW82443BX"
   transform="matrix(-0.9186452,0.21208595,0.23859656,1.0334752,0,0)"
   id="text14797-7"
   style="font-weight:500;font-size:23.0399px;font-family:NeoSansIntel-Medium, 'Neo Sans Intel';letter-spacing:0.02em;fill:#d2c3ae;stroke-width:0.639994"><path
     d="m -294.40458,307.86645 h -8.47121 v 4.72498 h 7.27872 v 1.97999 h -7.27872 v 8.06621 h -2.22749 v -16.75117 h 10.6987 z"
     id="path20154" /><path
     d="m -271.90512,305.88646 -4.35374,16.75117 h -2.50874 l -3.52123,-13.90494 -3.44248,13.90494 h -2.45249 l -4.43248,-16.75117 h 2.28374 l 3.52123,13.92744 3.46498,-13.92744 h 2.26124 l 3.49874,14.06244 3.49873,-14.06244 z"
     id="path20156" /><path
     d="m -257.13439,317.9689 q 0,2.17125 -1.69874,3.61124 -1.6875,1.43999 -4.25248,1.43999 -2.72249,0 -4.34249,-1.40624 -1.60874,-1.40625 -1.60874,-3.59999 0,-1.39499 0.81,-2.51998 0.80999,-1.13625 2.28374,-1.8 v -0.0675 q -1.35,-0.71999 -2.00249,-1.57499 -0.64125,-0.855 -0.64125,-2.13749 0,-1.88999 1.55249,-3.14999 1.5525,-1.25999 3.94874,-1.25999 2.50873,0 4.00498,1.20374 1.49624,1.20375 1.49624,3.05999 0,1.13625 -0.70874,2.23874 -0.70875,1.09125 -2.08125,1.70999 v 0.0675 q 1.575,0.675 2.40749,1.665 0.8325,0.98999 0.8325,2.51998 z m -2.66624,-8.17871 q 0,-1.20374 -0.93374,-1.91249 -0.9225,-0.72 -2.36249,-0.72 -1.4175,0 -2.32874,0.675 -0.9,0.675 -0.9,1.82249 0,0.81 0.45,1.40624 0.46125,0.585 1.38374,1.04625 0.41625,0.2025 1.1925,0.52875 0.78749,0.32625 1.52999,0.54 1.11375,-0.7425 1.54124,-1.54125 0.4275,-0.79874 0.4275,-1.84499 z m 0.34875,8.39246 q 0,-1.03499 -0.46125,-1.65374 -0.45,-0.63 -1.77749,-1.25999 -0.52875,-0.2475 -1.15875,-0.46125 -0.62999,-0.21375 -1.67624,-0.59625 -1.01249,0.55125 -1.63124,1.49624 -0.6075,0.945 -0.6075,2.1375 0,1.51874 1.04625,2.50873 1.04624,0.99 2.65499,0.99 1.64249,0 2.62123,-0.84375 0.99,-0.84374 0.99,-2.31749 z"
     id="path20158" /><path
     d="m -242.14991,322.63763 h -11.33995 v -2.35124 q 1.18125,-1.01249 2.36249,-2.02499 1.1925,-1.01249 2.21624,-2.01374 2.15999,-2.09249 2.95874,-3.31873 0.79875,-1.2375 0.79875,-2.66624 0,-1.305 -0.86625,-2.03624 -0.85499,-0.7425 -2.39624,-0.7425 -1.02374,0 -2.21624,0.36 -1.19249,0.36 -2.32874,1.10249 h -0.1125 v -2.36249 q 0.79875,-0.39374 2.12624,-0.71999 1.33875,-0.32625 2.58749,-0.32625 2.57624,0 4.03873,1.24874 1.4625,1.2375 1.4625,3.36374 0,0.95624 -0.2475,1.78874 -0.23625,0.82125 -0.70875,1.56374 -0.43875,0.6975 -1.03499,1.3725 -0.585,0.675 -1.42875,1.49624 -1.20374,1.18125 -2.48624,2.29499 -1.28249,1.1025 -2.39624,2.04749 h 9.01121 z"
     id="path20160" /><path
     d="m -226.65917,317.9239 h -2.48624 v 4.71373 h -2.15999 v -4.71373 h -8.02122 v -2.58748 l 8.11122,-9.44996 h 2.06999 v 10.23745 h 2.48624 z m -4.64623,-1.79999 v -7.55996 l -6.49122,7.55996 z"
     id="path20162" /><path
     d="m -211.55094,317.9239 h -2.48624 v 4.71373 h -2.15999 v -4.71373 h -8.02122 v -2.58748 l 8.11122,-9.44996 h 2.06999 v 10.23745 h 2.48624 z m -4.64623,-1.79999 v -7.55996 l -6.49122,7.55996 z"
     id="path20164" /><path
     d="m -198.29895,314.57142 q 0.54,0.48375 0.88875,1.21499 0.34875,0.73125 0.34875,1.89 0,1.14749 -0.41625,2.10374 -0.41625,0.95624 -1.16999,1.66499 -0.84375,0.7875 -1.99125,1.16999 -1.13624,0.37125 -2.49748,0.37125 -1.395,0 -2.74499,-0.3375 -1.35,-0.32624 -2.21624,-0.71999 v -2.35124 h 0.16875 q 0.95624,0.62999 2.24999,1.04624 1.29374,0.41625 2.49749,0.41625 0.70874,0 1.50749,-0.23625 0.79875,-0.23625 1.29374,-0.69749 0.5175,-0.495 0.765,-1.09125 0.25875,-0.59625 0.25875,-1.50749 0,-0.9 -0.2925,-1.485 -0.28125,-0.59624 -0.7875,-0.93374 -0.50624,-0.34875 -1.22624,-0.4725 -0.72,-0.135 -1.55249,-0.135 h -1.0125 v -1.86749 h 0.7875 q 1.70999,0 2.72249,-0.70875 1.02374,-0.72 1.02374,-2.09249 0,-0.6075 -0.25875,-1.0575 -0.25875,-0.46124 -0.72,-0.75374 -0.48374,-0.2925 -1.03499,-0.405 -0.55125,-0.1125 -1.24875,-0.1125 -1.06874,0 -2.27249,0.3825 -1.20374,0.3825 -2.27249,1.07999 h -0.11249 v -2.35124 q 0.79874,-0.39374 2.12624,-0.71999 1.33874,-0.3375 2.58748,-0.3375 1.22625,0 2.16,0.225 0.93374,0.225 1.68749,0.71999 0.80999,0.54 1.22624,1.305 0.41625,0.765 0.41625,1.78874 0,1.395 -0.98999,2.44124 -0.97875,1.035 -2.31749,1.30499 v 0.1575 q 0.53999,0.09 1.23749,0.3825 0.6975,0.28125 1.18124,0.70875 z"
     id="path20166" /><path
     d="m -179.98448,317.48516 q 0,1.24874 -0.4725,2.20499 -0.47249,0.95624 -1.27124,1.57499 -0.945,0.7425 -2.08124,1.0575 -1.125,0.31499 -2.86874,0.31499 h -5.93997 v -16.75117 h 4.96122 q 1.83375,0 2.74499,0.135 0.91125,0.135 1.74375,0.56249 0.92249,0.48375 1.33874,1.24875 0.41625,0.75375 0.41625,1.81124 0,1.1925 -0.6075,2.03624 -0.6075,0.8325 -1.61999,1.33875 v 0.09 q 1.69874,0.34874 2.67749,1.49624 0.97874,1.13624 0.97874,2.87999 z m -3.74623,-7.54872 q 0,-0.6075 -0.2025,-1.02375 -0.2025,-0.41624 -0.6525,-0.67499 -0.52875,-0.30375 -1.28249,-0.37125 -0.75375,-0.0788 -1.8675,-0.0788 h -2.65498 v 4.83748 h 2.87998 q 1.04625,0 1.665,-0.10125 0.61874,-0.1125 1.14749,-0.45 0.52875,-0.3375 0.7425,-0.86625 0.225,-0.53999 0.225,-1.27124 z m 1.42874,7.63872 q 0,-1.0125 -0.30375,-1.60875 -0.30375,-0.59624 -1.10249,-1.01249 -0.54,-0.28125 -1.31625,-0.36 -0.76499,-0.09 -1.86749,-0.09 h -3.49873 v 6.23247 h 2.94748 q 1.4625,0 2.39624,-0.14625 0.93375,-0.1575 1.53,-0.56249 0.62999,-0.43875 0.92249,-1.00125 0.2925,-0.5625 0.2925,-1.45124 z"
     id="path20168" /><path
     d="m -163.58249,305.88646 -5.78248,8.27996 5.77123,8.47121 h -2.57624 l -4.56748,-6.89622 -4.67998,6.89622 h -2.42999 l 5.83872,-8.36996 -5.70372,-8.38121 h 2.56499 l 4.51123,6.80622 4.61248,-6.80622 z"
     id="path20170" /></g><g
   aria-label="L927IF27"
   transform="matrix(-0.92436179,0.21340573,0.237121,1.0270838,0,0)"
   id="text14797-5"
   style="font-weight:500;font-size:22.8974px;font-family:NeoSansIntel-Medium, 'Neo Sans Intel';letter-spacing:0.02em;fill:#d2c3ae;stroke-width:0.636036"><path
     d="m -292.1859,345.99246 h -10.53191 v -16.64757 h 2.21371 v 14.67983 h 8.3182 z"
     id="path20137" /><path
     d="m -278.70282,336.66803 q 0,2.18018 -0.50312,3.95785 -0.49194,1.77768 -1.49817,3.02988 -1.01741,1.27457 -2.54913,1.96775 -1.53171,0.69318 -3.60008,0.69318 -0.58137,0 -1.09567,-0.0671 -0.5143,-0.0559 -0.91679,-0.19007 v -2.13545 h 0.1118 q 0.32423,0.16771 0.91679,0.32423 0.59256,0.14535 1.31929,0.14535 2.47086,0 3.8684,-1.47581 1.40873,-1.48699 1.63234,-4.09202 -1.03978,0.62611 -1.95657,0.89443 -0.91679,0.26833 -2.00128,0.26833 -1.0286,0 -1.86712,-0.20124 -0.82735,-0.20125 -1.66588,-0.78263 -0.98387,-0.682 -1.48699,-1.73296 -0.49194,-1.05095 -0.49194,-2.51558 0,-2.54913 1.67706,-4.14792 1.67706,-1.59879 4.09202,-1.59879 1.20748,0 2.23607,0.38013 1.02859,0.36895 1.80004,1.11804 0.95033,0.92797 1.46463,2.3926 0.5143,1.45345 0.5143,3.76778 z m -2.25844,-0.48075 q 0,-1.73296 -0.35777,-2.78392 -0.35777,-1.05095 -0.98387,-1.63233 -0.52548,-0.50312 -1.12922,-0.71554 -0.60374,-0.22361 -1.3081,-0.22361 -1.60998,0 -2.54913,1.00623 -0.92797,1.00624 -0.92797,2.82864 0,1.06213 0.30187,1.73295 0.30187,0.67083 1.01741,1.17394 0.50312,0.34659 1.10686,0.46958 0.60374,0.1118 1.34164,0.1118 0.87207,0 1.7665,-0.23479 0.89443,-0.23478 1.67706,-0.682 0.0112,-0.23479 0.0224,-0.45839 0.0224,-0.23479 0.0224,-0.59256 z"
     id="path20139" /><path
     d="m -263.66567,345.99246 h -11.26982 v -2.3367 q 1.17394,-1.00623 2.34788,-2.01246 1.18512,-1.00624 2.20253,-2.00129 2.14663,-2.07955 2.94044,-3.29821 0.79381,-1.22984 0.79381,-2.64975 0,-1.29692 -0.86089,-2.02364 -0.84971,-0.73791 -2.38142,-0.73791 -1.01741,0 -2.20253,0.35777 -1.18512,0.35778 -2.31434,1.09568 h -0.1118 v -2.34788 q 0.7938,-0.39131 2.11309,-0.71554 1.33046,-0.32423 2.57148,-0.32423 2.56031,0 4.01376,1.24102 1.45344,1.22984 1.45344,3.34293 0,0.95033 -0.24596,1.77768 -0.23479,0.81617 -0.70437,1.55407 -0.43603,0.69318 -1.02859,1.36401 -0.58138,0.67082 -1.41991,1.48699 -1.1963,1.17393 -2.47086,2.28079 -1.27456,1.09568 -2.38142,2.03483 h 8.95548 z"
     id="path20141" /><path
     d="m -248.60616,331.83811 -7.53557,14.15435 h -2.3926 l 8.01632,-14.69101 h -9.48095 v -1.95656 h 11.3928 z"
     id="path20143" /><path
     d="m -238.60018,345.99246 h -6.57405 v -1.69941 h 2.18017 v -13.24874 h -2.18017 v -1.69942 h 6.57405 v 1.69942 h -2.18017 v 13.24874 h 2.18017 z"
     id="path20145" /><path
     d="m -223.74191,331.31263 h -8.41882 v 4.69576 h 7.2337 v 1.96775 h -7.2337 v 8.01632 h -2.21372 v -16.64757 h 10.63254 z"
     id="path20147" /><path
     d="m -209.92342,345.99246 h -11.26981 v -2.3367 q 1.17394,-1.00623 2.34788,-2.01246 1.18512,-1.00624 2.20253,-2.00129 2.14663,-2.07955 2.94044,-3.29821 0.7938,-1.22984 0.7938,-2.64975 0,-1.29692 -0.86088,-2.02364 -0.84971,-0.73791 -2.38142,-0.73791 -1.01742,0 -2.20254,0.35777 -1.18512,0.35778 -2.31433,1.09568 h -0.11181 v -2.34788 q 0.79381,-0.39131 2.11309,-0.71554 1.33047,-0.32423 2.57149,-0.32423 2.5603,0 4.01375,1.24102 1.45345,1.22984 1.45345,3.34293 0,0.95033 -0.24597,1.77768 -0.23479,0.81617 -0.70436,1.55407 -0.43604,0.69318 -1.0286,1.36401 -0.58138,0.67082 -1.4199,1.48699 -1.1963,1.17393 -2.47087,2.28079 -1.27456,1.09568 -2.38141,2.03483 h 8.95547 z"
     id="path20149" /><path
     d="m -194.86391,331.83811 -7.53557,14.15435 h -2.3926 l 8.01633,-14.69101 h -9.48096 v -1.95656 h 11.3928 z"
     id="path20151" /></g><g
   aria-label="SL2VH"
   transform="matrix(-0.94735179,0.21871339,0.23136663,1.0021589,0,0)"
   id="text14797-5-0"
   style="font-weight:500;font-size:22.3417px;font-family:NeoSansIntel-Medium, 'Neo Sans Intel';letter-spacing:0.02em;fill:#d2c3ae;stroke-width:0.620601"><path
     d="m -283.01236,370.21226 q 0,0.94909 -0.44727,1.87636 -0.43636,0.92726 -1.23272,1.5709 -0.87273,0.69818 -2.03999,1.0909 -1.15636,0.39273 -2.79271,0.39273 -1.75636,0 -3.16362,-0.32727 -1.39636,-0.32728 -2.84726,-0.97091 v -2.70544 h 0.15273 q 1.23272,1.02545 2.84725,1.58181 1.61454,0.55636 3.03271,0.55636 2.00727,0 3.11999,-0.75272 1.12363,-0.75273 1.12363,-2.00726 0,-1.08 -0.53454,-1.59272 -0.52364,-0.51273 -1.60363,-0.79636 -0.81818,-0.21818 -1.77818,-0.36 -0.94908,-0.14182 -2.01817,-0.36 -2.15998,-0.45818 -3.20725,-1.55999 -1.03636,-1.11272 -1.03636,-2.89089 0,-2.03999 1.72363,-3.33817 1.72362,-1.30908 4.37452,-1.30908 1.71272,0 3.1418,0.32727 1.42908,0.32727 2.5309,0.80727 v 2.55271 h -0.15273 q -0.92727,-0.78545 -2.44362,-1.29817 -1.50545,-0.52364 -3.08726,-0.52364 -1.73454,0 -2.79271,0.72 -1.04727,0.72 -1.04727,1.85453 0,1.01454 0.52363,1.59272 0.52364,0.57818 1.84363,0.88364 0.69818,0.15272 1.98544,0.3709 1.28727,0.21818 2.18181,0.44727 1.8109,0.48 2.72726,1.4509 0.91636,0.97091 0.91636,2.71635 z"
     id="path20113" /><path
     d="m -268.82015,374.8486 h -10.27631 v -16.24355 h 2.15999 v 14.32356 h 8.11632 z"
     id="path20115" /><path
     d="m -255.64247,374.8486 h -10.99631 v -2.27999 q 1.14545,-0.98181 2.2909,-1.96362 1.15636,-0.98181 2.14908,-1.95272 2.09453,-2.02908 2.86908,-3.21816 0.77454,-1.2 0.77454,-2.58544 0,-1.26545 -0.84,-1.97454 -0.82908,-0.72 -2.32362,-0.72 -0.99272,0 -2.14908,0.34909 -1.15636,0.34909 -2.25817,1.06909 h -0.10909 v -2.2909 q 0.77454,-0.38181 2.06181,-0.69818 1.29817,-0.31636 2.50907,-0.31636 2.49817,0 3.91635,1.2109 1.41817,1.2 1.41817,3.26181 0,0.92726 -0.24,1.73453 -0.22909,0.79636 -0.68727,1.51636 -0.42545,0.67636 -1.00363,1.3309 -0.56727,0.65454 -1.38545,1.4509 -1.16726,1.14545 -2.41089,2.22544 -1.24363,1.06909 -2.32363,1.98545 h 8.73814 z"
     id="path20117" /><path
     d="m -238.75572,358.60505 -5.9127,16.24355 h -2.87998 l -5.9127,-16.24355 h 2.31271 l 5.09452,14.29084 5.09452,-14.29084 z"
     id="path20119" /><path
     d="m -223.41806,374.8486 h -2.15999 v -7.95268 h -8.10541 v 7.95268 h -2.15999 v -16.24355 h 2.15999 v 6.37088 h 8.10541 v -6.37088 h 2.15999 z"
     id="path20121" /></g><g
   aria-label="KOREA"
   transform="matrix(-0.94735179,0.21871339,0.23136663,1.0021589,0,0)"
   id="text14797-5-0-7"
   style="font-weight:500;font-size:20.1044px;font-family:NeoSansIntel-Medium, 'Neo Sans Intel';letter-spacing:0.02em;fill:#d2c3ae;stroke-width:0.558455"><path
     d="m -303.99458,426.78455 h -2.52287 l -5.78198,-6.50841 -1.45285,1.55102 v 4.95739 h -1.94369 v -14.61692 h 1.94369 v 7.6275 l 7.0974,-7.6275 h 2.35598 l -6.52804,6.87162 z"
     id="path20186" /><path
     d="m -290.71311,413.84626 q 0.89331,0.98166 1.36451,2.40507 0.48101,1.42341 0.48101,3.22966 0,1.80626 -0.49083,3.23948 -0.48101,1.42341 -1.35469,2.37562 -0.90313,0.99148 -2.14002,1.49212 -1.22708,0.50065 -2.80755,0.50065 -1.54121,0 -2.80755,-0.51046 -1.25652,-0.51047 -2.14002,-1.48231 -0.88349,-0.97184 -1.3645,-2.38543 -0.4712,-1.41359 -0.4712,-3.22967 0,-1.78662 0.4712,-3.20021 0.47119,-1.42341 1.37432,-2.43452 0.86386,-0.96202 2.14002,-1.47249 1.28597,-0.51046 2.79773,-0.51046 1.57066,0 2.81737,0.52028 1.25652,0.51046 2.1302,1.46267 z m -0.1767,5.63473 q 0,-2.84681 -1.27616,-4.38802 -1.27616,-1.55102 -3.48489,-1.55102 -2.22837,0 -3.50453,1.55102 -1.26634,1.54121 -1.26634,4.38802 0,2.87627 1.29579,4.40766 1.29579,1.52157 3.47508,1.52157 2.17928,0 3.46526,-1.52157 1.29579,-1.53139 1.29579,-4.40766 z"
     id="path20188" /><path
     d="m -273.28904,426.78455 h -2.52286 l -4.88867,-5.81143 h -2.73883 v 5.81143 h -1.94369 v -14.61692 h 4.09352 q 1.32524,0 2.20874,0.17669 0.88349,0.16689 1.59029,0.60863 0.79514,0.50065 1.23689,1.26635 0.45156,0.75587 0.45156,1.92405 0,1.58047 -0.79514,2.65048 -0.79515,1.06019 -2.1891,1.60011 z m -4.54508,-10.50377 q 0,-0.62826 -0.22579,-1.10927 -0.21596,-0.49083 -0.72642,-0.8246 -0.42212,-0.28468 -1.0013,-0.39266 -0.57918,-0.1178 -1.3645,-0.1178 h -2.28727 v 5.51693 h 1.96332 q 0.92276,0 1.60992,-0.15707 0.68716,-0.16688 1.16818,-0.60863 0.44174,-0.41229 0.64789,-0.94239 0.21597,-0.53991 0.21597,-1.36451 z"
     id="path20190" /><path
     d="m -261.37207,426.78455 h -9.63009 v -14.61692 h 9.63009 v 1.72772 h -7.6864 v 4.00517 h 7.6864 v 1.72772 h -7.6864 v 5.42858 h 7.6864 z"
     id="path20192" /><path
     d="m -246.36288,426.78455 h -2.07131 l -1.43322,-4.07389 h -6.32189 l -1.43323,4.07389 h -1.97313 l 5.32059,-14.61692 h 2.59159 z m -4.10334,-5.74272 -2.56214,-7.17593 -2.57195,7.17593 z"
     id="path20194" /></g><g
   aria-label="INTEL "
   transform="matrix(-0.87370273,0.20171016,0.25086975,1.0866362,0,0)"
   id="text14797-9"
   style="font-weight:500;font-size:24.225px;font-family:NeoSansIntel-Medium, 'Neo Sans Intel';letter-spacing:0.02em;fill:#d2c3ae;stroke-width:0.672915"><path
     d="m -313.20105,367.10052 h -6.95522 v -1.79794 h 2.30658 v -14.01691 h -2.30658 v -1.79795 h 6.95522 v 1.79795 h -2.30658 v 14.01691 h 2.30658 z"
     id="path20074" /><path
     d="m -295.293,367.10052 h -2.89801 l -8.351,-15.75571 v 15.75571 h -2.1883 v -17.6128 h 3.63139 l 7.61762,14.38359 v -14.38359 h 2.1883 z"
     id="path20076" /><path
     d="m -277.56238,351.56956 h -6.29283 v 15.53096 h -2.34206 v -15.53096 h -6.29282 v -2.08184 h 14.92771 z"
     id="path20078" /><path
     d="m -263.10829,367.10052 h -11.60387 v -17.6128 h 11.60387 v 2.08184 h -9.26181 v 4.82607 h 9.26181 v 2.08184 h -9.26181 v 6.54122 h 9.26181 z"
     id="path20080" /><path
     d="m -247.76705,367.10052 h -11.14256 v -17.6128 h 2.34207 v 15.53097 h 8.80049 z"
     id="path20082" /></g><g
   aria-label="'98"
   transform="matrix(-0.87370273,0.20171016,0.25086975,1.0866362,0,0)"
   id="text14797-9-3"
   style="font-weight:500;font-size:24.225px;font-family:NeoSansIntel-Medium, 'Neo Sans Intel';letter-spacing:0.02em;fill:#d2c3ae;stroke-width:0.672915"><path
     d="m -187.13067,349.47749 -0.50863,6.84877 h -1.60869 l -0.50864,-6.84877 z"
     id="path20130" /><path
     d="m -170.90229,358.01775 q 0,2.30658 -0.53229,4.18733 -0.52046,1.88075 -1.58503,3.20555 -1.0764,1.34846 -2.69692,2.08184 -1.62052,0.73337 -3.80882,0.73337 -0.61509,0 -1.1592,-0.071 -0.54412,-0.0591 -0.96995,-0.20109 v -2.25926 h 0.11829 q 0.34303,0.17743 0.96994,0.34303 0.62692,0.15377 1.39578,0.15377 2.61412,0 4.0927,-1.56138 1.49041,-1.5732 1.72698,-4.32927 -1.10006,0.6624 -2.07001,0.94629 -0.96995,0.28389 -2.11732,0.28389 -1.08823,0 -1.97538,-0.21292 -0.87532,-0.21291 -1.76246,-0.828 -1.04092,-0.72155 -1.57321,-1.83344 -0.52046,-1.11189 -0.52046,-2.66143 0,-2.69693 1.77429,-4.38842 1.7743,-1.69149 4.32928,-1.69149 1.27749,0 2.36572,0.40217 1.08823,0.39035 1.90441,1.18286 1.00543,0.98178 1.54954,2.53133 0.54412,1.53772 0.54412,3.98624 z m -2.38938,-0.50863 q 0,-1.83344 -0.37851,-2.94533 -0.37852,-1.11189 -1.04092,-1.72697 -0.55595,-0.53229 -1.19469,-0.75704 -0.63875,-0.23657 -1.38395,-0.23657 -1.70332,0 -2.69692,1.06458 -0.98178,1.06457 -0.98178,2.99264 0,1.12372 0.31937,1.83343 0.31938,0.70972 1.07641,1.24201 0.53229,0.36668 1.17103,0.4968 0.63875,0.11828 1.41943,0.11828 0.92264,0 1.86892,-0.2484 0.94629,-0.2484 1.7743,-0.72154 0.0118,-0.2484 0.0237,-0.48497 0.0237,-0.24841 0.0237,-0.62692 z"
     id="path20132" /><path
     d="m -154.86316,362.97394 q 0,2.28292 -1.78612,3.79698 -1.77429,1.51407 -4.47122,1.51407 -2.86252,0 -4.56584,-1.47858 -1.69149,-1.47858 -1.69149,-3.78516 0,-1.46675 0.85166,-2.64961 0.85166,-1.19469 2.4012,-1.89258 v -0.071 q -1.41943,-0.75703 -2.10549,-1.656 -0.67423,-0.89898 -0.67423,-2.24744 0,-1.98721 1.63235,-3.31201 1.63235,-1.32481 4.15184,-1.32481 2.63778,0 4.21099,1.26567 1.5732,1.26566 1.5732,3.21738 0,1.19469 -0.7452,2.35389 -0.7452,1.14738 -2.18829,1.79795 v 0.071 q 1.656,0.70972 2.53132,1.75064 0.87532,1.04092 0.87532,2.64961 z m -2.80338,-8.5994 q 0,-1.26567 -0.98178,-2.01087 -0.96994,-0.75703 -2.48401,-0.75703 -1.4904,0 -2.44852,0.70972 -0.94629,0.70971 -0.94629,1.91623 0,0.85166 0.47315,1.47858 0.48497,0.61509 1.45492,1.10006 0.43765,0.21292 1.25383,0.55595 0.828,0.34302 1.60869,0.56777 1.17103,-0.78069 1.62052,-1.62052 0.44949,-0.83983 0.44949,-1.93989 z m 0.36668,8.82414 q 0,-1.08823 -0.48497,-1.7388 -0.47314,-0.66241 -1.86892,-1.32481 -0.55594,-0.26023 -1.21835,-0.48497 -0.6624,-0.22475 -1.76246,-0.62692 -1.06458,0.5796 -1.71515,1.57321 -0.63874,0.9936 -0.63874,2.24743 0,1.59687 1.10006,2.63778 1.10006,1.04092 2.79155,1.04092 1.72698,0 2.75607,-0.88714 1.04091,-0.88715 1.04091,-2.4367 z"
     id="path20134" /></g><path
   style="fill:#fed15c;fill-opacity:1;stroke:#000000;stroke-width:1.446"
   d="m 471.46893,356.49773 -16.82262,2.87777 -11.32329,-3.53379 -15.76486,-9.21527 -5.81803,13.08974 18.67028,15.46547 11.85407,4.86442 11.33114,0.17853 13.18006,-0.74083 z"
   id="path10981"
   sodipodi:nodetypes="cccccccccc" /><path
   d="m 231.32161,211.36448 q 2.19291,9.49857 4.38434,18.99069 c 0.38629,1.67319 0.67987,1.91722 2.40307,1.60072 1.72319,-0.31648 3.34539,-0.71811 5.01214,-1.10291 l 24.54439,-5.66652 c 1.85981,-0.42937 2.32172,-0.0141 2.09419,1.93639 -0.32844,2.83461 -1.60145,5.27724 -4.23841,6.3334 -2.7726,1.11459 -5.83042,1.34606 -8.33452,-0.8685 -1.16195,-1.03996 -2.35202,-0.96857 -3.60147,-0.714 a 52.301955,52.301955 0 0 0 -6.17296,1.50648 c -1.25884,0.41942 -1.40682,0.80606 -0.59734,1.84605 4.58954,5.87467 10.38813,8.23694 17.95963,7.18031 9.14716,-1.27805 15.26933,-11.31352 14.6499,-18.07765 -0.16848,-1.75737 0.23541,-2.3861 1.98485,-2.64764 1.05541,-0.15554 2.07218,-0.4784 3.15878,-0.58691 3.93253,-0.40631 6.57779,-2.71838 8.24178,-6.22736 a 3.4542142,3.4542142 0 0 0 0.1186,-2.21679 c -1.34065,-6.12991 -4.29716,-18.31942 -4.29716,-18.31942 0,0 -0.1541,-1.48955 -0.31554,-2.21823 -0.25258,-1.09401 0.14093,-1.59156 1.24681,-1.88076 2.22811,-0.59574 2.38401,-0.97743 1.85411,-3.21395 -0.78743,-3.41073 -0.9013,-3.58102 -4.32247,-3.1911 -1.08362,0.12138 -1.11881,-0.32464 -1.28273,-1.00531 -0.59429,-2.57413 -1.30986,-5.17449 -1.80069,-7.79963 -0.27389,-1.42122 -0.94124,-1.90431 -2.25405,-1.51311 -1.81376,0.54075 -3.68101,0.84983 -5.4913,1.46434 -1.4123,0.48873 -1.62905,1.22339 -1.34528,2.45254 0.56903,2.46474 1.13954,4.9359 1.65709,7.41252 0.40115,1.73755 0.34274,1.77814 -1.36906,2.26146 -2.76025,0.78638 -2.76025,0.78638 -1.96199,3.59811 0.0773,0.33464 0.21293,0.62868 0.30751,0.97965 0.61556,2.37266 0.60912,2.37414 2.95259,1.95512 2.00585,-0.35463 2.15734,-0.22693 2.63475,1.72348 1.02165,4.19039 2.08835,8.37038 3.10357,12.56225 a 29.720772,29.720772 0 0 1 0.49482,3.02414 2.7673341,2.7673341 0 0 1 -2.5011,3.28876 14.081042,14.081042 0 0 1 -2.29399,0.25169 1.8492925,1.8492925 0 0 1 -1.37678,-0.94291 18.182508,18.182508 0 0 0 -4.78005,-4.99695 18.492925,18.492925 0 0 0 -13.31138,-3.57638 c -6.84827,0.75409 -12.14769,5.51586 -13.90443,12.29308 -0.22913,0.88663 -0.14829,2.44054 -0.93836,2.45349 -0.38613,0.0891 -0.56746,-1.57714 -0.77744,-2.4573 l -3.69947,-16.37646 c 0,0 -2.24299,-10.27329 -3.38849,-15.41117 -0.50811,-2.20088 -0.9299,-2.44242 -3.1595,-1.94124 -1.79547,0.41451 -3.58597,0.90923 -5.40025,1.21285 -1.3049,0.21992 -1.45038,0.82289 -1.23443,1.99314 1.3655,7.32394 4.71727,21.84207 4.71727,21.84207 l 0.6448,2.79294 z m 28.45543,7.60406 0.0134,0.0579 c -1.28707,0.29714 -2.5172,0.63537 -3.78398,0.8736 -1.15391,0.19862 -2.60575,1.27942 -3.39197,0.2815 -0.78621,-0.99793 0.42453,-2.30098 0.92293,-3.37178 a 6.8555915,6.8555915 0 0 1 6.24303,-3.96287 c 2.59548,-0.0908 5.09796,0.70742 6.65805,3.20771 0.65256,1.03555 0.50903,1.35338 -0.68052,1.57378 -2.0123,0.35613 -3.99239,0.88105 -5.98091,1.34013 z"
   fill="#fdfdfc"
   id="path14753"
   style="fill:#d2c3ae;fill-opacity:1;stroke-width:0.660462" /><path
   d="m 297.73076,216.06951 a 1.703991,1.703991 0 0 0 2.08967,1.30027 c 1.96278,-0.45314 3.92556,-0.90629 5.88834,-1.35943 0.84302,-0.19463 1.14199,-0.60257 0.94587,-1.45204 -0.61062,-2.64492 -1.74327,-7.96201 -1.74327,-7.96201 l -1.73191,-8.05953 a 26.953438,26.953438 0 0 1 -1.1975,-5.36312 c -0.18611,-5.03401 3.61999,-7.57341 8.34182,-5.8234 a 6.4461052,6.4461052 0 0 1 4.25085,4.93611 c 1.38469,5.99774 2.76937,11.99547 4.16,18.01895 0.47394,2.05287 0.64177,2.16325 2.60455,1.71011 1.73111,-0.39966 3.43993,-0.89585 5.18688,-1.19749 1.87567,-0.33136 0.99369,-3.65248 0.99369,-3.65248 l -2.51227,-10.17723 -4.33044,-19.49117 c 0,0 -0.92289,-1.50186 -2.2842,-1.0859 a 41.37792,41.37792 0 0 1 -5.14827,1.18858 c -1.46083,0.24913 -2.13007,0.84423 -1.66608,2.29613 0.0728,0.31534 0.23026,0.73313 -0.19843,0.87277 -0.19306,0.0446 -0.52029,-0.11034 -0.73713,-0.25685 -4.41853,-3.37228 -12.72707,-1.69134 -16.46259,3.85491 a 11.392963,11.392963 0 0 0 -1.7788,9.14795 l 2.53612,10.98513 z"
   fill="#fdfdfc"
   id="path14755"
   style="fill:#d2c3ae;fill-opacity:1;stroke-width:0.660462" /><text
   transform="matrix(-0.99626876,0.23000677,0.22000647,0.95295272,0,0)"
   font-size="21.5422px"
   fill="#ffffff"
   font-family="SegoeUISymbol, 'Segoe UI Symbol'"
   id="text14819"
   x="-169.12473"
   y="252.57129"
   style="fill:#d2c3ae;fill-opacity:1;stroke-width:0.742834">Ⓡ</text><rect
   x="-288.57919"
   y="243.10307"
   width="9.9069242"
   height="35.664928"
   fill="#ffffff"
   id="rect14823"
   transform="matrix(-0.97437007,0.22495104,0.22495104,0.97437007,0,0)"
   style="fill:#d2c3ae;fill-opacity:1;stroke-width:0.660462" /><rect
   x="-300.93079"
   y="373.04126"
   width="9.9069242"
   height="35.664928"
   fill="#ffffff"
   id="rect14823-8"
   transform="matrix(-0.97437007,0.22495104,0.22495104,0.97437007,0,0)"
   style="fill:#d2c3ae;fill-opacity:1;stroke-width:0.660462" /><rect
   x="-288.57919"
   y="229.89383"
   width="9.9069242"
   height="10.567386"
   fill="#ffffff"
   id="rect14825"
   transform="matrix(-0.97437007,0.22495104,0.22495104,0.97437007,0,0)"
   style="fill:#d2c3ae;fill-opacity:1;stroke-width:0.660462" /><rect
   x="-301.08481"
   y="359.86679"
   width="9.9069242"
   height="10.567386"
   fill="#ffffff"
   id="rect14825-3"
   transform="matrix(-0.97437007,0.22495104,0.22495104,0.97437007,0,0)"
   style="fill:#d2c3ae;fill-opacity:1;stroke-width:0.660462" /></g>
</svg>
