<?xml version="1.0" encoding="UTF-8" standalone="no"?>
<svg
   xml:space="preserve"
   enable-background="new 0 0 360.66 324.359"
   overflow="visible"
   viewBox="0 0 296.59347 278.91787"
   height="278.91788"
   width="296.59348"
   id="Layer_1"
   version="1.0"
   inkscape:version="1.2 (dc2aedaf03, 2022-05-15)"
   sodipodi:docname="chip_alias.svg"
   xmlns:inkscape="http://www.inkscape.org/namespaces/inkscape"
   xmlns:sodipodi="http://sodipodi.sourceforge.net/DTD/sodipodi-0.dtd"
   xmlns="http://www.w3.org/2000/svg"
   xmlns:svg="http://www.w3.org/2000/svg"
   xmlns:rdf="http://www.w3.org/1999/02/22-rdf-syntax-ns#"
   xmlns:cc="http://creativecommons.org/ns#"
   xmlns:dc="http://purl.org/dc/elements/1.1/"><sodipodi:namedview
     pagecolor="#ffffff"
     bordercolor="#666666"
     borderopacity="1"
     objecttolerance="10"
     gridtolerance="10"
     guidetolerance="10"
     inkscape:pageopacity="0"
     inkscape:pageshadow="2"
     inkscape:window-width="2560"
     inkscape:window-height="1361"
     id="namedview356"
     showgrid="false"
     inkscape:zoom="2.8284271"
     inkscape:cx="47.199378"
     inkscape:cy="135.23417"
     inkscape:window-x="2391"
     inkscape:window-y="-9"
     inkscape:window-maximized="1"
     inkscape:current-layer="XMLID_1_"
     inkscape:pagecheckerboard="0"
     inkscape:showpageshadow="2"
     inkscape:deskcolor="#d1d1d1" /><metadata
     id="metadata5829"><rdf:RDF><cc:Work
         rdf:about=""><dc:format>image/svg+xml</dc:format><dc:type
           rdf:resource="http://purl.org/dc/dcmitype/StillImage" /></cc:Work></rdf:RDF></metadata><defs
     id="defs5827" /><g
     id="XMLID_1_"
     transform="translate(-4.4158173,-4.857094)"><path
       d="m 92.538519,138.16964 -0.02933,0.01 -33.116638,-19.16391 6.922522,-4.04886 0.02933,0.0391 c 0.801761,-0.51821 1.427526,-1.06575 1.896849,-1.63284 1.690543,-2.11194 1.055978,-4.49863 -1.927159,-6.38471 -4.419463,-2.19994 -9.484246,-2.19994 -13.903708,0 l -6.922522,4.01855 -0.02933,0.01 -33.11566,-19.16391 -0.0098,-0.0284 L 162.81281,4.857094 243.06713,51.20246 Z m 1.349305,-25.54861 c 0.615987,7.65578 19.907136,7.43188 19.535586,-0.46835 -1.24175,-7.01144 -19.007597,-6.96256 -19.535586,0.46835 z"
       id="path5131"
       style="fill:#464747;fill-opacity:1"
       sodipodi:nodetypes="cccccccccccccccccc" /><path
       d="m 113.42341,112.15171 c 0.37155,7.90022 -18.920576,8.12608 -19.535586,0.46834 0.527989,-7.42993 18.293836,-7.47881 19.535586,-0.46834 z"
       id="path5133"
       style="fill:#595959;fill-opacity:1" /><polygon
       transform="matrix(0.97775726,0,0,0.97775039,4.5110331,-56.891559)"
       points="198.12,282.25 193.89,279.81 193.89,278.19 198.15,280.65 198.15,282.24 "
       id="polygon5135"
       style="fill:#babdb6;stroke:#000000;stroke-width:0.306826;stroke-dasharray:none;stroke-opacity:1" /><polygon
       transform="matrix(0.97775726,0,0,0.97775039,4.5110331,-56.891559)"
       points="229.89,259.05 229.89,257.43 234.15,259.89 234.15,261.48 234.12,261.49 "
       id="polygon5137"
       style="fill:#babdb6;stroke:#000000;stroke-width:0.306826;stroke-dasharray:none;stroke-opacity:1" /><polygon
       transform="matrix(0.97775726,0,0,0.97775039,4.5110331,-56.891559)"
       points="233.43,258.87 233.4,258.85 229.17,256.41 229.17,199.41 232.32,201.25 233.43,200.61 "
       id="polygon5151"
       style="fill:#babdb6;stroke:#000000;stroke-width:0.715927;stroke-dasharray:none;stroke-opacity:1" /><polygon
       transform="matrix(0.97775726,0,0,0.97775039,4.5110331,-56.891559)"
       points="197.43,279.629 197.4,279.61 193.23,277.169 193.23,220.18 196.32,222.01 197.43,221.37 "
       id="polygon5153"
       style="fill:#babdb6;stroke:#000000;stroke-width:0.715927;stroke-dasharray:none;stroke-opacity:1" /><path
       d="m 180.41934,115.67161 17.64852,-10.22825 0.0108,0.0205 0.0489,-0.0293 0.01,0.0293 2.75728,1.58298 c 0.43901,0.26497 0.8702,0.55732 1.28966,0.88975 4.04889,3.05059 6.90394,8.51621 7.03985,13.48318 v 7.42113 18.21549 l -5.10389,8.74011 0.01,0.0205 -1.01687,0.54754 0.01,0.0205 v 56.96472 l -0.75288,1.73942 0.0489,0.0205 v 1.58396 l -4.16525,2.37691 v -1.5556 l -0.73331,-1.01686 0.0293,0.0205 v -56.96374 l -1.08531,0.62674 -3.02127,-1.78928 -1.93596,-1.14397 v -25.56133 c -0.0782,-5.27888 -3.7057,-11.78287 -8.33049,-14.37293 l -2.75728,-1.64262 z"
       id="path5155"
       style="fill:#babdb6;stroke:#000000;stroke-width:0.7;stroke-dasharray:none;stroke-opacity:1" /><path
       d="m 237.56925,194.79117 0.0489,0.0205 v 1.58396 l -4.16524,2.37593 v -1.55462 l -0.73332,-1.01686 0.0293,0.0205 v -56.96472 l -1.08531,0.62674 -3.07994,-1.79906 -1.93498,-1.13419 v -25.55937 c 0.0587,-5.45585 -3.64703,-11.62545 -8.27182,-14.4316 l -2.81594,-1.58395 17.7062,-10.28691 0.0108,0.0205 0.0489,-0.0284 0.01,0.0284 2.75728,1.6436 c 0.43901,0.24443 0.8702,0.52798 1.28086,0.83206 4.03814,2.98214 6.95185,8.72154 7.04963,13.54185 v 7.4221 18.15585 l -5.10389,8.74011 0.0195,0.0293 -1.03642,0.58665 0.0196,0.0293 v 56.9041 l -0.75385,1.79808 z"
       id="path5157"
       style="fill:#babdb6;stroke:#000000;stroke-width:0.7;stroke-dasharray:none;stroke-opacity:1" /><path
       d="m 226.6477,136.94746 v 0.0205 l -4.10658,-2.40527 v -13.3766 -12.20233 -0.0596 c -0.15644,-2.86481 -1.75996,-5.61131 -4.16524,-7.15615 l -2.81594,-1.61231 v -0.0293 -4.75088 l 2.81594,1.58395 c 4.62381,2.80614 8.33049,8.97673 8.27182,14.4316 v 25.55644 0 z"
       id="path5169"
       style="fill:#babdb6;stroke:#000000;stroke-width:0.7;stroke-dasharray:none;stroke-opacity:1" /><path
       d="m 191.50711,157.26511 -4.16525,-2.40527 v -13.31696 -12.26099 c -0.17599,-2.86578 -1.73063,-5.67193 -4.16524,-7.21677 l -2.75728,-1.60351 v -0.0391 -4.75089 l 2.75728,1.64262 c 4.62381,2.59006 8.25129,9.09405 8.33049,14.37293 v 25.55937 0.0186 0 z"
       id="path5171"
       style="fill:#babdb6;stroke:#000000;stroke-width:0.7;stroke-dasharray:none;stroke-opacity:1" /><path
       d="m 156.30785,177.59254 v 0.0293 l -4.16525,-2.40526 v -13.37661 -12.26099 -0.0596 c -0.14666,-2.69859 -1.83818,-5.75895 -4.16524,-7.09847 l -2.75728,-1.66217 v -0.0391 -4.6932 l 2.75728,1.58395 c 4.72256,2.79539 8.18382,8.90633 8.33049,14.37195 v 25.61022 0 z"
       id="path5173"
       style="fill:#babdb6;stroke:#000000;stroke-width:0.7;stroke-dasharray:none;stroke-opacity:1" /><path
       d="m 174.02481,149.19867 v 18.15682 l -5.10389,8.74011 0.01,0.0205 -1.01686,0.54851 0.01,0.0205 v 56.96374 l -0.75287,1.74039 0.0489,0.0205 v 1.64262 l -4.16525,2.37692 v -1.61231 l -0.67465,-0.95722 0.0293,0.0205 v -56.96472 l -1.08531,0.5671 -3.07896,-1.77071 -1.93595,-1.11561 v -25.6063 c -0.14569,-5.46563 -3.60695,-11.57657 -8.3305,-14.37196 l -2.75727,-1.58395 17.64852,-10.28691 0.0107,0.0205 0.0489,-0.0284 0.01,0.0284 2.75727,1.58395 c 0.43902,0.26497 0.87021,0.55634 1.28966,0.879 3.98925,3.05058 7.02128,8.72153 7.03986,13.55064 v 7.41722 z"
       id="path5175"
       style="fill:#babdb6;stroke:#000000;stroke-width:0.7;stroke-dasharray:none;stroke-opacity:1" /><polygon
       transform="matrix(0.97775726,0,0,0.97775039,4.5110331,-56.891559)"
       points="161.49,242.19 161.49,300.45 161.46,300.43 157.23,297.99 157.23,240.959 160.38,242.77 "
       id="polygon5177"
       style="fill:#babdb6;stroke:#000000;stroke-width:0.715927;stroke-dasharray:none;stroke-opacity:1" /><polygon
       transform="matrix(0.97775726,0,0,0.97775039,4.5110331,-56.891559)"
       points="162.12,303.07 157.95,300.629 157.95,298.95 162.15,301.41 162.15,303.06 "
       id="polygon5179"
       style="fill:#babdb6;stroke:#000000;stroke-width:0.306826;stroke-dasharray:none;stroke-opacity:1" /><polygon
       transform="matrix(0.97775726,0,0,0.97775039,4.5110331,-56.891559)"
       points="126.18,323.83 121.95,321.39 121.95,319.77 126.21,322.23 126.21,323.82 "
       id="polygon5181"
       style="fill:#babdb6;stroke:#000000;stroke-width:0.306826;stroke-dasharray:none;stroke-opacity:1" /><polygon
       transform="matrix(0.97775726,0,0,0.97775039,4.5110331,-56.891559)"
       points="125.49,262.95 125.49,321.209 125.46,321.19 121.23,318.75 121.23,261.75 124.38,263.589 "
       id="polygon5183"
       style="fill:#babdb6;stroke:#000000;stroke-width:0.715927;stroke-dasharray:none;stroke-opacity:1" /><path
       d="m 110.02082,156.32647 17.64852,-10.28594 0.0108,0.0196 0.0489,-0.0284 0.01,0.0284 2.75727,1.6436 c 0.43902,0.23466 0.87021,0.51723 1.28967,0.82131 3.97947,2.944 7.03985,8.84962 7.03985,13.55162 v 7.42112 18.15585 l -5.10389,8.74109 0.0195,0.0283 -1.03642,0.58763 0.0196,0.0284 v 56.90507 l -0.75287,1.79906 0.0489,0.0205 v 1.58396 l -4.10658,2.37593 v -1.55462 l -0.73332,-1.01686 0.0293,0.0205 v -56.96374 l -1.08531,0.62576 -3.07896,-1.79906 -1.93596,-1.13419 v -25.55839 c -0.13688,-5.52331 -3.58837,-11.56679 -8.33049,-14.43258 l -2.75825,-1.58395 z"
       id="path5185"
       style="fill:#babdb6;stroke:#000000;stroke-width:0.7;stroke-dasharray:none;stroke-opacity:1" /><path
       d="m 121.10859,197.91997 -4.16525,-2.40527 v -13.37562 -12.20233 -0.0596 c 0.10755,-2.54313 -2.02396,-5.89583 -4.16525,-7.15713 l -2.75727,-1.60351 v -0.0391 -4.75187 l 2.75727,1.58396 c 4.74213,2.86578 8.19361,8.9073 8.3305,14.43257 v 25.5584 z"
       id="path5187"
       style="fill:#babdb6;stroke:#000000;stroke-width:0.7;stroke-dasharray:none;stroke-opacity:1" /><polygon
       transform="matrix(0.97775726,0,0,0.97775039,4.5110331,-56.891559)"
       points="49.95,238.27 49.95,236.61 49.92,236.57 54.21,239.07 54.21,240.75 "
       id="polygon5189"
       style="fill:#ffffff" /><polygon
       transform="matrix(0.97775726,0,0,0.97775039,4.5110331,-56.891559)"
       points="13.95,259.03 13.95,257.43 13.92,257.39 18.21,259.89 18.21,261.51 "
       id="polygon5191"
       style="fill:#babdb6;stroke:#000000;stroke-width:0.306826;stroke-dasharray:none;stroke-opacity:1" /><polygon
       transform="matrix(0.97775726,0,0,0.97775039,4.5110331,-56.891559)"
       points="17.49,217 23.19,220.29 23.19,255.51 22.47,257.43 22.47,258.99 18.21,261.51 18.21,259.89 17.49,258.87 "
       id="polygon5193"
       style="fill:#babdb6;stroke:#000000;stroke-width:0.715927;stroke-dasharray:none;stroke-opacity:1" /><polygon
       transform="matrix(0.97775726,0,0,0.97775039,4.5110331,-56.891559)"
       points="13.23,256.39 13.23,214.54 17.49,217 17.49,258.87 "
       id="polygon5195"
       style="fill:#babdb6;stroke:#000000;stroke-width:0.715927;stroke-dasharray:none;stroke-opacity:1" /><path
       d="m 250.63894,79.89929 -6.34411,21.47866 v -0.35101 c 0.15644,-4.53774 -3.09949,-10.63792 -6.98216,-13.54282 v -0.01 l 13.23252,-7.6063 z"
       id="path5197"
       style="fill:#464747;fill-opacity:1;stroke:#000000;stroke-width:0.3;stroke-dasharray:none;stroke-opacity:1"
       sodipodi:nodetypes="ccccccc" /><path
       d="m 250.72987,79.78817 -13.34639,7.78289 -0.01,0.0108 c -0.41066,-0.30408 -0.84087,-0.58763 -1.28086,-0.83207 l -2.75728,-1.6436 -0.01,-0.0284 17.43341,-10.00141 v 4.6932 l -0.0293,0.0186 z"
       id="path5211"
       style="fill:#464747;fill-opacity:1" /><path
       d="m 215.55994,100.15471 2.81594,1.61231 c 2.40528,1.54484 4.0088,4.2933 4.16524,7.15615 v 0.0597 12.20134 L 209.22407,128.84 v -7.42113 c -0.13689,-4.96697 -2.99194,-10.43259 -7.03985,-13.48317 v -0.0108 l 13.34638,-7.78289 0.0293,0.0127 z"
       id="path5213"
       style="fill:#464747;fill-opacity:1;stroke:#000000;stroke-width:0.7;stroke-dasharray:none;stroke-opacity:1" /><path
       d="m 215.5306,100.14493 -13.34638,7.78289 v 0.0108 c -0.42044,-0.33244 -0.85065,-0.62674 -1.28966,-0.88975 l -2.75728,-1.58298 -0.01,-0.0293 17.43342,-10.06105 v 4.75088 l -0.0303,0.0186 z"
       id="path5215"
       style="fill:#464747;fill-opacity:1" /><path
       d="m 180.41934,120.46258 2.75728,1.60352 c 2.43461,1.54484 3.98925,4.35098 4.16524,7.21677 v 12.26099 l -13.31705,7.65481 v -7.42113 c -0.0196,-4.82911 -3.0506,-10.50006 -7.03985,-13.55064 l 13.40505,-7.78289 0.0293,0.0186 z"
       id="path5217"
       style="fill:#464747;fill-opacity:1;stroke:#000000;stroke-width:0.7;stroke-dasharray:none;stroke-opacity:1" /><path
       d="m 180.39001,120.44303 -13.40505,7.78289 c -0.42044,-0.32265 -0.85065,-0.61598 -1.28966,-0.87899 l -2.75728,-1.58396 -0.01,-0.0284 17.49208,-10.06105 v 4.75089 l -0.0303,0.0186 z"
       id="path5219"
       style="fill:#464747;fill-opacity:1" /><path
       d="m 145.22008,140.76068 2.75728,1.66218 c 2.32706,1.33952 4.0176,4.39988 4.16524,7.09847 v 0.0596 12.26099 l -13.31705,7.65578 v -7.42112 c 0,-4.70396 -3.06038,-10.60957 -7.03985,-13.55162 l 13.40505,-7.78289 0.0293,0.0186 z"
       id="path5221"
       style="fill:#464747;fill-opacity:1;stroke:#000000;stroke-width:0.7;stroke-dasharray:none;stroke-opacity:1" /><path
       d="m 145.19075,140.74015 -13.40505,7.78289 c -0.42044,-0.30408 -0.85065,-0.58762 -1.28967,-0.82131 l -2.75727,-1.6436 -0.01,-0.0284 17.49208,-10.00141 v 4.6932 l -0.0303,0.0186 z"
       id="path5223"
       style="fill:#464747;fill-opacity:1" /><path
       d="m 110.02082,161.11745 2.75727,1.60351 c 2.14032,1.26129 4.2728,4.61596 4.16525,7.15713 v 0.0596 12.20135 l -24.404821,14.04929 v -24.96099 l 17.452971,-10.12851 0.0293,0.0186 z"
       id="path5225"
       style="fill:#464747;fill-opacity:1;stroke:#000000;stroke-width:0.7;stroke-dasharray:none;stroke-opacity:1" /><polygon
       transform="matrix(0.97775726,0,0,0.97775039,4.5110331,-56.891559)"
       points="90.03,233.31 90.03,233.25 90.03,228.39 90.03,228.36 107.91,218.07 107.91,222.93 107.88,222.95 "
       id="polygon5227"
       style="fill:#464747;fill-opacity:1;stroke:#000000;stroke-width:0.306826;stroke-dasharray:none;stroke-opacity:1" /><polygon
       transform="matrix(0.97775726,0,0,0.97775039,4.5110331,-56.891559)"
       points="90,228.37 90.03,228.39 90.03,233.25 90.03,233.31 0.51,181.589 0.51,176.669 "
       id="polygon5229"
       style="fill:#464747;fill-opacity:1" /><polygon
       transform="matrix(0.97775726,0,0,0.97775039,4.5110331,-56.891559)"
       points="23.19,220.29 17.49,217 13.23,214.54 9.99,212.669 0.51,181.589 90.03,233.31 90.03,258.839 90,258.85 56.36,239.44 53.5,237.79 "
       id="polygon5231"
       style="fill:#464747;fill-opacity:1;stroke:#000000;stroke-width:0.715927;stroke-dasharray:none;stroke-opacity:1" /><path
       d="m 68.241251,113.37389 c -3.500371,-3.911 -11.47887,-4.05668 -15.82989,-1.57417 l -7.616729,4.42041 0.68443,-5.18306 0.0098,-0.0283 6.922521,-4.01856 c 4.419463,-2.19994 9.484246,-2.19994 13.903709,0 2.982159,1.88608 3.617701,4.27179 1.926181,6.38373 z"
       id="path5233"
       style="fill:#2e3436" /><path
       d="m 68.241251,113.37389 c -0.469323,0.5671 -1.095088,1.11464 -1.896849,1.63285 l -0.02933,-0.0391 -6.922522,4.04886 -0.761673,5.22119 -13.845043,-7.97844 0.0098,-0.0381 7.616729,-4.42041 c 4.350042,-2.48446 12.328541,-2.3378 15.828912,1.5732 z"
       id="path5235"
       style="fill:#2e3436" /><polygon
       transform="matrix(0.97775726,0,0,0.97775039,4.5110331,-56.891559)"
       points="41.19,177.089 55.35,185.25 56.13,179.91 90,199.51 90.03,199.53 90.03,228.33 90.03,228.36 90,228.37 0.51,176.669 8.01,152.129 41.88,171.73 41.9,171.75 41.2,177.05 "
       id="polygon5239"
       style="fill:#464747;fill-opacity:1;stroke:#000000;stroke-width:0.715927;stroke-dasharray:none;stroke-opacity:1" /><path
       style="fill:#464747;fill-opacity:1;stroke:#000000;stroke-width:0.7;stroke-linejoin:round;stroke-dasharray:none;paint-order:fill markers stroke"
       d="M 92.600652,138.10861 243.01557,51.32694 250.55738,75.05316 92.556459,166.39289 Z"
       id="path1419"
       sodipodi:nodetypes="ccccc" /><g
       id="g747"
       transform="matrix(3.8043997,0,0,3.8043997,198.29051,162.12548)"><path
         fill="#808184"
         d="M 21.06,-0.024 C 18.86,-0.024 17,2.515 17,5.519 V 6 H 16.225 C 15.847,6 15.492,6.137 15.222,6.386 L 0.479,20.06 C 0.172,20.345 -0.003,20.749 0,21.169 c 0.002,0.42 0.182,0.822 0.491,1.104 l 10.262,9.319 c 0.272,0.248 0.624,0.383 0.99,0.384 0.388,0 0.754,-0.15 1.032,-0.422 L 26.548,18.075 C 26.836,17.794 27,17.402 27,16.999 V 7.479 C 27,6.664 26.335,6 25.518,6 h -0.416 c 0.011,-0.165 0.018,-0.332 0.018,-0.501 0,-3.031 -1.821,-5.523 -4.06,-5.523 z M 18,5.519 c 0,-2.42 1.43,-4.542 3.06,-4.542 1.659,0 3.061,2.06 3.061,4.498 0,0.18 -0.021,0.351 -0.035,0.525 H 18 Z M 25.518,7 C 25.788,7 26,7.21 26,7.479 v 9.519 c 0,0.136 -0.055,0.268 -0.15,0.361 L 12.076,30.838 c -0.173,0.171 -0.469,0.178 -0.651,0.013 L 1.163,21.533 C 1.059,21.438 1.001,21.307 1,21.164 0.999,21.021 1.056,20.889 1.159,20.793 L 15.901,7.12 C 16.008,7.021 16.136,7 16.225,7 h 7.706 C 23.723,7.859 23.351,8.597 22.864,9.118 22.851,9.105 22.843,9.09 22.83,9.078 c -0.984,-0.946 -2.69,-0.947 -3.675,0 -0.497,0.478 -0.771,1.115 -0.771,1.793 0,0.678 0.273,1.316 0.771,1.794 0.492,0.473 1.145,0.734 1.837,0.734 0.693,0 1.346,-0.261 1.838,-0.734 0.497,-0.479 0.771,-1.116 0.771,-1.794 0,-0.306 -0.063,-0.602 -0.17,-0.88 0.733,-0.718 1.283,-1.77 1.535,-2.992 h 0.552 z M 22.6,10.872 c 0,0.404 -0.164,0.786 -0.464,1.074 -0.608,0.586 -1.678,0.587 -2.288,0 -0.3,-0.288 -0.464,-0.669 -0.464,-1.074 0,-0.186 0.039,-0.367 0.106,-0.536 0.649,0.624 1.57,0.664 1.656,0.664 0.002,0 0.004,0 0.005,0 0.502,0 0.981,-0.136 1.424,-0.374 0.013,0.081 0.025,0.162 0.025,0.246 z M 20.16,9.57 c 0.249,-0.144 0.532,-0.226 0.831,-0.226 0.391,0 0.757,0.138 1.049,0.379 -0.283,0.135 -0.578,0.228 -0.891,0.228 -0.031,0 -0.623,-0.011 -0.989,-0.381 z"
         id="path2" /><path
         style="fill:#e4d4a2;fill-opacity:1;stroke:#000000;stroke-width:0.673887;stroke-linejoin:round;paint-order:fill markers stroke"
         d="M 350.79468,772.28839 C 349.67639,771.64529 290.45642,718.16443 219.19473,653.44202 79.543569,526.60582 86.533009,533.4468 88.673785,525.69355 c 0.942967,-3.41516 -1.435151,-1.18922 289.665565,-271.12849 44.21179,-40.99784 81.63484,-75.51613 83.16232,-76.70732 l 2.77724,-2.1658 h 97.58377 c 88.87331,0 97.58377,0.1377 97.58377,1.54271 0,0.8485 -1.2858,5.38055 -2.85732,10.07124 -4.4795,13.3704 -12.29007,27.92597 -19.22119,35.82009 l -3.0706,3.49722 -5.95734,-4.42499 c -12.2011,-9.06273 -24.78924,-13.06458 -41.09572,-13.06458 -16.41318,0 -29.10913,4.06379 -41.12238,13.16268 -20.82938,15.77627 -29.53197,44.35091 -21.08587,69.23469 10.9453,32.24688 46.12954,50.5402 79.94785,41.56725 22.74311,-6.03438 41.06858,-24.69255 46.33643,-47.17767 1.92111,-8.20001 1.47592,-24.74481 -0.84048,-31.23499 l -1.52741,-4.27951 5.35497,-6.27292 c 14.27127,-16.71766 24.35985,-36.43872 30.57975,-59.77696 l 2.18085,-8.18291 8.69758,-0.27528 c 8.16207,-0.25833 8.88076,-0.12115 11.6725,2.22794 1.6362,1.37677 3.41838,4.09992 3.96041,6.05145 1.32121,4.75698 1.36354,239.01053 0.0441,243.76001 -0.70656,2.54325 -5.21042,7.58696 -18.05273,20.2166 -111.62751,109.77903 -328.9313,322.06621 -331.32979,323.6808 -2.87341,1.93431 -8.30984,2.15319 -11.26534,0.45358 z"
         id="path917"
         transform="matrix(0.04,0,0,0.04,-2.5,0)" /><path
         style="fill:none;fill-opacity:1;stroke:#808184;stroke-width:0.8;stroke-linejoin:round;stroke-dasharray:none;stroke-opacity:1;paint-order:fill markers stroke"
         d="M 4.4162022,21.647168 15.471233,11.572385 Z"
         id="path462" /><path
         style="fill:none;fill-opacity:1;stroke:#808184;stroke-width:0.8;stroke-linejoin:round;stroke-dasharray:none;stroke-opacity:1;paint-order:fill markers stroke"
         d="M 7.1663459,24.179478 18.221377,14.104695 Z"
         id="path462-1" /><path
         style="fill:none;fill-opacity:1;stroke:#808184;stroke-width:0.8;stroke-linejoin:round;stroke-dasharray:none;stroke-opacity:1;paint-order:fill markers stroke"
         d="M 10.052635,26.929621 21.107666,16.854838 Z"
         id="path462-9" /></g></g><rect
     style="fill:none"
     id="rect5823"
     height="317.14215"
     width="352.63794"
     y="-1.2486525"
     x="-0.40478429" /></svg>
