<?xml version="1.0" encoding="iso-8859-1"?>
<!-- Generator: Adobe Illustrator 19.0.0, SVG Export Plug-In . SVG Version: 6.00 Build 0)  -->
<svg version="1.1" id="Layer_1" xmlns="http://www.w3.org/2000/svg" xmlns:xlink="http://www.w3.org/1999/xlink" x="0px" y="0px"
	 viewBox="0 0 511.486 511.486" style="enable-background:new 0 0 511.486 511.486;" xml:space="preserve">
<g>
	<polygon style="fill:#285680;" points="456.181,381.06 381.059,456.191 305.865,423.917 230.804,348.865 348.864,230.805 
		423.917,305.866 	"/>
	<g>
		<polygon style="fill:#BDC3C7;" points="509.488,488.025 488.019,509.494 435.053,456.528 456.522,435.06 		"/>
		<path style="fill:#BDC3C7;" d="M311.298,225.448l-85.857,85.857l-40.351-40.351c-2.472-2.481-2.083-6.886,0.883-9.852
			l75.123-75.123c2.966-2.966,7.38-3.363,9.852-0.883L311.298,225.448z"/>
		<path style="fill:#BDC3C7;" d="M369.38,499.922l-8.978,8.986c-3.452,3.434-9.039,3.434-12.491,0L209.274,370.263l21.46-21.469
			L369.38,487.44C372.831,490.891,372.831,496.471,369.38,499.922"/>
		<path style="fill:#BDC3C7;" d="M508.897,360.405l-8.978,8.978c-3.452,3.443-9.039,3.443-12.491,0L348.791,230.745l21.46-21.469
			l138.646,138.646C512.349,351.374,512.349,356.953,508.897,360.405"/>
		<path style="fill:#BDC3C7;" d="M312.173,181.637l8.986-8.978c3.443-3.443,9.031-3.443,12.482,0l15.219,15.219l-21.46,21.469
			l-15.228-15.219C308.731,190.677,308.731,185.089,312.173,181.637"/>
		<path style="fill:#BDC3C7;" d="M172.656,321.155l8.986-8.978c3.443-3.443,9.031-3.443,12.482,0l15.219,15.228l-21.46,21.46
			l-15.228-15.219C169.213,330.194,169.213,324.606,172.656,321.155"/>
	</g>
	<g>
		<polygon style="fill:#1A3F5B;" points="380.988,198.542 198.539,380.991 177.08,359.522 359.519,177.073 		"/>
		<path style="fill:#1A3F5B;" d="M375.622,416.646c-2.26,0-4.52-0.865-6.241-2.586c-3.452-3.452-3.452-9.031,0-12.482l32.194-32.194
			c3.452-3.443,9.039-3.443,12.482,0c3.452,3.452,3.452,9.039,0,12.491l-32.194,32.185
			C380.141,415.781,377.882,416.646,375.622,416.646"/>
		<path style="fill:#1A3F5B;" d="M348.789,400.551c-2.26,0-4.52-0.865-6.241-2.586c-3.452-3.452-3.452-9.031,0-12.482l42.929-42.929
			c3.452-3.452,9.039-3.452,12.482,0c3.452,3.443,3.452,9.031,0,12.482l-42.929,42.929
			C353.309,399.686,351.049,400.551,348.789,400.551"/>
		<path style="fill:#1A3F5B;" d="M321.962,384.456c-2.26,0-4.52-0.865-6.241-2.586c-3.452-3.452-3.452-9.031,0-12.482l53.663-53.663
			c3.443-3.452,9.031-3.452,12.482,0c3.443,3.443,3.443,9.031,0,12.482l-53.663,53.663
			C326.482,383.591,324.222,384.456,321.962,384.456"/>
	</g>
	<polygon style="fill:#285680;" points="16.095,134.155 134.147,16.094 209.199,91.155 91.147,209.207 	"/>
	<g>
		<path style="fill:#BDC3C7;" d="M128.712,214.569l85.857-85.857l19.482,19.482c3.566,3.575,4.07,8.872,1.103,11.829l-75.132,75.132
			c-2.966,2.966-8.263,2.472-11.829-1.103L128.712,214.569z"/>
		<polygon style="fill:#BDC3C7;" points="144.88,26.827 166.349,5.358 230.737,69.756 209.269,91.224 		"/>
		<polygon style="fill:#BDC3C7;" points="5.363,166.344 26.831,144.885 91.22,209.273 69.751,230.742 		"/>
	</g>
	<polygon style="fill:#1A3F5B;" points="59.022,241.473 241.471,59.025 262.939,80.493 80.491,262.942 	"/>
	<polygon style="fill:#BDC3C7;" points="55.217,33.75 33.748,55.218 0,21.462 21.46,0.002 	"/>
	<g>
		<polygon style="fill:#1A3F5B;" points="101.953,48.292 48.29,101.955 17.65,71.315 71.313,17.652 		"/>
		<polygon style="fill:#1A3F5B;" points="467.255,424.327 424.326,467.256 397.084,440.014 440.013,397.085 		"/>
	</g>
</g>
<g>
</g>
<g>
</g>
<g>
</g>
<g>
</g>
<g>
</g>
<g>
</g>
<g>
</g>
<g>
</g>
<g>
</g>
<g>
</g>
<g>
</g>
<g>
</g>
<g>
</g>
<g>
</g>
<g>
</g>
</svg>
