<?xml version="1.0" encoding="UTF-8" standalone="no"?>
<!-- Uploaded to: SVG Repo, www.svgrepo.com, Generator: SVG Repo Mixer Tools -->

<svg
   height="800px"
   width="800px"
   version="1.1"
   id="Layer_1"
   viewBox="0 0 512 512"
   xml:space="preserve"
   sodipodi:docname="dimension.svg"
   inkscape:version="1.2 (dc2aedaf03, 2022-05-15)"
   xmlns:inkscape="http://www.inkscape.org/namespaces/inkscape"
   xmlns:sodipodi="http://sodipodi.sourceforge.net/DTD/sodipodi-0.dtd"
   xmlns="http://www.w3.org/2000/svg"
   xmlns:svg="http://www.w3.org/2000/svg"><defs
   id="defs1228" /><sodipodi:namedview
   id="namedview1226"
   pagecolor="#ffffff"
   bordercolor="#000000"
   borderopacity="0.25"
   inkscape:showpageshadow="2"
   inkscape:pageopacity="0.0"
   inkscape:pagecheckerboard="0"
   inkscape:deskcolor="#d1d1d1"
   showgrid="false"
   inkscape:zoom="1.03875"
   inkscape:cx="399.51865"
   inkscape:cy="399.51865"
   inkscape:window-width="1920"
   inkscape:window-height="1017"
   inkscape:window-x="1672"
   inkscape:window-y="-8"
   inkscape:window-maximized="1"
   inkscape:current-layer="Layer_1" />
<g
   id="g1930"><path
     style="fill:#e4d4a2;fill-opacity:1"
     d="M21.292,472.754h469.443c7.043,0,12.752-5.709,12.752-12.752V52.034  c0-10.935-12.862-16.797-21.116-9.625L12.928,450.379C4.025,458.115,9.497,472.754,21.292,472.754z M224.255,364.674  l164.267-142.756c2.888-2.51,7.389-0.459,7.389,3.368v142.756c0,2.465-1.998,4.462-4.462,4.462H227.182  C223.055,372.503,221.14,367.381,224.255,364.674z"
     id="path1177" /></g>
<g
   id="g1183"
   style="fill:#e4d4a2;fill-opacity:1">
	<path
   style="fill:#e4d4a2;fill-opacity:1"
   d="M362.71,221.918L198.444,364.674c-3.115,2.707-1.201,7.829,2.928,7.829h25.811   c-4.128,0-6.043-5.122-2.928-7.829l145.845-126.746v-12.641C370.099,221.459,365.6,219.408,362.71,221.918z"
   id="path1179" />
	<path
   style="fill:#e4d4a2;fill-opacity:1"
   d="M482.371,42.41l-5.59,4.857c0.572,1.442,0.895,3.041,0.895,4.767v407.969   c0,7.043-5.709,12.752-12.752,12.752h25.811c7.043,0,12.752-5.709,12.752-12.752V52.034C503.487,41.1,490.625,35.236,482.371,42.41   z"
   id="path1181" />
</g>
<circle
   cx="268.87"
   cy="326.311"
   r="8.514"
   id="circle1185" />
<path
   d="M499.554,32.685c-7.674-3.498-16.398-2.234-22.769,3.299L7.343,443.951c-6.765,5.879-9.108,15.103-5.97,23.497  c3.139,8.395,10.957,13.819,19.919,13.819H171.17h0.011h0.011h137.43h0.007c0.008,0,0.011,0,0.011,0h137.434c0,0,0.007,0,0.011,0  c0,0,0.007,0,0.011,0h44.638c11.725,0,21.264-9.539,21.264-21.266V52.035C512,43.597,507.231,36.183,499.554,32.685z   M490.735,464.24H454.6v-28.118c0-4.702-3.811-8.514-8.514-8.514c-4.703,0-8.514,3.812-8.514,8.514v28.118H317.147v-35.648  c0-4.702-3.811-8.514-8.514-8.514s-8.514,3.812-8.514,8.514v35.648H179.695v-35.648c0-4.702-3.811-8.514-8.514-8.514  c-4.703,0-8.514,3.812-8.514,8.514v35.648H21.292c-2.653,0-3.66-1.925-3.969-2.754s-0.814-2.941,1.19-4.683L487.956,48.836  c0.938-0.815,1.896-1.061,2.711-1.061c0.797,0,1.456,0.236,1.825,0.403c0.746,0.339,2.48,1.396,2.48,3.856v80.075h-35.648  c-4.703,0-8.514,3.812-8.514,8.514s3.811,8.514,8.514,8.514h35.648v120.426h-35.648c-4.703,0-8.514,3.812-8.514,8.514  s3.811,8.514,8.514,8.514h35.648v117.273H464.64c-4.703,0-8.514,3.812-8.514,8.514s3.811,8.514,8.514,8.514h30.332v39.111  C494.972,462.34,493.071,464.24,490.735,464.24z"
   id="path1187" />
<path
   d="M404.424,225.286c0-5.147-2.909-9.672-7.592-11.806c-4.685-2.136-10.007-1.365-13.895,2.012l-95.38,82.891  c-3.549,3.084-3.925,8.462-0.841,12.011c3.085,3.55,8.463,3.926,12.011,0.841l88.669-77.059v129.814H238.021l12.383-10.76  c3.549-3.084,3.925-8.462,0.841-12.011c-3.085-3.55-8.462-3.927-12.011-0.842l-20.564,17.871c-4.128,3.588-5.558,9.216-3.642,14.337  c1.915,5.122,6.686,8.432,12.154,8.432h164.267c7.155,0,12.975-5.821,12.975-12.976V225.286z"
   id="path1189" />
<circle
   cx="68.091"
   cy="446.948"
   r="8.514"
   id="circle1191" />
<circle
   cx="102.451"
   cy="446.948"
   r="8.514"
   id="circle1193" />
<circle
   cx="136.813"
   cy="446.948"
   r="8.514"
   id="circle1195" />
<circle
   cx="205.537"
   cy="446.948"
   r="8.514"
   id="circle1197" />
<circle
   cx="239.911"
   cy="446.948"
   r="8.514"
   id="circle1199" />
<circle
   cx="274.273"
   cy="446.948"
   r="8.514"
   id="circle1201" />
<circle
   cx="342.998"
   cy="446.948"
   r="8.514"
   id="circle1203" />
<circle
   cx="377.36"
   cy="446.948"
   r="8.514"
   id="circle1205" />
<circle
   cx="411.722"
   cy="446.948"
   r="8.514"
   id="circle1207" />
<circle
   cx="477.677"
   cy="381.164"
   r="8.514"
   id="circle1209" />
<circle
   cx="477.677"
   cy="346.801"
   r="8.514"
   id="circle1211" />
<circle
   cx="477.677"
   cy="312.439"
   r="8.514"
   id="circle1213" />
<circle
   cx="477.677"
   cy="243.715"
   r="8.514"
   id="circle1215" />
<circle
   cx="477.677"
   cy="209.352"
   r="8.514"
   id="circle1217" />
<circle
   cx="477.677"
   cy="174.99"
   r="8.514"
   id="circle1219" />
<circle
   cx="477.677"
   cy="106.265"
   r="8.514"
   id="circle1221" />
<circle
   cx="477.677"
   cy="71.903"
   r="8.514"
   id="circle1223" />
</svg>
