<?xml version="1.0" encoding="UTF-8" standalone="no"?>
<!-- made with Inkscape by computerguy096  -->

<svg
   version="1.1"
   id="Capa_1"
   x="0px"
   y="0px"
   viewBox="0 0 250.6049 232.06598"
   xml:space="preserve"
   width="250.6049"
   height="232.06598"
   sodipodi:docname="driver_mediatype.svg"
   inkscape:version="1.2 (dc2aedaf03, 2022-05-15)"
   xmlns:inkscape="http://www.inkscape.org/namespaces/inkscape"
   xmlns:sodipodi="http://sodipodi.sourceforge.net/DTD/sodipodi-0.dtd"
   xmlns="http://www.w3.org/2000/svg"
   xmlns:svg="http://www.w3.org/2000/svg"><defs
   id="defs13">	
</defs><sodipodi:namedview
   id="namedview11"
   pagecolor="#ffffff"
   bordercolor="#666666"
   borderopacity="1.0"
   inkscape:pageshadow="2"
   inkscape:pageopacity="0.0"
   inkscape:pagecheckerboard="0"
   showgrid="false"
   inkscape:zoom="2.8284271"
   inkscape:cx="79.372737"
   inkscape:cy="105.18213"
   inkscape:window-width="2560"
   inkscape:window-height="1361"
   inkscape:window-x="2391"
   inkscape:window-y="-9"
   inkscape:window-maximized="1"
   inkscape:current-layer="Capa_1"
   inkscape:snap-nodes="false"
   inkscape:showpageshadow="2"
   inkscape:deskcolor="#d1d1d1" />
<g
   id="g824"
   transform="translate(3.2677418,1.0022782)"><path
     style="fill:none;stroke:#000000;stroke-width:0.862046px;stroke-linecap:butt;stroke-linejoin:miter;stroke-opacity:1"
     d="m 0,80 125,50 v 40 L 0,120 Z"
     id="path1347" /><path
     style="fill:none;stroke:#000000;stroke-width:0.898438px;stroke-linecap:butt;stroke-linejoin:miter;stroke-opacity:1"
     d="M 0,80 100,20 225,70 125,130 v 40 L 225,110 V 70"
     id="path967" /></g><path
   style="fill:#e6e6e6;stroke-width:0.276442"
   d="M 65.674595,145.3331 3.8206268,120.59197 v -19.29604 c 0,-10.61283 0.06207,-19.29605 0.137947,-19.29605 0.280886,0 123.3012462,49.25912 123.5027762,49.45228 0.11507,0.1103 0.17727,8.84539 0.13822,19.41131 l -0.071,19.21076 z"
   id="path906" /><path
   style="fill:#b3b3b3;stroke-width:0.276442"
   d="M 66.507997,105.66276 C 32.642599,92.11602 4.9327118,80.97007 4.9304698,80.89399 4.9282698,80.81789 27.075639,67.46613 54.146937,51.223368 l 49.220543,-29.53229 61.7577,24.703127 61.75771,24.703125 -48.8113,29.29442 c -26.84621,16.11194 -49.07653,29.43101 -49.40072,29.59793 -0.50296,0.25898 -9.62201,-3.30969 -62.162873,-24.32692 z"
   id="path945" /><path
   style="fill:#cccccc;stroke-width:0.276442"
   d="m 128.78193,150.63551 0.009,-19.29068 48.40995,-29.02645 c 26.62547,-15.96454 48.88868,-29.31339 49.47379,-29.6641 l 1.06385,-0.63767 v 19.29798 19.29798 L 178.91389,139.915 c -26.85356,16.11634 -49.12098,29.4619 -49.48318,29.65681 l -0.65853,0.35438 z"
   id="path984" /><path
   style="fill:#ff0000;fill-opacity:1;stroke:#000000;stroke-width:0.898438px;stroke-linecap:butt;stroke-linejoin:miter;stroke-opacity:1"
   d="m 20.405149,117.32175 4.888752,2.1161 -0.144781,-14.14876 -4.721415,-1.96628 z"
   id="path17632" /><path
   style="fill:#ff0000;fill-opacity:1;stroke:#000000;stroke-width:0.898438px;stroke-linecap:butt;stroke-linejoin:miter;stroke-opacity:1"
   d="m 33.675356,122.48107 4.888752,2.1161 -0.144781,-14.14876 -4.721415,-1.96628 z"
   id="path17632-6" /><path
   style="fill:#ff0000;fill-opacity:1;stroke:#000000;stroke-width:0.898438px;stroke-linecap:butt;stroke-linejoin:miter;stroke-opacity:1"
   d="m 47.492941,127.88105 4.888752,2.1161 -0.144781,-14.14876 -4.721415,-1.96628 z"
   id="path17632-1" /><path
   style="fill:#ff0000;fill-opacity:1;stroke:#000000;stroke-width:0.898438px;stroke-linecap:butt;stroke-linejoin:miter;stroke-opacity:1"
   d="m 60.834057,132.96337 4.888752,2.1161 -0.144781,-14.14876 -4.721415,-1.96628 z"
   id="path17632-2" /><path
   style="fill:#00fd00;fill-opacity:1;stroke:#000000;stroke-width:0.898438px;stroke-linecap:butt;stroke-linejoin:miter;stroke-opacity:1"
   d="m 73.381059,138.04571 4.88875,2.1161 -0.14478,-14.14876 -4.721414,-1.96628 z"
   id="path17632-19" /><path
   style="fill:#36934f;fill-opacity:1;stroke:#36934f;stroke-width:0.1816;stroke-linecap:butt;stroke-linejoin:miter;stroke-miterlimit:4;stroke-dasharray:none;stroke-opacity:1"
   d="M 32.546618,42.169109 113.16741,0.10295216 196.48874,45.712316 l -8.41256,5.648214 3.36694,2.066786 -7.91989,6.113724 -3.84848,-2.453676 -0.77361,0.589819 3.83685,2.381699 -37.36941,27.535148 -5.63204,-3.16316 -18.75085,13.92227 z"
   id="path2065"
   sodipodi:nodetypes="ccccccccccccc" /><path
   style="fill:#fff500;fill-opacity:1;stroke:#000000;stroke-width:1.48195px;stroke-linecap:butt;stroke-linejoin:miter;stroke-opacity:1"
   d="m 87.933199,44.589857 4.40287,-2.262196 10.789541,6.2328 -3.876771,2.363767 z"
   id="path13468-7-4" /><path
   style="fill:#f5e3bf;fill-opacity:1;stroke-width:0.00493885;stroke-miterlimit:4;stroke-dasharray:none"
   d="m 142.12652,85.88355 c -1.17929,-0.67002 -2.08758,-1.15373 -2.08263,-1.17209 0.007,-0.0233 38.51198,-26.773416 39.04322,-27.008825 0.041,-0.01819 3.75811,2.280897 3.81454,2.358136 0.0192,0.02643 -37.4496,27.640709 -37.51603,27.637389 -0.0319,-0.002 -2.14972,-1.18431 -3.2591,-1.81461 z"
   id="path1056"
   sodipodi:nodetypes="scsccs" /><path
   style="fill:#f5e3bf;fill-opacity:1;stroke-width:0.00493885;stroke-miterlimit:4;stroke-dasharray:none"
   d="m 182.07681,58.732598 c -0.52874,-0.332351 -0.96696,-0.614205 -1.34257,-0.850394 l -1.0113,-0.660966 0.11044,-0.07355 c 0.0665,-0.0443 2.75769,-1.857921 3.69233,-2.531778 2.65002,-1.910592 4.57868,-3.206601 4.71368,-3.25295 0.10729,0.07158 1.23532,0.706785 2.1166,1.268784 0.97102,0.621799 1.24999,0.765038 1.24669,0.794799 -0.0693,0.01687 0.78989,-0.579427 -4.3363,3.35051 -2.95631,2.266418 -3.69255,2.879419 -3.73655,2.874734 -0.0162,-0.0014 -0.45759,-0.294244 -1.0075,-0.637794 z"
   id="path1132"
   sodipodi:nodetypes="cscsscccsccc" /><path
   style="fill:#fff500;fill-opacity:1;stroke:#000000;stroke-width:1.48195px;stroke-linecap:butt;stroke-linejoin:miter;stroke-opacity:1"
   d="m 75.634413,49.822654 4.402866,-2.262195 10.78954,6.2328 -3.87678,2.363766 z"
   id="path13468-7" /><path
   style="fill:#008000;stroke:#008000;stroke-width:1.20859px;stroke-linecap:butt;stroke-linejoin:miter;stroke-opacity:1"
   d="M 114.05385,51.174628 141.53277,66.13897 162.33664,55.377869 136.19984,40.334163 Z"
   id="path9562" /><path
   style="fill:#193332;fill-opacity:1;stroke:#193332;stroke-width:1.33949px;stroke-linecap:butt;stroke-linejoin:miter;stroke-opacity:1"
   d="m 120.67283,50.232611 13.42474,-6.189899 4.8841,0.177449 16.80398,9.409639 -0.51854,2.972192 -9.86396,5.762778 -5.16378,-0.0485 -17.17236,-8.936113 z"
   id="path9667" /><path
   style="fill:#ff0000;stroke:#000000;stroke-width:1.43765px;stroke-linecap:butt;stroke-linejoin:miter;stroke-opacity:1"
   d="m 59.80938,40.427085 4.269809,-2.195722 10.462673,6.048033 -3.759654,2.294257 z"
   id="path13468" /><path
   style="fill:#ff0000;stroke:#000000;stroke-width:1.43765px;stroke-linecap:butt;stroke-linejoin:miter;stroke-opacity:1"
   d="m 72.790083,35.243487 4.269811,-2.195722 10.462665,6.048033 -3.759645,2.294257 z"
   id="path13468-9" /><path
   style="fill:#fff500;fill-opacity:1;stroke:#000000;stroke-width:1.48195px;stroke-linecap:butt;stroke-linejoin:miter;stroke-opacity:1"
   d="m 106.56359,25.567053 4.40287,-2.262196 10.78954,6.2328 -3.87678,2.363767 z"
   id="path13468-7-3" /><path
   style="fill:#fff500;fill-opacity:1;stroke:#000000;stroke-width:1.48195px;stroke-linecap:butt;stroke-linejoin:miter;stroke-opacity:1"
   d="m 120.00052,19.383838 4.40286,-2.262195 10.78955,6.2328 -3.87678,2.363766 z"
   id="path13468-7-3-7" /><g
   id="g354"
   transform="matrix(0.99121726,-0.13166622,0.13358344,1.0448143,-28.561411,-29.730538)"><path
     style="fill:none;stroke:#000000;stroke-width:0.907999px;stroke-linecap:butt;stroke-linejoin:miter;stroke-opacity:1"
     d="m 37.495721,83.300508 96.018979,63.853332 4.99442,-0.66756 c 10.18539,4.71512 7.36779,5.80086 13.35806,-1.56976 l -5.72843,-4.55258 -1.19978,-5.11203 L 40.555499,68.159618 37.86692,69.299186 33.056298,65.721828 20.22802,69.882885 18.828264,77.739552 c 3.831968,-1.299723 4.570223,-1.725904 3.436072,1.551027 l -3.721999,1.094655 c -0.416859,6.273167 -2.155553,6.273287 4.791778,3.794365 l 0.890792,-4.500197 2.986882,-0.736793 c -0.58219,5.549384 -1.686128,5.482353 5.024362,2.546415 l 1.017239,2.226042 z"
     id="path1761"
     sodipodi:nodetypes="ccccccccccccccccccc" /><path
     style="fill:#cccccc;stroke-width:0.227456;stroke-linejoin:round;paint-order:fill markers stroke"
     d="m 44.557746,87.330806 -6.858721,-4.580676 -2.023006,0.192157 c -1.112653,0.105687 -2.037686,0.174165 -2.055629,0.152174 -0.01795,-0.02199 -0.238185,-0.550642 -0.489428,-1.174784 -0.251242,-0.624141 -0.503318,-1.139252 -0.560167,-1.144691 -0.05685,-0.0054 -1.154699,0.450658 -2.439666,1.013548 -1.284967,0.562891 -2.449999,1.01256 -2.588961,0.999265 -0.165101,-0.0158 -0.125319,-0.804218 0.114799,-2.275124 0.2021,-1.238023 0.305146,-2.256912 0.228981,-2.264199 -0.07615,-0.0073 -1.046283,0.212611 -2.155835,0.488659 l -2.017365,0.501908 -0.466327,2.260689 c -0.256481,1.243378 -0.523756,2.294184 -0.593944,2.335124 -0.269401,0.157136 -3.559652,1.261956 -3.714184,1.247171 -0.08953,-0.0086 -0.07221,-0.989263 0.03849,-2.179328 l 0.201273,-2.163754 1.778733,-0.471719 c 1.949259,-0.516942 2.084731,-0.659834 2.249734,-2.372939 0.154173,-1.600165 -0.4842,-1.956558 -2.416914,-1.349406 -0.577288,0.181351 -1.071894,0.297694 -1.099126,0.258538 -0.156935,-0.225655 1.138436,-6.586187 1.349437,-6.626009 0.140384,-0.0265 2.877474,-0.900822 6.082423,-1.942949 l 5.827181,-1.894779 2.187276,1.637605 c 1.203,0.900682 2.337244,1.701461 2.520542,1.779507 0.183297,0.07805 0.862312,-0.09608 1.508924,-0.386945 0.646611,-0.290868 1.236492,-0.52303 1.310848,-0.515916 0.188106,0.018 28.088886,17.727271 28.440197,18.055707 0.219649,0.205345 -2.019266,0.958153 -7.863869,3.197855 -4.172405,1.598902 -7.617612,3.113291 -7.771068,3.122001 -0.153455,0.0087 -4.952336,-3.379319 -8.724632,-5.89869 z"
     id="path1256"
     sodipodi:nodetypes="scssssssssscsssscscsssscssssssss" /><path
     style="fill:#cccccc;stroke-width:0.227456;stroke-linejoin:round;paint-order:fill markers stroke"
     d="m 144.01779,148.59844 c -1.07998,-0.55621 -2.74204,-1.38098 -3.69345,-1.83282 l -1.72986,-0.82153 -2.45029,0.32486 -2.45029,0.32486 -40.074226,-26.63488 C 71.578845,105.30975 53.252068,93.28013 53.093909,93.134486 c -0.221286,-0.203774 1.648696,-1.023976 7.566058,-3.307504 5.06352,-1.954027 8.03304,-3.000191 8.293721,-2.889196 0.217733,0.09271 17.115593,11.138469 37.805252,24.435764 l 37.5523,23.95931 0.64643,2.75604 0.58118,2.53846 2.76052,2.18079 2.76054,2.1808 -1.16178,1.45499 c -2.09026,2.61781 -2.77807,3.27473 -3.36941,3.21815 -0.30103,-0.0288 -1.43094,-0.50744 -2.51093,-1.06365 z"
     id="path1258"
     sodipodi:nodetypes="sscccssssscccccsss" /></g><g
   id="g1752"
   transform="matrix(2.5720499,0,0,2.5720499,123.28844,88.03118)">
	<path
   style="fill:#e9e9e0"
   d="M 36.985,0 H 7.963 C 7.155,0 6.5,0.655 6.5,1.926 V 55 c 0,0.345 0.655,1 1.463,1 H 48.037 C 48.845,56 49.5,55.345 49.5,55 V 12.978 c 0,-0.696 -0.093,-0.92 -0.257,-1.085 L 37.607,0.257 C 37.442,0.093 37.218,0 36.985,0 Z"
   id="path1730" />
	<polygon
   style="fill:#d9d7ca"
   points="37.5,12 49.349,12 37.5,0.151 "
   id="polygon1732" />
	<path
   style="fill:#9777a8"
   d="M 48.037,56 H 7.963 C 7.155,56 6.5,55.345 6.5,54.537 V 39 h 43 V 54.537 C 49.5,55.345 48.845,56 48.037,56 Z"
   id="path1734" />
	<g
   id="g1742">
		<path
   style="fill:#ffffff"
   d="m 17.082,44.168 v 3.172 h 4.211 v 1.121 h -4.211 v 3.295 h 4.635 V 53 H 15.414 V 42.924 h 6.303 v 1.244 z"
   id="path1736" />
		<path
   style="fill:#ffffff"
   d="M 28.58,48.105 31.137,53 h -1.9 l -1.6,-3.801 H 27.5 L 25.777,53 h -1.9 l 2.557,-4.895 -2.721,-5.182 h 1.873 l 1.777,4.102 H 27.5 l 1.928,-4.102 h 1.873 z"
   id="path1738" />
		<path
   style="fill:#ffffff"
   d="m 35.266,44.168 v 3.172 h 4.211 v 1.121 h -4.211 v 3.295 H 39.9 V 53 H 33.597 V 42.924 H 39.9 v 1.244 z"
   id="path1740" />
	</g>
	<path
   style="fill:#9777a8"
   d="m 33.5,32 c -0.099,0 -0.2,-0.015 -0.299,-0.046 -0.527,-0.165 -0.821,-0.726 -0.656,-1.253 l 5,-16 c 0.165,-0.527 0.726,-0.821 1.253,-0.656 0.527,0.165 0.821,0.726 0.656,1.253 l -5,16 C 34.321,31.726 33.926,32 33.5,32 Z"
   id="path1744" />
	<circle
   style="fill:#9777a8"
   cx="29"
   cy="19.5"
   r="1.5"
   id="circle1746" />
	<circle
   style="fill:#9777a8"
   cx="29"
   cy="26.5"
   r="1.5"
   id="circle1748" />
	<path
   style="fill:#9777a8"
   d="m 23.5,30 h -2 c -3.86,0 -7,-3.14 -7,-7 0,-3.86 3.14,-7 7,-7 h 2 c 0.552,0 1,0.448 1,1 0,0.552 -0.448,1 -1,1 h -2 c -2.757,0 -5,2.243 -5,5 0,2.757 2.243,5 5,5 h 2 c 0.552,0 1,0.448 1,1 0,0.552 -0.448,1 -1,1 z"
   id="path1750" />
</g><g
   id="g1754"
   transform="translate(164.68891,111.3657)">
</g><g
   id="g1756"
   transform="translate(164.68891,111.3657)">
</g><g
   id="g1758"
   transform="translate(164.68891,111.3657)">
</g><g
   id="g1760"
   transform="translate(164.68891,111.3657)">
</g><g
   id="g1762"
   transform="translate(164.68891,111.3657)">
</g><g
   id="g1764"
   transform="translate(164.68891,111.3657)">
</g><g
   id="g1766"
   transform="translate(164.68891,111.3657)">
</g><g
   id="g1768"
   transform="translate(164.68891,111.3657)">
</g><g
   id="g1770"
   transform="translate(164.68891,111.3657)">
</g><g
   id="g1772"
   transform="translate(164.68891,111.3657)">
</g><g
   id="g1774"
   transform="translate(164.68891,111.3657)">
</g><g
   id="g1776"
   transform="translate(164.68891,111.3657)">
</g><g
   id="g1778"
   transform="translate(164.68891,111.3657)">
</g><g
   id="g1780"
   transform="translate(164.68891,111.3657)">
</g><g
   id="g1782"
   transform="translate(164.68891,111.3657)">
</g></svg>
