<?xml version="1.0" encoding="iso-8859-1"?>
<!-- Uploaded to: SVG Repo, www.svgrepo.com, Generator: SVG Repo Mixer Tools -->
<svg height="800px" width="800px" version="1.1" id="Layer_1" xmlns="http://www.w3.org/2000/svg" xmlns:xlink="http://www.w3.org/1999/xlink" 
	 viewBox="0 0 512 512" xml:space="preserve">
<path style="fill:#52A2E7;" d="M256,0c-23.543,0-45.969,4.756-67.995,9.128c-35.915,7.129-79.631,37.698-79.631,37.698
	C42.809,93.184,0,169.593,0,256c0,141.385,114.615,256,256,256s256-114.615,256-256S397.385,0,256,0z M258.847,302.492
	c-25.676,0-46.492-20.815-46.492-46.492c0-25.676,20.815-46.492,46.492-46.492s46.492,20.815,46.492,46.492
	C305.338,281.676,284.524,302.492,258.847,302.492z"/>
<g style="opacity:0.22;">
	<path style="fill:#3C66B1;" d="M403.355,46.828c29.493,41.717,46.828,92.64,46.828,147.615c0,141.385-114.615,256-256,256
		c-54.975,0-105.898-17.335-147.615-46.828C92.926,469.184,169.331,512,255.741,512c141.385,0,256-114.615,256-256
		C511.741,169.59,468.924,93.186,403.355,46.828z"/>
</g>
<path style="opacity:0.47;fill:#FFFFFF;enable-background:new    ;" d="M494.242,162.129l-166.589,24.827l-154.206,22.981
	L5.479,234.969l-4.706,0.984C0.261,242.569,0,249.253,0,256c0,29.739,5.089,58.284,14.412,84.836l3.171-1.015l164.88-24.572
	l169.063-25.196l155.347-23.152h4.879C511.905,263.286,512,259.654,512,256C512,222.862,505.703,191.194,494.242,162.129z"/>
<g style="opacity:0.47;">
	<path style="fill:#FFFFFF;" d="M98.804,116.791c-1.895,0-3.796-0.683-5.302-2.068c-3.186-2.929-3.395-7.887-0.466-11.073
		c20.883-22.718,45.691-40.616,73.732-53.196c29.03-13.024,60.01-19.627,92.077-19.627c4.329,0,7.837,3.509,7.837,7.837
		s-3.508,7.837-7.837,7.837c-58.457,0-114.686,24.696-154.271,67.757C103.031,115.94,100.921,116.791,98.804,116.791z"/>
</g>
<g>
	<path style="fill:#3C66B1;" d="M258.847,161.329c-52.286,0-94.671,42.385-94.671,94.671c0,52.285,42.385,94.671,94.671,94.671
		s94.671-42.385,94.671-94.671C353.517,203.714,311.132,161.329,258.847,161.329z M258.847,302.492
		c-25.676,0-46.492-20.815-46.492-46.492c0-25.676,20.815-46.492,46.492-46.492s46.492,20.815,46.492,46.492
		C305.338,281.676,284.524,302.492,258.847,302.492z"/>
	<path style="fill:#3C66B1;" d="M191.665,379.187c14.692,0,26.157,6.901,26.157,25.489v30.386c0,18.588-11.465,25.489-26.157,25.489
		h-19.701c-3.785,0-6.345-2.114-6.345-4.452v-72.46c0-2.337,2.56-4.452,6.345-4.452L191.665,379.187L191.665,379.187z
		 M180.089,391.876v55.986h11.575c7.346,0,11.687-4.118,11.687-12.8v-30.386c0-8.682-4.341-12.8-11.687-12.8H180.089z"/>
	<path style="fill:#3C66B1;" d="M224.723,386.31c-0.111-0.445-0.223-0.891-0.223-1.113c0-3.561,5.232-6.01,9.127-6.01
		c2.449,0,4.341,0.778,4.897,2.894l17.03,60.326l16.918-60.326c0.557-2.115,2.448-2.894,4.897-2.894c3.895,0,9.126,2.56,9.126,6.01
		c0,0.333-0.111,0.669-0.223,1.113l-21.37,70.01c-1.002,3.338-5.12,4.897-9.35,4.897s-8.237-1.558-9.35-4.897L224.723,386.31z"/>
	<path style="fill:#3C66B1;" d="M320.225,379.187c14.692,0,26.157,6.901,26.157,25.489v30.386c0,18.588-11.465,25.489-26.157,25.489
		h-19.702c-3.785,0-6.345-2.114-6.345-4.452v-72.46c0-2.337,2.56-4.452,6.345-4.452L320.225,379.187L320.225,379.187z
		 M308.649,391.876v55.986h11.575c7.346,0,11.687-4.118,11.687-12.8v-30.386c0-8.682-4.34-12.8-11.687-12.8H308.649z"/>
</g>
</svg>