<?xml version="1.0" encoding="UTF-8" standalone="no"?>
<!-- made with Inkscape by computerguy096  -->

<svg
   version="1.1"
   id="Capa_1"
   x="0px"
   y="0px"
   viewBox="0 0 226.43872 226.607"
   xml:space="preserve"
   width="226.43872"
   height="226.60699"
   sodipodi:docname="floppy_drive.svg"
   inkscape:version="1.2 (dc2aedaf03, 2022-05-15)"
   xmlns:inkscape="http://www.inkscape.org/namespaces/inkscape"
   xmlns:sodipodi="http://sodipodi.sourceforge.net/DTD/sodipodi-0.dtd"
   xmlns="http://www.w3.org/2000/svg"
   xmlns:svg="http://www.w3.org/2000/svg"><defs
   id="defs13">	
</defs><sodipodi:namedview
   id="namedview11"
   pagecolor="#ffffff"
   bordercolor="#666666"
   borderopacity="1.0"
   inkscape:pageshadow="2"
   inkscape:pageopacity="0.0"
   inkscape:pagecheckerboard="0"
   showgrid="false"
   inkscape:zoom="2.8284271"
   inkscape:cx="-54.270446"
   inkscape:cy="121.44559"
   inkscape:window-width="2560"
   inkscape:window-height="1361"
   inkscape:window-x="2391"
   inkscape:window-y="-9"
   inkscape:window-maximized="1"
   inkscape:current-layer="Capa_1"
   inkscape:snap-nodes="false"
   inkscape:showpageshadow="2"
   inkscape:deskcolor="#d1d1d1" />
<g
   id="g3399"
   transform="translate(-14.50167,-2.95363)"><g
     id="g824"
     transform="translate(14.932693,38.766828)"><path
       style="fill:none;stroke:#000000;stroke-width:0.862046px;stroke-linecap:butt;stroke-linejoin:miter;stroke-opacity:1"
       d="m 0,80 125,50 v 40 L 0,120 Z"
       id="path1347" /><path
       style="fill:none;stroke:#000000;stroke-width:0.898438px;stroke-linecap:butt;stroke-linejoin:miter;stroke-opacity:1"
       d="M 0,80 100,20 225,70 125,130 v 40 L 225,110 V 70"
       id="path967" /></g><path
     style="fill:#e6e6e6;stroke-width:0.276442"
     d="M 77.339546,183.09765 15.485578,158.35652 v -19.29604 c 0,-10.61283 0.06207,-19.29605 0.137947,-19.29605 0.280886,0 123.301245,49.25912 123.502775,49.45228 0.11507,0.1103 0.17727,8.84539 0.13822,19.41131 l -0.071,19.21076 z"
     id="path906" /><path
     style="fill:#b3b3b3;stroke-width:0.276442"
     d="M 78.172948,143.42731 C 44.30755,129.88057 16.597663,118.73462 16.595421,118.65854 c -0.0022,-0.0761 22.145169,-13.42786 49.216467,-29.670622 l 49.220542,-29.53229 61.7577,24.703127 61.75771,24.703125 -48.8113,29.29442 c -26.84621,16.11194 -49.07653,29.43101 -49.40072,29.59793 -0.50296,0.25898 -9.62201,-3.30969 -62.162872,-24.32692 z"
     id="path945" /><path
     style="fill:#cccccc;stroke-width:0.276442"
     d="m 140.44688,188.40006 0.009,-19.29068 48.40995,-29.02645 c 26.62547,-15.96454 48.88868,-29.31339 49.47379,-29.6641 l 1.06385,-0.63767 v 19.29798 19.29798 l -48.82463,29.30243 c -26.85356,16.11634 -49.12098,29.4619 -49.48318,29.65681 l -0.65853,0.35438 z"
     id="path984" /><path
     style="fill:#00fd00;fill-opacity:1;stroke:#000000;stroke-width:0.61762px;stroke-linecap:butt;stroke-linejoin:miter;stroke-opacity:1"
     d="m 126.63158,198.26282 4.10283,1.19157 -0.12148,-7.96708 -3.96238,-1.10718 z"
     id="path17632-19" /><path
     style="fill:#00fd00;fill-opacity:0;stroke:#000000;stroke-width:0.762;stroke-linejoin:round;stroke-dasharray:none;stroke-opacity:1;paint-order:fill markers stroke"
     d="m 29.25,141.75 89.875,36.375 -0.125,7.25 -89.75,-37.25 z"
     id="path2652" /></g><g
   id="g5452"
   transform="matrix(0.25422331,0,0,0.25422331,52.551489,11.639922)"><polygon
     style="fill:#515262"
     points="21.943,502.248 488.838,502.248 488.838,44.314 442.222,8.533 391.619,8.533 240.457,170.667 138.459,8.533 21.943,8.533 "
     id="polygon5291" /><rect
     x="138.606"
     y="8.8380003"
     style="fill:#dce5fa"
     width="253.39101"
     height="161.573"
     id="rect5293" /><rect
     x="284.03799"
     y="40.229"
     style="fill:#b4bbcc"
     width="69.486"
     height="98.742996"
     id="rect5295" /><path
     style="fill:#ffffff"
     d="m 437.638,232.253 c 0,-10.45 -8.471,-18.92 -18.92,-18.92 H 103.034 c -10.448,0 -18.92,8.471 -18.92,18.92 V 441.88 c 0,10.45 8.471,18.92 18.92,18.92 h 315.685 c 10.45,0 18.92,-8.471 18.92,-18.92 V 232.253 Z"
     id="path5297" /><g
     style="opacity:0.1"
     id="g5301">
	<rect
   x="23.01"
   y="9.448"
   width="79.237999"
   height="493.71399"
   id="rect5299" />
</g><path
     d="m 354.133,148.724 c 5.051,0 9.143,-4.094 9.143,-9.143 V 40.838 c 0,-5.049 -4.092,-9.143 -9.143,-9.143 h -69.486 c -5.051,0 -9.143,4.094 -9.143,9.143 v 98.743 c 0,5.049 4.092,9.143 9.143,9.143 z M 293.79,49.981 h 51.2 v 80.457 h -51.2 z"
     id="path5303" /><path
     d="m 103.645,204.8 c -15.475,0 -28.064,12.589 -28.064,28.064 V 442.49 c 0,15.473 12.589,28.063 28.064,28.063 h 315.683 c 15.473,0 28.062,-12.589 28.062,-28.064 V 232.864 c 0,-15.475 -12.589,-28.064 -28.064,-28.064 z m 325.46,28.064 V 442.49 c 0,5.391 -4.386,9.778 -9.778,9.778 H 103.645 c -5.392,0 -9.778,-4.386 -9.778,-9.778 V 232.864 c 0,-5.391 4.386,-9.778 9.778,-9.778 h 315.683 c 5.391,0 9.777,4.386 9.777,9.778 z"
     id="path5305" /><path
     d="M 401.067,256 H 121.905 c -5.051,0 -9.143,4.094 -9.143,9.143 0,5.049 4.092,9.143 9.143,9.143 h 279.162 c 5.051,0 9.143,-4.094 9.143,-9.143 0,-5.049 -4.093,-9.143 -9.143,-9.143 z"
     id="path5307" /><path
     d="M 401.067,299.886 H 121.905 c -5.051,0 -9.143,4.094 -9.143,9.143 0,5.049 4.092,9.143 9.143,9.143 h 279.162 c 5.051,0 9.143,-4.094 9.143,-9.143 0,-5.05 -4.093,-9.143 -9.143,-9.143 z"
     id="path5309" /><path
     d="M 401.067,343.771 H 121.905 c -5.051,0 -9.143,4.094 -9.143,9.143 0,5.049 4.092,9.143 9.143,9.143 h 279.162 c 5.051,0 9.143,-4.094 9.143,-9.143 0,-5.049 -4.093,-9.143 -9.143,-9.143 z"
     id="path5311" /><path
     d="m 489.448,406.682 c 5.051,0 9.143,-4.094 9.143,-9.143 V 45.035 c 0,-2.887 -1.363,-5.604 -3.678,-7.33 L 446.773,1.813 C 445.193,0.636 443.276,0 441.307,0 H 92.315 c -5.051,0 -9.143,4.094 -9.143,9.143 0,5.049 4.092,9.143 9.143,9.143 H 128 v 152.99 c 0,5.049 4.092,9.143 9.143,9.143 h 41.894 c 5.051,0 9.143,-4.094 9.143,-9.143 0,-0.095 -0.011,-0.187 -0.015,-0.28 0.002,-0.094 0.015,-0.187 0.015,-0.28 0,-5.049 -4.092,-9.143 -9.143,-9.143 H 146.688 V 18.286 H 381.562 V 161.573 H 215.608 c -5.051,0 -9.143,4.094 -9.143,9.143 0,0.095 0.011,0.187 0.015,0.28 -0.002,0.094 -0.015,0.187 -0.015,0.28 0,5.049 4.092,9.143 9.143,9.143 h 175.097 c 3.919,0 7.252,-2.47 8.553,-5.934 0.522,-1.151 0.819,-2.423 0.819,-3.769 V 18.286 h 38.196 l 42.032,31.338 v 347.915 c 0,5.049 4.092,9.143 9.143,9.143 z"
     id="path5313" /><path
     d="m 22.552,512 h 466.895 c 5.051,0 9.143,-4.094 9.143,-9.143 V 434.11 c 0,-5.049 -4.092,-9.143 -9.143,-9.143 -5.051,0 -9.143,4.094 -9.143,9.143 v 59.604 H 31.695 V 18.286 h 24.048 c 5.051,0 9.143,-4.094 9.143,-9.143 C 64.886,4.094 60.793,0 55.743,0 H 22.552 c -5.051,0 -9.143,4.094 -9.143,9.143 v 493.714 c 10e-4,5.049 4.093,9.143 9.143,9.143 z"
     id="path5315" /></g></svg>
