<svg xmlns="http://www.w3.org/2000/svg" xmlns:xlink="http://www.w3.org/1999/xlink" viewBox="0 0 602.95 566.67" xmlns:v="https://vecta.io/nano"><style><![CDATA[.B{stroke-linejoin:round}.C{stroke:#e6e6e6}.D{fill:#f2f0f1}.E{fill:#fff}.F{fill:gray}.G{fill:#b6adb2}.H{stroke-width:.183}.I{stroke:#000}.J{stroke-width:.2}.K{opacity:.5}.L{fill:#4d4d4d}.M{fill:#676266}.N{fill:#43464d}.O{color-interpolation-filters:sRGB}.P{fill:#848081}.Q{stroke-width:1.383}.R{stroke-width:.907}.S{stroke-linecap:round}.T{stroke-width:16.59}]]></style><defs><filter id="A" width="2.109" y="-.626" x="-.555" height="2.252" class="O"><feGaussianBlur stdDeviation="83.598"/></filter><filter id="B" width="1.804" y="-.464" x="-.402" height="1.928" class="O"><feGaussianBlur stdDeviation="83.598"/></filter><filter id="C" width="1.216" y="-.027" x="-.108" height="1.054" class="O"><feGaussianBlur stdDeviation="2.542"/></filter><radialGradient id="D" gradientUnits="userSpaceOnUse" cy="388.79" cx="407.71" gradientTransform="matrix(1.7865,-6.1023e-8,4.5384e-8,0.7568,-320.68,94.554)" r="511.99"><stop stop-color="#fff" offset="0"/><stop stop-color="#d5d5d5" offset="1"/></radialGradient><radialGradient id="E" gradientUnits="userSpaceOnUse" cy="355.86" cx="241.43" gradientTransform="matrix(1,0,0,0.93307,0,23.818)" r="128.29"><stop stop-color="#a4a4a4" offset="0"/><stop stop-color="#7e7a6d" offset="1"/></radialGradient><radialGradient id="F" gradientUnits="userSpaceOnUse" cy="355.86" cx="241.43" gradientTransform="matrix(1,0,0,0.93307,0,23.818)" r="128.29"><stop stop-color="#fff" offset="0"/><stop stop-color="#dcdcd9" offset="1"/></radialGradient><radialGradient id="G" gradientTransform="matrix(1,0,0,0.9864,0,3.2551)" gradientUnits="userSpaceOnUse" cy="239.28" cx="-541.81" r="8.916"><stop stop-color="#e2e7e4" offset="0"/><stop stop-color="#737373" offset="1"/></radialGradient><clipPath id="H"><path transform="matrix(-.567486 -.823383 -.8118 .583936 0 0)" d="M-251.366-232.835h146.848v111.275h-146.848z" fill="#000" stroke-width=".71"/></clipPath><path id="I" d="M-1343.999 1082.424c0 10.549-10.22 19.1-22.827 19.1s-22.827-8.551-22.827-19.1 10.22-19.1 22.827-19.1 22.827 8.551 22.827 19.1z"/><path id="J" d="M-537.5 248.08l-4.686-3.48-4.749 3.394.671-5.798-5.314-2.416 5.357-2.318-.565-5.81 4.686 3.48 4.749-3.394-.671 5.798 5.314 2.416-5.357 2.318.565 5.81z"/><path id="K" d="M-1402.14 715.604c0 178.902-177.103 323.929-395.563 323.929-218.468 0-395.563-145.028-395.563-323.929s177.103-323.929 395.563-323.929c218.468 0 395.563 145.028 395.563 323.929z"/><path id="L" d="M-1664.211 654.608c0 60.391-59.809 109.346-133.588 109.346s-133.588-48.957-133.588-109.346 59.809-109.346 133.588-109.346 133.588 48.957 133.588 109.346z"/><path id="M" d="M-1420.6 649.79s26.91 25.192 51.429 28.214c24.166 2.979 28.4-8.728 41.428-6.786s12.862 4.099 21.429 14.286 3.043 15.146-3.571 20.714-24.67 16.569-53.571 17.857c-29.258 1.304-58.572-8.571-58.572-8.571l1.429-65.714z"/><path id="N" d="M369.72 355.86c0 66.11-57.437 119.7-128.29 119.7s-128.29-53.593-128.29-119.7 57.437-119.7 128.29-119.7 128.29 53.593 128.29 119.7z"/><path id="O" d="M-1827.54 574.74c0 8.087-7.835 14.643-17.5 14.643s-17.5-6.556-17.5-14.643 7.835-14.643 17.5-14.643 17.5 6.556 17.5 14.643z"/><path id="P" d="M-1843.012 577.774l-3.003-3.711-3.683 3.917 2.046-4.864-4.871-.848 5.049-1.154-1.188-4.765 3.003 3.711 3.683-3.917-2.046 4.864 4.871.848-5.049 1.154 1.188 4.765z"/><path id="Q" d="M-1458.292 1226.102c0 12.19-11.81 22.071-26.378 22.071s-26.378-9.882-26.378-22.071 11.81-22.071 26.378-22.071 26.378 9.882 26.378 22.071z"/><path id="R" d="M-1725.614 1142.709c0 4.144-3.699 7.503-8.263 7.503s-8.263-3.359-8.263-7.503 3.699-7.503 8.263-7.503 8.263 3.359 8.263 7.503z"/><path id="S" d="M-1278.718 860.41c0 10.61-10.28 19.212-22.96 19.212s-22.96-8.601-22.96-19.212 10.28-19.212 22.96-19.212 22.96 8.601 22.96 19.212z"/><path id="T" d="M-1321.581 652.148c0 7.565-7.329 13.698-16.371 13.698s-16.371-6.133-16.371-13.698 7.329-13.698 16.371-13.698 16.371 6.133 16.371 13.698z"/><path id="U" d="M-2228.011 688.001c0 7.39-7.159 13.38-15.991 13.38s-15.991-5.99-15.991-13.38 7.159-13.38 15.991-13.38 15.991 5.99 15.991 13.38z"/><path id="V" d="M-2322.904 587.055c0 4.019-4.777 7.277-10.67 7.277s-10.67-3.258-10.67-7.277 4.777-7.277 10.67-7.277 10.67 3.258 10.67 7.277z"/><path id="W" d="M-2324.604 587.824c0 3.111-3.917 5.634-8.75 5.634s-8.75-2.522-8.75-5.634 3.917-5.634 8.75-5.634 8.75 2.522 8.75 5.634z"/><path id="X" d="M-2322.904 584.674c0 5.35-4.777 9.688-10.67 9.688s-10.67-4.337-10.67-9.688 4.777-9.688 10.67-9.688 10.67 4.337 10.67 9.688z"/><path id="Y" d="M-2324.604 585.667c0 4.142-3.917 7.5-8.75 7.5s-8.75-3.358-8.75-7.5 3.917-7.5 8.75-7.5 8.75 3.358 8.75 7.5z"/><path id="Z" d="M-1325.07 1255.916c-1.158-.827-2.767-.559-3.594.6s-.559 2.765.598 3.592l17.27 12.294c1.157.826 2.765.559 3.592-.598s.559-2.765-.598-3.592z"/><path id="a" d="M-1325.07 1255.92c-1.16-.83-2.77-.56-3.59.6h0c-.83 1.15-.56 2.76.59 3.59h0l17.27 12.29h0a2.58 2.58 0 0 0 3.6-.6h0c.82-1.15.55-2.76-.6-3.59h0z"/><path id="b" d="M-1312.77 1247.13a2.57 2.57 0 0 0-3.59.6h0c-.83 1.16-.56 2.77.6 3.59h0l17.27 12.3h0c1.16.82 2.76.56 3.59-.6h0c.83-1.16.56-2.76-.6-3.59h0z"/><path id="c" d="M-1300.46 1238.35a2.58 2.58 0 0 0-3.6.6h0c-.82 1.16-.55 2.76.6 3.59h0l17.27 12.29h0c1.16.83 2.77.56 3.59-.59h0c.83-1.16.56-2.77-.59-3.6h-.01z"/><path id="d" d="M-1288.16 1229.56c-1.16-.82-2.77-.55-3.59.6h0a2.58 2.58 0 0 0 .6 3.6h0l17.27 12.29h0a2.57 2.57 0 0 0 3.59-.6h0a2.58 2.58 0 0 0-.6-3.59h0z"/><path id="e" d="M-1275.85 1220.78a2.58 2.58 0 0 0-3.6.6h0c-.83 1.16-.56 2.77.6 3.59h0l17.27 12.3h0c1.16.82 2.76.56 3.59-.6h0c.83-1.16.56-2.77-.6-3.59h0z"/><path id="f" d="M-1263.55 1212c-1.16-.83-2.77-.56-3.59.6h-.01c-.82 1.15-.55 2.76.6 3.59h0l17.27 12.29h0c1.16.83 2.77.56 3.59-.6h0c.83-1.15.56-2.76-.59-3.59h0z"/><path id="g" d="M-1251.25 1203.21c-1.16-.82-2.76-.56-3.59.6h0c-.83 1.16-.56 2.77.6 3.59h0l17.27 12.3h0a2.57 2.57 0 0 0 3.59-.6h0c.82-1.16.56-2.76-.6-3.59h0z"/><path id="h" d="M-1238.94 1194.43a2.58 2.58 0 0 0-3.6.6h0c-.82 1.16-.56 2.76.6 3.59h0l17.27 12.29v.01c1.16.82 2.76.55 3.59-.6h0c.83-1.16.56-2.77-.6-3.59v-.01z"/><path id="i" d="M-1226.64 1185.65c-1.16-.83-2.77-.56-3.59.59v.01c-.83 1.15-.56 2.76.59 3.59h0l17.27 12.29h0a2.58 2.58 0 0 0 3.6-.6h0c.82-1.15.55-2.76-.6-3.59h0z"/><path id="j" d="M-1214.34 1176.86a2.57 2.57 0 0 0-3.59.6h0c-.83 1.16-.56 2.77.6 3.59h0l17.27 12.3h0a2.58 2.58 0 0 0 3.59-.6h0c.83-1.16.56-2.77-.6-3.59h0z"/><path id="k" d="M-1202.03 1168.08a2.58 2.58 0 0 0-3.6.6h0a2.58 2.58 0 0 0 .6 3.59h0l17.27 12.29h0c1.16.83 2.77.56 3.59-.59h0c.83-1.16.56-2.77-.59-3.6h-.01z"/><path id="l" d="M-1189.73 1159.29c-1.16-.82-2.77-.56-3.59.6h0a2.58 2.58 0 0 0 .6 3.6h0l17.26 12.29h.01a2.57 2.57 0 0 0 3.59-.6h0c.82-1.16.56-2.76-.6-3.59h0z"/><path id="m" d="M-1177.43 1150.51a2.57 2.57 0 0 0-3.59.6h0c-.83 1.16-.56 2.76.6 3.59h0l17.27 12.3h0c1.16.82 2.76.55 3.59-.6h0c.83-1.16.56-2.77-.6-3.59h0z"/><path id="n" d="M-1165.12 1141.73a2.58 2.58 0 0 0-3.6.6h0c-.82 1.15-.55 2.76.6 3.59h0l17.27 12.29h0c1.16.83 2.77.56 3.59-.6h0c.83-1.15.56-2.76-.59-3.59h0z"/><path id="o" d="M-1152.82 1132.94c-1.16-.83-2.77-.56-3.59.6h0c-.83 1.16-.56 2.77.6 3.59h0l17.27 12.3h0a2.58 2.58 0 0 0 3.59-.6h0c.82-1.16.56-2.76-.6-3.59h0z"/><path id="p" d="M-1140.51 1124.16a2.58 2.58 0 0 0-3.6.6h0c-.82 1.16-.56 2.76.6 3.59h0l17.27 12.29h0c1.16.83 2.76.56 3.59-.59h0a2.58 2.58 0 0 0-.6-3.6h0z"/><path id="q" d="M-1128.21 1115.37c-1.16-.82-2.77-.55-3.59.6h0c-.83 1.16-.56 2.77.59 3.6h0l17.27 12.29h0a2.58 2.58 0 0 0 3.6-.6h0c.82-1.15.55-2.76-.6-3.59h0z"/><path id="r" d="M-1103.6 1097.81a2.58 2.58 0 0 0-3.6.6h0a2.58 2.58 0 0 0 .6 3.59h0l17.27 12.29h0c1.16.83 2.77.56 3.59-.6h0a2.57 2.57 0 0 0-.6-3.59h0z"/><path id="s" d="M-1091.3 1089.02c-1.16-.82-2.77-.56-3.59.6h0c-.83 1.16-.56 2.77.59 3.59l.01.01 17.26 12.29h0a2.58 2.58 0 0 0 3.6-.6h0c.82-1.16.56-2.76-.6-3.59h0z"/><path id="t" d="M-1079 1080.24a2.57 2.57 0 0 0-3.59.6h0c-.83 1.16-.56 2.76.6 3.59h0l17.27 12.3h0c1.16.82 2.76.55 3.59-.6h0c.83-1.16.56-2.77-.6-3.59v-.01z"/><path id="u" d="M18.56 5.56h227.434v2.88H18.56z"/></defs><g transform="matrix(.4189 0 0 .4189 1000.892 -61.2)"><g transform="matrix(.961384 0 0 .961384 -77.330707 -15.433471)"><g stroke-width=".261" class="B C"><use xlink:href="#I" class="G"/><use xlink:href="#I" y="-4.472" class="E"/></g><use xlink:href="#J" fill="url(#G)" transform="matrix(1.3044 -.052146 -.104752 1.308574 -635.05932 734.435048)"/><path d="M-1364.181 1086.382l-3.917-4.84-4.804 5.109 2.669-6.345-6.354-1.106 6.586-1.505-1.549-6.215 3.917 4.84 4.804-5.109-2.669 6.345 6.354 1.106-6.586 1.505 1.549 6.215z" class="D"/><path d="M-2385 577.69l760.7 844.39 671.07-478.72-780.16-753.66-651.6 388z" class="I"/><g class="C R"><use xlink:href="#K" fill="#333"/><use xlink:href="#K" y="-24" class="L"/></g><path d="M-1671.4 995.93l-23.571 20 70.714 47.143.714-37.857-47.857-29.286z" fill="#c0bfc7"/><use xlink:href="#K" y="-50" class="C L R"/><path stroke="#916f6f" fill="#2f1c15" d="M-1529.3 997.36s-3.554 36.072 10.714 36.429 11.506-26.269 15.714-45-4.168-50.013 7.143-67.143 22.661-23.719 48.571-27.143 39.365 10.686 49.286 28.571-2.143 65.714-2.143 65.714l-7.857 40.714s9.516-59.191-.714-75.714-21.468-18.562-36.428-18.571-31.572 8.163-43.572 22.143-19.286 58.571-19.286 58.571 2.095 20.462-2.143 29.286c-3.938 8.201-11.054 20.226-20 18.571-5.965-1.103.714-66.429.714-66.429z"/><use xlink:href="#K" y="-70" fill="#dfdbdc"/><use xlink:href="#L" fill="#48423f"/><use xlink:href="#M" class="F"/><use xlink:href="#M" y="-6" class="N"/><use xlink:href="#M" y="-12" class="F"/><use xlink:href="#M" y="-18" class="N"/><use xlink:href="#M" y="-26" class="F"/><use xlink:href="#M" y="-32" class="N"/><use xlink:href="#M" x="2" y="-40" class="F"/><use xlink:href="#M" x="2" y="-46" class="N"/><path stroke="#666" fill="#666" d="M-1411.9 1054.8s8.97-51.687 2.143-66.429-20.756-10.47-24.286-19.286c-3.636-9.083-4.418-15.799 3.571-25.714 8.333-10.343 104.29-72.857 104.29-72.857s-10.469-24.256 6.071-35.714 41.786 8.571 41.786 8.571l48.571 50.714s39.028 72.855 33.571 87.857c-5.544 15.245-177.14 125-177.14 125l-38.571-52.143z"/><path fill="url(#D)" d="M919.7 388.79c0 174.76-229.23 316.43-511.99 316.43-282.77 0-511.99-141.67-511.99-316.43S124.95 72.36 407.71 72.36c282.77 0 511.99 141.67 511.99 316.43z" transform="matrix(.7726 0 0 1.0237 -2112.7 247.6)"/><use xlink:href="#L" x="1" y="-21.21" fill="#dfdade"/><use xlink:href="#N" opacity=".508" fill="url(#E)" transform="matrix(.43307 0 0 .37975 -1901.6 497)"/><use xlink:href="#N" opacity=".508" fill="url(#F)" transform="matrix(.34843 0 0 .30802 -1880.9 524.04)"/><g class="B C J"><use xlink:href="#O" class="G"/><use xlink:href="#O" y="-3.429" class="E"/></g><use xlink:href="#J" fill="url(#G)" transform="matrix(1 -.039977 -.080307 1.0032 -1284.041 307.959)"/><use xlink:href="#P" class="D"/><g class="B C J"><use xlink:href="#O" x="100" y="120" class="G"/><use xlink:href="#O" x="100" y="116.571" class="E"/></g><use xlink:href="#J" transform="matrix(1 -.039977 -.080307 1.0032 -1184.041 427.959)" fill="url(#G)"/><use xlink:href="#P" x="100" y="120" class="D"/><g class="B C J"><use xlink:href="#O" x="11.4" y="125.72" class="G"/><use xlink:href="#O" x="11.4" y="122.291" class="E"/></g><use xlink:href="#J" fill="url(#G)" transform="matrix(1 -.039977 -.080307 1.0032 -1272.641 433.679)"/><use xlink:href="#P" x="11.4" y="125.72" class="D"/><g class="B C J"><use xlink:href="#O" x="141.4" y="61.43" class="G"/><use xlink:href="#O" x="141.4" y="58.001" class="E"/></g><use xlink:href="#J" transform="matrix(1 -.039977 -.080307 1.0032 -1142.641 369.389)" fill="url(#G)"/><use xlink:href="#P" x="141.4" y="61.43" class="D"/><g class="B C J"><use xlink:href="#O" x="-40" y="62.86" class="G"/><use xlink:href="#O" x="-40" y="59.431" class="E"/></g><use xlink:href="#J" fill="url(#G)" transform="matrix(1 -.039977 -.080307 1.0032 -1324.041 370.819)"/><use xlink:href="#P" x="-40" y="62.86" class="D"/><g class="B C J"><use xlink:href="#O" x="94.3" y="-1.42" class="G"/><use xlink:href="#O" x="94.3" y="-4.849" class="E"/></g><use xlink:href="#J" transform="matrix(1 -.039977 -.080307 1.0032 -1189.741 306.539)" fill="url(#G)"/><use xlink:href="#P" x="94.3" y="-1.42" class="D"/><g class="B C J"><use xlink:href="#O" x="47.2" y="60" class="G"/><use xlink:href="#O" x="47.2" y="56.571" class="E"/></g><use xlink:href="#J" transform="matrix(1 -.039977 -.080307 1.0032 -1236.841 367.959)" fill="url(#G)"/><use xlink:href="#P" x="47.2" y="60" class="D"/><path d="M-1629 1415.4l-3.449 81.057 668.72-486.55 11.112-66.67-676.38 472.16z" class="M"/><path fill="#c0bfc7" d="M-1603.6 1028.1l-1.428 35.357 70-43.928-2.143-29.286-36.755 37.467-29.674.39z"/><path d="M-1623.9 1026.3l-1.071 36.071 21.786 2.143 1.428-35.357-22.143-2.857z" fill="#727179"/><g class="B I"><path d="M-1550.32 983.43c0 24.85-23.824 44.996-53.211 44.996s-53.211-20.145-53.211-44.996 23.824-44.996 53.211-44.996 53.211 20.145 53.211 44.996z" stroke-width=".205" class="L"/><path d="M-1563.536 991.295c0 19.93-19.755 36.088-44.123 36.088s-44.123-16.157-44.123-36.088 19.755-36.088 44.123-36.088 44.123 16.157 44.123 36.088z" stroke-width=".167" class="F"/></g><path d="M-1590.7 1073.8l-11.429-13.572 67.5-41.428-1.786 45.357-54.286 9.643zm-112.2-47.5l8.571-10 60 39.286-20.357 14.286-48.214-43.571z" fill="#a9adb3"/><path fill="#a79d9b" d="M-1760.7 1168.8l-62.857-72.857s-32.845 13.704-47.143-7.143 11.428-44.286 11.428-44.286l-3.571-27.857V996.3l109.64-12.857s4.181 15.16 13.928 22.5c9.573 7.209 30 2.857 30 2.857l30 38.571 42.857 8.571 82.857 8.572 22.593-10.404 13.479-14.239s12.064-16.937 17.5-21.786c13.214-11.786 36.786-15.714 36.786-15.714l80 80.357s-17.648 9.419-22.5 17.5-7.857 28.214-7.857 28.214l-154.29 46.072s-12.111 7.762-7.857 17.143 22.5 8.571 22.5 8.571l18.928 10c1.31-8.763 6.548.238 7.5-5 0 0 50.534-15.336 56.786-13.928s28.929 27.5 28.929 27.5l-3.214 11.428-56.429 37.143-4.286 4.286s-5.667-3.928-11.435-4.006-16.779 8.649-16.779 8.649l-191.43-17.143s-54.048-51.168-53.571-58.929 21.786-21.428 21.786-21.428l-4.286-10z"/><g stroke-width=".301" class="B C"><use xlink:href="#Q" class="G"/><use xlink:href="#Q" y="-5.168" class="E"/></g><use xlink:href="#J" transform="matrix(1.5073 -.060257 -.121047 1.512123 -639.075579 823.983077)" fill="url(#G)"/><path d="M-1481.612 1230.675l-4.527-5.593-5.551 5.904 3.084-7.332-7.342-1.278 7.611-1.739-1.79-7.182 4.527 5.593 5.551-5.904-3.084 7.332 7.342 1.278-7.611 1.739 1.79 7.182z" class="D"/><use xlink:href="#R" class="B I J K L"/><path d="M-2386 577.59l18.183 96.975 735.39 824.28 4.041-80.812-757.61-840.45z" class="P"/><g class="B I"><g class="L"><path d="M-1833.848 1077.362c0 5.118-4.568 9.267-10.204 9.267s-10.204-4.149-10.204-9.267 4.568-9.267 10.204-9.267 10.204 4.149 10.204 9.267z" stroke-width=".247" class="K"/><use xlink:href="#R" x="-77.86" y="-90.71" class="J K"/><path d="M-1762.741 1049.28c0 3.436-3.067 6.221-6.851 6.221s-6.851-2.785-6.851-6.221 3.067-6.221 6.851-6.221 6.851 2.785 6.851 6.221z" stroke-width=".166" class="K"/><path d="M-1426.962 1113.339c0 4.87-4.347 8.818-9.71 8.818s-9.71-3.948-9.71-8.818 4.347-8.818 9.71-8.818 9.71 3.948 9.71 8.818z" stroke-width=".235" class="K"/></g><path d="M-1607.9 964.49c-3.157 0-6.169.506-8.969 1.438l7.563 10.188c.703-.088 1.424-.156 2.156-.156 7.875 0 14.25 5.256 14.25 11.75 0 2.561-1.002 4.944-2.687 6.875l6.937 9.375c4.222-4.191 6.781-9.755 6.781-15.875 0-13.024-11.648-23.594-26.031-23.594zm-18.781 7.25c-4.493 4.237-7.25 10.005-7.25 16.344 0 13.024 11.648 23.562 26.031 23.562 3.924 0 7.632-.78 10.969-2.187l-8-10.125c-.723.093-1.464.156-2.219.156-7.875 0-14.25-5.287-14.25-11.781 0-2.36.862-4.534 2.313-6.375l-7.594-9.594z" stroke-width=".18" fill="#d1cdce" class="K"/></g><g filter="url(#C)" fill="#b3b3b3"><path d="M-1592.9 721.65c0-3.788-.226-.525.714-4.286.293-1.173-.762-.666.714-2.143.168-.168.546.168.714 0 .377-.376.271-1.133.714-1.429.396-.264.986.177 1.429 0 .797-.319 1.407-.987 2.143-1.429.457-.274.986-.419 1.429-.714.28-.187.413-.564.714-.714.213-.106.501.106.714 0 .301-.151.413-.564.714-.714.213-.106.483.058.714 0 .73-.183 1.405-.567 2.143-.714.934-.187 1.905 0 2.857 0h12.143c.238 0 .501-.106.714 0 .301.151.476.476.714.714.476.476 1.178.803 1.428 1.429.265.663-.117 1.438 0 2.143.124.743.507 1.419.714 2.143l.714 2.857c.162.974 0 2.525 0 3.571 0 .714.265 1.48 0 2.143a6.47 6.47 0 0 1-1.429 2.143c-.018.018-3.303 0-3.571 0h-3.571c-.476 0-.977.151-1.429 0-1.917-.639-1.196-.814-2.857-2.143-.67-.536-1.456-.913-2.143-1.429-.269-.202-.434-.528-.714-.714-1.473-.982-4.057-1.936-5.714-2.143-.945-.118-1.905 0-2.857 0-.476 0-.986-.177-1.429 0-.797.319-1.428.952-2.143 1.429-1.429.952-2.857 1.905-4.286 0z"/><path d="M-1602.1 815.93c.611-3.314-1.536-.822-2.143-1.429-1.353-1.353-.876-5.741 0-7.143.892-1.428 2.381-2.381 3.571-3.571.238-.238.413-.564.714-.714.213-.106.608.213.714 0 .213-.426-.151-.977 0-1.429.107-.319.608-.395.714-.714.151-.452 0-.952 0-1.429v-7.857c0-.476-.116-.967 0-1.429.124-.497.806-1.832 1.428-2.143.213-.106.546.168.714 0 2.011-.044.182-1.611.714-2.143.607-.607 1.429-.952 2.143-1.429s1.375-1.045 2.143-1.429c1.476-.738 2.164-.714 3.572-.714.238 0 .488-.075.714 0 4.434 1.478-2.374-.058 3.572 1.429 1.428.357 0-.714 2.143 0 .32.106.434.528.714.714.443.295.924.546 1.429.714.403.134 1.674 0 2.143 0h1.429c.476 0 .977.151 1.429 0 .319-.106.476-.476.714-.714l1.428-1.429c.714-.714 1.537-1.335 2.143-2.143.639-.852.838-1.971 1.429-2.857.187-.28.564-.413.714-.714.337-.673.297-1.516.714-2.143.132-.198.608.213.714 0 .213-.426 0-.952 0-1.429 0-.714.32-1.504 0-2.143-.463-.926-2.873-2.469-3.571-2.857l-4.286-2.143c-.571-.357-.813-1.155-1.429-1.429-3.829-1.702-5.635-1.429-9.286-1.429-1.19 0-2.423-.313-3.571 0-2.86.78-4.136 2.196-6.429 3.571-.457.274-1.146.263-1.429.714-9.165-.173-1.233 3.895-2.143 5.714-.151.301-.527.434-.714.714-.295.443-.44.972-.714 1.429-1.006 1.677-1.49 1.939-2.143 3.571-.746 1.864-1.01 4.015-2.143 5.714-1.811 2.716.522-3.536-2.143 3.571l-.714 2.857c-.238.238-.564.413-.714.714-.213.426.337 1.092 0 1.429-.377.376-1.052.338-1.429.714l-1.429 2.143c0 .238.107.501 0 .714-.151.301-.527.434-.714.714-.295.443-.44.972-.714 1.429-1.541 2.568-2.005 2.305-2.857 5.714-.173.693 0 1.429 0 2.143 0 2.038-.132 3.74.714 5.714.338.789 1.09 1.354 1.429 2.143.387.902.209 2.015.714 2.857.274.457.986.419 1.429.714.991.66 2.015 1.301 2.857 2.143.168.168-.168.546 0 .714s.476 0 .714 0h.714 5.714c1.233-.352 2.381-.952-1.429-5.714z"/><path d="M-1607.1 885.22c-.495-2.076 1.541-3.195 2.143-5 .075-.226 0-.476 0-.714l2.857-5.714c.351-.584 2.561-2.264 2.857-2.857.213-.426-.337-1.092 0-1.429.168-.168.483.058.714 0 .73-.183 1.428-.476 2.143-.714.189-.063 2.832-1.084 3.572-.714 3.354 1.677.899 1.074 3.571 2.143.699.28 1.504.315 2.143.714.361.225 4.488 3.795 5.714 4.286 1.09.436 1.977-.274 2.857-.714.476-.238 1.003-.395 1.428-.714 5.138-3.853-1.507.793 2.143-2.857.377-.376 1.133-.271 1.429-.714.264-.396-.078-.959 0-1.429.323-1.937.952-3.809 1.428-5.714.436-1.745 1.089-3.843.714-5.714-.452-2.261-3.203-3.196-4.286-5-.245-.408 0-.952 0-1.429-1.19-.714-2.476-1.29-3.571-2.143-1.063-.827-1.822-1.995-2.857-2.857-.409-.341-1.013-.382-1.428-.714-2.642-2.114-1.209-2.242-4.286-2.857-.467-.093-.963-.1-1.429 0-2.88.617-5.819 1.094-8.571 2.143-2.291.873-4.27 2.409-6.429 3.571-2.511 1.352-3.289 1.177-5 3.571-.619.866-.838 1.971-1.429 2.857-.373.56-1.127.826-1.429 1.429-.213.426 0 .952 0 1.429v5.714c0 2.41.116.967-.714 4.286l-.714 2.857c-4.588 13.763 1.743-7.686-2.143 7.857-.129.516-.61.907-.714 1.429-.14.7.118 1.438 0 2.143-.124.743-.532 1.412-.714 2.143-.073.294-.092 4.63 0 5 .129.516.61.907.714 1.429.188.938 0 3.15 0 4.286v.714c0 .238-.107.501 0 .714.621 1.242 1.429 2.381 9.286-10.714z"/><path d="M-1580.7 678.08h2.857c.238 0 .546.168.714 0s-.198-.582 0-.714c.627-.418 1.516-.297 2.143-.714.396-.264-.264-1.032 0-1.429.374-.56 1.055-.868 1.429-1.429.132-.198 0-.476 0-.714 0-.476-.116-.967 0-1.429.129-.516.952-.952.714-1.429-.213-.426-.952 0-1.429 0s-1.057-.297-1.429 0c-.93.744-1.368 1.953-2.143 2.857-2.206 2.573-2.54 2.381-2.857 5z"/></g><path stroke="#d3d1d7" fill="#d8d6dc" d="M-1572 643.22s-7.067.663-10.036 6.147 2.285 12.477 2.285 12.477l-8.949 27.992-12.084 4.172-4.411 64.679s-29.492 123.21-44.876 162.1-39.699 73.141-39.699 73.141l65.122 47.818 15.513-.126 1.411-14.808c-24.348-1.669-44-20.486-44.228-43.626-.24-24.407 20.804-44.414 47.024-44.672 1.73-.017 3.571.079 5.251.227l3.257-34.409c-6.451-.206-11.702-3.514-11.947-7.677l-.031-.003-.017-.158c0-.032.01-.062.01-.093 0-.134.025-.272.037-.405l.01-.439.95-26.649a11.97 11.97 0 0 1-.257-2.346c-.069-6.973 5.96-12.662 13.491-12.736.801-.008 1.823.058 2.589.173l3.087-33.922v-.031l.065-.716-17.537-13.144 12.064-31.191 9.09-.585.504-.017 3.804-40.76c-5.33-.376-9.596-4.732-9.649-10.166-.056-5.718 4.584-10.397 10.302-10.453a10.55 10.55 0 0 1 1.313.057l3.13-33.354c-1.313-.417-2.315-1.745-2.331-3.35-.019-1.891 1.322-3.413 2.988-3.525v-.031l2.755-29.591zm-16.5 176.83l.985-.475v-.031l-.987.506zm.985-.475l-3.339 34.621a14.72 14.72 0 0 1 2.329.275c7.387 1.469 12.387 8.19 11.027 15.03-.155.781-.411 1.547-.707 2.258l-3.997 26.34-.04.436c-.012.132-.011.273-.037.405 0 .031-.026.06-.039.091l-.014.156-.031-.003c-1.012 4.045-6.785 6.323-13.162 5.329l-3.194 34.415c1.678.166 3.503.449 5.2.787 25.717 5.115 42.682 28.652 37.921 52.591-4.514 22.697-27.309 37.564-51.544 34.69l-1.379 14.811 15.23 2.986 72.87-34.914s-17.548-38.163-25.455-79.227-14.025-167.59-14.025-167.59l7.651-64.415-11.13-6.316-3.59-29.164s6.462-5.915 4.562-11.854-8.725-7.917-8.725-7.917l-2.755 29.591v.031c1.616.419 2.607 2.177 2.237 4.032-.313 1.575-1.53 2.708-2.898 2.874l-3.095 33.325c-.035-.002-.063.024-.096.023.466.029.918.095 1.395.19 5.609 1.116 9.297 6.558 8.181 12.167-1.06 5.33-6.047 8.842-11.354 8.223l-3.804 40.76.492.108 8.802 2.244 6.077 32.874-19.557 9.736zm12.918-146.78c.225-.002.435.039.651.091a2.65 2.65 0 0 0-.651-.091zm.549.175c-.221-.044-.435-.039-.657-.028.224-.01.429-.017.657.028z"/><g stroke-width=".262" class="B C"><use xlink:href="#S" class="G"/><use xlink:href="#S" y="-4.498" class="E"/></g><use xlink:href="#J" transform="matrix(1.312 -.05245 -.105363 1.316198 -565.646992 510.393648)" fill="url(#G)"/><path d="M-1299.017 864.391l-3.94-4.868-4.832 5.139 2.685-6.382-6.391-1.113 6.625-1.514-1.559-6.251 3.94 4.868 4.832-5.139-2.685 6.382 6.391 1.113-6.625 1.514 1.559 6.251z" class="D"/><g stroke-width=".187" class="B C"><use xlink:href="#T" class="G"/><use xlink:href="#T" y="-3.208" class="E"/></g><use xlink:href="#J" transform="matrix(.93546 -.037397 -.075124 .938453 -813.15951 402.584701)" fill="url(#G)"/><path d="M-1336.054 654.986l-2.809-3.471-3.445 3.664 1.914-4.55-4.557-.793 4.723-1.079-1.111-4.457 2.809 3.471 3.445-3.664-1.914 4.55 4.557.793-4.723 1.079 1.111 4.457z" class="D"/><g class="B C H"><use xlink:href="#U" class="G"/><use xlink:href="#U" y="-3.133" class="E"/></g><use xlink:href="#J" fill="url(#G)" transform="matrix(.91376 -.036529 -.073381 .916684 -1731.383 444.226987)"/><path d="M-2242.148 690.773l-2.744-3.391-3.365 3.579 1.87-4.445-4.451-.775 4.614-1.054-1.085-4.354 2.744 3.391 3.365-3.579-1.87 4.445 4.451.775-4.614 1.054 1.085 4.354z" class="D"/><path d="M-1862.5 995.93l108.93-12.5 3.214 13.571-110.71 16.429-1.429-17.5z" fill-opacity=".452" class="E"/><g fill="#aaa4a4"><path filter="url(#A)" d="M-1424.3 555.37c-6.3-16.691-16.316-24.451-24.244-42.341-3.104-15.898-11.541-21.292-22.223-34.43-5.255-9.01-7.723-13.406-20.203-24.244-12.21-15.955-19.369-26.801-34.345-38.386-14.511-7.456-28.729-16.158-36.366-26.264-18.133-14.282-36.963-16.815-58.589-26.264-21.898-5.533-45.544-3.752-68.69-4.041-22.725-1.462-39.814-15.139-64.089-12.271-19.366 3.725-34.04 16.224-32.885 32.304.298 19.236 5.68 26.337 18.183 40.576 15.47 11.145 33.305 11.925 51.082 20.49 22.283 8.804 43.148 20.606 65.563 31.548 22.272 7.23 26.829 36.207 42.96 53.018 5.775 28.56 25.686 51.017 34.345 78.792 10.065 18.065 12.771 44.474 26.264 56.569 7.757 12.433 34.969 3.695 50.508 4.041 15.826-3.891 40.981-10.677 36.366-31.985 1.44-10.121-2.832-25.955 2.02-32.665 3.303-12.278 17.566-15.615 28.284-26.264 3.311-5.55 4.977-11.875 6.061-18.183z"/><path filter="url(#B)" d="M-1745.5 789.72c-5.793 3.959-20.479 1.252-30.305 2.02-26.96-16.669-61.948-21.28-82.832-42.426-17.3-3.73-23.998-20.283-46.473-18.071-30.768-.436-48.982-15.956-72.725-32.436-17.648-13.142-21.736-30.432-22.223-52.188v-95.294c-9.265-11.904-21.171-20.604-38.386-26.264-25.985-2.483-57.071-17.392-70.711 12.122-10.118 18.909-21.779 33.696-28.284 46.467-8.542 7.225-10.631 28.343-20.203 32.325-3.292 11.632-17.742 24.835-20.314 40.008l.111 67.068c4.352 7.769.044 24.2 6.061 30.305 7.88 9.637 14.807 25.312 28.284 34.345 10.582 11.563 25.755 20.513 30.305 28.284 13.11 3.17 27.694 15.584 40.406 22.223 17.283 4.415 28.862 17.788 44.447 26.264 14.174 8.502 26.567 12.666 43.681 22.02 8.318 9.159 33.973 28.098 51.273 38.589 12.595 14.959 27.826 15.317 48.487 20.203 16.62-.742 31.153 1.552 46.913 4.378 15.6 3.41 32.049.928 48.042 1.683 14.509-4.024 45.929-10.365 68.69-20.203 17.465-4.11 24.321-18.78 34.345-32.325 10.671-13.139 2.661-33.512 8.217-48.253-.887-11.578 1.559-26.065-2.156-34.579-4.973-14.756-27.71-18.163-44.447-22.223-7.024.829-12.514-6.454-20.203-4.041z"/></g><path fill="#313237" d="M-1733.4 189.69l-651.63 388 757.18 841.38 674.86-475.6-780.42-753.77zm-62.781 109.19c5.271-.061 10.42-.022 15.344.188 40.104 1.707 74.712 11.668 99.625 11.094s26.51-12.168 46.781-8.594c20.618 3.636 54.656 46.094 54.656 46.094l118.94 120.72c7.462 13.724 34.745 46.902 41.625 65.594 6.549 17.792 15.229 72.033 39.094 85.094 40.021 19.153 52.916-1.787 68.188 2.5s232.5 221.09 232.5 221.09l-9.625 155-171.78 120.72s-42.872-24.131-74.281-2.875c-31.164 21.091-14.312 71.438-14.312 71.438l-171.41 118.56-197.16-15.719-221.44-250s14.744-52.353 7.156-74.281S-2098 872.659-2098 872.659l-162.84-177.34c-2.063-6.518 10.786-30.655 3.219-35.531s-25.158 15.189-32.5 7.875 8.57-126.22 36.781-154.28c28.712-28.563 326.78-199.31 326.78-199.31l51.438-8.562s42.038-6.196 78.938-6.625z"/><path d="M-1642.5 1402.9l30.305 5.051-15.657 12.122-14.647-17.173z" class="F"/><use xlink:href="#U" x="-89.831" y="-100.148" class="B C G H"/><use xlink:href="#V" class="F"/><use xlink:href="#U" x="-89.831" y="-103.278" class="B C E H"/><use xlink:href="#W" class="D"/><use xlink:href="#X" class="F"/><use xlink:href="#Y" class="D"/><use xlink:href="#U" x="502.389" y="-459.068" class="B C G H"/><use xlink:href="#V" x="592.27" y="-358.922" class="F"/><use xlink:href="#U" x="502.389" y="-462.208" class="B C E H"/><use xlink:href="#W" x="592.23" y="-358.93" class="D"/><use xlink:href="#X" x="592.27" y="-358.92" class="F"/><use xlink:href="#Y" x="592.23" y="-358.925" class="D"/><use xlink:href="#U" x="1232.989" y="248.422" class="B C G H"/><use xlink:href="#V" x="1322.85" y="348.568" class="F"/><use xlink:href="#U" x="1232.989" y="245.292" class="B C E H"/><use xlink:href="#W" x="1322.81" y="348.57" class="D"/><use xlink:href="#X" x="1322.85" y="348.57" class="F"/><use xlink:href="#Y" x="1322.81" y="348.575" class="D"/><path d="M-1718.6 1408.4l-1.401-41.718 64.041 69.928-1.184 50.072-61.456-78.282z" class="E"/><path d="M-1718.8 1401.4l17.425-15.657-19.193-19.445 1.768 35.103z" fill="#b3b3b3"/><use xlink:href="#U" x="627.269" y="674.142" class="B C G H"/><use xlink:href="#V" x="717.15" y="774.288" class="F"/><use xlink:href="#U" x="627.269" y="671.042" class="B C E H"/><use xlink:href="#W" x="717.14" y="774.29" class="D"/><use xlink:href="#X" x="717.15" y="774.29" class="F"/><use xlink:href="#Y" x="717.14" y="774.285" class="D"/><use xlink:href="#U" x="272.969" y="297.002" class="B C G H"/><use xlink:href="#V" x="362.85" y="397.148" class="F"/><use xlink:href="#U" x="272.969" y="293.862" class="B C E H"/><use xlink:href="#W" x="362.86" y="397.14" class="D"/><use xlink:href="#X" x="362.85" y="397.14" class="F"/><use xlink:href="#Y" x="362.86" y="397.145" class="D"/><use xlink:href="#U" x="872.989" y="-94.428" class="B C G H"/><use xlink:href="#V" x="962.85" y="5.715" class="F"/><use xlink:href="#U" x="872.989" y="-97.568" class="B C E H"/><use xlink:href="#W" x="962.81" y="5.71" class="D"/><use xlink:href="#X" x="962.85" y="5.72" class="F"/><use xlink:href="#Y" x="962.81" y="5.714" class="D"/><g class="I Q"><path fill="#333" d="M-1113.653 1096.302L-952.7 982.483l-5.541 58.073-160.968 118.278 5.555-62.532z"/><path d="M-1143.654 1137.502l4.938-58.141 24.739 15.895-6.07 63.205z"/></g><path d="M-1049.504 1032.291l30.613 18.762" stroke="#a80" fill="#d4aa00" class="S T"/><path d="M-952.727 983.903l-4.938 57.277-45.426-28.144 26.168-44.932 24.194 15.8z" class="I M Q"/><path d="M-1083.1 1056.071l30.613 18.762m36.578-66.183l30.613 18.762m-131.399 52.853l30.613 18.762" stroke="#a80" fill="#d4aa00" class="S T"/><path d="M-1138.401 1078.468l161.064-111.47 23.872 14.799-160.608 113.121-24.33-16.449z" class="I Q"/><g transform="matrix(1.402055 0 0 1.402055 274.42647 -332.42136)"><g class="I"><path fill="#333" d="M-1324.411 1258.569l294.594-205.871-3.924 41.949-294.688 209.152 4.018-45.23z"/><path d="M-1030.132 1052.608l-3.571 41.429-32.857-20.357 18.928-32.5 17.5 11.428z" class="M"/></g><g fill="#a80"><path d="M-1057.322 1067.467a2.575 2.575 0 0 0-3.592.598 2.575 2.575 0 0 0 .598 3.592l8.803 6.291a2.575 2.575 0 0 0 2.994-4.191z"/><use xlink:href="#Z"/><use xlink:href="#Z" x="258.378" y="-184.461"/><path d="M-1315.4 1250.66c-.55-.4-1.25-.56-1.92-.45a2.61 2.61 0 0 0-1.67 1.05h0c-.83 1.15-.56 2.76.59 3.59h.01l8.8 6.29h0a2.58 2.58 0 0 0 3.59-.6h0c.41-.58.55-1.27.45-1.92-.11-.65-.47-1.26-1.05-1.67h0zm12.29-8.73c-.56-.39-1.25-.55-1.92-.44s-1.27.49-1.67 1.04h0c-.83 1.16-.56 2.77.59 3.59l.01.01 8.8 6.28v.01c1.15.82 2.76.55 3.59-.6h0c.41-.58.55-1.27.44-1.92-.1-.65-.46-1.26-1.04-1.67h0zm12.29-8.72c-.56-.4-1.25-.56-1.92-.44-.67.11-1.27.48-1.67 1.04h0c-.83 1.16-.56 2.76.59 3.59h0c.02.01 8.68 6.2 8.81 6.29h0c1.15.83 2.76.56 3.59-.59v-.01a2.54 2.54 0 0 0 .44-1.91 2.51 2.51 0 0 0-1.04-1.68h0zm12.29-8.72c-.56-.4-1.25-.56-1.92-.45a2.57 2.57 0 0 0-1.67 1.05h0c-.83 1.15-.56 2.76.59 3.59h0c.02.01 8.69 6.2 8.81 6.29h0a2.58 2.58 0 0 0 3.59-.6h0c.41-.57.55-1.26.44-1.92-.1-.65-.46-1.26-1.04-1.67h0zm12.29-8.73c-.56-.4-1.25-.55-1.92-.44s-1.27.48-1.67 1.04h0c-.83 1.16-.56 2.77.59 3.59v.01c.03.01 8.7 6.21 8.8 6.28l.01.01c1.15.82 2.76.55 3.59-.6h0c.41-.58.55-1.27.44-1.92-.11-.66-.47-1.26-1.04-1.67h0zm12.29-8.72c-.56-.4-1.25-.56-1.92-.44-.67.11-1.27.48-1.67 1.04h-.01c-.82 1.16-.55 2.76.6 3.59h0c.04.03 8.7 6.22 8.8 6.29h.01c1.15.83 2.76.56 3.59-.59v-.01a2.54 2.54 0 0 0 .44-1.91c-.11-.66-.47-1.27-1.04-1.68h0c-.02-.01-8.8-6.29-8.8-6.29m12.29-8.72c-.56-.4-1.26-.56-1.92-.45-.67.11-1.27.48-1.67 1.05h-.01c-.82 1.15-.55 2.76.6 3.59h0c.04.03 8.71 6.22 8.8 6.29h.01a2.58 2.58 0 0 0 3.59-.6h0c.41-.57.55-1.26.44-1.92s-.47-1.26-1.04-1.67h0c-.02-.02-8.8-6.29-8.8-6.29m12.29-8.73c-.57-.4-1.26-.55-1.92-.44-.67.11-1.27.48-1.68 1.04h0c-.82 1.16-.56 2.77.6 3.59v.01c.05.03 8.71 6.22 8.8 6.28v.01a2.6 2.6 0 0 0 3.6-.6h0c.4-.57.55-1.26.44-1.92s-.47-1.27-1.04-1.68h0c-.02-.01-8.8-6.29-8.8-6.29m12.29-8.72c-.57-.4-1.26-.55-1.92-.44-.67.11-1.27.47-1.68 1.04h0c-.82 1.16-.56 2.76.6 3.59h0c.05.04 8.72 6.23 8.8 6.29h0c1.16.83 2.77.56 3.59-.6h.01c.4-.57.55-1.26.44-1.92a2.59 2.59 0 0 0-1.04-1.67h0c-.03-.02-8.8-6.29-8.8-6.29m12.29-8.72c-.57-.41-1.26-.56-1.93-.45a2.58 2.58 0 0 0-1.67 1.05h0a2.58 2.58 0 0 0 .6 3.59h0a8403.79 8403.79 0 0 1 8.8 6.29h0c1.16.82 2.77.56 3.59-.6h.01c.4-.57.55-1.26.44-1.92s-.47-1.27-1.04-1.67h0c-.03-.02-8.8-6.29-8.8-6.29m12.28-8.73c-.56-.4-1.25-.55-1.92-.44-.66.11-1.26.48-1.67 1.04h0c-.82 1.16-.56 2.77.6 3.59v.01c.07.04 8.73 6.23 8.8 6.28v.01c1.16.82 2.77.55 3.59-.6h0a2.56 2.56 0 0 0 .45-1.92c-.11-.66-.48-1.27-1.04-1.68h0c-.04-.02-8.81-6.29-8.81-6.29m12.29-8.72c-.56-.41-1.26-.55-1.92-.44s-1.26.47-1.67 1.04h0c-.82 1.16-.56 2.76.6 3.59h0l8.8 6.29h0c1.16.83 2.77.56 3.59-.6h0a2.54 2.54 0 0 0 .45-1.92c-.11-.66-.48-1.26-1.04-1.67h0c-.04-.02-8.81-6.29-8.81-6.29m12.29-8.72a2.56 2.56 0 0 0-1.92-.45 2.58 2.58 0 0 0-1.67 1.05h0a2.57 2.57 0 0 0 .6 3.59h0c.08.05 8.74 6.25 8.8 6.29h0c1.16.82 2.77.56 3.59-.6h0a2.56 2.56 0 0 0 .45-1.92 2.58 2.58 0 0 0-1.04-1.67h0c-.04-.03-8.81-6.29-8.81-6.29m12.29-8.73c-.57-.4-1.26-.55-1.92-.44s-1.26.47-1.67 1.04h0c-.83 1.16-.56 2.77.6 3.59h0a5602.5 5602.5 0 0 0 8.8 6.29v.01c1.16.82 2.77.55 3.59-.6h0a2.56 2.56 0 0 0 .45-1.92c-.11-.67-.48-1.27-1.05-1.68h0c-.04-.03-8.8-6.29-8.8-6.29m12.29-8.72c-.57-.41-1.26-.55-1.92-.44s-1.26.47-1.67 1.04h0c-.83 1.16-.56 2.76.6 3.59h0a4201.85 4201.85 0 0 0 8.8 6.29h0c1.16.83 2.76.56 3.59-.6h0c.4-.56.56-1.25.45-1.92-.11-.66-.48-1.27-1.05-1.67h0c-.04-.03-8.8-6.29-8.8-6.29m12.29-8.72a2.56 2.56 0 0 0-1.92-.45c-.66.11-1.26.47-1.67 1.04v.01a2.57 2.57 0 0 0 .6 3.59h0c.09.07 8.76 6.26 8.8 6.29h0c1.16.82 2.76.56 3.59-.6h0c.4-.56.56-1.25.45-1.92s-.48-1.27-1.05-1.67h0c-.05-.04-8.8-6.29-8.8-6.29m12.29-8.73c-.57-.41-1.26-.55-1.92-.44s-1.26.47-1.67 1.04h0c-.83 1.16-.56 2.77.6 3.59h0c.1.08 8.77 6.27 8.8 6.29v.01c1.16.82 2.76.55 3.59-.6h0c.4-.57.56-1.26.45-1.92a2.59 2.59 0 0 0-1.05-1.68h0c-.05-.03-8.8-6.29-8.8-6.29m12.29-8.72c-.57-.41-1.27-.55-1.92-.44a2.55 2.55 0 0 0-1.67 1.04h0c-.83 1.16-.56 2.76.6 3.59h0l8.8 6.29h0c1.16.83 2.76.56 3.59-.6h0c.4-.56.56-1.25.45-1.92a2.61 2.61 0 0 0-1.05-1.67h0c-.05-.04-8.8-6.29-8.8-6.29m12.29-8.72a2.58 2.58 0 0 0-1.92-.45 2.59 2.59 0 0 0-1.67 1.04v.01a2.57 2.57 0 0 0 .6 3.59h0l8.8 6.29h0c1.16.82 2.76.56 3.59-.6h0c.4-.56.56-1.25.45-1.92a2.61 2.61 0 0 0-1.05-1.67h0c-.06-.05-8.8-6.29-8.8-6.29m12.29-8.73c-.58-.41-1.27-.55-1.92-.44a2.59 2.59 0 0 0-1.67 1.04h0c-.83 1.16-.56 2.77.59 3.59h.01c.12.09 8.78 6.28 8.8 6.29v.01c1.16.82 2.76.55 3.59-.6v-.01a2.5 2.5 0 0 0 .44-1.91c-.11-.68-.48-1.28-1.04-1.68h0c-.06-.04-8.8-6.29-8.8-6.29m12.29-8.72c-.58-.41-1.27-.55-1.92-.44-.65.1-1.26.46-1.67 1.04h0c-.83 1.16-.56 2.76.59 3.59h.01c.12.09 8.79 6.29 8.8 6.29h0c1.16.83 2.76.56 3.59-.6h0c.4-.56.56-1.25.44-1.92-.11-.67-.48-1.27-1.04-1.67h0c-.06-.05-8.8-6.29-8.8-6.29m12.29-8.72c-.58-.42-1.27-.56-1.92-.45a2.59 2.59 0 0 0-1.67 1.04l-.01.01c-.82 1.15-.55 2.76.6 3.59h.01l8.8 6.29h0a2.58 2.58 0 0 0 3.59-.6h0c.4-.56.56-1.25.44-1.92a2.51 2.51 0 0 0-1.04-1.67h0z"/><use xlink:href="#a"/><use xlink:href="#b"/><use xlink:href="#c"/><use xlink:href="#d"/><use xlink:href="#e"/><use xlink:href="#f"/><use xlink:href="#g"/><use xlink:href="#h"/><use xlink:href="#i"/><use xlink:href="#j"/><use xlink:href="#k"/><use xlink:href="#l"/><use xlink:href="#m"/><use xlink:href="#n"/><use xlink:href="#o"/><use xlink:href="#p"/><use xlink:href="#q"/><use xlink:href="#j" x="98.43" y="-70.27"/><use xlink:href="#r"/><use xlink:href="#s"/><use xlink:href="#t"/><use xlink:href="#n" x="98.43" y="-70.27"/><use xlink:href="#a"/><use xlink:href="#b"/><use xlink:href="#c"/><use xlink:href="#d"/><use xlink:href="#e"/><use xlink:href="#f"/><use xlink:href="#g"/><use xlink:href="#h"/><use xlink:href="#i"/><use xlink:href="#j"/><use xlink:href="#k"/><use xlink:href="#l"/><use xlink:href="#m"/><use xlink:href="#n"/><use xlink:href="#o"/><use xlink:href="#p"/><use xlink:href="#q"/><use xlink:href="#j" x="98.43" y="-70.27"/><use xlink:href="#r"/><use xlink:href="#s"/><use xlink:href="#t"/><use xlink:href="#n" x="98.43" y="-70.27"/></g><path d="M-1346.111 1288.577l3.571-42.054 17.894 11.497-4.39 45.717zm3.8-42.7l294.968-204.908 17.267 10.704-294.638 206.102-17.334-11.634z" class="I"/></g><path d="M-1641.3 1388.4l30.115 4.609-15.657 12.122-14.458-16.731z" fill="#ccc"/><path d="M-1610.9 1393l4.546 13.637-21.971 15.91v-18.688L-1610.9 1393z" class="M"/><path d="M-1641.2 1388.5l13.89 14.9-1.389 22.476-24.622-28.284 12.122-9.091z" class="P"/><path d="M-2367.4 554.25l-7.702 24.208-13.943-12.6 21.644-11.608z" fill="#ccc"/><path d="M-969.01 927.4l.854-11.287 8.015 23.693-8.869-12.406z" class="F"/><path d="M-967.8 939.96l-.334-24.341 18.159 14.114-17.824 10.226z" fill="#ccc"/><path d="M-968.25 939.85l18.32-10.34-2.919 15.568-28.522 19.787 13.121-25.016z" class="M"/><path d="M-1747.3 190.56l27.394 2.857-13.881-11.886-13.513 9.029z" fill="#ccc"/><path fill="#313237" d="M-1746.7 190.05l-23.06 22.371 18.688-11.112 29.8 3.03 13.637 9.091-13.724-21.805-25.34-1.577z"/><path d="M-2382.9 595.22l-6.429-29.643 14.286 12.857 13.571 28.214-21.428-11.429z" class="P"/><path d="M-2367.7 554.33l10.179 6.429-5.536 42.143-11.964-24.464 7.321-24.107zm620.6-364.39l-19.446 18.94 58.336 4.041-13.006-21.339-25.885-1.642z" fill="#999"/></g><g transform="matrix(-2.440848 -3.347147 -3.393317 2.306895 -512.79433 1993.4332)" clip-path="url(#H)"><g transform="matrix(1.000533 -.038276 .02787 -1.000533 -6.754905 123.28841)"><g class="I"><g stroke-width="1.12"><use xlink:href="#u" fill="#ff2929"/><g class="E"><path d="M18.56 8.56h227.434v2.88H18.56zm0 3h227.434v2.88H18.56zm0 3h227.434v2.88H18.56zm0 3h227.434v2.88H18.56zm0 3h227.434v2.88H18.56zm0 3h227.434v2.88H18.56zm0 3h227.434v2.88H18.56zm0 3h227.434v2.88H18.56zm0 3h227.434v2.88H18.56zm0 3h227.434v2.88H18.56zm0 3h227.434v2.88H18.56zm0 3h227.434v2.88H18.56zm0 3h227.434v2.88H18.56zm0 3h227.434v2.88H18.56zm0 3h227.434v2.88H18.56zm0 3h227.434v2.88H18.56zm0 3h227.434v2.88H18.56zm0 3h227.434v2.88H18.56zm0 3h227.434v2.88H18.56zm0 3h227.434v2.88H18.56zm0 3h227.434v2.88H18.56zm0 3h227.434v2.88H18.56zm0 3h227.434v2.88H18.56zm0 3h227.434v2.88H18.56zm0 3h227.434v2.88H18.56zm0 3h227.434v2.88H18.56zm0 3h227.434v2.88H18.56zm0 3h227.434v2.88H18.56zm0 3h227.434v2.88H18.56zm0 3h227.434v2.88H18.56zm0 3h227.434v2.88H18.56zm0 3h227.434v2.88H18.56zm0 3h227.434v2.88H18.56z"/></g></g><path d="M244.499 1.499h13.002v111.002h-13.002z" fill="#b5c6e7" stroke-width=".998"/><path d="M257.495 49.495h1.009v7.009h-1.009z" fill="none" stroke-width=".991"/></g><path d="M247 8h3v3h-3zm5 0h3v3h-3zm-5 5h3v3h-3zm5 0h3v3h-3zm-5 5h3v3h-3zm5 0h3v3h-3zm-5 5h3v3h-3zm5 0h3v3h-3zm-5 5h3v3h-3zm5 0h3v3h-3zm-5 5h3v3h-3zm5 0h3v3h-3zm-5 5h3v3h-3zm5 0h3v3h-3zm-5 5h3v3h-3zm5 0h3v3h-3zm0 5h3v3h-3zm-4.993.107h3v3h-3zM252 53h3v3h-3zm-4.966.136h3v3h-3zM252 58h3v3h-3zm-5 5h3v3h-3zm5 0h3v3h-3zm-5 5h3v3h-3zm5 0h3v3h-3zm-5 5h3v3h-3zm5 0h3v3h-3zm-5 5h3v3h-3zm5 0h3v3h-3zm-5 5h3v3h-3zm5 0h3v3h-3zm-5 5h3v3h-3zm5 0h3v3h-3zm-5 5h3v3h-3zm5 0h3v3h-3zm-5 5h3v3h-3zm5 0h3v3h-3zm-5 5h3v3h-3zm5 0h3v3h-3z"/></g></g></g></svg>