<?xml version="1.0" encoding="UTF-8" standalone="no"?>
<!-- Uploaded to: SVG Repo, www.svgrepo.com, Generator: SVG Repo Mixer Tools -->

<svg
   version="1.1"
   id="_x34_"
   viewBox="0 0 459.98798 576.91993"
   xml:space="preserve"
   sodipodi:docname="hdd_dimension.svg"
   width="459.98798"
   height="576.91992"
   inkscape:version="1.2 (dc2aedaf03, 2022-05-15)"
   xmlns:inkscape="http://www.inkscape.org/namespaces/inkscape"
   xmlns:sodipodi="http://sodipodi.sourceforge.net/DTD/sodipodi-0.dtd"
   xmlns="http://www.w3.org/2000/svg"
   xmlns:svg="http://www.w3.org/2000/svg"><defs
   id="defs55" /><sodipodi:namedview
   id="namedview53"
   pagecolor="#ffffff"
   bordercolor="#000000"
   borderopacity="0.25"
   inkscape:showpageshadow="2"
   inkscape:pageopacity="0.0"
   inkscape:pagecheckerboard="0"
   inkscape:deskcolor="#d1d1d1"
   showgrid="false"
   inkscape:zoom="1.0029297"
   inkscape:cx="-166.01363"
   inkscape:cy="358.44985"
   inkscape:window-width="2560"
   inkscape:window-height="1361"
   inkscape:window-x="2391"
   inkscape:window-y="-9"
   inkscape:window-maximized="1"
   inkscape:current-layer="_x34_" />
<g
   id="g50">
	<g
   id="g46">
		<path
   style="fill:#5d5e5e"
   d="m 390.839,60.991 v 419.691 c 0,17.266 -14.126,31.318 -31.318,31.318 H 31.318 c -1.271,0 -2.467,-0.075 -3.737,-0.224 C 13.379,510.057 1.944,498.696 0.224,484.42 0.075,483.149 0,481.953 0,480.682 V 60.991 C 0,44.846 12.407,44.548 28.179,44.548 h 334.482 c 15.771,0 28.178,0.299 28.178,16.443 z"
   id="path2" />
		<path
   style="fill:#787878"
   d="m 390.839,31.318 v 404.891 c 0,17.191 -14.126,31.243 -31.318,31.243 H 31.318 C 14.127,467.452 0,453.4 0,436.209 V 31.318 C 0,14.127 14.127,0 31.318,0 h 328.203 c 1.345,0 2.691,0.075 4.036,0.299 13.977,1.794 25.189,13.005 26.983,26.983 0.224,1.345 0.299,2.691 0.299,4.036 z"
   id="path4" />
		<path
   style="fill:#5d5e5e"
   d="m 195.42,359.268 c -85.916,0 -155.813,-69.896 -155.813,-155.813 0,-85.915 69.896,-155.813 155.813,-155.813 85.917,0 155.813,69.898 155.813,155.813 -10e-4,85.917 -69.897,155.813 -155.813,155.813 z"
   id="path6" />
		<circle
   style="fill:#f6f5f5"
   cx="195.42"
   cy="203.455"
   r="137.26401"
   id="circle8" />
		<path
   style="fill:#cccccc"
   d="m 195.42,266.522 c -34.776,0 -63.067,-28.291 -63.067,-63.067 0,-34.776 28.291,-63.067 63.067,-63.067 34.776,0 63.067,28.291 63.067,63.067 0,34.776 -28.291,63.067 -63.067,63.067 z"
   id="path10" />
		<g
   style="opacity:0.2"
   id="g16">
			<g
   id="g14">
				<path
   style="fill:#787878"
   d="m 189.853,247.999 c 0,-3.139 2.46,-5.606 5.606,-5.606 v 0 0 0 c 0.146,0 0.292,0 0.372,0 v 0 c 3.066,0 5.606,2.467 5.679,5.533 v 0 c 0,3.066 -2.467,5.533 -5.533,5.606 v 0 c -0.073,0 -0.226,0 -0.299,0 v 0 c -0.073,0 -0.146,0 -0.219,0 v 0 0 0 c -3.146,-0.001 -5.606,-2.468 -5.606,-5.533 z m -26.54,-6.125 c -2.387,-2.022 -2.686,-5.533 -0.745,-7.854 v 0 c 2.015,-2.387 5.533,-2.686 7.847,-0.671 v 0 c 2.394,1.949 2.693,5.46 0.672,7.774 v 0 c -1.044,1.35 -2.613,2.022 -4.256,2.022 v 0 c -1.197,0 -2.467,-0.453 -3.518,-1.271 z m 56.81,-1.051 c -2.022,-2.314 -1.723,-5.825 0.598,-7.774 v 0 c 2.314,-2.015 5.825,-1.788 7.847,0.599 v 0 c 2.015,2.321 1.715,5.832 -0.598,7.847 v 0 c -1.044,0.898 -2.321,1.35 -3.591,1.35 v 0 c -1.57,0 -3.139,-0.671 -4.256,-2.022 z m -74,-28.547 c -0.599,-3.066 1.496,-5.905 4.489,-6.431 v 0 c 2.985,-0.599 5.898,1.423 6.423,4.482 v 0 c 0.598,2.993 -1.416,5.905 -4.482,6.431 v 0 c -0.299,0.073 -0.672,0.073 -0.971,0.073 v 0 c -2.619,0 -5.006,-1.869 -5.459,-4.555 z m 92.314,3.956 c -3.066,-0.445 -5.088,-3.358 -4.562,-6.35 v 0 c 0.445,-3.066 3.365,-5.08 6.35,-4.562 v 0 c 3.066,0.453 5.088,3.365 4.562,6.358 v 0 c -0.452,2.766 -2.766,4.708 -5.46,4.708 v 0 c -0.299,-0.001 -0.598,-0.073 -0.89,-0.154 z M 154.05,186.188 c -2.693,-1.569 -3.664,-4.934 -2.095,-7.628 v 0 c 1.496,-2.686 4.934,-3.584 7.62,-2.015 v 0 c 2.62,1.496 3.591,4.934 2.022,7.547 v 0 c -1.051,1.796 -2.92,2.839 -4.861,2.839 v 0 c -0.897,0.002 -1.868,-0.217 -2.686,-0.743 z m 74.964,-2.467 v 0 c -1.569,-2.613 -0.671,-6.058 1.949,-7.628 v 0 c 2.613,-1.569 6.051,-0.672 7.62,2.022 v 0 c 1.569,2.613 0.672,6.051 -1.942,7.62 v 0 c -0.898,0.525 -1.869,0.752 -2.839,0.752 v 0 c -1.949,0.001 -3.737,-0.97 -4.788,-2.766 z m -54.263,-20.109 c -1.044,-2.839 0.372,-6.051 3.292,-7.175 v 0 c 0,0 0,0 0,0.08 v 0 c 2.839,-1.124 6.051,0.372 7.175,3.212 v 0 c 1.044,2.912 -0.453,6.131 -3.292,7.175 v 0 c -0.672,0.226 -1.343,0.372 -1.942,0.372 v 0 c -2.24,0 -4.408,-1.416 -5.233,-3.664 z m 33.708,3.139 h 0.08 c -2.92,-1.044 -4.416,-4.183 -3.445,-7.095 v 0 c 1.051,-2.92 4.263,-4.416 7.182,-3.365 v 0 0 0 c 2.839,1.044 4.328,4.182 3.358,7.102 v 0 c -0.818,2.241 -2.985,3.657 -5.307,3.657 v 0 c -0.598,0 -1.197,-0.073 -1.868,-0.299 z"
   id="path12" />
			</g>
		</g>
		<path
   style="fill:#f6f5f5"
   d="m 195.42,229.424 c -14.318,0 -25.969,-11.649 -25.969,-25.969 0,-14.32 11.651,-25.969 25.969,-25.969 14.318,0 25.969,11.649 25.969,25.969 0,14.32 -11.652,25.969 -25.969,25.969 z"
   id="path18" />
		<g
   id="g30">
			<circle
   style="fill:#5d5e5e"
   cx="38.369999"
   cy="38.058998"
   r="12.057"
   id="circle20" />
			<circle
   style="fill:#5d5e5e"
   cx="352.46899"
   cy="38.058998"
   r="12.057"
   id="circle22" />
			<g
   id="g28">
				<circle
   style="fill:#5d5e5e"
   cx="38.369999"
   cy="421.40799"
   r="12.057"
   id="circle24" />
				<circle
   style="fill:#5d5e5e"
   cx="352.46899"
   cy="421.40799"
   r="12.057"
   id="circle26" />
			</g>
		</g>
		<rect
   x="48.146999"
   y="467.47101"
   style="fill:#717373"
   width="138.80901"
   height="17.003"
   id="rect32" />
		<rect
   x="257.44299"
   y="484.474"
   style="opacity:0.3;fill:#fdeed2"
   width="26.896"
   height="17.622"
   id="rect34" />
		<rect
   x="292.68701"
   y="484.474"
   style="opacity:0.3;fill:#fdeed2"
   width="57.501999"
   height="17.622"
   id="rect36" />
		<rect
   x="186.957"
   y="373.07199"
   style="opacity:0.1;fill:#dceccc"
   width="133.554"
   height="68.632004"
   id="rect38" />
		<g
   id="g44">
			<path
   style="fill:#e95d7a"
   d="M 103.28,181.625 79.491,397.617 v 0 c 0,13.139 10.651,23.79 23.789,23.79 13.141,0 23.792,-10.651 23.792,-23.79 v 0 z"
   id="path40" />
			<circle
   style="fill:#6f6e6e"
   cx="103.282"
   cy="397.37601"
   r="10.011"
   id="circle42" />
		</g>
	</g>
	<path
   style="opacity:0.08;fill:#040000"
   d="m 0,451.419 v 29.263 c 0,1.271 0.075,2.467 0.224,3.737 1.719,14.276 13.155,25.637 27.357,27.356 1.271,0.15 2.467,0.224 3.737,0.224 h 328.203 c 17.192,0 31.318,-14.052 31.318,-31.318 V 436.208 60.991 60.58 Z"
   id="path48" />
</g>
<g
   id="g3213"
   transform="matrix(0.41633176,0,0,0.41633176,246.82694,376.55321)"><g
     id="g1930"><path
       style="fill:#e4d4a2;fill-opacity:1"
       d="m 21.292,472.754 h 469.443 c 7.043,0 12.752,-5.709 12.752,-12.752 V 52.034 c 0,-10.935 -12.862,-16.797 -21.116,-9.625 L 12.928,450.379 c -8.903,7.736 -3.431,22.375 8.364,22.375 z M 224.255,364.674 388.522,221.918 c 2.888,-2.51 7.389,-0.459 7.389,3.368 v 142.756 c 0,2.465 -1.998,4.462 -4.462,4.462 H 227.182 c -4.127,-0.001 -6.042,-5.123 -2.927,-7.83 z"
       id="path1177" /></g><g
     id="g1183"
     style="fill:#e4d4a2;fill-opacity:1">
	<path
   style="fill:#e4d4a2;fill-opacity:1"
   d="M 362.71,221.918 198.444,364.674 c -3.115,2.707 -1.201,7.829 2.928,7.829 h 25.811 c -4.128,0 -6.043,-5.122 -2.928,-7.829 L 370.1,237.928 v -12.641 c -0.001,-3.828 -4.5,-5.879 -7.39,-3.369 z"
   id="path1179" />
	<path
   style="fill:#e4d4a2;fill-opacity:1"
   d="m 482.371,42.41 -5.59,4.857 c 0.572,1.442 0.895,3.041 0.895,4.767 v 407.969 c 0,7.043 -5.709,12.752 -12.752,12.752 h 25.811 c 7.043,0 12.752,-5.709 12.752,-12.752 V 52.034 c 0,-10.934 -12.862,-16.798 -21.116,-9.624 z"
   id="path1181" />
</g><circle
     cx="268.87"
     cy="326.311"
     r="8.5139999"
     id="circle1185" /><path
     d="m 499.554,32.685 c -7.674,-3.498 -16.398,-2.234 -22.769,3.299 L 7.343,443.951 c -6.765,5.879 -9.108,15.103 -5.97,23.497 3.139,8.395 10.957,13.819 19.919,13.819 h 149.878 0.011 0.011 137.43 0.007 c 0.008,0 0.011,0 0.011,0 h 137.434 c 0,0 0.007,0 0.011,0 0,0 0.007,0 0.011,0 h 44.638 c 11.725,0 21.264,-9.539 21.264,-21.266 V 52.035 C 512,43.597 507.231,36.183 499.554,32.685 Z M 490.735,464.24 H 454.6 v -28.118 c 0,-4.702 -3.811,-8.514 -8.514,-8.514 -4.703,0 -8.514,3.812 -8.514,8.514 V 464.24 H 317.147 v -35.648 c 0,-4.702 -3.811,-8.514 -8.514,-8.514 -4.703,0 -8.514,3.812 -8.514,8.514 V 464.24 H 179.695 v -35.648 c 0,-4.702 -3.811,-8.514 -8.514,-8.514 -4.703,0 -8.514,3.812 -8.514,8.514 V 464.24 H 21.292 c -2.653,0 -3.66,-1.925 -3.969,-2.754 -0.309,-0.829 -0.814,-2.941 1.19,-4.683 L 487.956,48.836 c 0.938,-0.815 1.896,-1.061 2.711,-1.061 0.797,0 1.456,0.236 1.825,0.403 0.746,0.339 2.48,1.396 2.48,3.856 v 80.075 h -35.648 c -4.703,0 -8.514,3.812 -8.514,8.514 0,4.702 3.811,8.514 8.514,8.514 h 35.648 v 120.426 h -35.648 c -4.703,0 -8.514,3.812 -8.514,8.514 0,4.702 3.811,8.514 8.514,8.514 h 35.648 V 403.864 H 464.64 c -4.703,0 -8.514,3.812 -8.514,8.514 0,4.702 3.811,8.514 8.514,8.514 h 30.332 v 39.111 c 0,2.337 -1.901,4.237 -4.237,4.237 z"
     id="path1187" /><path
     d="m 404.424,225.286 c 0,-5.147 -2.909,-9.672 -7.592,-11.806 -4.685,-2.136 -10.007,-1.365 -13.895,2.012 l -95.38,82.891 c -3.549,3.084 -3.925,8.462 -0.841,12.011 3.085,3.55 8.463,3.926 12.011,0.841 l 88.669,-77.059 V 363.99 H 238.021 l 12.383,-10.76 c 3.549,-3.084 3.925,-8.462 0.841,-12.011 -3.085,-3.55 -8.462,-3.927 -12.011,-0.842 l -20.564,17.871 c -4.128,3.588 -5.558,9.216 -3.642,14.337 1.915,5.122 6.686,8.432 12.154,8.432 h 164.267 c 7.155,0 12.975,-5.821 12.975,-12.976 z"
     id="path1189" /><circle
     cx="68.091003"
     cy="446.948"
     r="8.5139999"
     id="circle1191" /><circle
     cx="102.451"
     cy="446.948"
     r="8.5139999"
     id="circle1193" /><circle
     cx="136.813"
     cy="446.948"
     r="8.5139999"
     id="circle1195" /><circle
     cx="205.537"
     cy="446.948"
     r="8.5139999"
     id="circle1197" /><circle
     cx="239.911"
     cy="446.948"
     r="8.5139999"
     id="circle1199" /><circle
     cx="274.27301"
     cy="446.948"
     r="8.5139999"
     id="circle1201" /><circle
     cx="342.99799"
     cy="446.948"
     r="8.5139999"
     id="circle1203" /><circle
     cx="377.35999"
     cy="446.948"
     r="8.5139999"
     id="circle1205" /><circle
     cx="411.72198"
     cy="446.948"
     r="8.5139999"
     id="circle1207" /><circle
     cx="477.677"
     cy="381.164"
     r="8.5139999"
     id="circle1209" /><circle
     cx="477.677"
     cy="346.80099"
     r="8.5139999"
     id="circle1211" /><circle
     cx="477.677"
     cy="312.439"
     r="8.5139999"
     id="circle1213" /><circle
     cx="477.677"
     cy="243.715"
     r="8.5139999"
     id="circle1215" /><circle
     cx="477.677"
     cy="209.35201"
     r="8.5139999"
     id="circle1217" /><circle
     cx="477.677"
     cy="174.99001"
     r="8.5139999"
     id="circle1219" /><circle
     cx="477.677"
     cy="106.265"
     r="8.5139999"
     id="circle1221" /><circle
     cx="477.677"
     cy="71.903"
     r="8.5139999"
     id="circle1223" /></g></svg>
