<?xml version="1.0" encoding="UTF-8" standalone="no"?>
<!-- Generator: Adobe Illustrator 19.0.0, SVG Export Plug-In . SVG Version: 6.00 Build 0)  -->

<svg
   version="1.1"
   id="Capa_1"
   x="0px"
   y="0px"
   viewBox="0 0 463.942 463.942"
   style="enable-background:new 0 0 463.942 463.942;"
   xml:space="preserve"
   sodipodi:docname="keys.svg"
   inkscape:version="1.1.1 (3bf5ae0d25, 2021-09-20)"
   xmlns:inkscape="http://www.inkscape.org/namespaces/inkscape"
   xmlns:sodipodi="http://sodipodi.sourceforge.net/DTD/sodipodi-0.dtd"
   xmlns="http://www.w3.org/2000/svg"
   xmlns:svg="http://www.w3.org/2000/svg"><defs
   id="defs55">
	
	
	
	
	
	
	
	
	
</defs><sodipodi:namedview
   id="namedview53"
   pagecolor="#ffffff"
   bordercolor="#666666"
   borderopacity="1.0"
   inkscape:pageshadow="2"
   inkscape:pageopacity="0.0"
   inkscape:pagecheckerboard="0"
   showgrid="false"
   inkscape:zoom="1.2680742"
   inkscape:cx="152.5936"
   inkscape:cy="247.22529"
   inkscape:window-width="1920"
   inkscape:window-height="1017"
   inkscape:window-x="1672"
   inkscape:window-y="-8"
   inkscape:window-maximized="1"
   inkscape:current-layer="Capa_1" />
<path
   style="fill:#343943;fill-opacity:1;stroke:#000000;stroke-opacity:1"
   d="m 90.5,214.629 c -9.32,-3.295 -16,-12.18 -16,-22.629 0,-13.255 10.745,-24 24,-24 13.255,0 24,10.745 24,24 0,10.449 -6.68,19.334 -16,22.629 V 252 c 0,3.954 0.65,7.757 1.833,11.319 C 143.443,258.522 170.5,228.427 170.5,192 V 16 c 0,-8.837 -7.163,-16 -16,-16 h -112 c -8.837,0 -16,7.163 -16,16 v 173.534 c 0,37.719 28.004,70.71 65.338,74.141 C 90.973,259.919 90.5,256.015 90.5,252 Z M 50.5,67.446 c 0,-15.6 12.598,-28.246 28.138,-28.246 7.753,0 14.773,3.15 19.862,8.242 5.089,-5.092 12.109,-8.242 19.862,-8.242 15.54,0 28.138,12.646 28.138,28.246 0,21.6 -25.242,47.562 -48,58.154 -22.758,-10.592 -48,-36.554 -48,-58.154 z"
   id="path2" /><path
   style="fill:#ebd2aa;stroke:#000000;stroke-opacity:1"
   d="M 435.349,366.906 306.505,238.062 c 7.021,-19.733 2.64,-42.615 -13.155,-58.409 -18.112,-18.112 -45.538,-21.208 -66.852,-9.319 5.072,-1.51 10.44,-2.333 16.002,-2.333 30.928,0 56,25.072 56,56 0,21.042 -11.612,39.364 -28.771,48.933 0.952,-0.282 1.897,-0.596 2.835,-0.93 l 54.728,54.728 11.313,-0.001 5.658,5.658 0.001,11.314 5.657,5.657 11.313,-0.001 5.656,5.656 -10e-4,11.313 11.672,11.672 c 3.358,3.358 8.033,5.05 12.762,4.621 l 39.641,-3.604 c 6.005,-0.546 8.648,-7.848 4.385,-12.111 z m -40.175,-6.235 c -3.124,3.124 -8.19,3.124 -11.314,0 l -84.853,-84.853 c -3.124,-3.124 -3.124,-8.189 0,-11.314 v 0 c 3.124,-3.124 8.189,-3.124 11.314,0 l 84.853,84.853 c 3.124,3.125 3.124,8.19 0,11.314 z"
   id="path4" /><path
   style="fill:#ffe6b9"
   d="m 310.321,264.505 c -3.124,-3.124 -8.19,-3.124 -11.314,0 v 0 c -3.124,3.124 -3.124,8.189 0,11.314 l 84.853,84.853 c 3.124,3.124 8.19,3.124 11.314,0 3.124,-3.124 3.124,-8.19 0,-11.314 z"
   id="path6" /><path
   style="fill:#ebd2aa"
   d="m 253.752,219.25 c -6.242,6.242 -16.358,6.247 -22.607,0.018 2.899,2.921 6.914,4.732 11.355,4.732 8.836,0 16,-7.164 16,-16 0,-4.429 -1.8,-8.436 -4.708,-11.333 6.206,6.251 6.194,16.349 -0.04,22.583 z"
   id="path8" /><path
   style="fill:#ebd2aa"
   d="m 230.462,218.516 c -0.104,-0.117 -0.216,-0.23 -0.316,-0.35 0.099,0.122 0.212,0.232 0.316,0.35 z"
   id="path10" /><path
   style="fill:#ebd2aa"
   d="m 242.5,288 v 0 c -4.418,0 -8,3.582 -8,8 v 120 c 0,4.418 3.582,8 8,8 v 0 c 4.418,0 8,-3.582 8,-8 V 296 c 0,-4.418 -3.582,-8 -8,-8 z"
   id="path12" /><path
   style="fill:#ffe6b9;stroke:#000000;stroke-opacity:1"
   d="m 298.5,224 c 0,-30.928 -25.072,-56 -56,-56 -5.562,0 -10.93,0.823 -16.002,2.333 C 203.37,177.219 186.5,198.635 186.5,224 c 0,0.109 0.008,0.217 0.008,0.326 8.906,-14.105 24.394,-23.647 42.121,-24.279 2.761,-4.804 7.932,-8.047 13.871,-8.047 4.408,0 8.399,1.783 11.292,4.667 2.907,2.897 4.708,6.904 4.708,11.333 0,8.836 -7.164,16 -16,16 -4.44,0 -8.456,-1.811 -11.355,-4.732 -0.239,-0.24 -0.461,-0.497 -0.684,-0.752 -0.104,-0.118 -0.216,-0.228 -0.316,-0.35 -0.545,-0.661 -1.025,-1.376 -1.459,-2.12 -19.012,0.948 -34.186,16.711 -34.186,35.954 0,0.273 -0.016,0.543 -0.021,0.815 5.667,9.424 14.029,17.041 24.021,21.788 V 352 l 8,7.999 V 368 l -8,8.001 v 8 l 8,7.999 v 7.999 l -8,7.999 v 16.508 c 0,4.748 2.109,9.251 5.757,12.292 l 30.579,25.482 c 4.632,3.86 11.664,0.566 11.664,-5.463 V 274.604 c 1.097,-0.521 2.172,-1.081 3.229,-1.671 C 286.888,263.364 298.5,245.042 298.5,224 Z m -48,192 c 0,4.418 -3.582,8 -8,8 v 0 c -4.418,0 -8,-3.582 -8,-8 V 296 c 0,-4.418 3.582,-8 8,-8 v 0 c 4.418,0 8,3.582 8,8 z"
   id="path14" /><path
   style="fill:#d7c3aa;stroke:#000000;stroke-opacity:1"
   d="m 228.686,216.046 c 0.601,-0.03 1.206,-0.046 1.814,-0.046 h 12 c 4.418,0 8,-3.578 8,-8 0,-4.422 -3.582,-8 -8,-8 h -12 c -0.627,0 -1.249,0.025 -1.871,0.047 -17.727,0.631 -33.215,10.173 -42.121,24.279 -5.064,8.021 -8.008,17.508 -8.008,27.674 0,19.852 -16.148,36 -36,36 -15.898,0 -29.411,-10.361 -34.167,-24.681 C 107.15,259.757 106.5,255.954 106.5,252 V 214.629 192 c 0,-4.422 -3.582,-8 -8,-8 -4.418,0 -8,3.578 -8,8 V 214.629 252 c 0,4.015 0.473,7.919 1.338,11.675 5.315,23.067 26.005,40.325 50.662,40.325 28.398,0 51.54,-22.889 51.979,-51.185 0.004,-0.272 0.021,-0.542 0.021,-0.815 0,-19.243 15.174,-35.006 34.186,-35.954 z"
   id="path16" />
<g
   id="g22">
</g>
<g
   id="g24">
</g>
<g
   id="g26">
</g>
<g
   id="g28">
</g>
<g
   id="g30">
</g>
<g
   id="g32">
</g>
<g
   id="g34">
</g>
<g
   id="g36">
</g>
<g
   id="g38">
</g>
<g
   id="g40">
</g>
<g
   id="g42">
</g>
<g
   id="g44">
</g>
<g
   id="g46">
</g>
<g
   id="g48">
</g>
<g
   id="g50">
</g>
<rect
   style="fill:#343943;fill-opacity:1;stroke:none;stroke-opacity:1"
   id="rect1397"
   width="104.09486"
   height="106.06635"
   x="46.527248"
   y="24.840818" /><text
   xml:space="preserve"
   style="font-style:normal;font-weight:normal;font-size:96px;line-height:1.25;font-family:sans-serif;fill:#ffffff;fill-opacity:1;stroke:none"
   x="33.121094"
   y="111.58653"
   id="text3953"><tspan
     sodipodi:role="line"
     id="tspan3951"
     x="33.121094"
     y="111.58653"
     style="font-style:normal;font-variant:normal;font-weight:normal;font-stretch:normal;font-size:96px;font-family:'Comic Sans MS';-inkscape-font-specification:'Comic Sans MS';fill:#ffffff;fill-opacity:1">U</tspan></text><text
   xml:space="preserve"
   style="font-style:normal;font-weight:normal;font-size:96px;line-height:1.25;font-family:sans-serif;fill:#ff6a66;fill-opacity:1;stroke:none"
   x="103.73869"
   y="111.56655"
   id="text3953-1"><tspan
     sodipodi:role="line"
     id="tspan3951-4"
     x="103.73869"
     y="111.56655"
     style="font-style:normal;font-variant:normal;font-weight:normal;font-stretch:normal;font-size:96px;font-family:'Comic Sans MS';-inkscape-font-specification:'Comic Sans MS';fill:#ff6a66;fill-opacity:1">R</tspan></text></svg>
