<?xml version="1.0" encoding="UTF-8" standalone="no"?>
<!-- Generator: Adobe Illustrator 19.0.0, SVG Export Plug-In . SVG Version: 6.00 Build 0)  -->

<svg
   version="1.1"
   id="Layer_1"
   x="0px"
   y="0px"
   viewBox="0 0 512 512"
   style="enable-background:new 0 0 512 512;"
   xml:space="preserve"
   sodipodi:docname="misc.svg"
   inkscape:version="1.2 (dc2aedaf03, 2022-05-15)"
   xmlns:inkscape="http://www.inkscape.org/namespaces/inkscape"
   xmlns:sodipodi="http://sodipodi.sourceforge.net/DTD/sodipodi-0.dtd"
   xmlns="http://www.w3.org/2000/svg"
   xmlns:svg="http://www.w3.org/2000/svg"><defs
   id="defs23138" /><sodipodi:namedview
   id="namedview23136"
   pagecolor="#ffffff"
   bordercolor="#000000"
   borderopacity="0.25"
   inkscape:showpageshadow="2"
   inkscape:pageopacity="0.0"
   inkscape:pagecheckerboard="0"
   inkscape:deskcolor="#d1d1d1"
   showgrid="false"
   inkscape:zoom="1.1476675"
   inkscape:cx="189.95049"
   inkscape:cy="250.07244"
   inkscape:window-width="1920"
   inkscape:window-height="1017"
   inkscape:window-x="1672"
   inkscape:window-y="-8"
   inkscape:window-maximized="1"
   inkscape:current-layer="Layer_1" />
<path
   style="fill:#00bdff;stroke:#000000;stroke-opacity:1;fill-opacity:1;stroke-width:1;stroke-dasharray:none"
   d="M256,512C114.844,512,0,397.156,0,256S114.844,0,256,0s256,114.844,256,256S397.156,512,256,512z"
   id="path23095" />
<path
   style="fill:#04b5f4;stroke:none;stroke-opacity:1;fill-opacity:1"
   d="M375.467,426.667c-141.156,0-256-114.844-256-256c0-59.087,20.318-113.41,54.071-156.783  C72.768,48.311,0,143.72,0,256c0,141.156,114.844,256,256,256c82.069,0,155.049-38.974,201.929-99.217  C432.012,421.638,404.342,426.667,375.467,426.667z"
   id="path23097" />

<g
   id="g23105">
</g>
<g
   id="g23107">
</g>
<g
   id="g23109">
</g>
<g
   id="g23111">
</g>
<g
   id="g23113">
</g>
<g
   id="g23115">
</g>
<g
   id="g23117">
</g>
<g
   id="g23119">
</g>
<g
   id="g23121">
</g>
<g
   id="g23123">
</g>
<g
   id="g23125">
</g>
<g
   id="g23127">
</g>
<g
   id="g23129">
</g>
<g
   id="g23131">
</g>
<g
   id="g23133">
</g>
<path
   d="M 259.28408,301.18983 V 255.7588 c 37.63618,0 68.14652,-30.51032 68.14652,-68.14651 0,-37.63618 -30.51034,-68.14651 -68.14652,-68.14651 -37.6362,0 -68.14653,30.51033 -68.14653,68.14651"
   id="path24010"
   stroke="#212121"
   stroke-linecap="round"
   stroke-linejoin="round"
   stroke-width="34.0732"
   style="fill:none;fill-rule:evenodd;stroke:#f8f8f8;stroke-opacity:1" /><path
   d="m 259.28408,403.4096 c 15.68164,0 28.39438,-12.71274 28.39438,-28.39438 0,-15.68165 -12.71274,-28.39438 -28.39438,-28.39438 -15.68166,0 -28.39438,12.71273 -28.39438,28.39438 0,15.68164 12.71272,28.39438 28.39438,28.39438 z"
   fill="#212121"
   id="path24012"
   style="fill:#f8f8f8;fill-rule:evenodd;stroke:none;stroke-width:22.7155;fill-opacity:1" /></svg>
