<?xml version="1.0" encoding="UTF-8" standalone="no"?>
<!-- Uploaded to: SVG Repo, www.svgrepo.com, Generator: SVG Repo Mixer Tools -->

<svg
   width="510.07346"
   height="527.83618"
   viewBox="0 0 8.0974161 8.3793994"
   id="svg8"
   version="1.1"
   sodipodi:docname="platter.svg"
   inkscape:version="1.2 (dc2aedaf03, 2022-05-15)"
   xmlns:inkscape="http://www.inkscape.org/namespaces/inkscape"
   xmlns:sodipodi="http://sodipodi.sourceforge.net/DTD/sodipodi-0.dtd"
   xmlns="http://www.w3.org/2000/svg"
   xmlns:svg="http://www.w3.org/2000/svg">
  <sodipodi:namedview
     id="namedview29"
     pagecolor="#ffffff"
     bordercolor="#000000"
     borderopacity="0.25"
     inkscape:showpageshadow="2"
     inkscape:pageopacity="0.0"
     inkscape:pagecheckerboard="0"
     inkscape:deskcolor="#d1d1d1"
     showgrid="false"
     inkscape:zoom="1.28375"
     inkscape:cx="247.3223"
     inkscape:cy="237.97468"
     inkscape:window-width="2560"
     inkscape:window-height="1361"
     inkscape:window-x="2391"
     inkscape:window-y="-9"
     inkscape:window-maximized="1"
     inkscape:current-layer="svg8" />
  <defs
     id="defs2">
    <clipPath
       clipPathUnits="userSpaceOnUse"
       id="clipPath5343">
      <path
         d="m 3.0688351,285.55677 c -1.613568,1.19596 -2.5662181,3.08478 -2.56883509,5.09323 0,3.50701 2.84299219,6.35 6.35000009,6.35 C 10.357008,297 13.2,294.15701 13.2,290.65 c -0.0022,-0.84296 -0.452078,-2.71271 -0.500228,-2.45359 -0.02424,0.84121 -0.571809,2.35322 -0.602031,2.23138 -0.0026,-0.50621 -0.2876,-1.42626 -0.305098,-1.19509 0.02804,1.40695 -1.48374,3.17677 -2.3076623,3.50038 -0.8310457,0.36942 -1.7371637,0.56412 -2.6117267,0.56534 -0.1736918,2e-5 -1.1686519,-0.13807 -1.6443439,-0.70435 -0.826376,-0.89253 -0.00201,-1.09994 0.4625039,-1.27331 0.5055862,-0.18871 1.030887,-0.30969 1.5203212,-0.42013 0.7456988,-0.16826 0.4710618,-0.52626 0.1049028,-0.6289 -0.9266939,-0.25976 -2.044886,0.33543 -2.8654579,0.30593 -0.848406,-0.0291 -0.804618,-1.69621 -0.1405601,-1.76217 0.7394212,-0.0734 1.6665151,-0.51079 1.461779,-0.65673 -0.8303549,-0.61672 -0.9617369,-0.79081 -1.0595549,-1.16418 -0.1480201,-0.565 0.341282,-1.03557 0.05777,-0.96356 -0.2596169,0.08 -0.4110678,0.15641 -0.5988619,0.25715 -0.1672929,0.0897 -0.293814,0.0546 -0.6751841,0.002 -0.3249449,-0.045 -0.3870058,-0.0557 -0.3755009,-0.25673 0.0115,-0.20097 0.07295,-0.52125 -0.05223,-0.47648 z"
         id="path5345"
         style="fill:#7aafff;fill-opacity:1;stroke:none;stroke-width:2.01046;stroke-linecap:round;stroke-linejoin:round;stroke-miterlimit:4;stroke-dasharray:none;stroke-opacity:1" />
    </clipPath>
    <clipPath
       clipPathUnits="userSpaceOnUse"
       id="clipPath4543">
      <path
         d="m 1.7760088,291.5696 c -1.82613339,0.17434 -3.2940315,0.91934 -3.4903996,2.16451 -0.2629054,1.66729 1.5678591,3.34127 4.0891213,3.73893 1.2172084,0.19119 2.434234,0.053 3.3807423,-0.38387 0.7310194,0.5283 1.669357,0.90078 2.6704721,1.06008 2.5212691,0.39771 4.7783381,-0.6315 5.0412801,-2.2988 0.262905,-1.6673 -1.490667,-1.94329 -4.257163,-2.17938 -2.7664958,-0.23609 -3.6163896,-1.68839 -5.7470448,-2.04575 -0.5660191,-0.0893 -1.1380808,-0.10817 -1.6870084,-0.0557 z"
         id="path4545"
         style="opacity:1;vector-effect:none;fill:#666666;fill-opacity:1;stroke:none;stroke-width:2.11667;stroke-linecap:round;stroke-linejoin:round;stroke-miterlimit:4;stroke-dasharray:none;stroke-dashoffset:0;stroke-opacity:1" />
    </clipPath>
  </defs>
  <path
     d="m 4.3208554,0.32862913 a 3.776372,3.776372 0 0 0 -0.086816,0.003 3.7763717,3.7763717 0 0 0 -0.047025,-5.2e-4 3.7763717,3.7763717 0 0 0 -0.048059,0.004 3.776372,3.776372 0 0 0 -0.1989543,0.017 3.7763717,3.7763717 0 0 0 -0.1994709,0.0243 3.776372,3.776372 0 0 0 -0.1741496,0.0325 3.7763717,3.7763717 0 0 0 -0.1927532,0.0434 3.776372,3.776372 0 0 0 -0.1782836,0.0522 3.7763717,3.7763717 0 0 0 -0.1782837,0.0589 3.776372,3.776372 0 0 0 -0.1829345,0.0744 3.7763717,3.7763717 0 0 0 -0.1607138,0.0718 3.776372,3.776372 0 0 0 -0.1725993,0.091 3.7763717,3.7763717 0 0 0 -0.1658813,0.0956 3.776372,3.776372 0 0 0 -0.1462443,0.0966 3.7763717,3.7763717 0 0 0 -0.1643311,0.11781997 3.776372,3.776372 0 0 0 -0.1405599,0.11524 3.7763717,3.7763717 0 0 0 -0.1431438,0.12557 3.776372,3.776372 0 0 0 -0.1364258,0.13643 3.7763717,3.7763717 0 0 0 -0.083716,0.0837 h -5.159e-4 a 3.776372,3.776372 0 0 0 -0.058912,0.0698 3.776372,3.776372 0 0 0 -0.05271,0.0625 3.776372,3.776372 0 0 0 -0.1322917,0.17415 3.776372,3.776372 0 0 0 -0.1043863,0.14779 3.776372,3.776372 0 0 0 -0.101286,0.16537 3.776372,3.776372 0 0 0 -0.089917,0.15812 3.776372,3.776372 0 0 0 -0.084232,0.17364 3.776372,3.776372 0 0 0 -0.075965,0.17156 3.776372,3.776372 0 0 0 -0.065112,0.17932 3.776372,3.776372 0 0 0 -0.057361,0.17467 3.776372,3.776372 0 0 0 -0.047025,0.18552 3.776372,3.776372 0 0 0 -0.040308,0.18345 3.776372,3.776372 0 0 0 -0.013953,0.0625 l 0.00413,5e-4 a 3.776372,3.776372 0 0 0 -0.056327,0.62425 3.776372,3.776372 0 0 0 0.82578949,2.35593 l -1.24126779,0.71676 a 3.2839774,3.2839774 0 0 0 1.20251059,1.202 l 0.7260539,-1.25781 a 3.776372,3.776372 0 0 0 2.2634277,0.75965 3.776372,3.776372 0 0 0 1.5203207,-0.32453 l 0.00206,0.004 a 3.776372,3.776372 0 0 0 0.1421101,-0.0687 3.776372,3.776372 0 0 0 0.1607135,-0.0858 3.776372,3.776372 0 0 0 0.1694992,-0.0977 3.776372,3.776372 0 0 0 0.159163,-0.10697 3.776372,3.776372 0 0 0 0.1452111,-0.10387 3.776372,3.776372 0 0 0 0.1503788,-0.12402 3.776372,3.776372 0 0 0 0.1426271,-0.12609 3.776372,3.776372 0 0 0 0.1250558,-0.12661 3.776372,3.776372 0 0 0 0.1359091,-0.14521 3.776372,3.776372 0 0 0 0.114205,-0.14211 3.776372,3.776372 0 0 0 0.1162719,-0.15296 3.776372,3.776372 0 0 0 0.1018036,-0.15555 3.776372,3.776372 0 0 0 0.1012859,-0.16536 3.776372,3.776372 0 0 0 0.08475,-0.16278 3.776372,3.776372 0 0 0 0.08217,-0.17054 3.776372,3.776372 0 0 0 0.04289,-0.10025 l 0.0021,0.001 a 3.7763717,3.7763717 0 0 0 0.03721,-0.10542 3.776372,3.776372 0 0 0 0.05271,-0.1478 3.776372,3.776372 0 0 0 0.05323,-0.18448 3.776372,3.776372 0 0 0 0.03617,-0.12713 l -0.0036,-10e-4 a 3.776372,3.776372 0 0 0 0.102319,-0.8568 3.776372,3.776372 0 0 0 -1.6443445,-3.11659997 3.776372,3.776372 0 0 0 -0.00259,-0.002 3.7763717,3.7763717 0 0 0 -0.00101,-5.2e-4 3.7763717,3.7763717 0 0 0 -0.1203904,-0.0796 3.7763717,3.7763717 0 0 0 -0.101803,-0.0574 3.776372,3.776372 0 0 0 -0.1617427,-0.0904 3.7763717,3.7763717 0 0 0 -0.1684655,-0.0816 3.776372,3.776372 0 0 0 -0.1793171,-0.0775 3.7763717,3.7763717 0 0 0 -0.1705321,-0.0625 3.776372,3.776372 0 0 0 -0.1793174,-0.0574 3.7763717,3.7763717 0 0 0 -0.1865519,-0.0481 3.776372,3.776372 0 0 0 -0.1870686,-0.0393 3.7763717,3.7763717 0 0 0 -0.177767,-0.0269 3.776372,3.776372 0 0 0 -0.1948201,-0.0222 3.7763717,3.7763717 0 0 0 -0.1870686,-0.009 3.776372,3.776372 0 0 0 -0.1136883,-0.006 z"
     id="path4531-3-7-6"
     style="vector-effect:none;fill:#666666;fill-opacity:1;stroke:none;stroke-width:0.248185;stroke-linecap:round;stroke-linejoin:bevel;stroke-miterlimit:4;stroke-dasharray:none;stroke-dashoffset:15;stroke-opacity:1;paint-order:stroke fill markers" />
  <path
     cx="9.0659075"
     cy="302.69254"
     id="path4533-7"
     r="1.6866804"
     style="vector-effect:none;fill:#cccccc;fill-opacity:1;stroke:none;stroke-width:0.188444;stroke-linecap:round;stroke-linejoin:bevel;stroke-miterlimit:4;stroke-dasharray:none;stroke-dashoffset:15;stroke-opacity:1;paint-order:stroke fill markers"
     d="" />
  <path
     cx="-1.3981887"
     cy="303.22104"
     d=""
     id="path4531-9"
     r="4.0322208"
     style="vector-effect:none;fill:#afe9dd;fill-opacity:1;stroke:none;stroke-width:0.265;stroke-linecap:round;stroke-linejoin:bevel;stroke-miterlimit:4;stroke-dasharray:none;stroke-dashoffset:15;stroke-opacity:1;paint-order:stroke fill markers" />
  <path
     cx="8.8023634"
     cy="302.90338"
     d=""
     id="path4531-3-1"
     r="4.0322208"
     style="vector-effect:none;fill:#afe9dd;fill-opacity:1;stroke:none;stroke-width:0.265;stroke-linecap:round;stroke-linejoin:bevel;stroke-miterlimit:4;stroke-dasharray:none;stroke-dashoffset:15;stroke-opacity:1;paint-order:stroke fill markers" />
  <circle
     cx="4.1918602"
     cy="3.7764235"
     id="path4531-3"
     r="3.776372"
     style="vector-effect:none;fill:#cccccc;fill-opacity:1;stroke:none;stroke-width:0.248185;stroke-linecap:round;stroke-linejoin:bevel;stroke-miterlimit:4;stroke-dasharray:none;stroke-dashoffset:15;stroke-opacity:1;paint-order:stroke fill markers" />
  <path
     d="M 7.8695321,4.6342003 A 3.776372,3.776372 0 0 1 5.7140467,7.2324091 L 4.1918702,3.7764109 Z"
     id="path4531-6-62"
     style="vector-effect:none;fill:#ffb6b6;fill-opacity:1;stroke:none;stroke-width:0.248185;stroke-linecap:round;stroke-linejoin:bevel;stroke-miterlimit:4;stroke-dasharray:none;stroke-dashoffset:15;stroke-opacity:1;paint-order:stroke fill markers" />
  <path
     d="M 4.0578056,0.00236913 A 3.7763716,3.7763716 0 0 0 1.3911032,1.2432891 l 2.8007633,2.53312 3.6728866,0.85713 A 3.7763716,3.7763716 0 0 0 6.1998784,0.57830913 3.7763716,3.7763716 0 0 0 4.0578056,0.00236913 Z M 7.8386182,4.7404991 a 3.7763716,3.7763716 0 0 1 -0.053722,0.18777 3.7763716,3.7763716 0 0 0 0.053722,-0.18777 z m -0.1113138,0.35281 a 3.7763716,3.7763716 0 0 1 -0.041621,0.10353 l 0.0044,0.002 a 3.7763716,3.7763716 0 0 0 0.037265,-0.1055 z"
     id="path4531-6-6-0"
     style="vector-effect:none;fill:#80decc;fill-opacity:1;stroke:none;stroke-width:0.248185;stroke-linecap:round;stroke-linejoin:bevel;stroke-miterlimit:4;stroke-dasharray:none;stroke-dashoffset:15;stroke-opacity:1;paint-order:stroke fill markers" />
  <path
     d="M 0.46740661,3.1513124 A 3.776372,3.776372 0 0 1 1.3909854,1.2432902 l 2.8006893,2.5332032 z"
     id="path4531-6-62-1-2"
     style="vector-effect:none;fill:#ffac76;fill-opacity:1;stroke:none;stroke-width:0.248185;stroke-linecap:round;stroke-linejoin:bevel;stroke-miterlimit:4;stroke-dasharray:none;stroke-dashoffset:15;stroke-opacity:1;paint-order:stroke fill markers" />
  <path
     d="m 4.1612236,3.7521791 0.7119317,1.61652 a 1.535955,1.535955 0 0 0 1.0154419,-1.21337 z"
     id="path4531-6-62-6"
     style="vector-effect:none;fill:#ff7d7d;fill-opacity:1;stroke:none;stroke-width:0.290464;stroke-linecap:round;stroke-linejoin:bevel;stroke-miterlimit:4;stroke-dasharray:none;stroke-dashoffset:15;stroke-opacity:1;paint-order:stroke fill markers" />
  <path
     d="m 4.3721259,2.3825591 a 1.535955,1.535955 0 0 0 -1.1500428,0.52058 l 0.9389049,0.84916 1.7267135,0.40314 a 1.535955,1.535955 0 0 0 0.020454,-0.23686 1.535955,1.535955 0 0 0 -1.5360296,-1.53602 z"
     id="path4531-6-6-0-6"
     style="vector-effect:none;fill:#5dc1ae;fill-opacity:1;stroke:none;stroke-width:0.290464;stroke-linecap:round;stroke-linejoin:bevel;stroke-miterlimit:4;stroke-dasharray:none;stroke-dashoffset:15;stroke-opacity:1;paint-order:stroke fill markers" />
  <path
     d="m 4.2183912,2.3904491 a 1.5359548,1.5359548 0 0 0 -0.9969679,0.51268 1.535955,1.535955 0 0 1 0.9969679,-0.51268 z m -0.9969679,0.51268 a 1.5359548,1.5359548 0 0 0 -0.3859868,1.01544 1.5359548,1.5359548 0 0 0 1.5360298,1.53602 1.5359548,1.5359548 0 0 0 0.5007932,-0.0864 l -0.7112715,-1.6159 h -6.597e-4 z m 1.6508362,2.46503 6.597e-4,6.6e-4 a 1.5359548,1.5359548 0 0 0 0.026394,-0.0105 1.5359548,1.5359548 0 0 1 -0.027051,0.0105 z m 0.027051,-0.0105 a 1.5359548,1.5359548 0 0 0 0.1002908,-0.0403 1.5359548,1.5359548 0 0 1 -0.1002908,0.0403 z m 0.1002908,-0.0403 a 1.5359548,1.5359548 0 0 0 0.050146,-0.0243 1.5359548,1.5359548 0 0 1 -0.050146,0.0243 z m 0.050146,-0.0243 a 1.5359548,1.5359548 0 0 0 0.082476,-0.0435 1.5359548,1.5359548 0 0 1 -0.082476,0.0435 z m 0.082476,-0.0435 a 1.5359548,1.5359548 0 0 0 0.059382,-0.0363 1.5359548,1.5359548 0 0 1 -0.059382,0.0363 z m 0.059382,-0.0363 a 1.5359548,1.5359548 0 0 0 0.087755,-0.0582 1.5359548,1.5359548 0 0 1 -0.087755,0.0582 z m -0.4090799,-2.77515 a 1.535955,1.535955 0 0 1 0.6591466,0.37807 1.5359548,1.5359548 0 0 0 -0.6591466,-0.37807 z m 1.1223307,1.56441 a 1.535955,1.535955 0 0 1 -0.017815,0.15242 h 6.597e-4 6.597e-4 a 1.5359548,1.5359548 0 0 0 0.016496,-0.15242 z m -0.017155,0.15637 a 1.5359548,1.5359548 0 0 1 -0.019134,0.093 1.5359548,1.5359548 0 0 0 0.019134,-0.093 z m -0.027051,0.12866 a 1.5359548,1.5359548 0 0 1 -0.037609,0.128 1.5359548,1.5359548 0 0 0 0.037609,-0.128 z"
     id="path4531-3-15-3"
     style="vector-effect:none;fill:#999999;fill-opacity:1;stroke:none;stroke-width:0.290464;stroke-linecap:round;stroke-linejoin:bevel;stroke-miterlimit:4;stroke-dasharray:none;stroke-dashoffset:15;stroke-opacity:1;paint-order:stroke fill markers" />
  <g
     id="g4568"
     transform="matrix(1.1561952,0,0,1.1561952,-3.1499839,-332.27177)">
    <circle
       cx="6.3500037"
       cy="290.65002"
       id="path4533"
       r="1.3123896"
       style="opacity:1;vector-effect:none;fill:#ffffff;fill-opacity:1;stroke:none;stroke-width:0.146627;stroke-linecap:round;stroke-linejoin:bevel;stroke-miterlimit:4;stroke-dasharray:none;stroke-dashoffset:15;stroke-opacity:1;paint-order:stroke fill markers" />
    <circle
       cx="6.3500037"
       cy="290.65002"
       id="path4533-3"
       r="1.0120301"
       style="opacity:1;vector-effect:none;fill:#999999;fill-opacity:1;stroke:none;stroke-width:0.113069;stroke-linecap:round;stroke-linejoin:bevel;stroke-miterlimit:4;stroke-dasharray:none;stroke-dashoffset:15;stroke-opacity:1;paint-order:stroke fill markers" />
    <circle
       cx="6.3500037"
       cy="290.65002"
       id="path4533-3-7"
       r="0.73312503"
       style="opacity:1;vector-effect:none;fill:#ffffff;fill-opacity:1;stroke:none;stroke-width:0.0819084;stroke-linecap:round;stroke-linejoin:bevel;stroke-miterlimit:4;stroke-dasharray:none;stroke-dashoffset:15;stroke-opacity:1;paint-order:stroke fill markers" />
  </g>
  <g
     id="g5015"
     transform="matrix(0.88776615,0.88776615,-0.88776615,0.88776615,269.05493,-261.06251)">
    <path
       d="m 0.70993393,302.42555 a 2.6156919,2.6156919 0 0 1 -1.35398183,0 l 0.67699085,-2.52656 z"
       id="path5011"
       style="opacity:1;vector-effect:none;fill:#ffffff;fill-opacity:1;stroke:none;stroke-width:0.463462;stroke-linecap:round;stroke-linejoin:bevel;stroke-miterlimit:4;stroke-dasharray:none;stroke-dashoffset:15;stroke-opacity:1;paint-order:stroke fill markers" />
    <circle
       cx="0.032943014"
       cy="301.90192"
       id="path5009"
       r="0.30062434"
       style="opacity:1;vector-effect:none;fill:#999999;fill-opacity:1;stroke:none;stroke-width:0.143945;stroke-linecap:round;stroke-linejoin:bevel;stroke-miterlimit:4;stroke-dasharray:none;stroke-dashoffset:15;stroke-opacity:1;paint-order:stroke fill markers" />
  </g>
  <g
     id="g5015-6-3"
     style="fill:#666666;fill-opacity:1"
     transform="rotate(45,356.54845,148.11092)" />
</svg>
