<?xml version="1.0" encoding="UTF-8" standalone="no"?>
<svg
   version="1.1"
   id="Layer_1"
   x="0px"
   y="0px"
   width="573.36499"
   height="441.38855"
   viewBox="0 0 573.36499 441.38855"
   enable-background="new 0 0 512 512"
   xml:space="preserve"
   sodipodi:docname="ram.svg"
   inkscape:version="1.2 (dc2aedaf03, 2022-05-15)"
   xmlns:inkscape="http://www.inkscape.org/namespaces/inkscape"
   xmlns:sodipodi="http://sodipodi.sourceforge.net/DTD/sodipodi-0.dtd"
   xmlns="http://www.w3.org/2000/svg"
   xmlns:svg="http://www.w3.org/2000/svg"><defs
   id="defs5229">
		
	</defs><sodipodi:namedview
   id="namedview5227"
   pagecolor="#ffffff"
   bordercolor="#000000"
   borderopacity="0.25"
   inkscape:showpageshadow="2"
   inkscape:pageopacity="0.0"
   inkscape:pagecheckerboard="0"
   inkscape:deskcolor="#d1d1d1"
   showgrid="false"
   inkscape:zoom="1.6230469"
   inkscape:cx="253.84356"
   inkscape:cy="221.18893"
   inkscape:window-width="1920"
   inkscape:window-height="1017"
   inkscape:window-x="1672"
   inkscape:window-y="-8"
   inkscape:window-maximized="1"
   inkscape:current-layer="ram" />
<g
   id="ram"
   transform="matrix(-0.97437007,0.22495105,0.22495105,0.97437007,479.89068,-85.715814)">
	<path
   fill="#a0d468"
   d="M 278.625,361.594 256,338.969 v 0 c -4.172,-4.156 -4.172,-10.922 0,-15.094 4.156,-4.156 10.922,-4.156 15.078,0 v 0 L 293.703,346.516 512,128.227 459.203,75.43 c -4.172,4.164 -10.922,4.164 -15.094,0 -4.156,-4.164 -4.156,-10.922 0,-15.086 l -7.531,-7.539 c -4.172,4.164 -10.922,4.164 -15.094,-0.008 -4.156,-4.164 -4.156,-10.914 0,-15.078 L 383.781,0 0,383.781 37.703,421.5 c 4.172,-4.172 10.922,-4.172 15.094,0 4.156,4.156 4.156,10.906 0,15.078 l 7.531,7.547 c 4.172,-4.172 10.922,-4.172 15.094,0 4.156,4.156 4.172,10.906 0,15.078 L 128.219,512 Z"
   id="path5161"
   style="fill:#8db856;fill-opacity:1" />
	<g
   id="g5169"
   style="fill:#87ae54;fill-opacity:1">
		<polygon
   fill="#8cc153"
   points="128.219,512 278.625,361.594 256,338.969 105.594,489.375 "
   id="polygon5165"
   style="fill:#87ae54;fill-opacity:1" />
		<polygon
   fill="#8cc153"
   points="271.078,323.875 293.703,346.516 512,128.227 489.375,105.602 "
   id="polygon5167"
   style="fill:#87ae54;fill-opacity:1" />
	</g>
	<g
   id="g5201">
		<path
   fill="#ffce54"
   d="m 482.266,142.867 c -4.156,4.164 -4.156,10.922 0,15.086 l 15.094,-15.086 c -4.172,-4.164 -10.922,-4.164 -15.094,0 z"
   id="path5171" />
		<path
   fill="#ffce54"
   d="m 459.641,165.492 c -4.156,4.164 -4.156,10.922 0,15.086 l 15.094,-15.086 c -4.173,-4.164 -10.923,-4.164 -15.094,0 z"
   id="path5173" />
		<path
   fill="#ffce54"
   d="m 437.016,188.117 c -4.172,4.172 -4.172,10.922 0,15.086 l 15.078,-15.086 c -4.156,-4.164 -10.906,-4.164 -15.078,0 z"
   id="path5175" />
		<path
   fill="#ffce54"
   d="m 414.391,210.75 c -4.172,4.164 -4.172,10.922 0,15.086 l 15.078,-15.086 c -4.157,-4.164 -10.922,-4.164 -15.078,0 z"
   id="path5177" />
		<path
   fill="#ffce54"
   d="m 391.766,233.375 c -4.172,4.164 -4.172,10.922 0,15.086 l 15.078,-15.086 c -4.156,-4.164 -10.922,-4.164 -15.078,0 z"
   id="path5179" />
		<path
   fill="#ffce54"
   d="m 369.125,256 c -4.156,4.172 -4.156,10.922 0,15.086 L 384.219,256 c -4.172,-4.164 -10.922,-4.164 -15.094,0 z"
   id="path5181" />
		<path
   fill="#ffce54"
   d="m 346.5,278.625 c -4.156,4.172 -4.156,10.938 0,15.094 l 15.094,-15.094 c -4.172,-4.156 -10.922,-4.156 -15.094,0 z"
   id="path5183" />
		<path
   fill="#ffce54"
   d="m 323.875,301.25 c -4.156,4.172 -4.156,10.938 0,15.094 l 15.094,-15.094 c -4.172,-4.156 -10.922,-4.156 -15.094,0 z"
   id="path5185" />
		<path
   fill="#ffce54"
   d="m 301.25,323.875 c -4.156,4.188 -4.172,10.938 0,15.094 l 15.094,-15.094 c -4.172,-4.156 -10.922,-4.156 -15.094,0 z"
   id="path5187" />
		<path
   fill="#ffce54"
   d="m 256,369.141 c -4.172,4.172 -4.172,10.922 0,15.078 l 15.078,-15.078 c -4.156,-4.172 -10.922,-4.172 -15.078,0 z"
   id="path5189" />
		<path
   fill="#ffce54"
   d="m 233.375,391.766 c -4.172,4.172 -4.172,10.922 0,15.078 l 15.078,-15.078 c -4.172,-4.172 -10.922,-4.172 -15.078,0 z"
   id="path5191" />
		<path
   fill="#ffce54"
   d="m 210.734,414.406 c -4.156,4.156 -4.156,10.906 0,15.078 l 15.094,-15.078 c -4.172,-4.187 -10.922,-4.187 -15.094,0 z"
   id="path5193" />
		<path
   fill="#ffce54"
   d="m 188.109,437.031 c -4.156,4.156 -4.156,10.906 0,15.078 l 15.094,-15.078 c -4.172,-4.172 -10.922,-4.172 -15.094,0 z"
   id="path5195" />
		<path
   fill="#ffce54"
   d="m 165.484,459.656 c -4.156,4.156 -4.156,10.906 0,15.078 l 15.094,-15.078 c -4.172,-4.172 -10.922,-4.172 -15.094,0 z"
   id="path5197" />
		<path
   fill="#ffce54"
   d="m 142.859,482.281 c -4.172,4.156 -4.172,10.906 0,15.078 l 15.078,-15.078 c -4.156,-4.172 -10.906,-4.172 -15.078,0 z"
   id="path5199" />
	</g>
	
		<rect
   x="84.259003"
   y="362.44699"
   transform="matrix(0.7071,0.7071,-0.7071,0.7071,302.302,37.7409)"
   fill="#656d78"
   width="42.668999"
   height="42.668999"
   id="rect5203" />
	<polygon
   fill="#656d78"
   points="165.938,293.281 196.094,323.438 165.938,353.609 135.766,323.438 "
   id="polygon5205" />
	<polygon
   fill="#656d78"
   points="256.438,202.766 286.609,232.93 256.438,263.102 226.266,232.93 "
   id="polygon5207" />
	
		<rect
   x="295.44699"
   y="151.259"
   transform="matrix(0.7071,0.7071,-0.7071,0.7071,214.8253,-173.4466)"
   fill="#656d78"
   width="42.668999"
   height="42.668999"
   id="rect5209" />
	<g
   id="g5219">
		<path
   fill="#434a54"
   d="m 60.328,383.781 45.266,45.25 45.25,-45.25 -45.25,-45.25 z m 45.266,15.094 -15.094,-15.094 15.094,-15.094 15.078,15.094 z"
   id="path5211" />
		<path
   fill="#434a54"
   d="m 120.672,323.438 45.266,45.25 45.25,-45.25 -45.25,-45.25 z m 45.266,15.093 -15.094,-15.094 15.094,-15.078 15.078,15.078 z"
   id="path5213" />
		<path
   fill="#434a54"
   d="m 211.188,232.93 45.25,45.258 45.25,-45.258 -45.25,-45.25 z m 45.25,15.086 -15.078,-15.086 15.078,-15.086 15.094,15.086 z"
   id="path5215" />
		<path
   fill="#434a54"
   d="m 316.781,127.336 -45.25,45.258 45.25,45.25 45.25,-45.25 z m -15.093,45.258 15.094,-15.086 15.078,15.086 -15.078,15.086 z"
   id="path5217" />
	</g>
	<polygon
   fill="#656d78"
   points="377.125,82.086 407.281,112.25 377.125,142.422 346.953,112.25 "
   id="polygon5221" />
	<path
   fill="#434a54"
   d="m 377.125,67 -45.266,45.25 45.266,45.258 45.25,-45.258 z m 0,60.336 -15.094,-15.086 15.094,-15.078 15.078,15.078 z"
   id="path5223" />
</g>
</svg>
