<?xml version="1.0" encoding="UTF-8" standalone="no"?>
<svg
   version="1.1"
   id="Capa_1"
   x="0px"
   y="0px"
   viewBox="0 0 214.367 214.367"
   style="enable-background:new 0 0 214.367 214.367;"
   xml:space="preserve"
   sodipodi:docname="reset.svg"
   inkscape:version="1.1.1 (3bf5ae0d25, 2021-09-20)"
   xmlns:inkscape="http://www.inkscape.org/namespaces/inkscape"
   xmlns:sodipodi="http://sodipodi.sourceforge.net/DTD/sodipodi-0.dtd"
   xmlns="http://www.w3.org/2000/svg"
   xmlns:svg="http://www.w3.org/2000/svg"><defs
   id="defs37" /><sodipodi:namedview
   id="namedview35"
   pagecolor="#ffffff"
   bordercolor="#666666"
   borderopacity="1.0"
   inkscape:pageshadow="2"
   inkscape:pageopacity="0.0"
   inkscape:pagecheckerboard="0"
   showgrid="false"
   inkscape:zoom="1.9405972"
   inkscape:cx="115.68604"
   inkscape:cy="124.96153"
   inkscape:window-width="1920"
   inkscape:window-height="1017"
   inkscape:window-x="1672"
   inkscape:window-y="-8"
   inkscape:window-maximized="1"
   inkscape:current-layer="Capa_1" />
<path
   d="m 119.1465,11.9635 c -46.312,0 -85.002,33.237 -93.484,77.109 H -5e-4 l 40,69.76 40,-69.76 h -23.494 c 7.87,-27.176 32.964,-47.109 62.642,-47.109 35.962,0 65.22,29.258 65.22,65.22 0,35.962 -29.258,65.22 -65.22,65.22 -9.686,0 -19.001,-2.068 -27.688,-6.148 l -12.754,27.154 c 12.707,5.968 26.313,8.994 40.441,8.994 52.504,-0.001 95.22,-42.717 95.22,-95.221 0,-52.504 -42.716,-95.219 -95.22,-95.219 z"
   id="path2"
   style="fill:#008000" />
<g
   id="g4"
   transform="matrix(0,-1,-1,0,428.733,214.367)">
</g>
<g
   id="g6"
   transform="matrix(0,-1,-1,0,428.733,214.367)">
</g>
<g
   id="g8"
   transform="matrix(0,-1,-1,0,428.733,214.367)">
</g>
<g
   id="g10"
   transform="matrix(0,-1,-1,0,428.733,214.367)">
</g>
<g
   id="g12"
   transform="matrix(0,-1,-1,0,428.733,214.367)">
</g>
<g
   id="g14"
   transform="matrix(0,-1,-1,0,428.733,214.367)">
</g>
<g
   id="g16"
   transform="matrix(0,-1,-1,0,428.733,214.367)">
</g>
<g
   id="g18"
   transform="matrix(0,-1,-1,0,428.733,214.367)">
</g>
<g
   id="g20"
   transform="matrix(0,-1,-1,0,428.733,214.367)">
</g>
<g
   id="g22"
   transform="matrix(0,-1,-1,0,428.733,214.367)">
</g>
<g
   id="g24"
   transform="matrix(0,-1,-1,0,428.733,214.367)">
</g>
<g
   id="g26"
   transform="matrix(0,-1,-1,0,428.733,214.367)">
</g>
<g
   id="g28"
   transform="matrix(0,-1,-1,0,428.733,214.367)">
</g>
<g
   id="g30"
   transform="matrix(0,-1,-1,0,428.733,214.367)">
</g>
<g
   id="g32"
   transform="matrix(0,-1,-1,0,428.733,214.367)">
</g>
</svg>
