<?xml version="1.0" encoding="UTF-8" standalone="no"?>
<!-- Generator: Adobe Illustrator 19.0.0, SVG Export Plug-In . SVG Version: 6.00 Build 0)  -->

<svg
   version="1.1"
   id="Capa_1"
   x="64px"
   y="64px"
   viewBox="0 0 64 64"
   style="enable-background:new 0 0 64 64;"
   xml:space="preserve"
   sodipodi:docname="search.svg"
   inkscape:version="1.1.1 (3bf5ae0d25, 2021-09-20)"
   xmlns:inkscape="http://www.inkscape.org/namespaces/inkscape"
   xmlns:sodipodi="http://sodipodi.sourceforge.net/DTD/sodipodi-0.dtd"
   xmlns="http://www.w3.org/2000/svg"
   xmlns:svg="http://www.w3.org/2000/svg"><defs
   id="defs65" /><sodipodi:namedview
   id="namedview63"
   pagecolor="#ffffff"
   bordercolor="#666666"
   borderopacity="1.0"
   inkscape:pageshadow="2"
   inkscape:pageopacity="0.0"
   inkscape:pagecheckerboard="0"
   showgrid="false"
   inkscape:zoom="1.625"
   inkscape:cx="255.69231"
   inkscape:cy="207.07692"
   inkscape:window-width="1920"
   inkscape:window-height="1017"
   inkscape:window-x="1672"
   inkscape:window-y="-8"
   inkscape:window-maximized="1"
   inkscape:current-layer="Capa_1" />
<g
   id="g30"
   transform="matrix(-0.125,0,0,0.125,64,0)">
	<g
   id="g4">
		<path
   style="fill:#b2f3ff"
   d="M 356,288 C 283.215,288 224,228.785 224,156 224,83.215 283.215,24 356,24 c 72.785,0 132,59.215 132,132 0,72.785 -59.215,132 -132,132 z"
   id="path2" />
	</g>
	<g
   id="g8">
		
			<rect
   x="211.373"
   y="263.858"
   transform="matrix(0.7071,-0.7071,0.7071,0.7071,-128.0387,246.8873)"
   style="fill:#8a8895"
   width="45.255001"
   height="28.284"
   id="rect6" />
	</g>
	<g
   id="g12">
		<path
   style="fill:#7e5c62"
   d="m 231.984,304.715 c -3,-6.656 -8.227,-12.27 -10.32,-14.367 -3.789,-3.793 -13.711,-12.613 -24.008,-12.613 -4.391,0 -8.305,1.594 -11.453,4.754 L 7.031,471.027 C 2.5,475.563 0,481.59 0,488 0,494.41 2.5,500.438 7.031,504.969 11.563,509.504 17.594,512 24,512 c 6.406,0 12.438,-2.496 16.82,-6.887 L 229.656,325.66 c 3.032,-3.027 7.36,-9.777 2.328,-20.945 z"
   id="path10" />
	</g>
	<g
   id="g16">
		<path
   style="fill:#5c546a"
   d="m 356,0 c -86.016,0 -156,69.98 -156,156 0,86.02 69.984,156 156,156 86.016,0 156,-69.98 156,-156 C 512,69.98 442.016,0 356,0 Z m 0,288 C 283.215,288 224,228.785 224,156 224,83.215 283.215,24 356,24 c 72.785,0 132,59.215 132,132 0,72.785 -59.215,132 -132,132 z"
   id="path14" />
	</g>
	<g
   id="g20">
		<path
   style="fill:#9e6459"
   d="m 231.984,304.715 c -3,-6.656 -8.227,-12.27 -10.32,-14.367 L 221.658,290.342 7.031,504.969 C 11.563,509.504 17.594,512 24,512 c 6.406,0 12.438,-2.496 16.82,-6.887 L 229.656,325.66 c 3.032,-3.027 7.36,-9.777 2.328,-20.945 z"
   id="path18" />
	</g>
	<g
   id="g24">
		<polygon
   style="fill:#5c546a"
   points="176.262,292.949 165.237,304.55 207.45,346.763 219.051,335.738 "
   id="polygon22" />
	</g>
	<g
   id="g28">
		<path
   style="fill:#ffffff"
   d="m 388,172 c -26.467,0 -48,-21.533 -48,-48 0,-26.467 21.533,-48 48,-48 26.467,0 48,21.533 48,48 0,26.467 -21.533,48 -48,48 z"
   id="path26" />
	</g>
</g>
<g
   id="g32"
   transform="matrix(-1,0,0,1,512,0)">
</g>
<g
   id="g34"
   transform="matrix(-1,0,0,1,512,0)">
</g>
<g
   id="g36"
   transform="matrix(-1,0,0,1,512,0)">
</g>
<g
   id="g38"
   transform="matrix(-1,0,0,1,512,0)">
</g>
<g
   id="g40"
   transform="matrix(-1,0,0,1,512,0)">
</g>
<g
   id="g42"
   transform="matrix(-1,0,0,1,512,0)">
</g>
<g
   id="g44"
   transform="matrix(-1,0,0,1,512,0)">
</g>
<g
   id="g46"
   transform="matrix(-1,0,0,1,512,0)">
</g>
<g
   id="g48"
   transform="matrix(-1,0,0,1,512,0)">
</g>
<g
   id="g50"
   transform="matrix(-1,0,0,1,512,0)">
</g>
<g
   id="g52"
   transform="matrix(-1,0,0,1,512,0)">
</g>
<g
   id="g54"
   transform="matrix(-1,0,0,1,512,0)">
</g>
<g
   id="g56"
   transform="matrix(-1,0,0,1,512,0)">
</g>
<g
   id="g58"
   transform="matrix(-1,0,0,1,512,0)">
</g>
<g
   id="g60"
   transform="matrix(-1,0,0,1,512,0)">
</g>
</svg>
