<?xml version="1.0" encoding="UTF-8" standalone="no"?>
<!-- Uploaded to: SVG Repo, www.svgrepo.com, Generator: SVG Repo Mixer Tools -->

<svg
   width="229.82794"
   height="229.82793"
   viewBox="0 0 3.6485186 3.6485183"
   id="svg8"
   version="1.1"
   sodipodi:docname="signal.svg"
   inkscape:version="1.2 (dc2aedaf03, 2022-05-15)"
   xmlns:inkscape="http://www.inkscape.org/namespaces/inkscape"
   xmlns:sodipodi="http://sodipodi.sourceforge.net/DTD/sodipodi-0.dtd"
   xmlns="http://www.w3.org/2000/svg"
   xmlns:svg="http://www.w3.org/2000/svg">
  <sodipodi:namedview
     id="namedview29"
     pagecolor="#ffffff"
     bordercolor="#000000"
     borderopacity="0.25"
     inkscape:showpageshadow="2"
     inkscape:pageopacity="0.0"
     inkscape:pagecheckerboard="0"
     inkscape:deskcolor="#d1d1d1"
     showgrid="false"
     inkscape:zoom="5.135"
     inkscape:cx="95.520935"
     inkscape:cy="54.235638"
     inkscape:window-width="2560"
     inkscape:window-height="1361"
     inkscape:window-x="2391"
     inkscape:window-y="-9"
     inkscape:window-maximized="1"
     inkscape:current-layer="svg8" />
  <defs
     id="defs2">
    <clipPath
       clipPathUnits="userSpaceOnUse"
       id="clipPath5343">
      <path
         d="m 3.0688351,285.55677 c -1.613568,1.19596 -2.5662181,3.08478 -2.56883509,5.09323 0,3.50701 2.84299219,6.35 6.35000009,6.35 C 10.357008,297 13.2,294.15701 13.2,290.65 c -0.0022,-0.84296 -0.452078,-2.71271 -0.500228,-2.45359 -0.02424,0.84121 -0.571809,2.35322 -0.602031,2.23138 -0.0026,-0.50621 -0.2876,-1.42626 -0.305098,-1.19509 0.02804,1.40695 -1.48374,3.17677 -2.3076623,3.50038 -0.8310457,0.36942 -1.7371637,0.56412 -2.6117267,0.56534 -0.1736918,2e-5 -1.1686519,-0.13807 -1.6443439,-0.70435 -0.826376,-0.89253 -0.00201,-1.09994 0.4625039,-1.27331 0.5055862,-0.18871 1.030887,-0.30969 1.5203212,-0.42013 0.7456988,-0.16826 0.4710618,-0.52626 0.1049028,-0.6289 -0.9266939,-0.25976 -2.044886,0.33543 -2.8654579,0.30593 -0.848406,-0.0291 -0.804618,-1.69621 -0.1405601,-1.76217 0.7394212,-0.0734 1.6665151,-0.51079 1.461779,-0.65673 -0.8303549,-0.61672 -0.9617369,-0.79081 -1.0595549,-1.16418 -0.1480201,-0.565 0.341282,-1.03557 0.05777,-0.96356 -0.2596169,0.08 -0.4110678,0.15641 -0.5988619,0.25715 -0.1672929,0.0897 -0.293814,0.0546 -0.6751841,0.002 -0.3249449,-0.045 -0.3870058,-0.0557 -0.3755009,-0.25673 0.0115,-0.20097 0.07295,-0.52125 -0.05223,-0.47648 z"
         id="path5345"
         style="fill:#7aafff;fill-opacity:1;stroke:none;stroke-width:2.01046;stroke-linecap:round;stroke-linejoin:round;stroke-miterlimit:4;stroke-dasharray:none;stroke-opacity:1" />
    </clipPath>
    <clipPath
       clipPathUnits="userSpaceOnUse"
       id="clipPath4543">
      <path
         d="m 1.7760088,291.5696 c -1.82613339,0.17434 -3.2940315,0.91934 -3.4903996,2.16451 -0.2629054,1.66729 1.5678591,3.34127 4.0891213,3.73893 1.2172084,0.19119 2.434234,0.053 3.3807423,-0.38387 0.7310194,0.5283 1.669357,0.90078 2.6704721,1.06008 2.5212691,0.39771 4.7783381,-0.6315 5.0412801,-2.2988 0.262905,-1.6673 -1.490667,-1.94329 -4.257163,-2.17938 -2.7664958,-0.23609 -3.6163896,-1.68839 -5.7470448,-2.04575 -0.5660191,-0.0893 -1.1380808,-0.10817 -1.6870084,-0.0557 z"
         id="path4545"
         style="opacity:1;vector-effect:none;fill:#666666;fill-opacity:1;stroke:none;stroke-width:2.11667;stroke-linecap:round;stroke-linejoin:round;stroke-miterlimit:4;stroke-dasharray:none;stroke-dashoffset:0;stroke-opacity:1" />
    </clipPath>
  </defs>
  <path
     cx="9.0659075"
     cy="302.69254"
     id="path4533-7"
     r="1.6866804"
     style="vector-effect:none;fill:#cccccc;fill-opacity:1;stroke:none;stroke-width:0.188444;stroke-linecap:round;stroke-linejoin:bevel;stroke-miterlimit:4;stroke-dasharray:none;stroke-dashoffset:15;stroke-opacity:1;paint-order:stroke fill markers"
     d="" />
  <path
     cx="-1.3981887"
     cy="303.22104"
     d=""
     id="path4531-9"
     r="4.0322208"
     style="vector-effect:none;fill:#afe9dd;fill-opacity:1;stroke:none;stroke-width:0.265;stroke-linecap:round;stroke-linejoin:bevel;stroke-miterlimit:4;stroke-dasharray:none;stroke-dashoffset:15;stroke-opacity:1;paint-order:stroke fill markers" />
  <path
     cx="8.8023634"
     cy="302.90338"
     d=""
     id="path4531-3-1"
     r="4.0322208"
     style="vector-effect:none;fill:#afe9dd;fill-opacity:1;stroke:none;stroke-width:0.265;stroke-linecap:round;stroke-linejoin:bevel;stroke-miterlimit:4;stroke-dasharray:none;stroke-dashoffset:15;stroke-opacity:1;paint-order:stroke fill markers" />
  <g
     id="g5015-6-3"
     style="fill:#666666;fill-opacity:1"
     transform="rotate(45,356.55496,148.07409)" />
  <rect
     style="fill:#2b2b2b;fill-opacity:1;stroke:#6f6f6f;stroke-width:0.15875;stroke-linecap:butt;stroke-linejoin:round;stroke-dasharray:none;paint-order:fill markers stroke;stroke-opacity:1"
     id="rect1976"
     width="3.4897685"
     height="3.4897683"
     x="0.079374999"
     y="0.079374999" />
  <path
     style="fill:#2b2b2b;fill-opacity:1;stroke:#444444;stroke-width:0.0158838;stroke-linecap:butt;stroke-linejoin:round;stroke-dasharray:none;stroke-opacity:1;paint-order:fill markers stroke"
     d="M 0.15894478,1.4848001 H 3.489788"
     id="path2059"
     sodipodi:nodetypes="cc" />
  <path
     style="fill:#2b2b2b;fill-opacity:1;stroke:#444444;stroke-width:0.0158838;stroke-linecap:butt;stroke-linejoin:round;stroke-dasharray:none;stroke-opacity:1;paint-order:fill markers stroke"
     d="M 0.15894478,0.81805007 H 3.489788"
     id="path3465"
     sodipodi:nodetypes="cc" />
  <path
     style="fill:#2b2b2b;fill-opacity:1;stroke:#444444;stroke-width:0.0158838;stroke-linecap:butt;stroke-linejoin:round;stroke-dasharray:none;stroke-opacity:1;paint-order:fill markers stroke"
     d="M 0.15894478,2.1833001 H 3.489788"
     id="path3467"
     sodipodi:nodetypes="cc" />
  <path
     style="fill:#2b2b2b;fill-opacity:1;stroke:#444444;stroke-width:0.0158838;stroke-linecap:butt;stroke-linejoin:round;stroke-dasharray:none;stroke-opacity:1;paint-order:fill markers stroke"
     d="M 0.15894478,2.8818001 H 3.489788"
     id="path3469"
     sodipodi:nodetypes="cc" />
  <path
     style="fill:#2b2b2b;fill-opacity:1;stroke:#444444;stroke-width:0.0158859;stroke-linecap:butt;stroke-linejoin:round;stroke-dasharray:none;stroke-opacity:1;paint-order:fill markers stroke"
     d="M 0.80930681,0.15792022 V 3.489633"
     id="path3465-3"
     sodipodi:nodetypes="cc" />
  <path
     style="fill:#2b2b2b;fill-opacity:1;stroke:#444444;stroke-width:0.0158859;stroke-linecap:butt;stroke-linejoin:round;stroke-dasharray:none;stroke-opacity:1;paint-order:fill markers stroke"
     d="M 1.4760569,0.15792022 V 3.489633"
     id="path5017"
     sodipodi:nodetypes="cc" />
  <path
     style="fill:#2b2b2b;fill-opacity:1;stroke:#444444;stroke-width:0.0158859;stroke-linecap:butt;stroke-linejoin:round;stroke-dasharray:none;stroke-opacity:1;paint-order:fill markers stroke"
     d="M 2.1745569,0.15792022 V 3.489633"
     id="path5019"
     sodipodi:nodetypes="cc" />
  <path
     style="fill:#2b2b2b;fill-opacity:1;stroke:#444444;stroke-width:0.0158859;stroke-linecap:butt;stroke-linejoin:round;stroke-dasharray:none;stroke-opacity:1;paint-order:fill markers stroke"
     d="M 2.8730569,0.15792022 V 3.489633"
     id="path5021"
     sodipodi:nodetypes="cc" />
  <path
     style="fill:none;fill-opacity:1;stroke:#e3d500;stroke-width:0.220498;stroke-linejoin:round;stroke-dasharray:none;stroke-opacity:1;paint-order:fill markers stroke"
     d="M 0.15741752,1.7907992 H 1.1756488 L 1.4039775,0.51206876 1.6292455,3.3161701 1.9026463,1.2801387 2.1044522,2.3264056 2.3495092,1.7907992 h 1.1376187"
     id="path1826"
     sodipodi:nodetypes="cccccccc" />
</svg>
