<?xml version="1.0" encoding="UTF-8" standalone="no"?>
<!-- Uploaded to: SVG Repo, www.svgrepo.com, Generator: SVG Repo Mixer Tools -->

<svg
   version="1.1"
   id="Layer_1"
   viewBox="0 0 368.60101 208.811"
   xml:space="preserve"
   sodipodi:docname="speed.svg"
   width="368.60101"
   height="208.811"
   inkscape:version="1.2 (dc2aedaf03, 2022-05-15)"
   xmlns:inkscape="http://www.inkscape.org/namespaces/inkscape"
   xmlns:sodipodi="http://sodipodi.sourceforge.net/DTD/sodipodi-0.dtd"
   xmlns="http://www.w3.org/2000/svg"
   xmlns:svg="http://www.w3.org/2000/svg"><defs
   id="defs2852" /><sodipodi:namedview
   id="namedview2850"
   pagecolor="#ffffff"
   bordercolor="#000000"
   borderopacity="0.25"
   inkscape:showpageshadow="2"
   inkscape:pageopacity="0.0"
   inkscape:pagecheckerboard="0"
   inkscape:deskcolor="#d1d1d1"
   showgrid="false"
   inkscape:zoom="1.6230469"
   inkscape:cx="159.57641"
   inkscape:cy="72.086641"
   inkscape:window-width="1920"
   inkscape:window-height="1017"
   inkscape:window-x="1672"
   inkscape:window-y="-8"
   inkscape:window-maximized="1"
   inkscape:current-layer="Layer_1" />






<path
   style="fill:#9fff9f;fill-opacity:1"
   d="m 59.765,59.763 h 41.2 v 41.2 c -21.319,21.33 -34.511,50.786 -34.511,83.336 H 8.173 C 8.173,135.67 27.89,91.638 59.765,59.763 Z"
   id="path2827" />
<path
   style="fill:#9fff9f;fill-opacity:1"
   d="m 184.301,8.171 21.787,29.14 -21.787,29.14 c -32.55,0 -62.006,13.192 -83.336,34.511 l -41.2,-41.2 C 91.64,27.888 135.672,8.171 184.301,8.171 Z"
   id="path2829" />
<path
   style="fill:#ffff6f;fill-opacity:1"
   d="m 184.301,8.171 c 48.629,0 92.661,19.717 124.536,51.592 v 41.2 h -41.2 C 246.307,79.644 216.851,66.452 184.301,66.452 Z"
   id="path2831" />

<path
   style="fill:#ff4f4f;fill-opacity:1"
   d="m 360.429,184.299 h -58.281 c 0,-32.55 -13.192,-62.006 -34.511,-83.336 l 41.2,-41.2 c 31.875,31.875 51.592,75.907 51.592,124.536 z"
   id="path2835" />




<path
   d="m 247.80751,118.329 c -3.192,-3.191 -8.364,-3.191 -11.555,0 l -43.854,43.856 c -3.201,-1.535 -6.781,-2.396 -10.561,-2.396 -13.515,0 -24.511,10.995 -24.511,24.511 0,13.516 10.996,24.511 24.511,24.511 13.515,0 24.511,-10.995 24.511,-24.511 0,-3.779 -0.861,-7.361 -2.396,-10.56 l 43.854,-43.855 c 3.19,-3.192 3.19,-8.365 0.001,-11.556 z m -65.971,74.141 c -4.506,0 -8.17,-3.665 -8.17,-8.17 0,-4.505 3.665,-8.17 8.17,-8.17 4.505,0 8.17,3.665 8.17,8.17 0,4.505 -3.664,8.17 -8.17,8.17 z"
   id="path2845"
   style="fill:#999999" />
<path
   d="m 293.978,184.3 c 0,4.512 3.657,8.17 8.17,8.17 h 58.283 c 4.513,0 8.17,-3.658 8.17,-8.17 0,-50.373 -20.322,-96.084 -53.188,-129.385 -0.24,-0.325 -0.498,-0.641 -0.792,-0.935 -0.294,-0.294 -0.61,-0.551 -0.934,-0.791 C 280.386,20.322 234.675,0 184.301,0 133.927,0 88.216,20.322 54.915,53.189 54.59,53.429 54.274,53.687 53.98,53.98 53.686,54.274 53.428,54.59 53.188,54.915 20.322,88.216 0,133.926 0,184.3 c 0,4.512 3.657,8.17 8.17,8.17 h 58.283 c 4.513,0 8.17,-3.658 8.17,-8.17 0,-60.476 49.201,-109.677 109.677,-109.677 60.476,0 109.678,49.201 109.678,109.677 z M 101.203,89.648 71.512,59.956 C 99.461,34.58 135.967,18.471 176.13,16.538 v 42.015 c -28.607,1.839 -54.643,13.266 -74.927,31.095 z m 91.268,-73.109 c 40.163,1.934 76.668,18.042 104.618,43.418 L 267.398,89.649 C 247.115,71.821 221.078,60.394 192.471,58.554 Z M 310.057,176.13 c -1.839,-28.609 -13.271,-54.647 -31.1,-74.93 l 29.688,-29.688 c 25.376,27.95 41.485,64.456 43.42,104.619 h -42.008 z m -251.511,0 H 16.537 C 18.472,135.967 34.581,99.461 59.957,71.511 l 29.688,29.688 c -17.828,20.284 -29.26,46.322 -31.099,74.931 z"
   id="path2847"
   style="fill:#333333" />
</svg>
