<?xml version="1.0" encoding="UTF-8" standalone="no"?>
<!-- Uploaded to: SVG Repo, www.svgrepo.com, Generator: SVG Repo Mixer Tools -->

<svg
   fill="#000000"
   height="502.86996"
   width="643.60999"
   version="1.1"
   id="Layer_1"
   viewBox="0 0 411.92246 321.84621"
   xml:space="preserve"
   sodipodi:docname="support.svg"
   inkscape:version="1.2 (dc2aedaf03, 2022-05-15)"
   xmlns:inkscape="http://www.inkscape.org/namespaces/inkscape"
   xmlns:sodipodi="http://sodipodi.sourceforge.net/DTD/sodipodi-0.dtd"
   xmlns="http://www.w3.org/2000/svg"
   xmlns:svg="http://www.w3.org/2000/svg"><defs
   id="defs23">
	

			
			
			
			
			
			
		</defs><sodipodi:namedview
   id="namedview21"
   pagecolor="#ffffff"
   bordercolor="#000000"
   borderopacity="0.25"
   inkscape:showpageshadow="2"
   inkscape:pageopacity="0.0"
   inkscape:pagecheckerboard="0"
   inkscape:deskcolor="#d1d1d1"
   showgrid="false"
   inkscape:zoom="1.03875"
   inkscape:cx="303.2491"
   inkscape:cy="301.32371"
   inkscape:window-width="1920"
   inkscape:window-height="1017"
   inkscape:window-x="1672"
   inkscape:window-y="-8"
   inkscape:window-maximized="1"
   inkscape:current-layer="g16" />
<g
   id="g16"
   transform="translate(-49.430115,-15.045452)">
		
	<rect
   style="fill:#ffffff;fill-opacity:0;stroke:#ffffff;stroke-width:25.6007;stroke-linejoin:round;stroke-dasharray:none;stroke-opacity:1;paint-order:fill markers stroke"
   id="rect2281"
   width="386.32178"
   height="71.47261"
   x="62.230465"
   y="252.6187" /><ellipse
   style="fill:#ffffff;fill-opacity:1;stroke:#ffffff;stroke-width:19.1959;stroke-linejoin:round;stroke-dasharray:none;stroke-opacity:1;paint-order:fill markers stroke"
   id="path2413"
   cx="256.89706"
   cy="155.84961"
   rx="131.20618"
   ry="131.20621" /><path
   d="m 256.31556,215.9188 c -12.30027,0 -22.30436,-10.3827 -22.30436,-23.1515 0,-6.38915 -4.98441,-11.57507 -11.15153,-11.57507 -6.16713,0 -11.15154,5.18592 -11.15154,11.57507 0,21.50742 14.2632,39.48385 33.4559,44.65892 v 1.64409 c 0,6.38914 4.98441,11.57507 11.15153,11.57507 6.16714,0 11.15153,-5.18593 11.15153,-11.57507 v -1.64409 c 19.19272,-5.17372 33.45591,-23.1515 33.45591,-44.65892 0,-25.53624 -20.00689,-46.30165 -44.60744,-46.30165 -12.30027,0 -22.30436,-10.38271 -22.30436,-23.15151 0,-12.76744 10.00279,-23.1515 22.30436,-23.1515 12.30027,0 22.30438,10.3827 22.30438,23.1515 0,6.38915 4.98441,11.57508 11.15153,11.57508 6.16712,0 11.15153,-5.18593 11.15153,-11.57508 0,-21.50742 -14.26319,-39.483828 -33.45591,-44.658904 v -1.644087 c 0,-6.389147 -4.98439,-11.575073 -11.15153,-11.575073 -6.16712,0 -11.15153,5.185926 -11.15153,11.575073 v 1.644087 c -19.1927,5.17372 -33.4559,23.151484 -33.4559,44.658904 0,25.53625 20.00689,46.30166 44.60743,46.30166 12.30027,0 22.30438,10.3827 22.30438,23.1515 0,12.76744 -10.00279,23.1515 -22.30438,23.1515 z"
   id="path6"
   style="fill:#303030;fill-opacity:1;stroke-width:1.67194;stroke-dasharray:none" /></g>
</svg>
