<?xml version="1.0" encoding="UTF-8" standalone="no"?>
<!-- Generator: Adobe Illustrator 19.0.0, SVG Export Plug-In . SVG Version: 6.00 Build 0)  -->

<svg
   version="1.1"
   id="Layer_1"
   x="0px"
   y="0px"
   viewBox="0 0 511.999 511.999"
   style="enable-background:new 0 0 511.999 511.999;"
   xml:space="preserve"
   sodipodi:docname="tick.svg"
   inkscape:version="1.1.1 (3bf5ae0d25, 2021-09-20)"
   xmlns:inkscape="http://www.inkscape.org/namespaces/inkscape"
   xmlns:sodipodi="http://sodipodi.sourceforge.net/DTD/sodipodi-0.dtd"
   xmlns="http://www.w3.org/2000/svg"
   xmlns:svg="http://www.w3.org/2000/svg"><defs
   id="defs45">
	
	
	
</defs><sodipodi:namedview
   id="namedview43"
   pagecolor="#ffffff"
   bordercolor="#666666"
   borderopacity="1.0"
   inkscape:pageshadow="2"
   inkscape:pageopacity="0.0"
   inkscape:pagecheckerboard="0"
   showgrid="false"
   inkscape:zoom="1.6250032"
   inkscape:cx="255.6918"
   inkscape:cy="256.30719"
   inkscape:window-width="1920"
   inkscape:window-height="1017"
   inkscape:window-x="1672"
   inkscape:window-y="-8"
   inkscape:window-maximized="1"
   inkscape:current-layer="Layer_1" />
<polygon
   style="fill:#a5eb78;fill-opacity:1"
   points="501.801,120.455 441.047,59.701 169.957,330.79 70.954,231.787 10.199,292.541   169.957,452.299 "
   id="polygon2" />
<path
   style="fill:#8ed564;fill-opacity:1"
   d="m 169.957,462.498 c -2.61,0 -5.22,-0.995 -7.212,-2.987 L 2.987,299.753 c -3.983,-3.983 -3.983,-10.441 0,-14.425 l 60.754,-60.754 c 1.912,-1.912 4.507,-2.987 7.212,-2.987 2.705,0 5.3,1.075 7.212,2.987 l 91.793,91.793 263.877,-263.878 c 3.982,-3.983 10.441,-3.983 14.424,0 l 60.754,60.755 c 3.983,3.983 3.983,10.441 0,14.424 L 177.169,459.51 c -1.991,1.992 -4.602,2.988 -7.212,2.988 z M 24.623,292.541 169.958,437.875 487.378,120.455 441.048,74.125 177.169,338.003 c -3.983,3.983 -10.442,3.983 -14.424,0 L 70.953,246.21 Z"
   id="path4" /><path
   style="fill:#8ed564;fill-opacity:1"
   d="m 355.91,234.596 c -2.61,0 -5.221,-0.995 -7.212,-2.987 -3.983,-3.983 -3.983,-10.441 0,-14.425 l 74.423,-74.423 c 3.983,-3.983 10.441,-3.983 14.425,0 3.984,3.983 3.983,10.441 0,14.425 l -74.423,74.423 c -1.993,1.99 -4.603,2.987 -7.213,2.987 z"
   id="path6" /><path
   style="fill:#8ed564;fill-opacity:1"
   d="m 454.884,135.649 c -2.61,0 -5.221,-0.995 -7.212,-2.987 -3.983,-3.983 -3.983,-10.441 0,-14.425 l 2.55,-2.55 c 3.983,-3.983 10.441,-3.983 14.425,0 3.983,3.983 3.983,10.441 0,14.425 l -2.55,2.55 c -1.992,1.992 -4.603,2.987 -7.213,2.987 z"
   id="path8" />
<g
   id="g12">
</g>
<g
   id="g14">
</g>
<g
   id="g16">
</g>
<g
   id="g18">
</g>
<g
   id="g20">
</g>
<g
   id="g22">
</g>
<g
   id="g24">
</g>
<g
   id="g26">
</g>
<g
   id="g28">
</g>
<g
   id="g30">
</g>
<g
   id="g32">
</g>
<g
   id="g34">
</g>
<g
   id="g36">
</g>
<g
   id="g38">
</g>
<g
   id="g40">
</g>
</svg>
