<?xml version="1.0" encoding="UTF-8" standalone="no"?>
<svg
   version="1.1"
   id="Layer_1"
   x="0px"
   y="0px"
   viewBox="0 0 511.999 511.999"
   style="enable-background:new 0 0 511.999 511.999;"
   xml:space="preserve"
   sodipodi:docname="user_chg.svg"
   inkscape:version="1.2 (dc2aedaf03, 2022-05-15)"
   xmlns:inkscape="http://www.inkscape.org/namespaces/inkscape"
   xmlns:sodipodi="http://sodipodi.sourceforge.net/DTD/sodipodi-0.dtd"
   xmlns:xlink="http://www.w3.org/1999/xlink"
   xmlns="http://www.w3.org/2000/svg"
   xmlns:svg="http://www.w3.org/2000/svg"><defs
   id="defs1750"><linearGradient
     inkscape:collect="always"
     id="linearGradient1142"><stop
       style="stop-color:#000000;stop-opacity:1;"
       offset="0"
       id="stop1138" /><stop
       style="stop-color:#000000;stop-opacity:0;"
       offset="1"
       id="stop1140" /></linearGradient><linearGradient
     inkscape:collect="always"
     xlink:href="#linearGradient1142"
     id="linearGradient1144"
     x1="24.082"
     y1="255.99969"
     x2="487.917"
     y2="255.99969"
     gradientUnits="userSpaceOnUse" /></defs><sodipodi:namedview
   id="namedview1748"
   pagecolor="#ffffff"
   bordercolor="#000000"
   borderopacity="0.25"
   inkscape:showpageshadow="2"
   inkscape:pageopacity="0.0"
   inkscape:pagecheckerboard="0"
   inkscape:deskcolor="#d1d1d1"
   showgrid="false"
   inkscape:zoom="1.1476697"
   inkscape:cx="131.13529"
   inkscape:cy="277.95454"
   inkscape:window-width="1920"
   inkscape:window-height="1017"
   inkscape:window-x="1672"
   inkscape:window-y="-8"
   inkscape:window-maximized="1"
   inkscape:current-layer="Layer_1" />

<path
   style="fill:#FEDAAB;"
   d="M188.634,318.73c15.629,8.192,33.844,12.718,53.892,12.718s38.263-4.635,53.892-12.718v34.276  c0,0-22.203,26.945-53.892,26.945s-53.892-26.945-53.892-26.945L188.634,318.73L188.634,318.73z"
   id="path1707" />
<path
   style="fill:#4cbd91"
   d="m 344.921,385.341 c 14.551,4.635 26.945,9.7 37.616,15.197 v 0.97 l 13.2289,14.17085 19.71597,14.46324 21.05413,14.47891 v 1.94 c 10.671,17.245 10.779,30.395 10.779,30.395 v 26.945 H 37.738 v -26.945 c 0,0 0.97,-58.958 102.395,-91.616 0,0 36.755,-19.185 48.503,-32.335 0,0 22.203,26.945 53.892,26.945 31.689,0 53.892,-26.945 53.892,-26.945 11.746,13.15 48.501,32.336 48.501,32.336 z"
   id="path1709"
   sodipodi:nodetypes="cccccccccccccscc" />
<path
   style="fill:#FEDAAB;"
   d="M296.418,318.73c-15.629,8.084-33.844,12.718-53.892,12.718s-38.263-4.527-53.892-12.718  c-34.598-18-57.34-53.353-63.161-95.497c-16.706-2.263-33.844-18.108-33.844-31.903c0-14.874,14.443-21.557,32.335-21.557v-21.557  c0,0,43.113,0,91.616-48.503c0,0,70.059,43.113,145.508,43.113v26.945c17.892,0,32.335,6.682,32.335,21.557  c0,13.797-17.137,29.64-33.844,31.903C353.76,265.377,331.016,300.73,296.418,318.73z"
   id="path1711" />
<path
   style="fill:#A67C52;"
   d="M215.581,99.714c-48.503,48.503-91.616,48.503-91.616,48.503v-5.389  c0,0-5.605-134.729,118.562-134.729c123.951,0,118.562,134.729,118.562,134.729C285.64,142.827,215.581,99.714,215.581,99.714z"
   id="path1713" />
<path
   style="fill:#231f20"
   d="M 405.02839,405.3898 386.209,393.409 l 0.037,-0.07 c -11.234,-5.787 -23.733,-10.86 -38.188,-15.498 -9.621,-5.065 -33.321,-18.491 -43.542,-28.137 v -26.192 c 32.68,-18.787 55.045,-52.405 62.206,-93.53 18.607,-5.313 34.799,-22.687 34.799,-38.653 0,-16.219 -12.185,-26.993 -32.335,-29.224 V 142.976 C 369.344,138.397 370.749,75.324 331.192,34.153 309.419,11.491 279.587,0 242.527,0 205.369,0 175.483,11.513 153.701,34.219 114.221,75.376 115.7,138.344 115.867,142.98 v 19.125 c -20.151,2.231 -32.335,13.004 -32.335,29.224 0,15.966 16.194,33.339 34.799,38.653 7.162,41.133 29.533,74.756 62.206,93.531 v 26.19 c -10.217,9.641 -33.938,23.079 -43.554,28.144 C 31.921,411.938 29.684,474.184 29.641,476.823 l -10e-4,35.176 h 425.773 v -35.11 c -0.004,-0.509 -0.175,-10.398 -6.421,-24.172 L 437.48446,436.16171 422.23617,419.98459 Z M 196.732,331.273 c 14.14,5.487 29.485,8.273 45.794,8.273 16.181,0 31.524,-2.8 45.794,-8.317 v 18.657 c -5.531,5.783 -23.048,21.967 -45.794,21.967 -22.598,0 -40.237,-16.216 -45.794,-21.984 z M 165.457,45.361 c 18.605,-19.353 44.534,-29.165 77.07,-29.165 32.442,0 58.322,9.793 76.918,29.106 27.707,28.776 32.611,71.659 33.422,89.245 -69.062,-2.924 -132.388,-41.328 -133.041,-41.73 l -5.447,-3.351 -4.523,4.522 c -33.19,33.19 -63.757,42.509 -77.815,45.119 0.165,-13.207 2.921,-62.024 33.416,-93.746 z m -31.962,176.766 -0.841,-6.091 -6.093,-0.826 c -11.717,-1.588 -26.834,-13.453 -26.834,-23.88 0,-12.488 18.552,-13.459 24.237,-13.459 h 8.098 v -22.305 c 14.834,-2.216 48.103,-10.995 84.763,-45.763 17.497,9.815 73.821,38.599 136.169,40.961 l -0.005,27.106 h 8.098 c 5.686,0 24.237,0.97 24.237,13.459 0,10.427 -15.117,22.292 -26.833,23.88 l -6.094,0.826 -0.841,6.091 c -5.559,40.254 -27.019,72.846 -58.86,89.412 -15.154,7.839 -32.033,11.812 -50.171,11.812 -18.337,0 -35.203,-3.968 -50.155,-11.805 -31.855,-16.573 -53.315,-49.164 -58.875,-89.418 z m 305.723,254.932 v 18.745 H 45.836 v -18.699 c 0.052,-0.948 0.975,-13.94 12.483,-30.19 20.263,-28.612 57.024,-45.086 84.297,-53.868 l 0.654,-0.211 0.61,-0.319 c 3.353,-1.75 29.401,-15.505 44.481,-28.135 9.324,8.777 28.869,23.665 54.166,23.665 25.296,0 44.842,-14.888 54.166,-23.665 15.08,12.629 41.129,26.385 44.481,28.135 l 0.622,0.325 0.668,0.213 c 0.366,0.117 0.715,0.236 1.078,0.353 l 16.5632,4.70209 19.32517,7.93432 19.94651,13.58252 14.59059,12.88422 10.05097,9.77395 6.75556,10.4329 c 7.838,13.494 8.416,23.685 8.444,24.341 z m -22.50303,-48.81264 -4.4286,-6.75282 -25.48642,-20.60085 1.59777,5.22799 13.9413,10.36271 z"
   id="path1715"
   sodipodi:nodetypes="cccccccscccscccsccccccccccccccsccscccsccccccccccsscccccssscccscccccccccccsccccccccccccccccc" />
<g
   id="g1717">
</g>
<g
   id="g1719">
</g>
<g
   id="g1721">
</g>
<g
   id="g1723">
</g>
<g
   id="g1725">
</g>
<g
   id="g1727">
</g>
<g
   id="g1729">
</g>
<g
   id="g1731">
</g>
<g
   id="g1733">
</g>
<g
   id="g1735">
</g>
<g
   id="g1737">
</g>
<g
   id="g1739">
</g>
<g
   id="g1741">
</g>
<g
   id="g1743">
</g>
<g
   id="g1745">
</g>
<g
   id="g249"
   transform="matrix(0.39091778,0,0,0.34426359,276.77581,323.50869)"
   style="stroke:#000000;stroke-width:3.94166793;stroke-dasharray:none;stroke-opacity:1"><path
     style="fill:#8ae9ff;stroke:#000000;stroke-width:3.94166793;stroke-dasharray:none;stroke-opacity:1"
     d="m 222.226,472.284 c 0,18.507 -16.831,32.42 -35.018,29.002 C 150.477,494.383 116.687,476.633 89.684,449.63 54.28,414.227 34.783,367.155 34.783,317.088 c 0,-50.067 19.497,-97.139 54.901,-132.542 29.835,-29.835 67.956,-48.372 109.174,-53.466 L 179.387,111.609 C 168.024,100.246 167.327,81.731 178.375,70.06 189.837,57.951 208.95,57.753 220.662,69.465 l 71.573,71.573 c 11.518,11.518 11.518,30.192 0,41.709 l -71.573,71.573 c -5.759,5.759 -13.307,8.638 -20.855,8.638 -7.761,0 -15.521,-3.043 -21.337,-9.131 -11.136,-11.656 -10.498,-30.236 0.901,-41.635 l 21.834,-21.834 C 140.339,200.42 93.767,253.412 93.767,317.087 c 0,62.665 45.102,114.993 104.55,126.228 13.893,2.624 23.909,14.83 23.909,28.969 z"
     id="path74" /><g
     id="g82"
     style="stroke:#000000;stroke-width:3.94166793;stroke-dasharray:none;stroke-opacity:1">
	<path
   style="fill:#248a9c;stroke:#000000;stroke-width:3.94166793;stroke-dasharray:none;stroke-opacity:1"
   d="m 192.721,512 c -2.459,0 -4.933,-0.227 -7.398,-0.69 -38.98,-7.326 -74.546,-26.16 -102.853,-54.468 -37.33,-37.33 -57.888,-86.961 -57.888,-139.754 0,-52.793 20.559,-102.426 57.888,-139.755 26.649,-26.649 59.289,-44.712 95.307,-52.909 l -5.604,-5.604 c -15.297,-15.298 -15.839,-40.317 -1.208,-55.773 7.439,-7.859 17.488,-12.269 28.293,-12.417 10.815,-0.173 20.971,3.979 28.613,11.621 l 71.574,71.574 c 7.498,7.497 11.625,17.464 11.625,28.066 0,10.602 -4.129,20.569 -11.625,28.067 l -71.573,71.573 c -7.498,7.497 -17.465,11.625 -28.068,11.625 -10.946,0 -21.142,-4.363 -28.711,-12.285 -12.423,-13.004 -14.06,-32.808 -5.128,-47.912 -37.413,20.102 -62.001,59.436 -62.001,104.127 0,56.795 40.477,105.666 96.245,116.206 18.666,3.527 32.213,19.925 32.213,38.991 0,11.85 -5.23,22.985 -14.35,30.551 -7.206,5.981 -16.159,9.166 -25.351,9.166 z m 7.093,-440.975 c -0.091,0 -0.183,0 -0.273,0.002 -5.252,0.071 -10.138,2.218 -13.759,6.043 -7.108,7.509 -6.741,19.766 0.818,27.326 l 19.469,19.469 c 2.757,2.757 3.7,6.843 2.434,10.529 -1.267,3.686 -4.525,6.328 -8.394,6.805 -39.307,4.858 -74.997,22.34 -103.213,50.556 -33.477,33.476 -51.914,77.986 -51.914,125.33 0,47.343 18.436,91.854 51.914,125.33 25.39,25.391 57.271,42.281 92.197,48.845 5.691,1.071 11.51,-0.433 15.96,-4.127 4.434,-3.678 6.975,-9.091 6.975,-14.851 0,-9.27 -6.562,-17.239 -15.602,-18.947 C 131.033,440.977 83.57,383.676 83.57,317.086 c 0,-33.01 11.843,-65.01 33.349,-90.106 21.263,-24.813 50.606,-41.392 82.625,-46.685 4.372,-0.721 8.71,1.461 10.735,5.402 2.026,3.941 1.274,8.74 -1.859,11.873 l -21.834,21.834 c -7.584,7.584 -7.915,19.865 -0.738,27.377 3.683,3.854 8.641,5.978 13.962,5.978 5.154,0 9.998,-2.007 13.643,-5.651 l 71.573,-71.573 c 3.644,-3.644 5.651,-8.489 5.651,-13.642 0,-5.154 -2.007,-9.998 -5.651,-13.643 L 213.453,76.677 c -3.653,-3.651 -8.486,-5.652 -13.639,-5.652 z"
   id="path76" />
	<path
   style="fill:#248a9c;stroke:#000000;stroke-width:3.94166793;stroke-dasharray:none;stroke-opacity:1"
   d="m 229.482,218.262 c -2.61,0 -5.221,-0.995 -7.212,-2.987 -3.983,-3.983 -3.983,-10.441 0,-14.425 l 1.417,-1.417 c 3.983,-3.983 10.441,-3.983 14.425,0 3.983,3.983 3.983,10.441 0,14.425 l -1.417,1.417 c -1.992,1.992 -4.603,2.987 -7.213,2.987 z"
   id="path78" />
	<path
   style="fill:#248a9c;stroke:#000000;stroke-width:3.94166793;stroke-dasharray:none;stroke-opacity:1"
   d="m 250.8,197 c -2.61,0 -5.22,-0.995 -7.212,-2.987 -3.983,-3.983 -3.984,-10.441 0,-14.424 l 23.419,-23.42 c 3.984,-3.983 10.44,-3.984 14.425,0 3.983,3.983 3.983,10.441 0,14.424 l -23.42,23.419 C 256.02,196.003 253.41,197 250.8,197 Z"
   id="path80" />
</g><path
     style="fill:#8ae9ff;stroke:#000000;stroke-width:3.94166793;stroke-dasharray:none;stroke-opacity:1"
     d="m 289.774,39.716 c 0,-18.507 16.831,-32.42 35.018,-29.002 36.731,6.903 70.521,24.653 97.524,51.656 35.404,35.403 54.901,82.475 54.901,132.542 0,50.067 -19.497,97.139 -54.901,132.542 -29.835,29.835 -67.956,48.372 -109.174,53.466 l 19.47,19.47 c 11.363,11.363 12.06,29.878 1.012,41.549 -11.462,12.109 -30.574,12.306 -42.287,0.595 l -71.573,-71.573 c -11.518,-11.518 -11.518,-30.192 0,-41.709 l 71.573,-71.573 c 5.76,-5.759 13.307,-8.638 20.855,-8.638 7.761,0 15.521,3.043 21.337,9.131 11.136,11.656 10.498,30.236 -0.901,41.635 l -21.834,21.834 C 371.661,311.579 418.232,258.587 418.232,194.912 418.232,132.247 373.13,79.919 313.682,68.684 299.79,66.06 289.774,53.853 289.774,39.716 Z"
     id="path84" /><path
     style="fill:#248a9c;stroke:#000000;stroke-width:3.94166793;stroke-dasharray:none;stroke-opacity:1"
     d="m 312.177,461.372 c -10.599,0 -20.541,-4.115 -28.051,-11.625 l -71.573,-71.573 c -15.476,-15.476 -15.476,-40.658 0,-56.134 l 71.574,-71.573 c 7.498,-7.497 17.464,-11.625 28.067,-11.625 10.946,0 21.142,4.363 28.711,12.285 12.424,13.004 14.061,32.808 5.129,47.912 37.414,-20.102 62,-59.435 62,-104.127 0,-56.795 -40.478,-105.666 -96.246,-116.206 -18.665,-3.527 -32.212,-19.925 -32.212,-38.991 0,-11.851 5.23,-22.985 14.35,-30.551 9.137,-7.58 21.077,-10.667 32.75,-8.475 38.98,7.326 74.545,26.16 102.853,54.467 37.331,37.33 57.888,86.963 57.888,139.754 0,52.793 -20.558,102.426 -57.888,139.755 -26.649,26.649 -59.29,44.712 -95.307,52.909 l 5.603,5.603 c 15.296,15.298 15.837,40.317 1.208,55.773 -7.439,7.859 -17.488,12.269 -28.294,12.417 -0.188,0.004 -0.376,0.005 -0.562,0.005 z m 0.015,-202.132 c -5.153,0 -9.997,2.007 -13.642,5.651 l -71.574,71.573 c -7.523,7.522 -7.523,19.762 0,27.285 l 71.574,71.573 c 3.716,3.716 8.706,5.721 13.909,5.649 5.252,-0.071 10.138,-2.218 13.759,-6.043 7.108,-7.509 6.741,-19.766 -0.817,-27.326 L 305.93,388.133 c -2.756,-2.757 -3.7,-6.843 -2.433,-10.529 1.267,-3.686 4.525,-6.328 8.393,-6.805 39.306,-4.858 74.997,-22.34 103.212,-50.556 33.477,-33.476 51.914,-77.986 51.914,-125.33 0,-47.343 -18.436,-91.854 -51.914,-125.33 -25.391,-25.391 -57.271,-42.281 -92.196,-48.845 -5.694,-1.072 -11.508,0.433 -15.959,4.127 -4.434,3.677 -6.976,9.091 -6.976,14.851 0,9.27 6.561,17.239 15.601,18.947 65.394,12.359 112.857,69.659 112.857,136.25 0,33.01 -11.843,65.011 -33.349,90.106 -21.263,24.813 -50.606,41.392 -82.625,46.685 -4.366,0.721 -8.709,-1.46 -10.735,-5.402 -2.025,-3.941 -1.274,-8.74 1.859,-11.873 l 21.834,-21.834 c 7.584,-7.583 7.915,-19.865 0.738,-27.377 -3.68,-3.854 -8.639,-5.978 -13.959,-5.978 z"
     id="path86" /><g
     id="g88"
     style="stroke:#000000;stroke-width:3.94166793;stroke-dasharray:none;stroke-opacity:1">
</g><g
     id="g90"
     style="stroke:#000000;stroke-width:3.94166793;stroke-dasharray:none;stroke-opacity:1">
</g><g
     id="g92"
     style="stroke:#000000;stroke-width:3.94166793;stroke-dasharray:none;stroke-opacity:1">
</g><g
     id="g94"
     style="stroke:#000000;stroke-width:3.94166793;stroke-dasharray:none;stroke-opacity:1">
</g><g
     id="g96"
     style="stroke:#000000;stroke-width:3.94166793;stroke-dasharray:none;stroke-opacity:1">
</g><g
     id="g98"
     style="stroke:#000000;stroke-width:3.94166793;stroke-dasharray:none;stroke-opacity:1">
</g><g
     id="g100"
     style="stroke:#000000;stroke-width:3.94166793;stroke-dasharray:none;stroke-opacity:1">
</g><g
     id="g102"
     style="stroke:#000000;stroke-width:3.94166793;stroke-dasharray:none;stroke-opacity:1">
</g><g
     id="g104"
     style="stroke:#000000;stroke-width:3.94166793;stroke-dasharray:none;stroke-opacity:1">
</g><g
     id="g106"
     style="stroke:#000000;stroke-width:3.94166793;stroke-dasharray:none;stroke-opacity:1">
</g><g
     id="g108"
     style="stroke:#000000;stroke-width:3.94166793;stroke-dasharray:none;stroke-opacity:1">
</g><g
     id="g110"
     style="stroke:#000000;stroke-width:3.94166793;stroke-dasharray:none;stroke-opacity:1">
</g><g
     id="g112"
     style="stroke:#000000;stroke-width:3.94166793;stroke-dasharray:none;stroke-opacity:1">
</g><g
     id="g114"
     style="stroke:#000000;stroke-width:3.94166793;stroke-dasharray:none;stroke-opacity:1">
</g><g
     id="g116"
     style="stroke:#000000;stroke-width:3.94166793;stroke-dasharray:none;stroke-opacity:1">
</g></g></svg>
